<svg width="25" height="24" viewBox="0 0 25 24" fill="none" xmlns="http://www.w3.org/2000/svg">
<path d="M24.5 12C24.5 5.37188 19.1281 0 12.5 0C5.87188 0 0.5 5.37188 0.5 12C0.5 17.9902 4.88563 22.9547 10.6259 23.8552V15.4716H7.58141V12H10.6259V9.35672C10.6259 6.35156 12.4142 4.68844 15.1564 4.68844C16.4713 4.68844 17.8456 4.92516 17.8456 4.92516V7.87734H16.3334C14.8409 7.87734 14.3806 8.80453 14.3806 9.75141V12H17.7078L17.1753 15.4716H14.3806V23.8552C20.1144 22.9547 24.5 17.9902 24.5 12Z" fill="#1877F2"/>
<path d="M17.1681 15.4715L17.7011 12H14.3739V9.75138C14.3739 8.80451 14.8408 7.87732 16.3267 7.87732H17.8389V4.92513C17.8389 4.92513 16.4646 4.68842 15.1497 4.68842C12.408 4.68842 10.6192 6.35201 10.6192 9.3567V12H7.57471V15.4715H10.6192V23.8551C11.231 23.9536 11.8553 24 12.4933 24C13.1313 24 13.7556 23.9475 14.3674 23.8551V15.4715H17.1681Z" fill="white"/>
</svg>
