<?xml version="1.0" encoding="utf-8"?>
<!-- Generator: Adobe Illustrator 27.5.0, SVG Export Plug-In . SVG Version: 6.00 Build 0)  -->
<svg version="1.1" xmlns="http://www.w3.org/2000/svg" xmlns:xlink="http://www.w3.org/1999/xlink" x="0px" y="0px"
	 viewBox="0 0 500 500" style="enable-background:new 0 0 500 500;" xml:space="preserve">
<g id="BACKGROUND">
	<radialGradient id="SVGID_1_" cx="250" cy="250" r="250" gradientUnits="userSpaceOnUse">
		<stop  offset="0" style="stop-color:#FFFFFF"/>
		<stop  offset="0.8568" style="stop-color:#EBEBEB"/>
	</radialGradient>
	<rect style="fill:url(#SVGID_1_);" width="500" height="500"/>
</g>
<g id="OBJECTS">
	<g>
		<path style="fill:#333333;" d="M317.886,340.523l-25.72-8.354C292.166,332.169,310.84,317.935,317.886,340.523"/>
		<path style="fill:#333333;" d="M417.593,259.485l-25.72-8.354C391.873,251.131,407.762,229.898,417.593,259.485"/>
		<polyline style="fill:#333333;" points="316.199,363.841 303.437,352.158 311.378,327.744 322.331,329.705 316.199,363.841 		"/>
		<path style="fill:#333333;" d="M410.034,254.112l1.001,27.063l27.12-21.69c0,0-0.274-14.741-0.548-15.729
			c-0.274-0.988-2.718-0.577-2.718-0.577L410.034,254.112"/>
		<g>
			<path style="fill:#555555;" d="M291.225,358.501c-3.483,20.43-15.612,35.402-27.089,33.445
				c-10.605-1.809-16.947-17.426-15.104-35.895c0.151-1.526,0.359-3.075,0.623-4.635c3.483-20.43,15.612-35.402,27.089-33.445
				c5.503,0.941,9.858,5.597,12.515,12.439C292.15,337.845,293.038,347.863,291.225,358.501z"/>
			<polyline style="fill:#555555;" points="285.611,397.957 261.419,391.145 260.864,383.496 283.281,382.815 285.611,397.957 			
				"/>
			<path style="fill:#828282;" d="M313.097,364.497c-3.483,20.43-15.612,35.402-27.089,33.445
				c-10.605-1.809-16.947-17.426-15.104-35.895c0.151-1.526,0.359-3.075,0.623-4.635c3.483-20.43,15.612-35.402,27.089-33.445
				c5.503,0.941,9.858,5.597,12.515,12.439C314.022,343.841,314.909,353.859,313.097,364.497z"/>
			<path style="fill:#555555;" d="M307.795,364.082c-2.149,12.601-9.63,21.837-16.709,20.629
				c-6.541-1.116-10.453-10.749-9.316-22.14c0.093-0.941,0.221-1.896,0.384-2.859c2.149-12.601,9.63-21.837,16.709-20.629
				c3.394,0.581,6.081,3.452,7.72,7.673C308.365,351.341,308.913,357.521,307.795,364.082z"/>
			<path style="fill:#CACACA;" d="M301.412,364.113c-1.625,9.528-7.281,16.511-12.633,15.598c-4.946-0.844-7.903-8.127-7.044-16.74
				c0.07-0.712,0.167-1.434,0.29-2.161c1.625-9.528,7.281-16.511,12.633-15.598c2.566,0.439,4.598,2.61,5.837,5.801
				C301.843,354.48,302.257,359.152,301.412,364.113z"/>
		</g>
		<g>
			<path style="fill:#555555;" d="M389.564,273.766c-3.312,20.458-15.314,35.532-26.807,33.671
				c-10.62-1.72-17.092-17.283-15.405-35.767c0.138-1.527,0.333-3.077,0.584-4.64c3.312-20.458,15.314-35.532,26.807-33.671
				c5.51,0.895,9.905,5.514,12.619,12.334C390.315,253.104,391.287,263.114,389.564,273.766z"/>
			<polyline style="fill:#555555;" points="384.282,313.268 360.033,306.659 359.414,299.015 381.824,298.146 384.282,313.268 			
				"/>
			<path style="fill:#828282;" d="M411.314,279.581c-3.306,20.453-15.308,35.527-26.806,33.666
				c-9.247-1.501-15.349-13.507-15.652-28.804c-0.078-3.709,0.189-7.61,0.837-11.602c3.311-20.453,15.313-35.527,26.806-33.666
				c6.459,1.048,11.379,7.214,13.867,16.048C412.305,262.107,412.765,270.615,411.314,279.581z"/>
			<path style="fill:#555555;" d="M405.717,281.143c-2.043,12.619-9.446,21.917-16.535,20.769
				c-6.55-1.061-10.543-10.66-9.502-22.061c0.085-0.942,0.206-1.898,0.36-2.862c2.043-12.619,9.446-21.917,16.535-20.769
				c3.399,0.552,6.109,3.401,7.784,7.608C406.18,268.398,406.779,274.573,405.717,281.143z"/>
			<path style="fill:#CACACA;" d="M399.334,281.228c-1.544,9.541-7.142,16.571-12.502,15.703c-4.953-0.802-7.971-8.06-7.184-16.681
				c0.064-0.712,0.155-1.435,0.272-2.164c1.544-9.541,7.142-16.571,12.502-15.703c2.57,0.418,4.619,2.572,5.885,5.752
				C399.684,271.592,400.137,276.26,399.334,281.228z"/>
		</g>
		<path style="fill:#333333;" d="M280.066,369.597c0,0,1.283-0.462,1.831,1.911c0.548,2.373,2.921,17.312,1.643,18.878
			c-1.278,1.567-26.866,28.401-44.466,30.774c-16.883,2.277-97.492-17.402-166.865-54.316c-5.962-3.173-9.878-9.221-10.259-15.964
			c-0.306-5.413-0.007-8.084,1.623-15.333c3.651-16.246,14.011-10.408,14.011-10.408L280.066,369.597z"/>
		<path style="fill:#333333;" d="M314.038,338.977c0,0,0.502,23.769,2.161,24.864c1.659,1.095,63.316-54.615,63.316-54.615
			s5.118-13.491-0.979-17.316c-6.097-3.825,0,0,0,0l-60.65,48.613L314.038,338.977z"/>
		<g>
			<g>
				<g>
					<defs>
						<path id="SVGID_00000115480029679475142650000007914007239679387546_" d="M434.762,244.057
							c-0.312,0.827-6.763,6.588-17.168,15.427c-3.182-8.609-8.576-14.364-15.098-14.896c-11.604-0.942-22.371,15.038-24.047,35.689
							c-0.329,4.031-0.285,7.941,0.088,11.632c-18.866,15.421-40.295,32.645-60.65,48.613c-3.248-6.583-7.996-10.838-13.56-11.292
							c-11.604-0.942-22.371,15.038-24.047,35.695c-0.126,1.577-0.197,3.138-0.214,4.671c-20.098,15.033-35.574,25.695-40.81,27.25
							c-20.262,6.024-148.409-36.144-166.481-54.763c-16.172-16.665,26.429-137.281,35.558-162.44
							c1.073-2.952,3.176-5.416,5.931-6.933c26.708-14.699,170.676-93.541,187.494-94.04c18.549-0.548,117.67,24.644,118.766,32.31
							C421.619,118.649,436.405,239.676,434.762,244.057z"/>
					</defs>
					<clipPath id="SVGID_00000162349391291677400810000001609177971600703122_">
						<use xlink:href="#SVGID_00000115480029679475142650000007914007239679387546_"  style="overflow:visible;"/>
					</clipPath>
					<path style="clip-path:url(#SVGID_00000162349391291677400810000001609177971600703122_);fill:#FFFFFF;" d="M434.762,244.057
						c-0.312,0.827-6.763,6.588-17.168,15.427c-3.182-8.609-8.576-14.364-15.098-14.896c-11.604-0.942-22.371,15.038-24.047,35.689
						c-0.329,4.031-0.285,7.941,0.088,11.632c-18.866,15.421-40.295,32.645-60.65,48.613c-3.248-6.583-7.996-10.838-13.56-11.292
						c-11.604-0.942-22.371,15.038-24.047,35.695c-0.126,1.577-0.197,3.138-0.214,4.671c-20.098,15.033-35.574,25.695-40.81,27.25
						c-20.262,6.024-148.409-36.144-166.481-54.763c-16.172-16.665,26.429-137.281,35.558-162.44
						c1.073-2.952,3.176-5.416,5.931-6.933c26.708-14.699,170.676-93.541,187.494-94.04c18.549-0.548,117.67,24.644,118.766,32.31
						C421.619,118.649,436.405,239.676,434.762,244.057z"/>
					<path style="clip-path:url(#SVGID_00000162349391291677400810000001609177971600703122_);fill:#B13B3B;" d="M239.074,405.278
						c-3.629,1.112,6.846-55.477,6.846-55.477c10.162-11.494,178.174-137.625,188.969-143.306c4.169-2.194,2.718,37.26,2.718,37.26
						S269.452,395.969,239.074,405.278z"/>
				</g>
				
					<linearGradient id="SVGID_00000126317243815840044030000011711130473429302162_" gradientUnits="userSpaceOnUse" x1="203.4903" y1="90.9263" x2="454.3074" y2="300.1234">
					<stop  offset="0" style="stop-color:#FFFFFF"/>
					<stop  offset="1" style="stop-color:#A5A6A9"/>
				</linearGradient>
				<path style="fill:url(#SVGID_00000126317243815840044030000011711130473429302162_);" d="M116.884,173.613
					c-2.541,1.71-2.079,5.576,0.79,6.647c25.434,9.495,116.776,42.995,130.892,39.701c16.429-3.833,168.124-106.789,168.124-106.789
					l2.807-2.054c0,0,0.719-0.993-0.719-1.746c-1.225-0.642-60.565-20.717-103.765-28.694c-12.766-2.357-18.192-0.972-29.846,4.746
					C246.514,104.39,149.171,151.893,116.884,173.613z"/>
				<g>
					
						<linearGradient id="SVGID_00000116918125098248372140000001335796960256662431_" gradientUnits="userSpaceOnUse" x1="86.1967" y1="172.2566" x2="246.654" y2="394.0493">
						<stop  offset="0" style="stop-color:#77D2EC"/>
						<stop  offset="1" style="stop-color:#32348D"/>
					</linearGradient>
					<path style="fill:url(#SVGID_00000116918125098248372140000001335796960256662431_);" d="M101.344,199.835
						c0,0,61.335,28.112,130.337,43.446c0,0,4.771,1.324,2.921,20.08c-1.9,19.258-3.651,78.859-14.969,84.701
						c-11.318,5.841-142.385-40.525-143.845-61.335C74.327,265.917,86.375,203.486,101.344,199.835z"/>
					
						<linearGradient id="SVGID_00000008838265846977144250000014276896419413179534_" gradientUnits="userSpaceOnUse" x1="86.6661" y1="152.7917" x2="195.8281" y2="343.7338">
						<stop  offset="0" style="stop-color:#FFFFFF"/>
						<stop  offset="1" style="stop-color:#FFFFFF;stop-opacity:0"/>
					</linearGradient>
					<path style="fill:url(#SVGID_00000008838265846977144250000014276896419413179534_);" d="M101.089,202.155
						c0,0,56.148,25.734,119.313,39.771c0,0,4.368,1.212,2.674,18.382c-1.739,17.629-3.342,72.19-13.703,77.537
						c-10.361,5.347-130.342-37.098-131.679-56.147C76.357,262.647,87.386,205.497,101.089,202.155z"/>
					<path style="fill:#FFFFFF;" d="M97.818,211.22c-5.283,10.257-15.497,33.931-15.11,63.054c0.031,2.307,1.303,4.42,3.306,5.564
						l0,0c4.242,2.424,9.541-0.47,9.81-5.348c0.754-13.694,3.641-37.777,14.256-56.729c1.864-3.328,0.495-7.536-2.964-9.144
						l-0.705-0.328C103.224,206.809,99.428,208.096,97.818,211.22z"/>
					
						<ellipse transform="matrix(0.2289 -0.9734 0.9734 0.2289 -124.8785 291.5771)" style="fill:#FFFFFF;" cx="121.611" cy="224.615" rx="8.487" ry="8.487"/>
					<path style="fill:#FFFFFF;" d="M179.108,334.767c0,0,30.533,13.724,38.64,11.423c8.108-2.3,6.785-40.25,6.785-40.25
						S229.018,360.143,179.108,334.767z"/>
				</g>
				<path style="fill:#CCCCCC;" d="M72.431,299.92c0,0-4.041,18.808-3.283,27.377c0,0,20.285,15.649,27.039,14.736
					c4.416-0.597,5.731-10.744,6.908-17.672c0.632-3.715-1.327-7.382-4.763-8.928C88.599,311.051,77.952,306.263,72.431,299.92z"/>
				<path style="fill:#7BC2C2;" d="M73.646,304.069c0,0-3.42,15.919-2.779,23.173c0,0,17.17,13.246,22.887,12.473
					c3.737-0.505,4.851-9.094,5.847-14.958c0.535-3.144-1.124-6.248-4.032-7.557C87.331,313.491,78.32,309.439,73.646,304.069z"/>
				
					<linearGradient id="SVGID_00000066495768539361910370000013968089303088624308_" gradientUnits="userSpaceOnUse" x1="87.3406" y1="338.2408" x2="80.4951" y2="303.7399">
					<stop  offset="0" style="stop-color:#FFFFFF"/>
					<stop  offset="1" style="stop-color:#FFFFFF;stop-opacity:0"/>
				</linearGradient>
				<path style="fill:url(#SVGID_00000066495768539361910370000013968089303088624308_);" d="M74.709,307.302
					c0,0-2.972,13.834-2.415,20.137c0,0,14.92,11.51,19.888,10.839c3.248-0.439,4.215-7.902,5.081-12.999
					c0.464-2.732-0.976-5.43-3.504-6.567C86.602,315.49,78.771,311.969,74.709,307.302z"/>
				<path style="fill:#61A19E;" d="M74.519,317.382c-0.304,1.932-0.58,4.118-0.623,5.881c-0.023,0.931,0.407,1.811,1.161,2.357
					c2.958,2.142,10.894,7.69,13.322,7.362c1.961-0.265,2.548-4.765,3.071-7.848c0.281-1.657-0.582-3.297-2.115-3.987
					c-2.964-1.334-7.251-3.518-10.45-5.668C77.167,314.324,74.84,315.337,74.519,317.382z"/>
				
					<linearGradient id="SVGID_00000075857173085823865170000005235877348289878656_" gradientUnits="userSpaceOnUse" x1="75.9941" y1="323.9947" x2="88.3833" y2="323.9947">
					<stop  offset="0" style="stop-color:#FFFFFF"/>
					<stop  offset="1" style="stop-color:#FFFFFF;stop-opacity:0"/>
				</linearGradient>
				<path style="fill:url(#SVGID_00000075857173085823865170000005235877348289878656_);" d="M76.433,319.342
					c-0.214,1.359-0.408,2.897-0.438,4.138c-0.016,0.655,0.286,1.274,0.817,1.658c2.081,1.508,7.665,5.411,9.374,5.18
					c1.38-0.186,1.793-3.353,2.161-5.522c0.198-1.166-0.41-2.32-1.488-2.806c-2.086-0.939-5.102-2.475-7.353-3.988
					C78.296,317.19,76.66,317.903,76.433,319.342z"/>
				<g>
					<path style="fill:#CCCCCC;" d="M219.701,356.455c0,0,2.862,19.465-0.581,27.679c0,0-40.939-7.463-44.94-12.98
						c-2.616-3.607-4.548-14.514-0.347-20.148c2.252-3.021,6.258-4.134,9.748-2.716C193.469,352.309,211.3,356.838,219.701,356.455z
						"/>
					<path style="fill:#7BC2C2;" d="M217.405,357.723c0,0,2.584,17.571-0.525,24.986c0,0-36.955-6.737-40.568-11.717
						c-2.361-3.256-4.106-13.102-0.314-18.188c2.033-2.727,5.649-3.732,8.8-2.451C193.725,353.98,209.82,358.069,217.405,357.723z"
						/>
					
						<linearGradient id="SVGID_00000166665027480834377460000000351327987993715586_" gradientUnits="userSpaceOnUse" x1="187.0619" y1="339.8314" x2="194.6375" y2="360.459">
						<stop  offset="0" style="stop-color:#FFFFFF"/>
						<stop  offset="1" style="stop-color:#FFFFFF;stop-opacity:0"/>
					</linearGradient>
					<path style="fill:url(#SVGID_00000166665027480834377460000000351327987993715586_);" d="M215.468,358.282
						c0,0,2.414,16.419-0.49,23.348c0,0-34.533-6.295-37.908-10.949c-2.207-3.042-3.836-12.243-0.293-16.995
						c1.9-2.548,5.278-3.487,8.223-2.291C193.341,354.785,208.382,358.605,215.468,358.282z"/>
				</g>
				<path style="fill:#CCCCCC;" d="M114.545,325.534c-2.374-1.128-5.177,0.261-5.691,2.838c-1.266,6.341-3.038,16.531-1.668,17.91
					c1.883,1.897,28.971,16.143,51.003,21.37c2.305,0.547,4.575-1.036,4.897-3.383l2.059-15.02c0.263-1.915-0.869-3.745-2.699-4.366
					C154.946,342.337,135.127,335.312,114.545,325.534z"/>
				<path style="fill:#61A19E;" d="M186.013,356.905c4.819,1.592,14.808,4.615,23.304,5.392c2.113,0.193,3.705,2,3.606,4.119
					l-0.297,6.356c-0.11,2.352-2.238,4.089-4.564,3.719c-5.739-0.915-15.934-2.787-23.065-5.482
					c-1.781-0.673-3.09-2.212-3.455-4.081c-0.407-2.083-0.707-4.951-0.07-7.527C181.975,357.37,184.027,356.249,186.013,356.905z"/>
				
					<linearGradient id="SVGID_00000083779020677486139010000006218872963861144248_" gradientUnits="userSpaceOnUse" x1="187.1071" y1="366.8599" x2="206.925" y2="366.8599">
					<stop  offset="0" style="stop-color:#FFFFFF"/>
					<stop  offset="1" style="stop-color:#FFFFFF;stop-opacity:0"/>
				</linearGradient>
				<path style="fill:url(#SVGID_00000083779020677486139010000006218872963861144248_);" d="M190.164,360.804
					c3.001,0.991,9.222,2.874,14.512,3.358c1.316,0.12,2.307,1.245,2.246,2.565l-0.185,3.958c-0.068,1.465-1.394,2.547-2.842,2.316
					c-3.574-0.57-9.923-1.736-14.364-3.414c-1.109-0.419-1.924-1.377-2.152-2.541c-0.253-1.297-0.44-3.083-0.044-4.688
					C187.649,361.094,188.927,360.396,190.164,360.804z"/>
				
					<linearGradient id="SVGID_00000066473264766537734630000011267222092224608649_" gradientUnits="userSpaceOnUse" x1="254.4535" y1="224.78" x2="237.4768" y2="426.3089">
					<stop  offset="0" style="stop-color:#FFFFFF"/>
					<stop  offset="1" style="stop-color:#A5A6A9"/>
				</linearGradient>
				<path style="fill:url(#SVGID_00000066473264766537734630000011267222092224608649_);" d="M249.662,226.715
					c0,0,4.016,78.494-10.588,162.1C239.074,388.815,260.615,320.543,249.662,226.715z"/>
				
					<linearGradient id="SVGID_00000032612536122806310720000013139816040053698454_" gradientUnits="userSpaceOnUse" x1="254.5879" y1="209.3095" x2="314.8277" y2="308.4313">
					<stop  offset="0" style="stop-color:#77D2EC"/>
					<stop  offset="1" style="stop-color:#32348D"/>
				</linearGradient>
				<path style="fill:url(#SVGID_00000032612536122806310720000013139816040053698454_);" d="M267.45,233.102
					c0,0,39.44-27.927,42.999-26.557c3.56,1.369,5.75,70.097,5.75,70.097l-55.06,38.352
					C261.139,314.994,264.702,237.48,267.45,233.102z"/>
				
					<linearGradient id="SVGID_00000090997208712823955760000001589199058391724713_" gradientUnits="userSpaceOnUse" x1="297.5875" y1="165.86" x2="484.879" y2="247.4576">
					<stop  offset="0" style="stop-color:#77D2EC"/>
					<stop  offset="1" style="stop-color:#32348D"/>
				</linearGradient>
				<path style="fill:url(#SVGID_00000090997208712823955760000001589199058391724713_);" d="M334.068,195.549
					c-0.27-3.555,1.318-6.994,4.2-9.093c16.422-11.966,70.958-51.467,73.128-49.918c2.556,1.825,8.28,64.237,8.28,64.237
					l-80.568,62.084C339.109,262.859,335.763,217.84,334.068,195.549z"/>
				
					<linearGradient id="SVGID_00000012464130348599345530000014576956373840249248_" gradientUnits="userSpaceOnUse" x1="405.5574" y1="142.7521" x2="345.0439" y2="262.4098">
					<stop  offset="0" style="stop-color:#FFFFFF"/>
					<stop  offset="1" style="stop-color:#FFFFFF;stop-opacity:0"/>
				</linearGradient>
				<path style="fill:url(#SVGID_00000012464130348599345530000014576956373840249248_);" d="M338.845,195.878
					c-0.249-3.272,1.213-6.437,3.866-8.369c15.114-11.013,65.308-47.369,67.305-45.942c2.352,1.68,7.621,59.121,7.621,59.121
					l-74.152,57.14C343.484,257.828,340.404,216.393,338.845,195.878z"/>
				
					<linearGradient id="SVGID_00000070106274846551758640000012886291456294544285_" gradientUnits="userSpaceOnUse" x1="321.6958" y1="176.9614" x2="267.4798" y2="317.9774">
					<stop  offset="0" style="stop-color:#FFFFFF"/>
					<stop  offset="1" style="stop-color:#FFFFFF;stop-opacity:0"/>
				</linearGradient>
				<path style="fill:url(#SVGID_00000070106274846551758640000012886291456294544285_);" d="M270.107,234.2
					c0,0,34.151-24.517,37.969-23.913c3.818,0.604,5.841,63.915,5.841,63.915l-48.922,35.024
					C264.996,309.226,267.313,239.108,270.107,234.2z"/>
				<path style="fill:#FFFFFF;" d="M276.765,236.452c0.09-1.175,0.674-2.254,1.61-2.971c5.526-4.236,24.86-18.918,26.735-18.449
					c2.19,0.548,3.56,10.542-1.78,14.375c-3.354,2.408-13.352,9.461-20.324,14.374c-2.867,2.02-6.789-0.211-6.52-3.708
					L276.765,236.452z"/>
				<path style="fill:#FFFFFF;" d="M350.986,189.915l36.732-26.175c3.113-2.218,7.432,0.007,7.432,3.83l0,0
					c0,1.493-0.709,2.898-1.91,3.784l-36.652,27.045c-2.947,2.174-7.139,0.295-7.475-3.352l-0.08-0.87
					C348.878,192.51,349.622,190.886,350.986,189.915z"/>
				<path style="fill:#FFFFFF;" d="M408.476,159.721c0,3.125-2.043,5.659-4.564,5.659c-2.52,0-4.564-2.534-4.564-5.659
					s2.043-5.659,4.564-5.659C406.433,154.062,408.476,156.596,408.476,159.721z"/>
			</g>
		</g>
		<path style="opacity:0.78;fill:#B13B3B;" d="M179.108,142.961c0,0-9.294-2.191-22.985,3.833c0,0-9.219,4.769-11.318,12.927
			l55.426,17.807c8.998-7.378,19.581-12.74,29.524-18.935L179.108,142.961z"/>
		<path style="fill:#B13B3B;" d="M181.807,145.348c0,0-8.475-1.998-20.96,3.496c0,0-8.407,4.349-10.321,11.788l50.546,16.239
			c8.205-6.729,17.857-11.618,26.924-17.268L181.807,145.348z"/>
		<g style="opacity:0.56;">
			<path style="fill:#6DAEC9;" d="M294.975,178.723l-65.219-20.129c-9.943,6.195-20.526,11.557-29.524,18.935l62.863,20.196
				L294.975,178.723z"/>
			<path style="fill:#61A3AA;" d="M263.095,197.725c0,0,1.513-8.806,13.378-16.634c11.865-7.827,18.502-2.368,18.502-2.368
				L263.095,197.725z"/>
		</g>
		<g>
			<path style="fill:#6DAEC9;" d="M289.896,178.663l-58.226-17.971c-8.877,5.531-18.326,10.318-26.359,16.905l56.123,18.031
				L289.896,178.663z"/>
			<path style="fill:#61A3AA;" d="M261.434,195.627c0,0,1.351-7.862,11.944-14.85c10.593-6.988,16.518-2.114,16.518-2.114
				L261.434,195.627z"/>
		</g>
		
			<linearGradient id="SVGID_00000061451281308057569570000011931729099556793783_" gradientUnits="userSpaceOnUse" x1="219.7032" y1="162.804" x2="202.4527" y2="184.1618">
			<stop  offset="0" style="stop-color:#FFFFFF"/>
			<stop  offset="1" style="stop-color:#A5A6A9"/>
		</linearGradient>
		<path style="fill:url(#SVGID_00000061451281308057569570000011931729099556793783_);" d="M190.756,174.484
			c0,0,8.607-16.215,28.676-19.077l21.025,6.489c0,0-22.58,5.428-27.444,19.738L190.756,174.484z"/>
		<g>
			<polygon style="fill:#B13B3B;" points="245.921,135.382 310.101,97.69 350.095,107.183 282.193,145.975 			"/>
			<polygon style="fill:#B13B3B;" points="245.393,117.023 319.224,142.695 350.622,123.971 277.622,100.97 			"/>
		</g>
		
			<linearGradient id="SVGID_00000108273790219036540510000016237789385143614890_" gradientUnits="userSpaceOnUse" x1="153.2894" y1="154.8678" x2="208.8604" y2="154.8678">
			<stop  offset="0" style="stop-color:#FFFFFF"/>
			<stop  offset="1" style="stop-color:#FFFFFF;stop-opacity:0"/>
		</linearGradient>
		<path style="fill:url(#SVGID_00000108273790219036540510000016237789385143614890_);" d="M154.117,150.676
			c4.122-3.447,12.437-8.618,23.866-6.921c0.121,0.018,0.242,0.046,0.358,0.081l28.872,8.755c2.163,0.656,2.21,3.718,0.06,4.415
			c-4.162,1.35-8.965,3.839-12.683,8.427c-0.603,0.744-1.589,1.062-2.504,0.777l-37.162-11.548
			C153.173,154.118,152.711,151.852,154.117,150.676z"/>
		
			<linearGradient id="SVGID_00000155839050392924021370000013570326061533558456_" gradientUnits="userSpaceOnUse" x1="223.2617" y1="176.4217" x2="276.1797" y2="176.4217">
			<stop  offset="0" style="stop-color:#FFFFFF"/>
			<stop  offset="1" style="stop-color:#FFFFFF;stop-opacity:0"/>
		</linearGradient>
		<path style="fill:url(#SVGID_00000155839050392924021370000013570326061533558456_);" d="M223.952,173.411
			c3.524-3.289,10.306-8.693,17.549-9.504c0.294-0.033,0.592,0.001,0.874,0.088l32.278,9.962c1.967,0.607,2.055,3.348,0.134,4.089
			c-3.76,1.451-8.146,4.314-11.819,9.912c-0.54,0.823-1.559,1.19-2.494,0.882l-35.725-11.788
			C223.186,176.536,222.748,174.535,223.952,173.411z"/>
		
			<linearGradient id="SVGID_00000041987487485273785930000004488372938749225644_" gradientUnits="userSpaceOnUse" x1="63.3224" y1="370.3958" x2="274.9603" y2="370.3958">
			<stop  offset="0" style="stop-color:#FFFFFF"/>
			<stop  offset="1" style="stop-color:#FFFFFF;stop-opacity:0"/>
		</linearGradient>
		<path style="opacity:0.25;fill:url(#SVGID_00000041987487485273785930000004488372938749225644_);" d="M66.129,333.903
			c0,0-7.302,7.119,13.326,17.707c20.628,10.588,115.003,50.656,156.897,49.561c0,0,11.981-1.037,38.608-23.457
			c0,0-18.529,24.826-39.932,28.933c-21.403,4.107-150.645-45.513-167.348-56.846C67.681,349.801,59.01,343.396,66.129,333.903z"/>
		
			<linearGradient id="SVGID_00000001627784154004307680000018443433344959623825_" gradientUnits="userSpaceOnUse" x1="256.8884" y1="280.0764" x2="426.2901" y2="280.0764">
			<stop  offset="0" style="stop-color:#FFFFFF"/>
			<stop  offset="1" style="stop-color:#FFFFFF;stop-opacity:0"/>
		</linearGradient>
		<path style="fill:url(#SVGID_00000001627784154004307680000018443433344959623825_);" d="M256.888,345.132l169.402-130.11
			C426.29,215.021,279.524,333.359,256.888,345.132z"/>
	</g>
</g>
<g id="DESIGNED_BY_FREEPIK">
	<g>
		<g id="XMLID_319_">
			<g id="XMLID_338_">
				<path id="XMLID_346_" style="fill:#1D262D;" d="M260.104,465.465c-0.432,0.443-0.803,0.931-1.108,1.453l-0.465-0.241
					c-0.067-0.298-0.349-0.503-0.659-0.466c-0.331,0.039-0.568,0.339-0.529,0.67c0.039,0.331,0.339,0.568,0.67,0.529
					c0.066-0.008,0.127-0.026,0.184-0.052l0.451,0.234c-0.251,0.554-0.433,1.139-0.539,1.744l0.747,0.132
					c0.23-1.306,0.85-2.507,1.792-3.473L260.104,465.465z"/>
				<path id="XMLID_345_" style="fill:#1D262D;" d="M265.592,463.163c-0.171,0-0.341,0.006-0.51,0.017l-0.074-0.626
					c0.188-0.149,0.296-0.389,0.266-0.645c-0.046-0.393-0.402-0.674-0.795-0.628c-0.393,0.046-0.674,0.402-0.628,0.795
					c0.03,0.254,0.189,0.461,0.404,0.564l0.074,0.624c-0.714,0.116-1.403,0.332-2.06,0.646l0.327,0.684
					c0.934-0.447,1.942-0.673,2.995-0.673c0.496,0,0.993,0.053,1.475,0.158l0.161-0.741
					C266.692,463.222,266.142,463.163,265.592,463.163z"/>
				<path id="XMLID_344_" style="fill:#1D262D;" d="M272.194,465.711c0.331-0.04,0.566-0.341,0.526-0.672
					c-0.04-0.331-0.341-0.566-0.672-0.526c-0.309,0.038-0.535,0.304-0.53,0.609l-0.416,0.363c-0.418-0.43-0.889-0.813-1.408-1.139
					l-0.404,0.641c1.134,0.715,2.021,1.726,2.563,2.925l0.69-0.313c-0.251-0.554-0.567-1.072-0.942-1.545l0.402-0.351
					C272.065,465.716,272.129,465.719,272.194,465.711z"/>
				<path id="XMLID_343_" style="fill:#1D262D;" d="M265.044,473.372c-0.386,0.023-0.775,0.035-1.157,0.035
					c-0.88,0-1.733-0.061-2.478-0.179c-0.39-0.062-0.846-0.155-1.27-0.292c1.046,1.861,3.069,3.125,5.388,3.125
					c2.855,0,5.262-1.916,5.95-4.504c-0.682,0.449-1.505,0.825-2.459,1.123C267.839,473.047,266.463,473.286,265.044,473.372z"/>
				<path id="XMLID_339_" style="fill:#1D262D;" d="M265.592,464.68c-3.352,0-6.08,2.666-6.08,5.943
					c0,0.426,0.046,0.849,0.137,1.261c0.673,0.483,2.706,0.89,5.348,0.731c2.879-0.173,5.297-0.957,6.672-2.159
					c-0.006-0.195-0.021-0.39-0.045-0.582C271.244,466.913,268.65,464.68,265.592,464.68z M263.432,471.194
					c-1.02,0-1.85-0.83-1.85-1.85c0-1.02,0.83-1.85,1.85-1.85c1.02,0,1.85,0.83,1.85,1.85
					C265.282,470.365,264.452,471.194,263.432,471.194z M268.17,470.286c-0.75,0-1.36-0.61-1.36-1.36s0.61-1.361,1.36-1.361
					c0.75,0,1.361,0.61,1.361,1.361S268.92,470.286,268.17,470.286z"/>
			</g>
			<path id="XMLID_336_" style="fill:#1D262D;" d="M281.595,466.547c-0.295-0.116-0.805-0.309-1.382-0.237
				c-0.551,0.069-0.844,0.341-0.844,1.007v0.866h2.228v1.717h-2.228v5.455h-1.932v-5.455h-1.34v-1.717h1.34v-0.888
				c0-1.68,0.896-2.783,2.568-2.783c0.643,0,1.157,0.122,1.59,0.308L281.595,466.547z"/>
			<path id="XMLID_334_" style="fill:#1D262D;" d="M286.298,469.879c-0.177-0.03-0.358-0.046-0.526-0.046
				c-0.896,0-1.51,0.548-1.51,1.614v3.908h-1.932v-7.172h1.873v0.785c0.451-0.673,1.14-0.977,2.021-0.977
				c0.414,0,0.848,0.128,1.094,0.337L286.298,469.879z"/>
			<path id="XMLID_331_" style="fill:#1D262D;" d="M293.965,471.757c0,0.222-0.015,0.489-0.037,0.651h-5.085
				c0.207,1.036,0.933,1.488,1.843,1.488c0.622,0,1.295-0.252,1.813-0.688l1.133,1.243c-0.814,0.748-1.85,1.088-3.057,1.088
				c-2.198,0-3.723-1.495-3.723-3.753c0-2.258,1.48-3.797,3.627-3.797C292.544,467.99,293.958,469.522,293.965,471.757z
				 M288.851,471.091h3.175c-0.177-0.918-0.733-1.436-1.562-1.436C289.554,469.655,289.021,470.203,288.851,471.091z"/>
			<path id="XMLID_328_" style="fill:#1D262D;" d="M301.618,471.757c0,0.222-0.015,0.489-0.037,0.651h-5.085
				c0.207,1.036,0.933,1.488,1.843,1.488c0.622,0,1.295-0.252,1.814-0.688l1.132,1.243c-0.814,0.748-1.85,1.088-3.057,1.088
				c-2.198,0-3.723-1.495-3.723-3.753c0-2.258,1.48-3.797,3.627-3.797C300.197,467.99,301.611,469.522,301.618,471.757z
				 M296.504,471.091h3.175c-0.178-0.918-0.733-1.436-1.562-1.436C297.207,469.655,296.674,470.203,296.504,471.091z"/>
			<path id="XMLID_325_" style="fill:#1D262D;" d="M309.964,471.764c0,2.154-1.495,3.775-3.471,3.775
				c-0.962,0-1.643-0.378-2.109-0.933v3.708h-1.924v-10.133h1.887v0.792c0.466-0.585,1.155-0.984,2.139-0.984
				C308.469,467.99,309.964,469.61,309.964,471.764z M304.287,471.764c0,1.132,0.748,1.976,1.843,1.976
				c1.14,0,1.85-0.881,1.85-1.976c0-1.095-0.71-1.976-1.85-1.976C305.035,469.788,304.287,470.632,304.287,471.764z"/>
			<path id="XMLID_322_" style="fill:#1D262D;" d="M313.068,465.836c0,0.696-0.54,1.229-1.236,1.229
				c-0.696,0-1.229-0.533-1.229-1.229c0-0.696,0.533-1.243,1.229-1.243C312.527,464.592,313.068,465.14,313.068,465.836z
				 M312.809,475.354h-1.932v-7.172h1.932V475.354z"/>
			<path id="XMLID_320_" style="fill:#1D262D;" d="M316.032,470.736l2.701-2.554h2.368l-3.479,3.375l3.501,3.797h-2.376
				l-2.716-2.901v2.901H314.1v-10.658h1.932V470.736z"/>
		</g>
		<g>
			<path style="fill:#1D262D;" d="M184.412,475.289v-1.055c-0.527,0.718-1.391,1.23-2.387,1.23c-1.846,0-3.149-1.406-3.149-3.706
				c0-2.256,1.289-3.721,3.149-3.721c0.952,0,1.816,0.469,2.387,1.245v-3.765h1.099v9.77H184.412z M184.412,473.37v-3.208
				c-0.395-0.615-1.245-1.143-2.124-1.143c-1.421,0-2.27,1.172-2.27,2.739c0,1.567,0.85,2.724,2.27,2.724
				C183.168,474.483,184.017,473.986,184.412,473.37z"/>
			<path style="fill:#1D262D;" d="M186.932,471.744c0-2.051,1.465-3.706,3.486-3.706c2.139,0,3.398,1.67,3.398,3.794v0.279h-5.727
				c0.088,1.333,1.025,2.446,2.549,2.446c0.805,0,1.626-0.322,2.182-0.894l0.527,0.718c-0.703,0.703-1.655,1.084-2.812,1.084
				C188.44,475.465,186.932,473.956,186.932,471.744z M190.403,468.947c-1.509,0-2.256,1.274-2.314,2.358h4.643
				C192.718,470.25,192.015,468.947,190.403,468.947z"/>
			<path style="fill:#1D262D;" d="M194.607,474.351l0.571-0.791c0.469,0.542,1.362,1.011,2.329,1.011c1.084,0,1.67-0.513,1.67-1.216
				c0-1.714-4.38-0.659-4.38-3.281c0-1.098,0.952-2.036,2.636-2.036c1.201,0,2.051,0.454,2.622,1.026l-0.513,0.762
				c-0.424-0.513-1.201-0.894-2.109-0.894c-0.967,0-1.567,0.483-1.567,1.113c0,1.552,4.38,0.527,4.38,3.281
				c0,1.187-0.952,2.138-2.783,2.138C196.306,475.465,195.325,475.113,194.607,474.351z"/>
			<path style="fill:#1D262D;" d="M201.477,466.471c0-0.41,0.337-0.747,0.732-0.747c0.41,0,0.747,0.337,0.747,0.747
				c0,0.41-0.337,0.732-0.747,0.732C201.814,467.203,201.477,466.881,201.477,466.471z M201.667,475.289v-7.075h1.099v7.075H201.667
				z"/>
			<path style="fill:#1D262D;" d="M204.582,477.105l0.556-0.82c0.586,0.703,1.289,0.967,2.3,0.967c1.172,0,2.27-0.571,2.27-2.124
				v-1.011c-0.513,0.718-1.377,1.26-2.373,1.26c-1.845,0-3.149-1.377-3.149-3.662c0-2.27,1.289-3.677,3.149-3.677
				c0.952,0,1.802,0.469,2.373,1.245v-1.069h1.098v6.87c0,2.344-1.641,3.076-3.369,3.076
				C206.237,478.16,205.417,477.926,204.582,477.105z M209.709,473.253v-3.091c-0.381-0.615-1.23-1.143-2.109-1.143
				c-1.421,0-2.27,1.128-2.27,2.695c0,1.553,0.849,2.695,2.27,2.695C208.478,474.41,209.328,473.868,209.709,473.253z"/>
			<path style="fill:#1D262D;" d="M217.413,475.289v-4.629c0-1.245-0.63-1.641-1.582-1.641c-0.865,0-1.685,0.527-2.095,1.099v5.17
				h-1.099v-7.075h1.099v1.025c0.498-0.586,1.464-1.201,2.519-1.201c1.48,0,2.256,0.747,2.256,2.285v4.966H217.413z"/>
			<path style="fill:#1D262D;" d="M219.932,471.744c0-2.051,1.465-3.706,3.486-3.706c2.139,0,3.398,1.67,3.398,3.794v0.279h-5.727
				c0.088,1.333,1.025,2.446,2.549,2.446c0.806,0,1.626-0.322,2.183-0.894l0.527,0.718c-0.703,0.703-1.655,1.084-2.812,1.084
				C221.441,475.465,219.932,473.956,219.932,471.744z M223.404,468.947c-1.509,0-2.256,1.274-2.314,2.358h4.643
				C225.718,470.25,225.015,468.947,223.404,468.947z"/>
			<path style="fill:#1D262D;" d="M233.35,475.289v-1.055c-0.527,0.718-1.392,1.23-2.388,1.23c-1.846,0-3.149-1.406-3.149-3.706
				c0-2.256,1.289-3.721,3.149-3.721c0.952,0,1.817,0.469,2.388,1.245v-3.765h1.098v9.77H233.35z M233.35,473.37v-3.208
				c-0.396-0.615-1.245-1.143-2.124-1.143c-1.421,0-2.27,1.172-2.27,2.739c0,1.567,0.849,2.724,2.27,2.724
				C232.105,474.483,232.954,473.986,233.35,473.37z"/>
			<path style="fill:#1D262D;" d="M239.692,475.289v-9.77h1.098v3.765c0.572-0.776,1.421-1.245,2.388-1.245
				c1.845,0,3.149,1.465,3.149,3.721c0,2.299-1.304,3.706-3.149,3.706c-0.996,0-1.86-0.513-2.388-1.23v1.055H239.692z
				 M242.9,474.483c1.436,0,2.285-1.157,2.285-2.724c0-1.568-0.85-2.739-2.285-2.739c-0.864,0-1.728,0.527-2.109,1.143v3.208
				C241.171,473.986,242.036,474.483,242.9,474.483z"/>
			<path style="fill:#1D262D;" d="M247.528,477.061c0.161,0.073,0.425,0.117,0.601,0.117c0.483,0,0.805-0.161,1.055-0.747
				l0.469-1.069l-2.959-7.148h1.187l2.358,5.8l2.344-5.8h1.201l-3.545,8.51c-0.425,1.025-1.143,1.421-2.08,1.435
				c-0.234,0-0.601-0.044-0.805-0.103L247.528,477.061z"/>
		</g>
	</g>
</g>
</svg>
