<svg width="32" height="40" viewBox="0 0 32 40" fill="none" xmlns="http://www.w3.org/2000/svg">
<g clip-path="url(#clip0_27_6328)">
<path d="M7.09147 33.4983C6.58588 33.0086 6.00239 32.6048 5.53656 32.0738C5.48409 32.0197 5.43162 31.9672 5.37916 31.9148V31.8766C5.37757 31.8639 5.37757 31.8512 5.37757 31.8369C5.35213 31.8369 5.32669 31.8353 5.29966 31.8353C5.27422 31.8035 5.2472 31.7717 5.22176 31.7399C4.75592 31.1691 4.28213 30.6031 3.93872 29.9465C3.50309 29.115 3.19465 28.2421 3.06587 27.2993C2.80672 25.374 3.38067 23.6314 4.1295 21.908C4.31393 21.4851 4.62714 21.121 4.72412 20.6615C4.73366 20.625 4.74002 20.5868 4.74479 20.5486V20.3865V20.2736C4.74479 18.7902 4.73843 17.3037 4.74638 15.8203C4.74956 15.4197 4.77659 15.0174 4.82111 14.6199C4.88788 14.0349 5.21063 13.6263 5.7496 13.3894C6.00239 12.8822 6.38397 12.5356 6.95633 12.4243C7.07398 12.3512 7.26318 12.3702 7.32836 12.2287C7.32995 12.1969 7.33631 12.162 7.35062 12.1206C7.34108 11.0522 7.72742 10.1031 8.22029 9.1857C8.2346 9.16026 8.24732 9.13482 8.26163 9.10938C8.2823 9.10779 8.30296 9.1062 8.32522 9.10143C8.33794 9.07281 8.35066 9.0442 8.36338 9.01558C8.37451 8.99014 8.38564 8.9647 8.39677 8.93926C8.59868 8.74053 8.71475 8.46547 8.95959 8.30649C9.33003 7.81521 9.81654 7.46702 10.3492 7.17607C10.4748 7.10771 10.5924 7.02821 10.7132 6.9519C10.6735 6.58464 10.7609 6.21101 10.6576 5.84693C10.2553 4.41603 8.79583 3.70375 7.38401 4.24591C6.61927 4.53845 5.85612 4.83735 5.08344 5.10922C4.4761 5.32385 3.96416 4.94705 3.94985 4.29996C3.9419 3.92952 3.96257 3.55748 3.94508 3.18863C3.92441 2.77049 4.03093 2.3444 3.87671 1.93262C3.84014 3.00579 3.48242 3.53523 2.63024 3.80392C2.48556 3.84843 2.34406 3.84843 2.19938 3.8532V3.9327C2.19938 5.60208 2.19938 7.27147 2.20097 8.94085H2.19938V8.94244V8.95834V9.09984H2.20097C2.21687 9.11892 2.23117 9.138 2.24389 9.15708C2.33452 9.29858 2.32657 9.46393 2.32657 9.62609C2.32816 13.0396 2.32816 16.4515 2.32657 19.8634C2.32657 20.0224 2.33134 20.183 2.25343 20.3292C2.24071 20.3451 2.22641 20.3594 2.2121 20.3738C2.2121 20.3753 2.21369 20.3769 2.21369 20.3785C2.21528 20.3817 2.21687 20.3849 2.21846 20.3881C2.23912 20.4405 2.24071 20.493 2.21846 20.547C2.21687 20.5502 2.21528 20.555 2.21369 20.5582C2.21369 20.5598 2.21369 20.5598 2.2121 20.5614C2.22482 20.5757 2.23912 20.5916 2.25343 20.6059C2.34724 20.7919 2.32657 20.9938 2.32657 21.1894C2.32816 24.5234 2.32816 27.8558 2.32657 31.1898C2.32657 31.4044 2.35996 31.6318 2.2121 31.8194C2.21369 31.821 2.21369 31.8225 2.21369 31.8225C2.21687 31.8273 2.21846 31.8305 2.21846 31.8353C2.23435 31.8718 2.23912 31.9084 2.22641 31.945C2.22641 31.9466 2.22641 31.9466 2.22641 31.9466C2.22164 31.9625 2.2121 31.9784 2.20097 31.9927L2.19938 31.9943C2.16758 33.2423 2.33929 34.4506 3.05951 35.5047C4.07068 36.9833 5.48409 37.7592 7.28702 37.7974C7.31087 36.2122 7.33631 34.6255 7.35539 33.0404C7.35698 32.8989 7.39196 32.7463 7.29497 32.6175C7.29179 32.8798 7.2902 33.1406 7.28384 33.4029C7.27908 33.5476 7.20753 33.6112 7.09147 33.4983Z" fill="#89BCE5"/>
<path d="M3.05979 35.5047C2.33957 34.4506 2.16787 33.2423 2.19966 31.9943C2.19013 31.9927 2.18059 31.9927 2.17105 31.9927C2.16946 31.9943 2.16946 31.9943 2.16787 31.9959C1.97867 32.5762 2.10586 33.1676 2.22351 33.7193C2.7132 36.0135 4.45731 37.6209 6.83578 37.8912C6.99477 37.9102 7.15535 37.9166 7.28731 37.7974C5.48438 37.7592 4.07096 36.9833 3.05979 35.5047Z" fill="#75ABDC"/>
<path d="M29.3201 36.5526C29.2979 36.5605 29.2756 36.5621 29.2517 36.5589C29.2422 36.5589 29.2327 36.5573 29.2231 36.5557C29.2184 36.5542 29.2152 36.5542 29.2104 36.5526C28.6778 36.1169 28.1945 35.6352 27.7716 35.0915C27.6205 34.8975 27.541 34.6749 27.5426 34.4301C27.549 33.4014 27.08 32.6716 26.1705 32.209C26.0004 32.1215 25.9607 32.0929 26.0131 32.0182C25.9972 32.0103 25.9813 32.0039 25.9654 31.9975C25.8875 31.9944 25.8096 31.9928 25.7333 31.9896C25.63 31.899 25.4646 31.9991 25.3486 31.9467H25.285C25.1928 31.9435 25.0974 31.9482 25.0083 31.9292H25.0067C24.9447 31.9164 24.8859 31.8926 24.8319 31.8465C24.8207 31.8322 24.8128 31.8179 24.8048 31.8036C24.7683 31.7877 24.7333 31.7718 24.6983 31.7559C24.6824 31.7431 24.6681 31.7272 24.657 31.7114C24.6506 31.705 24.6458 31.697 24.6411 31.6891C24.3104 31.7002 24.277 31.4172 24.2134 31.1867C24.1625 30.9975 24.1943 30.794 24.1911 30.5968C24.1911 30.5046 24.1911 30.4124 24.1816 30.3202C24.1212 29.7685 23.8159 29.4378 23.3882 29.4617C22.9574 29.4855 22.6394 29.8877 22.6712 30.4315C22.6919 30.7844 22.7348 31.1374 22.7602 31.4919C22.7682 31.5969 22.7936 31.7018 22.7396 31.7972C22.7348 31.8099 22.7268 31.8211 22.7173 31.8322L22.703 31.8385C22.7268 31.891 22.7507 31.9403 22.7745 31.9912L22.7904 31.9959C22.7904 32.0118 22.7904 32.0261 22.7936 32.0405C22.8047 32.1359 22.8667 32.209 22.9272 32.2742C23.1879 32.5556 23.0496 32.6891 22.7618 32.8084C22.3548 32.9753 21.9478 32.9992 21.5249 32.8847C21.2991 32.8227 21.0797 32.7066 20.838 32.7416C20.4342 32.8004 20.1703 33.0834 20.0972 33.5095C20.0431 33.8259 20.2577 34.2091 20.6139 34.3617C21.3309 34.6685 22.0718 34.7687 22.8477 34.5891C23.5774 34.4205 24.1625 34.023 24.6856 33.5143C24.6888 33.5111 24.6919 33.5079 24.6951 33.5047L24.6983 33.5191C24.7269 33.5175 24.7555 33.5159 24.7842 33.5143C24.8064 33.5127 24.8287 33.5111 24.8509 33.5095C24.8541 33.5318 24.8573 33.5556 24.8605 33.5779C25.7285 33.589 25.9352 33.8068 25.9734 34.6813C26.0036 35.376 26.3407 35.9405 26.8001 36.4365C27.1769 36.8435 27.568 37.2378 27.9528 37.6385C28.2374 37.7752 28.3471 38.1409 28.6889 38.2029C28.7128 38.1997 28.7366 38.1981 28.7605 38.1981C28.7827 38.1743 28.7986 38.1488 28.8082 38.1186C29.0959 37.9628 29.2883 37.6862 29.5491 37.4938C29.7128 37.4381 29.778 37.3014 29.8352 37.1567C29.8193 37.1567 29.8018 37.1551 29.7828 37.152C29.7732 36.8435 29.4282 36.7895 29.3201 36.5526Z" fill="#C34761"/>
<path d="M26.1702 32.2089C27.0796 32.6715 27.5486 33.4013 27.5423 34.4299C27.5407 34.6748 27.6202 34.8974 27.7712 35.0913C28.1941 35.6351 28.6774 36.1168 29.2101 36.5524C29.2148 36.554 29.218 36.554 29.2228 36.5556C29.226 36.5445 29.2291 36.5318 29.2307 36.519C28.9748 36.2535 28.7299 35.9753 28.4612 35.7225C27.9572 35.2487 27.5168 34.7543 27.6313 33.9863C27.6392 33.9387 27.6122 33.8846 27.5995 33.8337C27.3912 32.9434 26.8348 32.3615 26.0128 32.0181C25.9603 32.0928 26.0001 32.1214 26.1702 32.2089Z" fill="#C34761"/>
<path d="M8.9597 8.30657C8.9756 8.32724 8.98832 8.34632 8.99786 8.36699C9.09166 8.54824 9.00422 8.75174 9.03602 8.94094C8.97242 8.97592 8.95652 9.03315 8.95811 9.09834C8.96765 9.09834 8.97878 9.09834 8.98832 9.09993C9.00422 9.09993 9.01853 9.10152 9.03443 9.10311C10.0679 9.10311 11.0997 9.10152 12.1331 9.09993L12.1347 9.09834C12.1363 9.09516 12.1379 9.09039 12.1411 9.08721C12.1649 9.03951 12.1888 8.99182 12.2126 8.94571C12.2126 8.94571 12.2126 8.94571 12.211 8.94571L12.2174 8.93776C12.494 8.48464 12.812 8.06809 13.246 7.7517C13.2476 7.72467 13.2476 7.69765 13.2492 7.67062C13.2794 7.65472 13.3112 7.63882 13.343 7.62292C13.3637 7.61179 13.3844 7.60066 13.405 7.59112C13.4082 7.56568 13.4114 7.54184 13.413 7.51799C13.8725 7.30017 14.2715 6.97266 14.7533 6.79777C14.8359 6.76915 14.917 6.69919 15.0013 6.73576C15.0235 6.74371 15.0458 6.75961 15.0697 6.78664C15.227 6.66581 15.3829 6.54497 15.5387 6.42414C14.8296 6.37804 14.1205 6.39553 13.4114 6.4146C13.4114 6.4146 13.4114 6.4146 13.4114 6.41301C13.3573 6.40347 13.3017 6.39553 13.2476 6.38599C13.1125 6.41619 12.9583 6.36214 12.8374 6.46707H12.8359C12.087 6.44799 11.4018 6.71032 10.7118 6.95199C10.5909 7.0283 10.4733 7.1078 10.3477 7.17616C9.81665 7.46711 9.33015 7.8153 8.9597 8.30657Z" fill="#F19C79"/>
<path d="M24.8525 37.7942L24.8568 37.7985L24.854 37.7942H24.8525Z" fill="#D9596B"/>
<path d="M27.9527 37.6384C27.9241 37.6448 27.8939 37.6496 27.8652 37.6543L27.8875 37.6766C28.0115 37.7942 28.1292 37.9167 28.2548 38.0311C28.3756 38.1408 28.4821 38.303 28.6888 38.2028C28.347 38.1408 28.2373 37.7752 27.9527 37.6384Z" fill="#D9596B"/>
<path d="M6.83568 37.891C4.45721 37.6207 2.7131 36.0133 2.22341 33.7191C2.10576 33.1674 1.97857 32.576 2.16777 31.9957C2.16936 31.9941 2.16936 31.9941 2.17095 31.9925C2.18049 31.9925 2.19002 31.9925 2.19956 31.9941L2.20115 31.9925V31.9639C2.20115 31.9209 2.20115 31.878 2.19956 31.8351C1.92769 31.8542 1.96108 31.6618 1.96108 31.4917V29.0528C1.96108 26.3468 1.95949 23.6392 1.96267 20.9332C1.96267 20.7647 1.88795 20.5326 2.19956 20.5469V20.3879C1.92292 20.407 1.96108 20.2098 1.96108 20.0413V9.11079C1.9579 9.10761 1.95472 9.10602 1.95154 9.10443C1.91497 9.12351 1.87841 9.141 1.84025 9.16008C1.82753 9.16644 1.81481 9.1728 1.80209 9.17916C1.81004 9.16803 1.8164 9.15849 1.82594 9.14895C1.87046 9.0933 1.91179 9.08217 1.95154 9.10443C1.95472 9.10284 1.9579 9.10125 1.96108 9.09966C1.98811 9.0472 2.01355 8.99473 2.04058 8.94067H2.0835C2.08827 8.91524 2.08827 8.88821 2.0835 8.85959C2.0835 8.76261 2.08191 8.66562 2.08191 8.56864C2.0835 8.70219 2.09463 8.83256 2.18367 8.94067H2.19956H2.20115C2.19956 7.27129 2.19956 5.6019 2.19956 3.93252C2.13756 3.98181 2.10735 4.04063 2.09145 4.10423C2.09145 4.08197 2.09304 4.05812 2.09304 4.03586C2.09781 4.00089 2.10735 3.9675 2.12007 3.93411C2.12325 3.92298 2.12802 3.91344 2.13279 3.90231C2.13915 3.89277 2.14551 3.88323 2.15187 3.87369C2.15664 3.86733 2.163 3.86098 2.16777 3.85462C2.24567 3.77035 2.36332 3.76081 2.46985 3.73219C3.295 3.50325 3.6718 3.06126 3.76879 2.21703C3.77991 2.1121 3.77991 2.00398 3.8769 1.93244C3.8451 1.09457 2.84188 0.231256 1.79891 0.579442C1.08187 0.736841 0.539719 1.3569 0.534949 2.10733C0.52541 4.38405 0.538129 6.66077 0.541309 8.93908V31.8335V31.9957C0.538129 34.3869 0.536539 36.7796 0.52541 39.1708C0.52382 39.4236 0.619214 39.4888 0.851338 39.4761C1.16773 39.4602 1.48411 39.4666 1.80209 39.4634C1.84025 39.4141 1.86251 39.3616 1.87364 39.3076C1.89113 39.3632 1.91815 39.4141 1.96108 39.4634C3.64 39.4666 5.31893 39.465 6.99626 39.4777C7.257 39.4793 7.30311 39.368 7.29675 39.1454C7.28403 38.6955 7.29039 38.2471 7.28721 37.7972C7.15525 37.9164 6.99467 37.9101 6.83568 37.891ZM2.07873 6.21401C2.08032 6.93582 2.0835 7.65763 2.08191 8.37944C2.07714 7.65763 2.07873 6.93582 2.07873 6.21401ZM1.72101 1.5461C1.77506 1.49522 1.83071 1.44275 1.88477 1.39029C1.89749 1.38711 1.90861 1.38393 1.92133 1.38075C2.42533 1.25992 2.91819 1.48727 3.05016 1.91177C3.19801 2.38874 2.96589 2.80847 2.45554 3.01038C2.27906 3.08034 2.12007 3.06444 1.95949 2.98018H1.95313C1.942 2.98813 1.93246 2.99766 1.92292 3.01038C1.92292 2.99925 1.92292 2.98972 1.91974 2.97859C1.90702 2.977 1.8959 2.977 1.88318 2.977C1.82912 2.92453 1.77506 2.87206 1.72101 2.82119C1.26312 2.42848 1.26312 1.9388 1.72101 1.5461ZM1.88159 34.8909C1.87046 34.8909 1.85933 34.8893 1.8482 34.8845C1.8323 34.8797 1.8164 34.8702 1.80209 34.8559H1.8482H1.88159H1.96108C1.93564 34.8797 1.90861 34.8909 1.88159 34.8909Z" fill="#75ABDC"/>
<path d="M3.76899 2.21721C3.672 3.06144 3.2952 3.50343 2.47005 3.73237C2.36353 3.76099 2.24587 3.77053 2.16797 3.85479C2.17751 3.85479 2.18864 3.85479 2.19977 3.8532C2.34445 3.84843 2.48595 3.84843 2.63063 3.80392C3.48281 3.53523 3.84053 3.00579 3.8771 1.93262C3.78012 2.00416 3.78012 2.11227 3.76899 2.21721Z" fill="#75ABDC"/>
<path d="M2.20048 20.5471H2.19971L2.20048 20.5479V20.5471Z" fill="#8AB6E1"/>
<path d="M27.0161 20.5391C26.9875 20.4882 26.9573 20.4374 26.9287 20.3865C26.889 20.4183 26.8476 20.4389 26.8047 20.4517C26.8778 20.4676 26.9494 20.493 27.0161 20.5391Z" fill="#E98291"/>
<path d="M7.26991 32.0134C7.26991 32.0118 7.26832 32.0102 7.26832 32.0086C7.24289 32.007 7.21745 32.0038 7.19201 31.999C7.17452 31.972 7.15862 31.9434 7.14113 31.9148C7.12841 31.8925 7.1141 31.8719 7.10139 31.8496C7.05687 31.8257 7.01076 31.8003 6.96465 31.7765C6.94399 31.7558 6.92173 31.7351 6.90106 31.7129C5.76429 30.5793 4.8024 29.3233 4.25071 27.7922C4.03608 27.1976 3.8755 26.5886 3.87232 25.9479C3.77693 25.3883 3.81349 24.8318 3.9375 24.2801C4.19984 22.9907 4.64024 21.7617 5.22691 20.5852C5.22532 20.582 5.22373 20.5789 5.22214 20.5757C5.22055 20.5773 5.21896 20.5789 5.21737 20.5805L5.16649 20.7092L5.01068 20.6504C4.93914 20.6599 4.866 20.6599 4.79287 20.6599C4.84851 20.8682 4.69111 21.032 4.60208 21.2021C4.03131 22.2832 3.58932 23.4105 3.31586 24.6045C2.75145 27.064 3.35402 29.2326 4.90416 31.1787C5.05043 31.3599 5.26506 31.5078 5.29527 31.7637C5.31276 31.7701 5.32866 31.778 5.34456 31.7876C5.36364 31.8003 5.37794 31.8162 5.3843 31.8321C5.38589 31.8337 5.38589 31.8353 5.38589 31.8369C5.39066 31.8496 5.39225 31.8623 5.39066 31.8782C5.45744 31.8925 5.51309 31.9323 5.56237 31.9831C5.56714 31.9879 5.5735 31.9927 5.57827 31.999C5.59417 32.0165 5.61166 32.0324 5.62915 32.0483C6.09816 32.5189 6.61647 32.9371 7.12841 33.387C7.2715 33.1247 7.08867 32.829 7.29535 32.6175C7.29853 32.4633 7.3033 32.3107 7.30648 32.1564C7.25878 32.1087 7.24765 32.0611 7.26991 32.0134Z" fill="#75ABDC"/>
<path d="M7.1281 33.387C6.61616 32.9371 6.09785 32.5189 5.62883 32.0483C5.59704 32.0563 5.56683 32.0642 5.53662 32.0738C6.00246 32.6048 6.58595 33.0086 7.09153 33.4983C7.2076 33.6112 7.27914 33.5476 7.28391 33.4029C7.29027 33.1406 7.29186 32.8799 7.29504 32.6175C7.08835 32.829 7.27119 33.1247 7.1281 33.387Z" fill="#75ABDC"/>
<path d="M7.30637 32.1565C7.29365 32.1088 7.28252 32.0611 7.2698 32.0134C7.24754 32.0611 7.25867 32.1088 7.30637 32.1565Z" fill="#75ABDC"/>
<path d="M1.82609 9.14902C1.81656 9.15855 1.8102 9.16809 1.80225 9.17922C1.81497 9.17286 1.82768 9.1665 1.8404 9.16014C1.87856 9.14107 1.91513 9.12358 1.9517 9.1045C1.91195 9.08224 1.87061 9.09337 1.82609 9.14902Z" fill="#84B3E0"/>
<path d="M1.9231 3.01056C1.93264 2.99784 1.94218 2.9883 1.95331 2.98035C1.94218 2.97876 1.93105 2.97876 1.91992 2.97876C1.9231 2.98989 1.9231 2.99943 1.9231 3.01056Z" fill="#84B3E0"/>
<path d="M2.15191 3.87394C2.14556 3.88348 2.1392 3.89302 2.13284 3.90256C2.12807 3.91369 2.1233 3.92323 2.12012 3.93436C2.14238 3.93118 2.1694 3.93118 2.19961 3.93277V3.85327C2.18848 3.85486 2.17735 3.85486 2.16781 3.85486C2.16304 3.86122 2.15668 3.86758 2.15191 3.87394Z" fill="#84B3E0"/>
<path d="M25.7329 31.9894C25.8093 31.9925 25.8872 31.9941 25.9651 31.9973H26.0287C26.0398 31.983 26.0557 31.9655 26.0732 31.9464H25.9015C25.8363 31.9146 25.76 31.9194 25.6868 31.9162C25.655 31.9162 25.6216 31.9146 25.5898 31.9162C25.6232 31.9194 25.6566 31.929 25.6852 31.9464C25.7027 31.9576 25.7186 31.9719 25.7329 31.9894Z" fill="#EC7987"/>
<path d="M31.2515 31.9243C31.3278 31.9386 31.3961 31.9768 31.4407 32.0737C31.447 31.9593 31.4582 31.8432 31.385 31.7415C31.358 31.8416 31.3103 31.8957 31.2515 31.9243Z" fill="#EC7987"/>
<path d="M1.84835 34.856H1.80225C1.81656 34.8703 1.83245 34.8798 1.84835 34.8846C1.85948 34.8893 1.87061 34.8909 1.88174 34.8909C1.90877 34.8909 1.9358 34.8798 1.96124 34.856H1.88174H1.84835Z" fill="#82B2E0"/>
<path d="M1.80225 39.4634H1.96124C1.91831 39.4141 1.89128 39.3633 1.87379 39.3076C1.86266 39.3617 1.8404 39.4141 1.80225 39.4634Z" fill="#82B2E0"/>
<path d="M13.1616 35.9753C13.2459 36.0198 13.3286 36.0659 13.4128 36.1104C13.3604 36.0452 13.3238 35.9721 13.3095 35.8926C13.2872 35.9323 13.2427 35.9625 13.1616 35.9753Z" fill="#DA7385"/>
<path d="M13.4051 33.5031C13.3733 33.4857 13.3399 33.4698 13.3081 33.4539C13.3208 33.492 13.3272 33.5302 13.3272 33.5699V33.6669C13.3288 33.6494 13.3304 33.6303 13.332 33.6128C13.359 33.5715 13.386 33.5413 13.413 33.5206V33.5095V33.5079H13.4114C13.4114 33.5063 13.4051 33.5031 13.4051 33.5031Z" fill="#DA7385"/>
<path d="M8.96449 14.3561C8.9629 14.3561 8.96131 14.3545 8.95972 14.3545C8.95813 14.3609 8.95813 14.3688 8.95654 14.3752C8.95654 14.3736 8.95654 14.3736 8.95654 14.372C8.95972 14.3672 8.9629 14.3609 8.96449 14.3561Z" fill="#F06977"/>
<path d="M31.4408 32.0736C31.3963 31.9766 31.328 31.9385 31.2516 31.9242C31.3105 31.8956 31.3582 31.8415 31.3852 31.7413C31.3852 31.5696 31.3709 31.4011 31.3216 31.2326C30.657 28.9574 29.8382 26.7364 28.9225 24.5519C28.3485 23.1846 27.7332 21.8379 27.0162 20.539C26.9494 20.4929 26.8779 20.4674 26.8047 20.4515C26.8476 20.4388 26.889 20.4181 26.9287 20.3863C26.358 19.2432 25.6823 18.1637 24.9302 17.1318C24.9064 17.073 24.8825 17.0158 24.8587 16.957C24.8062 16.9061 24.7538 16.8536 24.7013 16.8027C24.6774 16.7503 24.6536 16.6978 24.6297 16.6469C24.6154 16.4911 24.5041 16.3894 24.4215 16.2717C23.8634 15.472 23.1416 14.8217 22.4421 14.1572C21.8554 13.5975 21.1686 13.1619 20.4261 12.8296C20.2973 12.7708 20.1431 12.6484 20.0016 12.7644C20.0032 12.7644 20.0032 12.766 20.0048 12.766C20.0063 13.4131 20.027 14.0618 20.0032 14.7073C19.9269 16.8059 20.4006 18.7297 21.752 20.3848C21.7807 20.3863 21.8077 20.3879 21.8347 20.3911C21.8363 20.3911 21.8363 20.3911 21.8379 20.3911C21.8363 20.3927 21.8363 20.3927 21.8363 20.3943C21.8617 20.442 21.8872 20.4929 21.9126 20.5422L21.9158 20.5501V20.5517C21.9317 20.5692 21.9444 20.5883 21.9587 20.6058C22.1463 20.8474 22.3276 21.0923 22.4866 21.3546C22.7362 21.7632 22.547 22.0684 22.2195 22.3451C21.9222 22.5979 21.4945 22.5995 21.2035 22.3356C20.6344 21.8172 20.1685 21.2099 19.7726 20.5517C19.744 20.5485 19.7154 20.5453 19.6884 20.5422C19.6693 20.5119 19.6582 20.4833 19.6566 20.4547C19.6216 20.4468 19.585 20.442 19.55 20.4404H19.5262C19.55 20.4293 19.5723 20.4166 19.5946 20.3959C19.5866 20.3927 19.5803 20.3879 19.5723 20.3832C19.5659 20.38 19.5612 20.3752 19.5548 20.3704C19.019 19.6407 18.7758 18.7837 18.5516 17.9284C18.2734 16.86 18.2034 15.7645 18.2193 14.6627C18.2289 14.0538 18.2177 13.4449 18.2225 12.836C18.2241 12.6674 18.1986 12.4878 18.3401 12.351C18.3386 12.1269 18.3354 11.9027 18.337 11.6785C18.3433 10.9821 18.6279 10.6848 19.3147 10.6785C20.0668 10.6705 20.8204 10.6848 21.5724 10.6689C22.8443 10.6435 23.7251 10.0855 24.0765 9.10449C24.0971 9.10449 24.1162 9.1029 24.1353 9.09813C24.1369 9.04566 24.1369 8.99161 24.1369 8.93914C24.7267 7.21411 23.5168 5.58765 21.6376 5.58606C20.5803 5.58447 19.523 5.59878 18.4657 5.59083C17.4069 5.58129 16.4291 5.84044 15.5403 6.42234C15.3845 6.54318 15.2287 6.66401 15.0713 6.78484C14.3384 7.33653 13.8932 8.09332 13.5657 8.92801C13.5673 8.93278 13.5705 8.93596 13.5737 8.94073V8.94232C13.5784 8.95186 13.5848 8.9614 13.5911 8.97094C13.6118 9.01068 13.615 9.05361 13.607 9.09813C13.6055 9.10449 13.6039 9.11085 13.6023 9.1188C13.6007 9.12198 13.5991 9.12357 13.5991 9.12675C13.4846 9.35569 13.5323 9.61166 13.4767 9.85015C13.4337 9.98688 13.4496 10.13 13.4274 10.2683C13.4194 10.3192 13.4194 10.378 13.4051 10.4273V9.81517C13.2191 10.0234 13.4353 10.3192 13.2557 10.5306H13.2541C13.2541 10.5322 13.2541 10.5322 13.2525 10.5338C13.2493 11.4575 13.2445 12.3813 13.2398 13.305V13.332C13.2461 13.6436 13.2525 13.9568 13.2589 14.2669V14.2859C13.2589 15.3861 13.2589 16.4879 13.2604 17.5881V17.6072C13.2525 18.0826 13.2461 18.5596 13.2398 19.0365C13.2207 19.2273 13.1889 19.4117 13.1348 19.5819C13.0474 19.8601 12.898 20.1033 12.6324 20.2766C12.5784 20.3132 12.518 20.345 12.4528 20.3752C12.4273 20.3816 12.4019 20.3879 12.3765 20.3927C12.324 20.4436 12.2715 20.4945 12.2191 20.5437C12.2191 20.5453 12.2207 20.5469 12.2207 20.5469H12.2159C12.1841 20.5517 12.1539 20.5565 12.1221 20.5612H12.1205C11.8566 20.8124 11.4861 20.7298 11.1856 20.8633C11.184 20.8426 11.1825 20.8236 11.1793 20.8029C11.1793 20.7997 11.1777 20.7949 11.1777 20.7918C11.0219 20.7902 10.8645 20.7886 10.7087 20.787C10.4988 20.8124 10.3223 20.7218 10.1506 20.6232C10.0695 20.5962 9.99004 20.5692 9.91055 20.5422V20.4738V20.469C9.91055 20.4436 9.91055 20.4181 9.90896 20.3911C9.88352 20.3863 9.85649 20.38 9.82946 20.3752H9.74679C9.71817 20.3545 9.68955 20.3307 9.66093 20.3069H9.65934C9.19987 19.9205 8.93912 19.4245 8.9264 18.7885C8.9264 17.9586 8.92163 17.1271 8.92799 16.2987C8.93753 16.2844 8.94707 16.2701 8.95661 16.2542C8.95661 16.9903 8.95343 17.7281 8.9582 18.4642C8.95979 18.6025 8.90574 18.7567 9.03293 18.8744C9.03293 17.9745 9.03293 17.0762 9.03293 16.1763C9.03134 16.1779 9.02975 16.1795 9.02975 16.1795C9.03134 16.1779 9.03134 16.1763 9.03293 16.1747C9.03452 16.1223 9.03611 16.0682 9.0377 16.0157V15.8933V15.631V15.6199C8.8326 15.1969 9.0536 14.7709 9.02816 14.3464C9.02816 14.3464 9.02816 14.3464 9.02657 14.3464C9.00749 14.3464 8.98841 14.3448 8.97092 14.3432C8.96933 14.3479 8.96774 14.3511 8.96456 14.3559C8.96138 14.3607 8.95979 14.367 8.9582 14.3718C8.9582 14.375 8.9582 14.3766 8.95661 14.3797C8.93912 14.5276 8.90097 14.6755 8.87394 14.8233C8.87076 14.8392 8.86917 14.8535 8.86599 14.8694C8.86758 14.8631 8.86758 14.8567 8.86917 14.8504C8.87076 14.8424 8.87235 14.8345 8.87235 14.8281C8.78172 15.1508 8.60843 15.4227 8.22049 15.5642C8.18234 15.5547 8.1569 15.5356 8.13623 15.5086C8.13623 15.5102 8.13464 15.5102 8.13464 15.5117C8.12987 15.5213 8.12351 15.5292 8.11874 15.5372C8.11715 15.5404 8.11397 15.5451 8.11238 15.5483C8.11079 15.5515 8.10761 15.5547 8.10602 15.5563C8.10125 15.5626 8.09648 15.5706 8.09171 15.5769C8.09012 15.5801 8.08694 15.5833 8.08535 15.5865C8.07899 15.5928 8.07263 15.5992 8.06627 15.604C8.0615 15.6071 8.05832 15.6119 8.05356 15.6151C8.04084 15.6262 8.02653 15.6342 8.01063 15.6389C7.9677 15.658 7.91365 15.6532 7.84528 15.6183C7.79122 15.6437 7.73717 15.6707 7.68311 15.6962C7.57659 15.8281 7.42873 15.7582 7.29836 15.7788C7.29518 15.7788 7.292 15.7804 7.28882 15.7804C7.28882 16.0952 7.29041 16.4116 7.29041 16.728C7.29041 16.7296 7.29041 16.7296 7.29041 16.7312H7.28723C7.28723 16.7375 7.28723 16.7423 7.28882 16.7487C7.30313 16.7566 7.31903 16.7614 7.33493 16.7678C7.44304 17.4403 7.4812 18.108 7.12188 18.7265C6.82457 19.2353 6.71805 19.8299 6.40643 20.3307C6.39689 20.3466 6.38735 20.3609 6.37781 20.3768C6.37622 20.3784 6.37463 20.38 6.37304 20.38C6.34283 20.4038 6.31104 20.4102 6.27606 20.4007C6.29514 20.4388 6.29673 20.4786 6.28083 20.5215C6.28083 20.5278 6.27924 20.5342 6.27606 20.5406C6.27447 20.5453 6.27288 20.5485 6.27129 20.5533C6.25062 20.5724 6.22995 20.5883 6.2061 20.6026C6.25698 20.7107 6.21564 20.822 6.1759 20.9237C5.73391 22.0732 5.57969 23.264 5.65918 24.4883C5.66236 24.5232 5.65918 24.5566 5.65282 24.5884C6.49864 24.8539 7.32539 25.1703 8.24116 25.1369C8.95343 25.1115 9.44471 24.8031 9.74202 24.1671C9.80402 24.0351 9.85808 23.9 9.9344 23.776C10.1808 23.3785 10.6769 23.202 11.1093 23.3563C11.5179 23.5025 11.731 23.8952 11.6674 24.3801C11.634 24.6329 11.5338 24.8651 11.4098 25.0829C11.2842 25.3055 11.3494 25.4136 11.5815 25.4867C11.9583 25.6044 12.3494 25.6839 12.7008 25.8794C12.8868 25.9828 13.0474 26.1036 13.1587 26.2737C13.1921 26.323 13.2191 26.3755 13.243 26.4327C13.2445 26.4581 13.2493 26.4804 13.2573 26.5058C13.2716 26.4979 13.2843 26.4963 13.2954 26.4995C13.3304 26.5042 13.3511 26.5456 13.3622 26.6012C13.3829 26.6998 13.3399 26.8095 13.4051 26.9017C13.2763 26.8175 13.3686 26.6521 13.2954 26.5472V27.199C13.2763 27.1704 13.2573 27.1513 13.2398 27.1402C13.2382 27.1386 13.2382 27.1386 13.2382 27.1386C12.8598 27.6108 12.4099 27.7221 11.8375 27.4836C11.2906 27.2547 10.7087 27.1068 10.1554 26.8906C9.76905 26.7395 9.42086 26.7189 9.01544 26.8604C8.26342 27.1211 7.50345 26.9637 6.75779 26.7634C6.62106 26.7284 6.48274 26.6982 6.34442 26.6648C6.40643 27.0623 6.63219 27.3914 6.83888 27.7221C7.64654 29.0099 8.71177 30.064 9.86762 31.0386C10.1395 31.266 10.4893 31.4202 10.6657 31.7525C10.7134 31.77 10.7532 31.797 10.7866 31.8367H10.7913C10.7898 31.8383 10.7898 31.8383 10.7898 31.8383V31.8399C10.8072 31.8558 10.8231 31.8733 10.8406 31.8892C10.874 31.8908 10.9074 31.8956 10.9408 31.9035C10.9933 31.9337 11.0441 31.9655 11.0966 31.9957C11.1252 32.0132 11.1538 32.0291 11.1809 32.0466H11.1825C11.184 32.0482 11.184 32.0482 11.1856 32.0482C11.8804 32.4616 12.5752 32.8733 13.2159 33.3694C13.2271 33.3757 13.2382 33.3853 13.2477 33.3932C13.2573 33.3996 13.2668 33.4075 13.2763 33.4155C13.3177 33.4044 13.3527 33.4219 13.3845 33.4489C13.3876 33.4521 13.3892 33.4537 13.3924 33.4568C13.3956 33.468 13.4004 33.4775 13.4051 33.487C13.4067 33.4934 13.4099 33.4998 13.4131 33.5061V33.5077C13.4163 33.5093 13.4194 33.5109 13.4226 33.5125C13.553 33.4234 13.6834 33.5538 13.8042 33.6158C15.2589 34.3774 16.7248 35.1167 18.2638 35.6906C20.2703 36.4395 22.2624 37.2439 24.3865 37.6255C24.5057 37.6462 24.6186 37.6828 24.6981 37.7686C24.7013 37.7718 24.7045 37.775 24.7077 37.7797C24.7474 37.7352 24.7712 37.6891 24.7856 37.6382C24.7935 37.6907 24.811 37.74 24.8492 37.7861C24.8507 37.7845 24.8523 37.7829 24.8539 37.7813C24.9907 37.6684 25.1592 37.678 25.3214 37.6748C26.0734 37.6637 26.827 37.7114 27.5726 37.5667C27.6426 37.5524 27.711 37.5508 27.7777 37.5651C27.4439 37.2281 27.1004 36.8989 26.7745 36.5555C26.2355 35.9832 25.8842 35.3297 25.8603 34.5173C25.8428 33.9465 25.66 33.77 25.0813 33.6778C25.0018 33.6651 24.9223 33.6556 24.8603 33.611C24.8539 33.6063 24.8476 33.6015 24.8412 33.5952C24.8142 33.6254 24.7983 33.6587 24.7887 33.6953C24.7744 33.6349 24.749 33.5761 24.7029 33.5236C24.7013 33.522 24.6997 33.522 24.6981 33.5204C24.6933 33.5188 24.6902 33.5157 24.6854 33.5125C24.1623 34.0212 23.5772 34.4187 22.8475 34.5872C22.0716 34.7669 21.3307 34.6667 20.6137 34.3599C20.2576 34.2073 20.0429 33.8241 20.097 33.5077C20.1701 33.0816 20.434 32.7986 20.8379 32.7398C21.0795 32.7048 21.2989 32.8209 21.5247 32.8829C21.9476 32.9974 22.3546 32.9735 22.7616 32.8066C23.0494 32.6873 23.1877 32.5538 22.927 32.2724C22.8666 32.2072 22.8046 32.134 22.7934 32.0386C22.7887 32.0371 22.7839 32.0339 22.7791 32.0307C22.7632 32.018 22.7489 32.0037 22.7362 31.9894H22.7743C22.7505 31.9385 22.7267 31.8892 22.7028 31.8367L22.7171 31.8304C22.7155 31.8272 22.7155 31.8224 22.7139 31.8192C22.582 31.3773 22.6297 30.9162 22.5661 30.4662C22.5136 30.0958 22.6074 29.7174 22.9524 29.4932C23.5645 29.0974 24.2339 29.4916 24.2927 30.2771C24.3118 30.5394 24.2943 30.8033 24.299 31.0672C24.3022 31.3264 24.3929 31.5362 24.6234 31.6555C24.6441 31.6666 24.6663 31.6762 24.6886 31.6857C24.6886 31.6936 24.6902 31.7032 24.6918 31.7111C24.7236 31.7159 24.7522 31.727 24.7776 31.7445H24.7792C24.8078 31.7636 24.8317 31.789 24.8523 31.8224C24.9859 31.8272 25.1194 31.8304 25.253 31.8351C25.307 31.9051 25.3802 31.913 25.4581 31.913C25.4931 31.913 25.5233 31.9099 25.5567 31.9146H25.59C25.6218 31.913 25.6552 31.9146 25.687 31.9146C25.7602 31.9178 25.8365 31.913 25.9017 31.9448H26.0734C26.0559 31.9639 26.04 31.9814 26.0289 31.9957C26.0225 32.0037 26.0161 32.01 26.013 32.0164C26.8349 32.3598 27.3914 32.9417 27.5997 33.832C27.6124 33.8829 27.6394 33.937 27.6315 33.9847C27.517 34.7526 27.9574 35.247 28.4614 35.7208C28.7301 35.9736 28.9749 36.2519 29.2309 36.5174C29.2563 36.5205 29.2818 36.5221 29.3072 36.5221C29.5854 36.0181 30.0656 36.1326 30.5092 36.131C30.4964 36.1517 30.4853 36.174 30.4726 36.1946C30.5107 36.1787 30.5425 36.1549 30.5664 36.1215C31.2485 34.8575 31.5887 33.5172 31.4408 32.0736ZM21.1225 6.56543C21.7489 6.34126 22.3864 6.40327 22.8888 6.89454C23.3022 7.29837 23.5089 7.80078 23.3801 8.39858C23.3403 8.57823 23.3022 8.7563 23.2624 8.93596H23.2577C23.2354 8.93914 23.2116 8.94232 23.1877 8.9455C23.1877 8.99638 23.1861 9.04725 23.1861 9.09813H23.167C23.1448 9.09972 23.1241 9.09972 23.1035 9.10131C22.3944 9.99165 21.2306 10.0568 20.4531 9.24758C20.4197 9.21419 20.4197 9.15059 20.4038 9.10131C20.3784 9.09972 20.3514 9.09813 20.3259 9.09654H20.3211C20.2957 9.04566 20.2703 8.99479 20.2448 8.94232V8.93914H20.2242C20.2289 8.93278 20.2337 8.92801 20.2369 8.92165C19.7631 7.85801 20.1987 6.89772 21.1225 6.56543ZM8.90892 15.4799C8.90733 15.4752 8.90415 15.4688 8.90097 15.464C8.90415 15.4688 8.90733 15.4736 8.90892 15.4799ZM8.86281 15.3432C8.86122 15.3353 8.85963 15.3273 8.85804 15.321C8.85963 15.3289 8.86122 15.3353 8.86281 15.3432ZM13.4051 30.4042H13.2525V30.3899C13.2573 30.3852 13.262 30.3836 13.2684 30.382C13.297 30.3391 13.3113 30.2945 13.3193 30.2468C13.3336 30.2945 13.3542 30.3406 13.3892 30.3836C13.3956 30.3852 13.4004 30.3883 13.4051 30.3915V30.4042ZM13.2954 23.5979C13.2811 23.5947 13.2668 23.59 13.2541 23.582C13.2509 23.5804 13.2477 23.5773 13.2445 23.5757C13.2477 23.5725 13.2509 23.5693 13.2541 23.5661H13.2954H13.4035C13.3654 23.5932 13.3288 23.6043 13.2954 23.5979ZM15.7931 20.5422V20.4674V20.434V20.3927C15.8059 20.4054 15.8154 20.4197 15.8202 20.434C15.8249 20.4452 15.8281 20.4563 15.8281 20.4674C15.8281 20.4929 15.8154 20.5183 15.7931 20.5422ZM26.5774 28.2197C26.3293 28.5059 25.8126 28.5377 25.4724 28.2801C25.2657 28.1212 25.0654 27.9558 24.8619 27.7921C24.8587 27.7921 24.8571 27.7936 24.8539 27.7952V27.7857C24.8507 27.7825 24.8476 27.7793 24.8444 27.7746H24.8428C24.7967 27.7523 24.749 27.7316 24.7029 27.7094C24.7029 27.7094 24.7013 27.7094 24.6997 27.711C24.6997 27.7094 24.6997 27.7094 24.6997 27.7078L24.6933 27.6919C24.687 27.6887 24.6822 27.6871 24.6759 27.6839C23.8459 27.2881 22.9381 27.2276 22.0557 27.0671C21.5772 26.9796 21.0954 26.9065 20.6375 26.7348C20.2385 26.5853 19.9682 26.199 20.0207 25.8651C20.0938 25.4136 20.4134 25.1147 20.8808 25.0797C21.9842 24.9954 22.9015 24.5582 23.6122 23.6901C23.8825 23.361 24.2418 23.3404 24.6154 23.4612C24.6409 23.4691 24.6679 23.4787 24.6949 23.4882C24.6981 23.5121 24.7013 23.5359 24.7061 23.5598C24.7267 23.5614 24.7474 23.5629 24.7665 23.5629C24.7951 23.5661 24.8237 23.5677 24.8523 23.5693C24.8539 23.5963 24.8555 23.625 24.8587 23.652C25.1973 24.0844 25.1973 24.3992 24.8587 24.8317C24.8571 24.8603 24.8555 24.8873 24.8523 24.9159C24.8221 24.9318 24.7919 24.9477 24.7617 24.9636C24.741 24.9748 24.7188 24.9859 24.6981 24.997C24.6981 24.9986 24.6981 24.9986 24.6981 25.0002C24.6933 25.0209 24.6886 25.0447 24.687 25.067C24.6902 25.3341 24.6933 25.6012 24.6981 25.8683V25.8715V25.8731C24.7251 25.8746 24.7522 25.8746 24.7792 25.8746C24.8046 25.8746 24.8285 25.8762 24.8523 25.8762C24.8539 25.9017 24.8555 25.9287 24.8587 25.9541C25.5376 26.1497 26.0797 26.5647 26.5758 27.0432C26.9128 27.3707 26.8985 27.8477 26.5774 28.2197Z" fill="#F06977"/>
<path d="M25.0925 27.8573C25.2483 27.9797 25.3946 28.1132 25.5615 28.2198C25.8954 28.4312 26.2976 28.3819 26.5266 28.1037C26.7889 27.7841 26.781 27.4137 26.4868 27.1037C26.1005 26.6998 25.6474 26.3866 25.137 26.1545C25.04 26.11 24.9367 26.0734 24.8588 25.9987C24.8556 25.9955 24.8508 25.9907 24.8476 25.9875C24.8349 25.9732 24.8206 25.9589 24.8095 25.9414C24.7968 25.9208 24.7872 25.8985 24.7793 25.8747C24.7523 25.8747 24.7252 25.8747 24.6982 25.8731V25.8715H24.6966L24.6918 25.8667C24.4947 25.8095 24.2975 25.7522 24.0718 25.6886C24.0797 25.7093 24.0511 25.695 24.0527 25.6823C24.0368 25.6775 24.0209 25.6727 24.0034 25.668C24.2212 25.4613 24.3723 25.2212 24.6235 25.0956C24.6394 25.0575 24.6616 25.0257 24.695 25.0002C24.6966 24.9986 24.6966 24.9986 24.6982 24.997C24.7189 24.9859 24.7411 24.9748 24.7618 24.9637C24.765 24.9255 24.7745 24.8889 24.7856 24.854C24.8031 24.8285 24.819 24.8047 24.8349 24.7792V24.7776C24.8445 24.7633 24.8524 24.749 24.8588 24.7363C25.0432 24.404 25.0209 24.0749 24.8588 23.7458C24.8524 23.7315 24.8445 23.7172 24.8365 23.7045C24.819 23.6695 24.8 23.6361 24.7793 23.6011C24.7538 23.6043 24.73 23.5995 24.7061 23.5868C24.703 23.5852 24.6998 23.5836 24.6966 23.5805C24.6839 23.5725 24.6712 23.5614 24.6585 23.5487C24.6505 23.5359 24.6426 23.5232 24.6362 23.5105C24.5265 23.5439 24.4136 23.5184 24.3039 23.5137C24.0463 23.5057 23.8397 23.5979 23.6727 23.7919C22.9668 24.6155 22.0685 25.0686 20.9906 25.1767C20.8984 25.1862 20.8061 25.1958 20.7171 25.2228C20.3896 25.3166 20.194 25.5344 20.1511 25.8683C20.1066 26.2022 20.2926 26.4279 20.5661 26.5726C20.8841 26.7427 21.2354 26.8222 21.59 26.8779C22.2959 26.9908 23.0034 27.1021 23.7013 27.2531C24.0304 27.3262 24.3929 27.3549 24.6426 27.6299C24.66 27.649 24.6775 27.6697 24.6934 27.6919L24.6998 27.7078C24.7014 27.7078 24.7014 27.7094 24.703 27.7094C24.7348 27.6903 24.7682 27.6935 24.8015 27.7221H24.8031C24.8206 27.7364 24.8365 27.7555 24.854 27.7794V27.7857C24.8572 27.7873 24.8588 27.7905 24.862 27.7921C24.9256 27.7571 25.0066 27.7921 25.0925 27.8573Z" fill="#C34761"/>
<path d="M24.8589 25.9543V25.9989C24.9368 26.0736 25.0401 26.1102 25.1371 26.1547C25.6475 26.3868 26.1006 26.7 26.4869 27.1038C26.7811 27.4139 26.789 27.7843 26.5267 28.1039C26.2977 28.3821 25.8955 28.4314 25.5616 28.2199C25.3947 28.1134 25.2484 27.9799 25.0926 27.8574C25.0067 27.7923 24.9257 27.7573 24.8621 27.7923C25.0656 27.956 25.2659 28.1214 25.4726 28.2804C25.8128 28.5379 26.3295 28.5061 26.5776 28.2199C26.8987 27.8479 26.913 27.3709 26.576 27.0434C26.0799 26.5649 25.5378 26.1499 24.8589 25.9543Z" fill="#C34761"/>
<path d="M24.8317 31.8464C24.8858 31.8925 24.9446 31.9163 25.0066 31.9291H25.0082C25.0972 31.9481 25.1926 31.9434 25.2848 31.9466H25.3484C25.4645 31.999 25.6298 31.8989 25.7332 31.9895C25.7189 31.972 25.703 31.9577 25.6855 31.9466C25.6569 31.9291 25.6235 31.9195 25.5901 31.9164H25.5567C25.5233 31.9116 25.4931 31.9148 25.4581 31.9148C25.3802 31.9148 25.3071 31.9068 25.253 31.8369C25.1195 31.8321 24.9859 31.8289 24.8524 31.8241C24.8365 31.8178 24.8206 31.8098 24.8047 31.8035C24.8126 31.8178 24.8206 31.8321 24.8317 31.8464Z" fill="#C66179"/>
<path d="M24.8048 31.8035C24.8207 31.8099 24.8366 31.8178 24.8525 31.8242C24.8318 31.7908 24.808 31.7654 24.7793 31.7463H24.7777C24.7523 31.7288 24.7237 31.7177 24.6919 31.7129C24.6935 31.7272 24.6967 31.7415 24.6983 31.7558C24.7332 31.7717 24.7682 31.7876 24.8048 31.8035Z" fill="#EB7E8D"/>
<path d="M24.8442 27.7747C24.8474 27.7794 24.8506 27.7826 24.8538 27.7858V27.7794C24.8506 27.7778 24.8474 27.7762 24.8442 27.7747Z" fill="#EB7E8D"/>
<path d="M24.8028 27.7223H24.8012C24.7678 27.6936 24.7344 27.6905 24.7026 27.7095C24.7487 27.7318 24.7964 27.7525 24.8425 27.7747H24.8441C24.8473 27.7763 24.8505 27.7779 24.8537 27.7795C24.8362 27.7556 24.8203 27.7366 24.8028 27.7223Z" fill="#C7667D"/>
<path d="M24.8477 25.9876C24.8508 25.9908 24.8556 25.9956 24.8588 25.9988V25.9543C24.8556 25.9288 24.854 25.9018 24.8524 25.8763C24.8286 25.8763 24.8047 25.8748 24.7793 25.8748C24.7872 25.8986 24.7968 25.9209 24.8095 25.9415C24.8206 25.959 24.8349 25.9733 24.8477 25.9876Z" fill="#C7667D"/>
<path d="M24.8589 24.7364V24.8318C25.1975 24.3993 25.1975 24.0845 24.8589 23.6521V23.7459C25.0211 24.075 25.0433 24.4041 24.8589 24.7364Z" fill="#C54962"/>
<path d="M24.7792 23.6012C24.7999 23.6361 24.8189 23.6695 24.8364 23.7045C24.8444 23.7172 24.8523 23.7315 24.8587 23.7458V23.652C24.8555 23.625 24.8539 23.5964 24.8523 23.5694C24.8237 23.5678 24.7951 23.5662 24.7665 23.563C24.7474 23.563 24.7267 23.5614 24.7061 23.5598V23.5868C24.7299 23.5996 24.7538 23.6043 24.7792 23.6012Z" fill="#C8687F"/>
<path d="M24.8349 24.7777V24.7793C24.819 24.8047 24.8031 24.8285 24.7856 24.854C24.7744 24.889 24.7649 24.9255 24.7617 24.9637C24.7919 24.9478 24.8221 24.9319 24.8523 24.916C24.8555 24.8874 24.8571 24.8603 24.8587 24.8317V24.7363C24.8523 24.749 24.8444 24.7634 24.8349 24.7777Z" fill="#C8687F"/>
<path d="M2.08205 8.37954C2.08364 7.65773 2.08046 6.93592 2.07887 6.21411C2.07887 6.93592 2.07728 7.65773 2.08205 8.37954Z" fill="#75ABDC"/>
<path d="M2.08203 8.56885C2.08203 8.66583 2.08362 8.76281 2.08362 8.8598C2.08839 8.88842 2.08839 8.91544 2.08362 8.94088H2.18378C2.09475 8.83277 2.08362 8.7024 2.08203 8.56885Z" fill="#75ABDC"/>
<path d="M2.0929 4.03603C2.0929 4.05829 2.09131 4.08213 2.09131 4.10439C2.10721 4.0408 2.13742 3.98197 2.19942 3.93268C2.16921 3.9311 2.14218 3.9311 2.11993 3.93427C2.10721 3.96766 2.09767 4.00105 2.0929 4.03603Z" fill="#75ABDC"/>
<path d="M8.95797 9.09816C8.95638 9.03298 8.97228 8.97415 9.03588 8.94076C9.00408 8.75157 9.09152 8.54806 8.99772 8.36681C8.98818 8.34614 8.97546 8.32707 8.95956 8.3064C8.71472 8.46539 8.59866 8.74044 8.39674 8.93917C8.38561 8.96461 8.37448 8.99005 8.36335 9.01549C8.35063 9.04411 8.33791 9.07272 8.3252 9.10134H8.36653C8.56209 9.09975 8.76083 9.09975 8.95797 9.09816Z" fill="#DD8E70"/>
<path d="M13.4116 33.5078H13.4132C13.41 33.5015 13.4069 33.4951 13.4053 33.4888V33.5031C13.4053 33.5031 13.4116 33.5063 13.4116 33.5078Z" fill="#F06977"/>
<path d="M22.7745 31.991H22.7363C22.749 32.0053 22.7634 32.0196 22.7793 32.0323C22.784 32.0355 22.7888 32.0387 22.7936 32.0403C22.7904 32.0259 22.7904 32.0116 22.7904 31.9957L22.7745 31.991Z" fill="#F06977"/>
<path d="M24.6951 33.5046C24.6919 33.5078 24.6887 33.511 24.6855 33.5142C24.6903 33.5174 24.6935 33.5205 24.6983 33.5221C24.6983 33.5205 24.6983 33.5205 24.6983 33.5189L24.6951 33.5046Z" fill="#F06977"/>
<path d="M24.6947 37.7972L24.6979 37.7925V37.7702C24.6184 37.6843 24.5055 37.6478 24.3862 37.6271C22.2622 37.2455 20.27 36.441 18.2636 35.6922C16.7246 35.1183 15.2587 34.379 13.8039 33.6174C13.6831 33.5554 13.5527 33.425 13.4224 33.5141C14.7928 34.282 16.1967 34.9879 17.6578 35.5618C19.952 36.4617 22.2478 37.3759 24.6947 37.7972Z" fill="#F06977"/>
<path d="M2.19971 31.8352C2.2013 31.8781 2.2013 31.9211 2.2013 31.964V31.9926C2.21243 31.9783 2.22197 31.9624 2.22674 31.9465C2.22674 31.9465 2.22674 31.9465 2.22674 31.9449C2.23945 31.9083 2.23468 31.8718 2.21879 31.8352H2.2013H2.19971Z" fill="#98C2E8"/>
<path d="M5.37952 31.8767V31.9148C5.43199 31.9673 5.48445 32.0197 5.53692 32.0738C5.56713 32.0643 5.59733 32.0563 5.62913 32.0484C5.61164 32.0325 5.59415 32.0166 5.57826 31.9991C5.57349 31.9927 5.56713 31.988 5.56236 31.9832C5.51307 31.9323 5.45742 31.8926 5.39065 31.8783C5.39224 31.8624 5.39065 31.8496 5.38588 31.8369H5.37793C5.37793 31.8512 5.37793 31.8639 5.37952 31.8767Z" fill="#8DB5DF"/>
<path d="M29.2518 36.5588C29.2756 36.562 29.2979 36.5604 29.3201 36.5524C29.3154 36.5445 29.3106 36.5334 29.3074 36.5238C29.282 36.5238 29.2565 36.5222 29.2311 36.519C29.2295 36.5318 29.2263 36.5445 29.2231 36.5556C29.2327 36.5572 29.2422 36.5588 29.2518 36.5588Z" fill="#B8506A"/>
<path d="M29.3071 36.5238C29.3103 36.5333 29.3151 36.5444 29.3198 36.5524C29.428 36.7893 29.773 36.8433 29.7825 37.1518C29.8016 37.155 29.8191 37.1565 29.835 37.1565C30.0274 37.1581 30.0528 36.988 30.1005 36.8433C30.2229 36.6271 30.3485 36.4125 30.4725 36.1963C30.4852 36.1756 30.4964 36.1533 30.5091 36.1327C30.0655 36.1342 29.5854 36.0198 29.3071 36.5238Z" fill="#DE6B7D"/>
<path d="M11.0237 31.9974H11.0968C11.0443 31.9672 10.9935 31.9354 10.941 31.9052C10.9076 31.8972 10.8742 31.8925 10.8408 31.8909C10.8758 31.9243 10.9092 31.9576 10.9442 31.991C10.9696 31.9942 10.9966 31.9958 11.0237 31.9974Z" fill="#EA8291"/>
<path d="M13.2507 33.4252L13.308 33.4538C13.3398 33.4697 13.3732 33.4856 13.405 33.5031V33.4888C13.4002 33.4793 13.3954 33.4697 13.3922 33.4586C13.3891 33.4554 13.3875 33.4538 13.3843 33.4507C13.3525 33.4236 13.3175 33.4061 13.2762 33.4173C13.2666 33.4093 13.2571 33.4014 13.2476 33.395V33.4252H13.2507Z" fill="#EA8291"/>
<path d="M13.2477 33.425V33.3948C13.2382 33.3869 13.227 33.3773 13.2159 33.371C12.5752 32.8749 11.8804 32.4632 11.1856 32.0498C11.184 32.0498 11.184 32.0498 11.1824 32.0482H11.1808C11.1538 32.0307 11.1252 32.0148 11.0966 31.9973H11.0234C11.7293 32.5283 12.483 32.9862 13.2477 33.425Z" fill="#F06977"/>
<path d="M7.14082 31.9148C7.15831 31.9434 7.17421 31.972 7.1917 31.9991C7.21714 32.0038 7.24257 32.007 7.26801 32.0086C7.2537 31.9879 7.23621 31.9689 7.21714 31.953C7.22986 31.9132 7.21873 31.8814 7.19806 31.8496H7.10107C7.11379 31.8719 7.1281 31.8925 7.14082 31.9148Z" fill="#D97587"/>
<path d="M10.944 31.991C10.909 31.9576 10.8756 31.9242 10.8406 31.8908C10.8231 31.8749 10.8072 31.8575 10.7897 31.8416C10.777 31.8606 10.7738 31.8749 10.777 31.8877C10.7882 31.9417 10.9042 31.9497 10.944 31.991Z" fill="#D97587"/>
<path d="M24.8572 37.799C25.862 37.7927 26.87 37.8436 27.8653 37.6544C27.8939 37.6496 27.9241 37.6448 27.9527 37.6385C27.5679 37.2378 27.1768 36.8435 26.8 36.4365C26.3405 35.9405 26.0035 35.376 25.9733 34.6813C25.9351 33.8068 25.7284 33.589 24.8604 33.5779V33.6129C24.9224 33.6574 25.0019 33.6669 25.0814 33.6796C25.6601 33.7718 25.8429 33.9483 25.8604 34.5191C25.8843 35.3315 26.2356 35.985 26.7746 36.5573C27.1005 36.9007 27.4439 37.2299 27.7778 37.5669C27.711 37.5526 27.6427 37.5542 27.5727 37.5685C26.8271 37.7132 26.0734 37.6655 25.3214 37.6766C25.1593 37.6798 24.9907 37.6703 24.854 37.7831V37.7943L24.8572 37.799Z" fill="#F06977"/>
<path d="M24.6998 37.7925H24.7157C24.7587 37.7941 24.8 37.7941 24.8429 37.7941H24.8525H24.8541V37.783C24.8525 37.7846 24.8509 37.7862 24.8493 37.7878C24.8111 37.7416 24.7936 37.6924 24.7857 37.6399C24.7714 37.6908 24.7475 37.7369 24.7078 37.7814C24.7046 37.7766 24.7014 37.7734 24.6982 37.7703V37.7925H24.6998Z" fill="#EB7887"/>
<path d="M24.8509 33.5093C24.8286 33.5109 24.8064 33.5125 24.7841 33.514C24.7555 33.5156 24.7269 33.5172 24.6982 33.5188C24.6982 33.5204 24.6982 33.5204 24.6982 33.522C24.6998 33.5236 24.7014 33.5236 24.703 33.5252C24.7491 33.5776 24.7746 33.6365 24.7889 33.6969C24.7984 33.6603 24.8143 33.6269 24.8413 33.5967C24.8477 33.6031 24.8541 33.6079 24.8604 33.6126V33.5776C24.8572 33.5554 24.8541 33.5315 24.8509 33.5093Z" fill="#EB7887"/>
<path d="M1.74663 2.72597C1.74027 2.75776 1.73073 2.78956 1.72119 2.82136C1.77525 2.87224 1.8293 2.9247 1.88336 2.97717C1.89608 2.97717 1.90721 2.97717 1.91993 2.97876C1.93106 2.97876 1.94219 2.97876 1.95332 2.98035H1.95967C2.12025 3.06461 2.27924 3.08051 2.45572 3.01056C2.96608 2.80864 3.1982 2.38891 3.05034 1.91194C2.91838 1.48744 2.42551 1.26009 1.92152 1.38092C1.9088 1.3841 1.89767 1.38728 1.88495 1.39046C1.83089 1.44293 1.77525 1.49539 1.72119 1.54627C1.73073 1.57807 1.74027 1.60827 1.74663 1.64007C1.84361 2.00098 1.84361 2.36506 1.74663 2.72597Z" fill="#629CD4"/>
<path d="M1.72086 2.82123C1.7304 2.78944 1.73994 2.75764 1.7463 2.72584C1.84328 2.36494 1.84328 2.00085 1.7463 1.63995C1.73994 1.60815 1.7304 1.57794 1.72086 1.54614C1.26297 1.93885 1.26297 2.42853 1.72086 2.82123Z" fill="#609BD3"/>
<path d="M12.2558 8.93606C13.2527 8.95673 13.2527 8.94401 13.2495 7.94556C13.2495 7.88991 13.2479 7.83585 13.2479 7.78021V7.75C12.8139 8.06639 12.4959 8.48294 12.2192 8.93606H12.2558Z" fill="#DD8765"/>
<path d="M13.5626 8.9344C13.3607 8.91373 13.4115 8.75633 13.4099 8.63709C13.4052 8.28891 13.4068 7.93913 13.4068 7.58936C13.3861 7.59889 13.3654 7.61002 13.3448 7.62115C13.313 7.63705 13.2812 7.65295 13.251 7.66885C13.2494 7.69588 13.2494 7.72291 13.2478 7.74993V7.78014C13.2478 7.83579 13.2494 7.88984 13.2494 7.94549C13.2525 8.94394 13.2525 8.95666 12.2557 8.93599H12.2191L12.2128 8.94394C12.2128 8.94394 12.2128 8.94394 12.2143 8.94394C12.1905 8.99164 12.1666 9.03934 12.1428 9.08544C12.1428 9.09021 12.146 9.09339 12.1492 9.09816C12.1444 9.09816 12.1412 9.09657 12.1364 9.09657L12.138 9.09816C12.138 9.09816 12.138 9.09816 12.1364 9.09816C11.5911 10.0839 11.5498 11.1587 11.5752 12.2477C11.58 12.4258 11.6722 12.6834 11.518 12.766C11.3463 12.8583 11.165 12.6579 11.0044 12.5498C9.77227 11.7294 9.07908 10.599 9.03456 9.09975C9.01867 9.09816 9.00436 9.09657 8.98846 9.09657C8.97892 9.09498 8.96779 9.09498 8.95825 9.09498C8.7611 9.09657 8.56237 9.09657 8.36681 9.09816H8.32547C8.30322 9.10293 8.28255 9.10452 8.26188 9.10611C8.24757 9.13155 8.23485 9.15699 8.22054 9.18243C7.72768 10.0998 7.34133 11.049 7.35087 12.1174C7.33656 12.1587 7.3302 12.1937 7.32861 12.2255C7.33656 12.208 7.34292 12.1873 7.34769 12.1635C7.34769 12.208 7.35723 12.2414 7.37313 12.2668C7.44626 12.3972 7.68316 12.3177 7.76742 12.4353C8.37476 12.6627 8.78336 13.0745 8.95825 13.7073C8.95825 13.7073 8.95825 13.7073 8.95825 13.7088V13.7073C9.1077 13.8742 9.00436 14.0777 9.03933 14.2621C9.03456 14.2892 9.03139 14.3162 9.02662 14.3448C9.02662 14.3448 9.02662 14.3448 9.02821 14.3448C9.05364 14.7693 8.83265 15.1954 9.03774 15.6183C9.10929 15.5801 9.18083 15.5436 9.25238 15.5054C9.28577 15.4879 9.31916 15.4704 9.35254 15.453C9.43363 15.375 9.51312 15.2987 9.59262 15.2208C10.219 14.7629 10.847 14.3082 11.5768 14.0236C11.5816 13.9998 11.5832 13.9775 11.5847 13.9537C11.5847 13.9537 11.5847 13.9537 11.5863 13.9537C11.5863 13.9537 11.5863 13.9537 11.5847 13.9537C11.5577 13.6945 11.5259 13.437 11.5037 13.1778C11.4894 13.0093 11.553 12.8455 11.739 12.9377C12.1937 13.1603 12.7072 13.1158 13.1667 13.3002C13.1905 13.3018 13.216 13.3034 13.2398 13.305C13.2446 12.3813 13.2494 11.4576 13.2525 10.5338C13.2525 10.5322 13.2525 10.5322 13.2525 10.5307H13.2541H13.2557C13.4354 10.3192 13.2192 10.0235 13.4052 9.8152V10.4273C13.4195 10.378 13.4195 10.3192 13.4274 10.2683C13.4497 10.13 13.4338 9.98691 13.4767 9.85018C13.5324 9.6117 13.4847 9.35572 13.5991 9.12678C13.5991 9.1236 13.6007 9.12201 13.6023 9.11883C13.6039 9.11088 13.6055 9.10452 13.6071 9.09816C13.615 9.05364 13.6119 9.01072 13.5912 8.97097C13.5848 8.96143 13.5785 8.95189 13.5737 8.94235V8.94076H13.5721L13.5626 8.9344Z" fill="#DD8765"/>
<path d="M2.20092 31.8336V20.5486L2.19933 20.547C1.88772 20.5327 1.96244 20.7648 1.96244 20.9334C1.95926 23.6394 1.96085 26.3469 1.96085 29.0529V31.4918C1.96085 31.6619 1.92746 31.8543 2.19933 31.8352H2.20092V31.8336Z" fill="#75ABDC"/>
<path d="M1.96126 9.09985V9.11098V20.0415C1.96126 20.21 1.9231 20.4072 2.19974 20.3881H2.20133V20.3865V9.09985H2.19974H1.96126Z" fill="#75ABDC"/>
<path d="M2.19971 20.3879V20.5469H2.2013H2.21879C2.24104 20.4929 2.23945 20.4404 2.21879 20.3879H2.2013H2.19971Z" fill="#9BC4E8"/>
<path d="M5.2377 20.5597C5.23929 20.5565 5.24088 20.5549 5.24247 20.5518H5.22816L5.22021 20.5724C5.22021 20.574 5.2218 20.5756 5.2218 20.5756C5.22657 20.5708 5.23293 20.5661 5.2377 20.5613V20.5597Z" fill="#9BC4E8"/>
<path d="M24.6959 25.8707H24.6973V25.868C24.6959 25.868 24.6932 25.8667 24.6919 25.8667L24.6959 25.8707Z" fill="#C34761"/>
<path d="M24.6235 25.0956C24.6442 25.0861 24.6649 25.0766 24.6871 25.067C24.6887 25.0448 24.6935 25.0209 24.6983 25.0003C24.6983 24.9987 24.6983 24.9987 24.6983 24.9971C24.6967 24.9987 24.6967 24.9987 24.6951 25.0003C24.6617 25.0257 24.6394 25.0575 24.6235 25.0956Z" fill="#C34761"/>
<path d="M23.7013 27.2532C23.0033 27.1021 22.2958 26.9908 21.5899 26.8779C21.2353 26.8223 20.884 26.7428 20.566 26.5727C20.2925 26.428 20.1065 26.2022 20.151 25.8684C20.194 25.5345 20.3895 25.3167 20.717 25.2229C20.8061 25.1958 20.8983 25.1863 20.9905 25.1768C22.0684 25.0687 22.9667 24.6155 23.6726 23.792C23.8396 23.598 24.0463 23.5058 24.3038 23.5137C24.4135 23.5185 24.5264 23.5439 24.6361 23.5106C24.6425 23.5233 24.6504 23.536 24.6584 23.5487C24.6711 23.5614 24.6838 23.5726 24.6965 23.5805C24.6997 23.5837 24.7029 23.5853 24.7061 23.5869V23.5598C24.7013 23.536 24.6981 23.5122 24.6949 23.4883C24.6679 23.4788 24.6409 23.4692 24.6154 23.4613C24.2418 23.3404 23.8825 23.3611 23.6122 23.6902C22.9015 24.5583 21.9842 24.9955 20.8808 25.0798C20.4134 25.1148 20.0938 25.4137 20.0207 25.8652C19.9682 26.1991 20.2385 26.5854 20.6375 26.7349C21.0954 26.9066 21.5772 26.9797 22.0557 27.0671C22.9381 27.2277 23.8459 27.2881 24.6759 27.684C24.6822 27.6872 24.687 27.6888 24.6933 27.692C24.6775 27.6697 24.66 27.649 24.6425 27.63C24.3929 27.3549 24.0304 27.3263 23.7013 27.2532Z" fill="#C34761"/>
<path d="M19.6851 20.3943C19.6851 20.4166 19.6866 20.4404 19.6866 20.4627C19.6866 20.4897 19.6866 20.5151 19.6882 20.5422C19.7153 20.5453 19.7439 20.5485 19.7725 20.5517C20.1684 21.2099 20.6342 21.8173 21.2034 22.3356C21.4944 22.5995 21.922 22.5979 22.2193 22.3451C22.5469 22.0685 22.7361 21.7632 22.4864 21.3546C22.3275 21.0923 22.1462 20.8474 21.9586 20.6058C21.9443 20.5883 21.9316 20.5692 21.9157 20.5517V20.5501L21.9125 20.5422C21.8871 20.4929 21.8616 20.442 21.8362 20.3943C21.8362 20.3927 21.8346 20.3927 21.8346 20.3911C21.8076 20.3879 21.7805 20.3864 21.7519 20.3848H21.6947C21.0253 20.3879 20.356 20.3911 19.6851 20.3943Z" fill="#D9596B"/>
<path d="M2.08336 8.94092H2.04043C2.0134 8.99497 1.98797 9.04744 1.96094 9.09991H2.19942V8.95841V8.94251V8.94092H2.18352H2.08336Z" fill="#8AB6E1"/>
<path d="M14.7549 6.79598C14.2732 6.97087 13.8741 7.29838 13.4146 7.5162C13.4131 7.54005 13.4099 7.5639 13.4067 7.58933C13.4067 7.93911 13.4051 8.28889 13.4099 8.63707C13.4115 8.75631 13.3606 8.91371 13.5625 8.93438C13.5641 8.93279 13.5641 8.92961 13.5657 8.92802C13.8932 8.09333 14.3384 7.33654 15.0713 6.78485C15.0475 6.75782 15.0252 6.74192 15.0029 6.73397C14.9187 6.69741 14.8376 6.76736 14.7549 6.79598Z" fill="#D88464"/>
<path d="M18.3499 15.755C18.4326 17.3115 18.7617 18.8203 19.5502 20.1972C19.582 20.2528 19.5916 20.3212 19.6107 20.3832C19.6329 20.3864 19.6536 20.3896 19.6743 20.3927C19.679 20.3927 19.6822 20.3943 19.6854 20.3943C20.3563 20.3911 21.0257 20.388 21.695 20.3848H21.7522C20.4008 18.7297 19.9271 16.8059 20.0034 14.7073C20.0272 14.0618 20.0065 13.4131 20.005 12.766C20.0034 12.766 20.0034 12.7644 20.0018 12.7644C19.4787 12.5101 18.9095 12.4274 18.3403 12.3511C18.3403 13.4863 18.2895 14.623 18.3499 15.755Z" fill="#D9596B"/>
<path d="M20.2447 8.93928C20.2463 8.94087 20.2463 8.94087 20.2479 8.94246C20.2463 8.94246 20.2463 8.94246 20.2447 8.94246C20.2702 8.99492 20.2956 9.0458 20.3211 9.09668H20.3258C20.3513 9.09827 20.3783 9.09986 20.4037 9.10145C20.4196 9.15073 20.4196 9.21433 20.453 9.24772C21.2305 10.057 22.3943 9.99178 23.1034 9.10145C23.124 9.09986 23.1447 9.09986 23.167 9.09827H23.186C23.186 9.04739 23.1876 8.99651 23.1876 8.94564C23.2115 8.94246 23.2353 8.93928 23.2576 8.9361H23.2624C23.3021 8.75644 23.3403 8.57837 23.38 8.39872C23.5088 7.80092 23.3021 7.29851 22.8887 6.89468C22.3863 6.4034 21.7488 6.3414 21.1224 6.56557C20.1986 6.89786 19.763 7.85815 20.2368 8.92179C20.24 8.92815 20.2416 8.93292 20.2447 8.93928Z" fill="#D5586B"/>
<path d="M18.2226 12.836C18.2178 13.4449 18.2289 14.0538 18.2194 14.6628C18.2035 15.7646 18.2735 16.86 18.5517 17.9284C18.7759 18.7838 19.0191 19.6407 19.5549 20.3705C19.5613 20.3752 19.566 20.38 19.5724 20.3832H19.6106C19.5915 20.3212 19.5819 20.2528 19.5501 20.1972C18.7616 18.8203 18.4324 17.3115 18.3498 15.755C18.2894 14.623 18.3402 13.4863 18.3402 12.3511C18.1987 12.4878 18.2242 12.6675 18.2226 12.836Z" fill="#F06977"/>
<path d="M22.7598 31.4917C22.7343 31.1372 22.6914 30.7842 22.6707 30.4313C22.6389 29.8875 22.9569 29.4853 23.3878 29.4614C23.8155 29.4376 24.1207 29.7683 24.1811 30.32C24.1907 30.4122 24.1907 30.5044 24.1907 30.5966C24.1939 30.7938 24.1621 30.9973 24.2129 31.1865C24.2765 31.417 24.3099 31.7 24.6406 31.6889C24.6454 31.6968 24.6502 31.7048 24.6565 31.7111C24.6676 31.727 24.6819 31.7429 24.6978 31.7556C24.6963 31.7413 24.6931 31.727 24.6915 31.7127C24.6899 31.7048 24.6883 31.6952 24.6883 31.6873C24.6661 31.6777 24.6438 31.6682 24.6231 31.6571C24.3926 31.5378 24.302 31.328 24.2988 31.0688C24.294 30.8049 24.3115 30.541 24.2924 30.2786C24.2336 29.4932 23.5643 29.0989 22.9521 29.4948C22.6071 29.719 22.5133 30.0974 22.5658 30.4678C22.6294 30.9178 22.5817 31.3788 22.7137 31.8208C22.7153 31.824 22.7153 31.8288 22.7168 31.832C22.7264 31.8208 22.7343 31.8097 22.7391 31.797C22.7932 31.7016 22.7677 31.5967 22.7598 31.4917Z" fill="#C34761"/>
<path d="M24.0034 25.6681C24.0209 25.6729 24.0368 25.6777 24.0527 25.6824C24.0591 25.684 24.0654 25.6856 24.0718 25.6872V25.6888C24.2975 25.7524 24.4947 25.8096 24.6918 25.8669C24.6934 25.8669 24.6966 25.8684 24.6982 25.8684C24.6934 25.6013 24.6903 25.3342 24.6871 25.0671C24.6648 25.0767 24.6441 25.0862 24.6235 25.0958C24.3723 25.2214 24.2212 25.4614 24.0034 25.6681Z" fill="#ED6776"/>
<path d="M2.20117 20.3865V20.3881H2.21866C2.21707 20.3849 2.21548 20.3817 2.21389 20.3785C2.21389 20.3769 2.2123 20.3754 2.2123 20.3738C2.22661 20.3595 2.24092 20.3451 2.25364 20.3292C2.33154 20.183 2.32677 20.0224 2.32677 19.8634C2.32836 16.4515 2.32836 13.0396 2.32677 9.62611C2.32677 9.46394 2.33472 9.29859 2.2441 9.15709C2.23138 9.13801 2.21707 9.11893 2.20117 9.09985V20.3865Z" fill="#89BCE5"/>
<path d="M2.20117 20.5487V31.8337V31.8353H2.21866C2.21866 31.8306 2.21707 31.8274 2.21389 31.8226C2.21389 31.8226 2.21389 31.821 2.2123 31.8194C2.36016 31.6318 2.32677 31.4045 2.32677 31.1898C2.32836 27.8558 2.32836 24.5234 2.32677 21.1894C2.32677 20.9939 2.34744 20.792 2.25364 20.6059C2.23933 20.5916 2.22502 20.5757 2.2123 20.5614C2.21389 20.5598 2.21389 20.5598 2.21389 20.5582C2.21548 20.5551 2.21707 20.5503 2.21866 20.5471H2.20117V20.5487Z" fill="#89BCE5"/>
<path d="M5.21729 20.5805C5.21888 20.5789 5.22047 20.5773 5.22205 20.5757C5.22205 20.5741 5.22047 20.5725 5.22047 20.5725L5.21729 20.5805Z" fill="#75ABDC"/>
<path d="M4.72438 20.6615C4.6274 21.1209 4.31419 21.485 4.12976 21.9079C3.38093 23.6314 2.80698 25.3739 3.06613 27.2993C3.19491 28.2421 3.50335 29.1149 3.93898 29.9464C4.28239 30.603 4.75618 31.169 5.22202 31.7398C5.24746 31.7716 5.27449 31.8034 5.29992 31.8352C5.32695 31.8352 5.35239 31.8368 5.37783 31.8368H5.38578C5.38578 31.8352 5.38578 31.8336 5.38419 31.832C5.37783 31.8161 5.36352 31.8002 5.34444 31.7875C5.32854 31.778 5.31264 31.77 5.29515 31.7637C5.26495 31.5077 5.05031 31.3598 4.90404 31.1786C3.3539 29.2326 2.75133 27.064 3.31574 24.6044C3.5892 23.4104 4.03119 22.2832 4.60196 21.202C4.691 21.0319 4.84839 20.8682 4.79275 20.6599C4.86588 20.6599 4.93902 20.6599 5.01056 20.6503L4.74505 20.5486C4.74028 20.5867 4.73392 20.6249 4.72438 20.6615Z" fill="#75ABDC"/>
<path d="M28.2545 38.0311C28.1289 37.9166 28.0113 37.7942 27.8873 37.6766L27.865 37.6543C26.8698 37.8435 25.8618 37.7926 24.8569 37.799L24.8522 37.7942H24.8426C24.7997 37.7942 24.7584 37.7942 24.7155 37.7926H24.6996H24.698L24.6948 37.7974C22.2479 37.3761 19.9521 36.4619 17.6579 35.562C16.1968 34.9881 14.7929 34.2821 13.4225 33.5142C13.4193 33.5158 13.4161 33.5174 13.4129 33.5206C13.3859 33.5413 13.3589 33.5715 13.3318 33.6128C13.3302 33.6303 13.3287 33.6494 13.3271 33.6669V33.5699C13.3271 33.5301 13.3207 33.492 13.308 33.4538L13.2508 33.4252H13.2476C12.4828 32.9864 11.7292 32.5285 11.0233 31.9975C10.9963 31.9959 10.9693 31.9943 10.9438 31.9911C10.9041 31.9498 10.788 31.9418 10.7769 31.8878C10.7737 31.875 10.7769 31.8607 10.7896 31.8417V31.8401C10.788 31.8401 10.788 31.8401 10.7864 31.8385C10.7578 31.8369 10.7308 31.8337 10.7022 31.8321C10.6656 31.8035 10.6306 31.7749 10.594 31.7463C9.68781 31.034 8.81496 30.282 8.02797 29.4362C7.30457 28.6603 6.7179 27.7906 6.23616 26.8462C6.16938 26.7159 6.22344 26.6809 6.33473 26.665C5.54933 26.436 4.76392 26.2071 3.97852 25.9797C4.02144 27.2167 4.48251 28.3185 5.12324 29.3567C5.58907 30.115 6.15508 30.7987 6.76241 31.4474C6.83714 31.5285 6.92776 31.6 6.95479 31.7113C7.02156 31.7129 7.08198 31.7367 7.13604 31.7781C7.1424 31.7844 7.14717 31.7908 7.15353 31.7956C7.16942 31.8146 7.18532 31.8321 7.19804 31.8496C7.21871 31.8814 7.22984 31.9132 7.21712 31.953C7.2362 31.9689 7.25369 31.9879 7.268 32.0086C7.26959 32.0086 7.26959 32.0086 7.27118 32.0086C7.26959 32.0102 7.26959 32.0118 7.26959 32.0134C7.28231 32.0611 7.29344 32.1088 7.30616 32.1565C7.55736 32.2073 7.6925 32.4204 7.87057 32.5698C9.49543 33.9228 11.2491 35.0723 13.1617 35.9754C13.2428 35.9627 13.2873 35.9324 13.3096 35.8927C13.3239 35.9722 13.3605 36.0453 13.4129 36.1105C15.5259 37.1885 17.7183 38.0661 19.9871 38.7529C21.5214 39.2188 23.0651 39.6289 24.6948 39.462C24.7488 39.4604 24.8029 39.4588 24.8569 39.4572C26.264 39.4366 27.5645 39.0884 28.6886 38.2028C28.4819 38.303 28.3754 38.1408 28.2545 38.0311Z" fill="#D9596B"/>
<path d="M4.25046 27.7923C4.80216 29.3233 5.76404 30.5793 6.90081 31.7129C6.92148 31.7352 6.94374 31.7559 6.96441 31.7765C7.01051 31.8004 7.05662 31.8258 7.10114 31.8497H7.19812C7.1854 31.8322 7.1695 31.8147 7.1536 31.7956C7.14724 31.7908 7.14247 31.7845 7.13611 31.7781C7.08206 31.7368 7.02164 31.7129 6.95487 31.7113C6.92784 31.6001 6.83722 31.5285 6.76249 31.4474C6.15515 30.7988 5.58915 30.1151 5.12331 29.3567C4.48259 28.3185 4.02152 27.2167 3.97859 25.9798C3.94362 25.9687 3.90705 25.9575 3.87207 25.948C3.87525 26.5887 4.03583 27.1977 4.25046 27.7923Z" fill="#D9596B"/>
<path d="M6.23622 26.8463C6.71796 27.7907 7.30463 28.6603 8.02803 29.4362C8.81502 30.282 9.68787 31.0341 10.5941 31.7463C10.6307 31.7749 10.6657 31.8036 10.7022 31.8322C10.7308 31.8338 10.7579 31.8369 10.7865 31.8385C10.7531 31.7988 10.7134 31.7718 10.6657 31.7543C10.4892 31.422 10.1394 31.2678 9.86753 31.0404C8.71168 30.0658 7.64645 29.0117 6.83879 27.7239C6.6321 27.3932 6.40634 27.0641 6.34433 26.6666C6.34115 26.6666 6.33797 26.665 6.3348 26.665C6.2235 26.6809 6.16945 26.7159 6.23622 26.8463Z" fill="#F06977"/>
<path d="M13.2397 27.137V27.1418C13.2572 27.1529 13.2763 27.172 13.2954 27.2006V26.5488C13.2874 26.5345 13.2747 26.5202 13.2572 26.509C13.2509 26.7189 13.2461 26.9288 13.2397 27.137Z" fill="#EA8695"/>
<path d="M13.3192 30.2471C13.3113 30.2948 13.297 30.3393 13.2683 30.3822C13.262 30.3838 13.2572 30.3854 13.2524 30.3902V30.4045H13.4051V30.3917C13.4003 30.3886 13.3955 30.3854 13.3892 30.3838C13.3542 30.3409 13.3335 30.2948 13.3192 30.2471Z" fill="#EA8695"/>
<path d="M11.0026 12.5515C11.1632 12.6596 11.3444 12.8599 11.5161 12.7677C11.6703 12.6851 11.5781 12.4259 11.5734 12.2494C11.5479 11.1604 11.5893 10.0856 12.1346 9.09985C12.133 9.09985 12.133 9.09985 12.1314 9.09985C11.098 9.10144 10.0661 9.10144 9.03271 9.10303C9.07723 10.6023 9.77042 11.7311 11.0026 12.5515Z" fill="#F19C79"/>
<path d="M15.793 20.3928V20.4342V20.4675V20.5423C15.8152 20.5184 15.8279 20.493 15.8279 20.4675C15.8279 20.4564 15.8248 20.4453 15.82 20.4342C15.8152 20.4198 15.8057 20.4055 15.793 20.3928Z" fill="#EA8C9B"/>
<path d="M19.6854 20.3944C19.6822 20.3944 19.679 20.3928 19.6742 20.3928C19.6536 20.3897 19.6329 20.3865 19.6106 20.3833H19.5725C19.5804 20.3881 19.5868 20.3928 19.5947 20.396C19.5725 20.4167 19.5502 20.4294 19.5264 20.4405H19.5502C19.5852 20.4421 19.6218 20.4469 19.6567 20.4548C19.6583 20.4835 19.6695 20.5121 19.6885 20.5423C19.6869 20.5153 19.6869 20.4898 19.6869 20.4628C19.6869 20.4405 19.6854 20.4167 19.6854 20.3944Z" fill="#EA8C9B"/>
<path d="M13.2539 23.5662V23.5821C13.2666 23.59 13.2809 23.5948 13.2952 23.598C13.3286 23.6043 13.3652 23.5932 13.4034 23.5662H13.2952H13.2539Z" fill="#E98A99"/>
<path d="M13.2955 26.5487C13.3686 26.6537 13.2764 26.819 13.4052 26.9033C13.34 26.8111 13.3829 26.7014 13.3623 26.6028C13.3511 26.5472 13.3305 26.5058 13.2955 26.501C13.2844 26.4979 13.2716 26.4995 13.2573 26.5074V26.509C13.2748 26.5201 13.2875 26.5344 13.2955 26.5487Z" fill="#E98A99"/>
<path d="M7.47962 12.4338C7.57501 12.4354 7.67199 12.437 7.76739 12.4386C7.68312 12.321 7.44623 12.4005 7.37309 12.2701C7.3572 12.2447 7.34766 12.2113 7.34766 12.1667C7.34289 12.1906 7.33653 12.2113 7.32858 12.2288C7.26339 12.3703 7.07419 12.3512 6.95654 12.4243C7.03922 12.4259 7.1203 12.4275 7.20298 12.4291C7.29519 12.4307 7.3874 12.4323 7.47962 12.4338Z" fill="#DF808A"/>
<path d="M8.95732 16.2527L8.95654 16.2535C8.95732 16.2535 8.95732 16.2527 8.95732 16.2527Z" fill="#D9596B"/>
<path d="M13.1666 13.3003C12.6404 13.5181 12.1125 13.7359 11.5863 13.9537C11.5863 13.9537 11.5863 13.9537 11.5847 13.9537C11.5831 13.9776 11.5815 13.9998 11.5767 14.0237V14.0491C11.5783 15.0841 11.5895 16.1192 11.5767 17.1542C11.5624 18.2305 11.6737 19.3148 11.4225 20.3801C11.3939 20.3848 11.3669 20.3896 11.3398 20.3928V20.5375C11.5577 20.5438 11.7739 20.5502 11.9917 20.5566H11.9933C12.0362 20.5566 12.0776 20.5581 12.1205 20.5597H12.1221C12.1539 20.555 12.1841 20.5502 12.2159 20.5454C12.2175 20.5438 12.2175 20.5438 12.2191 20.5422C12.2715 20.493 12.324 20.4421 12.3765 20.3912C12.4019 20.3864 12.4273 20.3801 12.4528 20.3737C12.4862 20.3451 12.5195 20.3149 12.5498 20.2847C12.82 20.0223 13.0092 19.7123 13.1364 19.3657C13.1762 19.2592 13.2111 19.1479 13.2398 19.035C13.2461 18.5581 13.2525 18.0811 13.2604 17.6057V17.5866C13.2588 16.4864 13.2588 15.3846 13.2588 14.2844V14.2654C13.2525 13.9553 13.2461 13.6421 13.2398 13.3305V13.3035C13.2159 13.3035 13.1905 13.3019 13.1666 13.3003Z" fill="#C34761"/>
<path d="M13.1664 13.3002C12.7069 13.1158 12.1934 13.1603 11.7387 12.9377C11.5527 12.8471 11.4891 13.0109 11.5034 13.1778C11.5257 13.437 11.5575 13.6961 11.5845 13.9537C11.5845 13.9537 11.5845 13.9537 11.5861 13.9537C12.1123 13.7359 12.6386 13.518 13.1664 13.3002Z" fill="#CB7452"/>
<path d="M9.04069 14.2639C9.00572 14.0794 9.10906 13.8759 8.95961 13.709V13.7106C8.95643 13.8139 8.95325 13.9189 8.95166 14.0222C8.95484 14.1287 8.95961 14.2352 8.96279 14.3418C8.96279 14.3449 8.9612 14.3481 8.9612 14.3513C8.96279 14.3513 8.96438 14.3529 8.96597 14.3529C8.96756 14.3481 8.96915 14.3449 8.97233 14.3402C8.99141 14.3418 9.01049 14.3434 9.02797 14.3434C9.03115 14.3195 9.03592 14.2909 9.04069 14.2639Z" fill="#DF898A"/>
<path d="M11.4223 25.5488C11.1647 25.4756 11.0821 25.3962 11.2601 25.1354C11.4382 24.8778 11.5717 24.5837 11.5797 24.253C11.5892 23.8444 11.381 23.5217 11.0375 23.4263C10.6655 23.3229 10.2219 23.4851 10.0327 23.8047C9.95324 23.9414 9.90077 24.0924 9.83241 24.2355C9.5351 24.8619 9.05336 25.2006 8.34745 25.2435C7.38239 25.3024 6.50477 24.9812 5.61761 24.6807C5.08659 24.5551 4.59054 24.2801 4.02931 24.2785C3.9991 24.2769 3.96731 24.2785 3.9371 24.2801C3.81309 24.8317 3.77652 25.3882 3.87191 25.9478C3.90689 25.9574 3.94346 25.9685 3.97843 25.9796C4.76384 26.207 5.54925 26.4359 6.33465 26.6649C6.33783 26.6649 6.34101 26.6665 6.34419 26.6665C6.48251 26.6999 6.62083 26.7301 6.75756 26.765C7.50322 26.9654 8.26319 27.1228 9.01521 26.862C9.42063 26.7205 9.76881 26.7412 10.1552 26.8922C10.7084 27.1085 11.2903 27.2563 11.8373 27.4853C12.4096 27.7238 12.8596 27.6125 13.238 27.1403C13.238 27.1387 13.238 27.1387 13.2395 27.1371C13.2459 26.9288 13.2507 26.7189 13.257 26.5091V26.5075C13.2491 26.482 13.2443 26.4598 13.2427 26.4344C13.2173 26.4057 13.1918 26.3771 13.1648 26.3501C12.6926 25.862 12.0439 25.73 11.4223 25.5488Z" fill="#C34761"/>
<path d="M5.61801 24.6808C5.60847 24.6443 5.60052 24.6077 5.59417 24.5711C5.47492 24.0083 5.53057 23.4407 5.5735 22.8747C5.63391 22.0957 5.92327 21.3707 6.14745 20.6298C6.15699 20.6028 6.16494 20.5773 6.17289 20.5503C5.86445 20.5503 5.55601 20.5519 5.24757 20.5519H5.2428C5.24121 20.5551 5.23962 20.5567 5.23803 20.5598V20.5614C5.23485 20.5694 5.23008 20.5773 5.2269 20.5853C4.64023 21.7618 4.19983 22.9908 3.9375 24.2802C3.96771 24.2786 3.99951 24.277 4.02971 24.2786C4.59095 24.2802 5.08699 24.5552 5.61801 24.6808Z" fill="#D9596B"/>
<path d="M6.17252 20.5502C6.16457 20.5772 6.15662 20.6027 6.14708 20.6297C5.92291 21.3706 5.63355 22.0956 5.57313 22.8746C5.53021 23.4406 5.47456 24.0082 5.5938 24.571C5.60016 24.6076 5.60811 24.6442 5.61765 24.6807C6.50481 24.9812 7.38243 25.3024 8.34749 25.2435C9.0534 25.2006 9.53514 24.862 9.83245 24.2356C9.90081 24.0925 9.95328 23.9414 10.0328 23.8047C10.222 23.4851 10.6656 23.323 11.0376 23.4263C11.381 23.5217 11.5893 23.8444 11.5797 24.253C11.5718 24.5837 11.4382 24.8779 11.2602 25.1354C11.0821 25.3962 11.1648 25.4757 11.4223 25.5488C12.044 25.73 12.6927 25.862 13.1649 26.3501C13.1919 26.3771 13.2173 26.4058 13.2428 26.4344C13.2189 26.3771 13.1919 26.3247 13.1585 26.2754C13.0472 26.1053 12.8866 25.9844 12.7006 25.8811C12.3492 25.6855 11.9581 25.606 11.5813 25.4884C11.3492 25.4152 11.284 25.3071 11.4096 25.0846C11.5336 24.8667 11.6338 24.6346 11.6672 24.3818C11.7308 23.8969 11.5177 23.5042 11.1091 23.3579C10.6767 23.2037 10.1806 23.3802 9.9342 23.7777C9.85789 23.9017 9.80383 24.0368 9.74182 24.1688C9.44451 24.8047 8.95324 25.1132 8.24097 25.1386C7.32519 25.172 6.49845 24.8556 5.65263 24.5901C5.65899 24.5583 5.66217 24.5249 5.65899 24.4899C5.57949 23.2657 5.73371 22.0749 6.1757 20.9254C6.21545 20.8236 6.25678 20.7124 6.20591 20.6042C6.22976 20.5899 6.25043 20.574 6.27109 20.555C6.27268 20.5502 6.27427 20.547 6.27586 20.5422H6.25519C6.22817 20.5454 6.20114 20.5486 6.17252 20.5502Z" fill="#F06977"/>
<path d="M13.2446 23.5757C13.2478 23.5773 13.251 23.5805 13.2542 23.5821V23.5662C13.251 23.5693 13.2478 23.5725 13.2446 23.5757Z" fill="#F06977"/>
<path d="M6.26968 20.3911C6.26491 20.3927 6.26014 20.3927 6.25537 20.3943V20.5422H6.27604C6.27922 20.5358 6.28081 20.5295 6.28081 20.5231C6.29671 20.4802 6.29512 20.4404 6.27604 20.4023C6.31102 20.4118 6.34281 20.4054 6.37302 20.3816H6.3301C6.30943 20.3848 6.29035 20.388 6.26968 20.3911Z" fill="#E98A99"/>
<path d="M12.5496 20.2863C12.5194 20.3165 12.486 20.3467 12.4526 20.3753C12.5178 20.3451 12.5782 20.3133 12.6323 20.2767C12.8978 20.1034 13.0473 19.8602 13.1347 19.582C13.1888 19.4118 13.2206 19.2274 13.2396 19.0366C13.211 19.1495 13.176 19.2608 13.1363 19.3673C13.0091 19.7139 12.8199 20.0239 12.5496 20.2863Z" fill="#EE6977"/>
<path d="M6.80069 19.1703C6.57651 19.5328 6.48271 19.9764 6.33008 20.3818H6.37301C6.3746 20.3818 6.37619 20.3802 6.37778 20.3786C6.38731 20.3627 6.39685 20.3484 6.40639 20.3325C6.71801 19.8317 6.82453 19.2371 7.12184 18.7283C7.48116 18.1098 7.443 17.4421 7.33489 16.7696C7.31899 16.7632 7.30309 16.7584 7.28878 16.7505C7.33648 17.5979 7.27288 18.4119 6.80069 19.1703Z" fill="#F06977"/>
<path d="M9.03304 18.8745C8.90585 18.7569 8.95991 18.6027 8.95832 18.4643C8.95355 17.7282 8.95673 16.9905 8.95673 16.2544C8.94719 16.2703 8.93765 16.2846 8.92811 16.2989C8.92175 17.1272 8.92652 17.9588 8.92652 18.7887C8.93924 19.4246 9.19998 19.9207 9.65946 20.307H9.66105C9.68967 20.3309 9.71829 20.3547 9.74691 20.3754H9.82958C9.42734 19.9477 9.03463 19.5153 9.03304 18.8745Z" fill="#F06977"/>
<path d="M8.95999 14.3529C8.95999 14.3497 8.96158 14.3465 8.96158 14.3433C8.9584 14.2368 8.95363 14.1303 8.95045 14.0237C8.95363 13.9204 8.95681 13.8155 8.9584 13.7121C8.9584 13.7121 8.9584 13.7121 8.9584 13.7105C8.78351 13.0778 8.37491 12.666 7.76757 12.4386C7.67218 12.437 7.57519 12.4354 7.4798 12.4339C7.38759 12.4323 7.29537 12.4307 7.20316 12.4291C7.12048 12.4275 7.0394 12.4259 6.95673 12.4243C6.38437 12.5356 6.00279 12.8822 5.75 13.3894C5.73569 13.4291 5.72297 13.4657 5.71343 13.5054V13.507C5.63553 13.7741 5.61963 14.0492 5.61963 14.3258C5.62122 15.8871 5.61168 17.4468 5.62281 19.0081C5.62599 19.4612 5.61804 19.9016 5.37479 20.3022C5.34776 20.3292 5.32232 20.3547 5.29529 20.3817L5.22852 20.5518H5.24282H5.24759C5.55603 20.5518 5.86447 20.5502 6.17291 20.5502C6.20153 20.5487 6.22856 20.5455 6.25558 20.5423V20.3944C6.26035 20.3928 6.26512 20.3928 6.26989 20.3913C6.29056 20.3881 6.30964 20.3849 6.33031 20.3817C6.48294 19.9763 6.57674 19.5327 6.80092 19.1702C7.27311 18.4118 7.33671 17.5978 7.28901 16.7504C7.2747 16.7456 7.26039 16.7393 7.24768 16.7345C7.26039 16.7345 7.2747 16.7329 7.28742 16.7329H7.2906C7.2906 16.7313 7.2906 16.7313 7.2906 16.7297C7.2906 16.4134 7.28901 16.097 7.28901 15.7822C7.29219 15.7822 7.29537 15.7806 7.29855 15.7806C7.42892 15.7599 7.57678 15.8299 7.68331 15.6979C7.73736 15.6725 7.79142 15.6454 7.84547 15.62C7.91384 15.655 7.9679 15.6597 8.01082 15.6407C8.02672 15.6359 8.04103 15.6264 8.05375 15.6168C8.05852 15.6136 8.0617 15.6089 8.06647 15.6057C8.07601 15.5977 8.08396 15.5882 8.09191 15.5787C8.09668 15.5723 8.10145 15.5643 8.10622 15.558C8.11099 15.5516 8.11417 15.5453 8.11894 15.5389C8.1237 15.531 8.13006 15.5214 8.13483 15.5135C8.13483 15.5119 8.13642 15.5119 8.13642 15.5103C8.1555 15.5373 8.18253 15.5564 8.22069 15.5659C8.60862 15.4244 8.78192 15.1526 8.87254 14.8298C8.87254 14.8282 8.87413 14.8266 8.87413 14.8251C8.90275 14.6772 8.93932 14.5293 8.95681 14.3815C8.95681 14.3799 8.95681 14.3783 8.95681 14.3767C8.9584 14.3672 8.95999 14.3608 8.95999 14.3529ZM8.00128 13.5515H8.00446C8.16663 13.8298 8.23977 14.1175 8.08237 14.4244C8.08237 14.4514 8.08237 14.4769 8.08237 14.5039C7.97744 14.5484 7.92497 14.6279 7.92338 14.7424C7.89635 14.7424 7.87091 14.7424 7.84388 14.7424C7.62607 14.8871 7.386 14.9268 7.13002 14.9014C7.103 14.9014 7.07597 14.9014 7.05053 14.903C7.01555 14.8394 6.95673 14.825 6.89154 14.8235C6.89154 14.7964 6.89154 14.771 6.88995 14.744C6.53382 14.6311 6.48771 14.3449 6.4893 14.0301C6.49089 14.0031 6.49248 13.9776 6.49248 13.9506C6.50043 13.5897 6.70552 13.3512 7.02668 13.2638C7.39077 13.1652 7.75167 13.2018 8.00128 13.5515Z" fill="#D9596B"/>
<path d="M6.49209 13.9491C6.49209 13.9761 6.4905 14.0016 6.48891 14.0286C6.48573 14.3434 6.53343 14.6296 6.88956 14.7425C6.88956 14.7695 6.88956 14.7949 6.89115 14.822C6.95634 14.8251 7.01517 14.8379 7.05014 14.9014C7.07717 14.9014 7.1042 14.9014 7.12964 14.8999C7.38561 14.9269 7.62568 14.8856 7.8435 14.7409C7.87053 14.7409 7.89596 14.7409 7.92299 14.7409C7.92458 14.6264 7.97864 14.5469 8.08198 14.5024C8.08198 14.4754 8.08198 14.4499 8.08198 14.4229C8.23938 14.116 8.16625 13.8283 8.00408 13.55H8.0009C7.75287 13.2003 7.39038 13.1637 7.02788 13.2623C6.70673 13.3497 6.50163 13.5882 6.49209 13.9491Z" fill="#C34761"/>
<path d="M11.2652 20.5567C11.2858 20.5519 11.3065 20.5471 11.3256 20.5423C11.3304 20.5408 11.3351 20.5408 11.3399 20.5392V20.3945C11.3669 20.3913 11.394 20.3865 11.4226 20.3818C11.6738 19.3165 11.5625 18.2322 11.5768 17.1559C11.5895 16.1209 11.5784 15.0858 11.5768 14.0508V14.0254C10.847 14.31 10.219 14.7647 9.59261 15.2226C9.51311 15.3005 9.43362 15.3768 9.35253 15.4547C9.31914 15.4722 9.28576 15.4897 9.25237 15.5072C9.18082 15.5453 9.10928 15.5819 9.03773 15.62V15.6328V15.8951V16.0175C9.03614 16.07 9.03455 16.124 9.03296 16.1765C9.03137 16.1781 9.03138 16.1797 9.02979 16.1813C9.03138 16.1797 9.03296 16.1781 9.03296 16.1781C9.03296 17.078 9.03296 17.9763 9.03296 18.8761C9.03455 19.5169 9.42726 19.9493 9.8295 20.377C9.85653 20.3818 9.88356 20.3881 9.90899 20.3929C9.91058 20.4199 9.91058 20.4454 9.91058 20.4708V20.4756V20.5439C9.99008 20.571 10.0696 20.598 10.1507 20.625C10.192 20.6075 10.2333 20.5932 10.2747 20.5805C10.599 20.4899 10.9345 20.5757 11.2652 20.5567Z" fill="#D9596B"/>
<path d="M11.2426 20.617C11.2506 20.5963 11.257 20.5772 11.2649 20.5566C10.9342 20.5756 10.5987 20.4898 10.2744 20.5788C10.2331 20.5915 10.1917 20.6058 10.1504 20.6233C10.3221 20.7219 10.4986 20.8125 10.7084 20.7871C10.8643 20.7887 11.0217 20.7903 11.1775 20.7919C11.1838 20.7744 11.1902 20.7569 11.1965 20.7394C11.2124 20.6981 11.2267 20.6567 11.2426 20.617Z" fill="#D9596B"/>
<path d="M11.9918 20.5581C11.7739 20.5518 11.5577 20.5454 11.3399 20.5391C11.3351 20.5407 11.3304 20.5407 11.3256 20.5422C11.3065 20.547 11.2858 20.5518 11.2652 20.5566C11.2572 20.5772 11.2509 20.5963 11.2429 20.617C11.227 20.6567 11.2127 20.6981 11.1968 20.7394C11.1905 20.7569 11.1841 20.7744 11.1777 20.7919C11.1777 20.795 11.1793 20.7998 11.1793 20.803C11.1825 20.8237 11.1841 20.8427 11.1857 20.8634C11.4862 20.7298 11.8566 20.8125 12.1205 20.5613C12.0776 20.5597 12.0363 20.5581 11.9933 20.5581H11.9918Z" fill="#C44861"/>
<path d="M5.22841 20.5503L5.29519 20.3802C5.32221 20.3531 5.34765 20.3277 5.37468 20.3007C5.61793 19.9 5.62588 19.4596 5.6227 19.0065C5.61157 17.4452 5.62111 15.8855 5.61952 14.3243C5.61952 14.0476 5.63542 13.7726 5.71333 13.5055C5.72287 13.4657 5.73559 13.4292 5.74989 13.3894C5.21092 13.6263 4.88817 14.0349 4.8214 14.62C4.77688 15.0175 4.74985 15.4197 4.74667 15.8203C4.73872 17.3037 4.74508 18.7903 4.74508 20.2736V20.3865V20.5487L5.0106 20.6504L5.16641 20.7093L5.21728 20.5805L5.22046 20.5725L5.22841 20.5503Z" fill="#75ABDC"/>
</g>
<defs>
<clipPath id="clip0_27_6328">
<rect width="30.9488" height="39" fill="white" transform="translate(0.525391 0.5)"/>
</clipPath>
</defs>
</svg>
