<svg width="44" height="40" viewBox="0 0 44 40" fill="none" xmlns="http://www.w3.org/2000/svg">
<g clip-path="url(#clip0_27_5966)">
<path d="M42.3751 33.6829C41.3075 34.1151 40.2573 34.5925 39.1723 34.9866C37.695 35.5212 36.2073 36.0143 34.6744 36.3649L34.671 36.3614C34.6137 36.3614 34.5564 36.3614 34.4991 36.3632C34.4991 36.3927 34.4974 36.4222 34.4974 36.45C33.8099 36.5958 33.1225 36.7468 32.4316 36.884C31.2199 37.1253 29.9995 37.2884 28.7704 37.4186C27.3938 37.5645 26.0137 37.6217 24.6354 37.6408C23.8195 37.6513 22.9949 37.5766 22.1738 37.5783C22.1738 37.5488 22.1721 37.5193 22.1721 37.4898C22.1148 37.4898 22.0575 37.4898 22.0019 37.4898L21.9967 37.4933C20.1254 37.4655 18.2939 37.1201 16.4677 36.7572C14.1381 36.2955 11.8831 35.5785 9.67318 34.7123C9.61589 34.6828 9.55861 34.6533 9.50132 34.6255L9.49785 34.6272C8.47537 34.2141 7.45116 33.8044 6.43041 33.3877C6.28633 33.3287 6.13183 33.2801 6.02594 33.1517C5.96865 33.1499 5.91136 33.1499 5.85581 33.1482C5.79852 33.0909 5.7395 33.0353 5.68222 32.9781C5.6527 32.9781 5.62146 32.9763 5.59195 32.9763C5.06422 32.5944 4.48093 32.2889 4.10597 31.716C3.74489 31.1657 3.49838 30.5911 3.51748 29.9228C2.99322 29.5287 2.54361 29.0808 2.46722 28.3813C1.51939 28.3708 0.776403 28.9142 0.738212 29.7127C0.686133 30.8064 0.65315 31.907 1.00555 32.9711C1.02638 32.9729 1.04548 32.9763 1.06631 32.9815C1.06978 33.0371 1.07325 33.0926 1.07672 33.1499C1.1045 33.1794 1.13401 33.2107 1.16179 33.2402C1.46037 33.9172 1.969 34.3946 2.62693 34.6984C3.47582 35.0925 4.33859 35.4553 5.20136 35.8164C6.58144 36.3944 7.96153 36.9725 9.39369 37.4152C9.42841 37.4429 9.46313 37.4707 9.49785 37.4985C9.5534 37.4985 9.61069 37.5002 9.66624 37.5002C9.67144 37.5193 9.67492 37.5402 9.67665 37.561C9.75998 37.5801 9.84678 37.5922 9.92837 37.6183C11.949 38.2588 13.9992 38.7744 16.1014 39.0661C18.0596 39.3369 20.0247 39.4792 22.0019 39.4966L21.9915 39.4705C22.054 39.4705 22.1165 39.4688 22.179 39.4688L22.1686 39.4966C22.1998 39.4879 22.2294 39.4792 22.2606 39.4705C22.896 39.3143 23.5417 39.4219 24.1823 39.4046C26.3071 39.3056 28.4111 39.0279 30.4873 38.5713C31.7979 38.2831 33.086 37.9012 34.3845 37.5627C34.421 37.5332 34.4574 37.5054 34.4956 37.4759C34.5512 37.4742 34.6085 37.4725 34.664 37.4725C34.6675 37.4516 34.6692 37.4308 34.6727 37.41C37.07 36.6687 39.3754 35.7053 41.6096 34.5717C42.0054 34.372 42.3526 34.0787 42.5678 33.6672C42.4984 33.5961 42.4376 33.6568 42.3751 33.6829Z" fill="#D8586B"/>
<path d="M41.6162 28.3655C41.4097 28.6294 41.4357 29.013 41.1597 29.2404C40.9479 29.6206 40.5833 29.8203 40.2257 30.0303C40.0452 30.7316 39.4532 30.9781 38.863 31.1118C38.1079 31.2819 37.4239 31.0389 36.8788 30.4591C36.7816 30.3567 36.7451 30.2438 36.7486 30.1084C36.5368 30.4903 36.3858 30.9139 35.9935 31.1674C35.8112 31.4416 35.5196 31.5788 35.2609 31.7559C35.4223 31.8635 35.3008 31.9416 35.2331 32.0232C35.0769 32.2089 34.8668 32.3252 34.6707 32.4589C34.6134 32.4867 34.5544 32.5145 34.4971 32.544C34.4953 32.5717 34.4953 32.6013 34.4936 32.629C34.5266 32.8721 34.4519 33.0057 34.1759 32.9832C33.9659 32.9658 33.7541 32.978 33.5423 32.978C33.1673 32.9797 32.7906 32.9814 32.4157 32.9832C32.3289 32.9814 32.2421 32.9797 32.1553 32.978C31.7577 32.728 31.2456 32.6672 30.9245 32.3009C30.6589 31.9989 30.3846 31.8166 29.9767 31.9364C29.9749 31.9364 29.9732 31.9364 29.9714 31.9381C29.7249 32.294 29.4628 32.6342 29.1278 32.9137C29.0705 32.938 29.0132 32.9641 28.9559 32.9884C28.916 33.0387 28.8761 33.0891 28.8361 33.1394C28.7129 33.1776 28.5983 33.2297 28.5115 33.3286C28.5862 33.3807 28.5914 33.4467 28.5358 33.5109C27.9317 34.214 27.1748 34.6427 26.26 34.8059C24.6108 35.0993 23.3331 34.3858 22.177 33.3269C22.1753 33.2974 22.1735 33.2696 22.1701 33.2401C22.1128 33.1533 22.0555 33.0665 21.9982 32.9814C21.9982 32.9519 21.9982 32.9241 21.9982 32.8946C21.7829 32.7662 21.7118 32.5388 21.6579 32.3235C21.5833 32.0267 21.4357 31.8808 21.1233 31.9381C20.8403 32.261 20.5556 32.5839 20.2727 32.9068C20.2171 32.9346 20.1616 32.9623 20.106 32.9884C20.0661 33.0387 20.0261 33.0891 19.9862 33.1411C19.8786 33.1533 19.797 33.2088 19.7328 33.2922C19.5748 33.8685 19.0696 34.1185 18.6183 34.3511C16.8563 35.2538 15.0231 35.0108 13.5805 33.5491C13.466 33.4328 13.3861 33.3026 13.3202 33.1568C13.2906 33.1568 13.2611 33.155 13.2316 33.155C13.2316 33.0995 13.2299 33.0422 13.2299 32.9866C13.2021 32.9849 13.1726 32.9832 13.1448 32.9814C12.8028 32.3791 12.591 31.735 12.5199 31.0458C12.4122 31.1205 12.3046 31.1951 12.197 31.268C12.0755 31.4764 11.822 31.5146 11.6658 31.6795C11.3898 32.2888 10.8325 32.5474 10.2701 32.7992C10.1295 32.8617 9.96281 32.8634 9.84303 32.9797C9.78574 32.9797 9.73019 32.9797 9.67291 32.978C9.61388 32.978 9.55486 32.9797 9.4941 32.9797C9.17642 32.9797 8.85874 32.9797 8.5428 32.9797C7.78766 32.7002 7.11411 32.3079 6.68532 31.5927C6.33466 31.0077 6.10204 30.3792 6.02913 29.6953C6.02913 29.6953 6.02913 29.6953 6.0274 29.6935C5.23233 30.2386 4.3956 30.3272 3.51373 29.9279C3.49464 30.5962 3.74114 31.1708 4.10222 31.7211C4.47719 32.294 5.06047 32.5995 5.5882 32.9814C5.61771 32.9814 5.64896 32.9832 5.67847 32.9832C5.73576 33.0405 5.79478 33.096 5.85207 33.1533C5.90935 33.155 5.96664 33.155 6.02219 33.1568C6.12808 33.2852 6.28258 33.3338 6.42667 33.3929C7.44741 33.8095 8.47162 34.2192 9.4941 34.6323L9.49757 34.6306C9.55486 34.6601 9.61215 34.6896 9.66943 34.7174C11.8776 35.5854 14.1343 36.3006 16.464 36.7623C18.2902 37.1252 20.1216 37.4689 21.993 37.4984L21.9982 37.4949C22.0555 37.4949 22.1128 37.4949 22.1683 37.4949C22.1683 37.5244 22.1701 37.5539 22.1701 37.5835C22.9912 37.5835 23.8157 37.6581 24.6316 37.646C26.01 37.6269 27.3901 37.5713 28.7667 37.4237C29.9957 37.2936 31.2179 37.1304 32.4278 36.8891C33.117 36.7519 33.8044 36.6009 34.4936 36.4551C34.4936 36.4256 34.4953 36.3961 34.4953 36.3683C34.5526 36.3683 34.6099 36.3683 34.6672 36.3666L34.6707 36.37C36.2035 36.0194 37.6912 35.5281 39.1685 34.9917C40.2535 34.5976 41.3038 34.1202 42.3714 33.688C42.4339 33.6619 42.4946 33.6012 42.5658 33.6741C42.7186 33.5734 42.7897 33.4206 42.8314 33.2488C42.8644 33.2175 42.8974 33.1863 42.9304 33.1568C42.9529 33.07 42.9738 32.9832 42.9963 32.8964C43.0258 32.8651 43.0554 32.8321 43.0849 32.8009C43.34 31.9104 43.2428 30.9955 43.2949 30.0893C43.3557 29.0842 42.5224 28.2735 41.6162 28.3655Z" fill="#EF6876"/>
<path d="M2.51038 13.3043C2.78987 12.4381 3.38357 11.8982 4.28974 11.7246C5.44936 11.636 6.19408 12.0718 6.63502 13.1012C6.84507 13.405 6.81903 13.7747 6.9527 14.2261C6.95964 14.2192 6.96832 14.2139 6.97353 14.207C7.02214 13.2349 7.25996 12.4467 7.85019 11.794C7.55334 11.5753 7.18532 11.669 6.86069 11.5666C5.14557 11.025 3.97379 9.97127 3.59709 8.15198H3.59536C3.59536 8.0947 3.59709 8.03567 3.59709 7.97839L3.59362 7.97665C3.50161 7.82042 3.50856 7.64856 3.51029 7.4767C3.51203 6.80314 3.51377 6.13133 3.50856 5.45778C3.50682 5.30675 3.56237 5.13836 3.41308 5.01685C3.07804 5.11232 2.77425 5.27898 2.48434 5.46125C1.55387 6.04627 0.89768 6.82224 0.812618 7.97318C0.791787 7.97665 0.770955 7.97839 0.750124 7.98186C0.74318 8.03741 0.7345 8.09296 0.727556 8.15025C0.711933 8.19538 0.720612 8.2301 0.75186 8.25267C0.581736 9.47305 0.710197 10.6952 0.724084 11.9155C0.7345 12.8356 1.21189 13.3807 2.13021 13.5508C2.17187 13.5647 2.20833 13.5716 2.24305 13.5768C2.2118 13.5647 2.17534 13.556 2.13021 13.5508C2.29513 13.5334 2.43574 13.5352 2.51038 13.3043Z" fill="#D8586B"/>
<path d="M22.2603 39.4723C22.9008 39.4706 23.5449 39.5314 24.182 39.4064C23.5414 39.4237 22.8956 39.3161 22.2603 39.4723Z" fill="#D96E80"/>
<path d="M5.62984 29.2161C5.74441 29.2456 5.85725 29.2699 5.94231 29.1553C5.94058 28.697 5.87114 28.2457 5.78781 27.7961C5.64373 27.0218 6.0864 26.1747 6.80682 25.8622C7.04117 25.3605 7.37621 24.9682 7.93519 24.8154C7.80673 24.6748 7.63834 24.7321 7.48731 24.7321C6.10897 24.7286 4.72888 24.7321 3.35053 24.7269C3.1995 24.7269 3.03111 24.7842 2.90265 24.6436C2.83148 24.6436 2.76551 24.6574 2.72559 24.7251C2.92001 25.7945 2.91307 26.9246 3.59877 27.8533C4.11088 28.5495 4.78964 29.0077 5.62984 29.2161Z" fill="#ECEAF1"/>
<path d="M3.51707 29.9227C4.39893 30.3237 5.23566 30.2352 6.03073 29.6884C6.03073 29.6884 6.03073 29.6884 6.03247 29.6884L6.02205 29.6606C6.00469 29.4905 6.09149 29.3047 5.94393 29.1554C5.85714 29.2683 5.74604 29.244 5.63146 29.2162C4.79126 29.0062 4.1125 28.5496 3.60213 27.857C2.91643 26.9282 2.92337 25.7981 2.72894 24.7288C2.16302 24.9197 2.02414 25.0864 2.03803 25.6644C2.05886 26.588 2.28454 27.482 2.46855 28.3812C2.5432 29.0808 2.99107 29.5287 3.51707 29.9227Z" fill="#D9D6E4"/>
<path d="M8.28418 24.7321C8.51853 26.0966 8.54805 27.4975 8.97683 28.8255C9.1105 29.2404 9.29624 29.6414 9.65559 29.9244C9.66079 29.9227 9.666 29.9192 9.67295 29.9157C9.67295 29.9227 9.67295 29.9313 9.67295 29.9383C9.97153 30.3549 10.3899 30.6049 10.8378 30.8375C11.2718 31.0614 11.7648 31.0597 12.1988 31.2628C12.3064 31.1882 12.414 31.1135 12.5216 31.0406C12.5251 31.0163 12.5303 30.992 12.5373 30.9694C12.4349 30.0997 12.3342 29.2283 12.2283 28.3603C12.1484 27.7058 12.1693 27.067 12.4921 26.4681C12.6432 26.1886 12.8584 25.989 13.1449 25.8605C13.4053 25.5723 13.6656 25.2824 13.926 24.9943C14.1604 24.9474 14.3652 24.6801 14.5822 24.7669C14.8548 24.8762 14.6378 25.2009 14.7228 25.4126C14.7367 25.4474 14.7645 25.4751 14.7871 25.5064C14.7888 25.5064 14.7905 25.5064 14.794 25.5064C14.794 25.5099 14.794 25.5116 14.794 25.5151C14.7767 26.3084 14.9016 27.093 14.9815 27.8777C15.0631 28.678 15.1898 29.4904 15.5856 30.2004C16.5664 31.9607 18.0732 32.9068 20.1026 32.9866C20.1581 32.9588 20.2137 32.9311 20.2692 32.905C20.5522 32.5821 20.8369 32.2593 21.1198 31.9364C21.625 30.8167 21.7413 29.6189 21.8246 28.4158C21.8559 27.9714 21.8854 27.527 21.9166 27.0826C21.9166 26.9681 21.9166 26.8535 21.9166 26.7389C21.9722 26.475 22.0278 26.2112 22.0833 25.9473C22.0573 25.923 22.0312 25.8987 22.0017 25.8761C22 25.8709 21.9982 25.8657 21.9948 25.8605C21.6806 25.0359 21.0261 24.5516 20.2848 24.5985C18.719 24.6228 17.1497 24.6002 15.5821 24.6124C15.4207 24.6141 15.2488 24.5829 15.0961 24.6471C16.8754 24.6471 18.6548 24.6471 20.4341 24.6471C20.3057 24.7877 20.1356 24.7287 19.9845 24.7287C18.3128 24.7321 16.6393 24.7304 14.9676 24.7304C14.9398 24.7026 14.9103 24.6731 14.8826 24.6453C14.9034 24.6453 14.9225 24.6453 14.9433 24.6453C14.9016 24.5985 14.8478 24.569 14.7853 24.5499C13.098 24.4665 11.4106 24.4995 9.72329 24.5342C9.63823 24.5481 9.56532 24.5881 9.49935 24.6436C9.09487 24.6436 8.69039 24.6453 8.28418 24.6453C8.28418 24.6749 8.28418 24.7026 8.28418 24.7321Z" fill="#ECEAF1"/>
<path d="M3.35217 24.7288C4.73052 24.734 6.11061 24.7288 7.48896 24.734C7.63999 24.734 7.80837 24.6768 7.93683 24.8174C8.0462 24.7601 8.1573 24.7167 8.28403 24.7323C8.28403 24.7028 8.28403 24.675 8.28403 24.6455C6.49078 24.6455 4.69754 24.6455 2.9043 24.6455C3.03276 24.7861 3.20115 24.7288 3.35217 24.7288Z" fill="#E7E5EE"/>
<path d="M6.72021 15.8406C6.73237 15.9222 6.74973 16.0055 6.76535 16.0871C6.76361 16.009 6.75493 15.9326 6.73931 15.8545C6.73757 15.8458 6.73063 15.8406 6.72021 15.8406Z" fill="#D9D6E4"/>
<path d="M12.5235 17.3076C12.5182 17.2937 12.5148 17.2798 12.5096 17.2659C11.7301 17.2659 10.9524 17.2642 10.173 17.2659C10.0011 17.2659 9.82751 17.2746 9.67301 17.1774C9.57753 17.1739 9.47511 17.193 9.41262 17.0906C8.5429 16.6531 8.20266 15.898 8.34327 14.9328C8.48041 14.0006 8.55158 13.058 8.62276 12.1188C8.64706 11.8046 8.77205 11.5008 8.71476 11.1814C8.38319 11.3237 8.12975 11.5772 7.85026 11.7942C7.26003 12.4452 7.02221 13.235 6.9736 14.2072C6.97186 14.2332 6.97013 14.2575 6.96839 14.2836C6.96145 14.2645 6.95797 14.2454 6.95277 14.2263C6.8191 13.7749 6.84514 13.4052 6.63509 13.1014C6.23235 13.6222 6.12472 14.2436 6.03271 14.8686C5.96154 15.3477 5.91293 15.8303 5.85391 16.3111C5.43728 16.3111 5.01891 16.3146 4.60228 16.3111C4.01553 16.3077 3.55376 15.9015 3.64056 15.346C3.83152 14.1343 3.98428 12.9156 4.28981 11.7248C3.38364 11.8983 2.78994 12.4382 2.51045 13.3045C2.43581 13.5354 2.2952 13.5336 2.12681 13.5544C2.17194 13.5597 2.2084 13.5683 2.23964 13.5805C2.42192 13.6465 2.41498 13.8183 2.37505 14.0041C2.22055 14.7037 2.10771 15.4119 2.01744 16.1237C1.93238 16.7937 2.28304 17.2572 2.95833 17.2642C3.89575 17.2729 4.8349 17.2607 5.77232 17.2572C5.75496 16.9291 5.83481 16.6184 5.94244 16.3129C6.2011 16.3355 6.47364 16.2487 6.71668 16.4032C6.71668 16.2157 6.71668 16.0282 6.71668 15.8407C6.71494 15.8407 6.7132 15.839 6.70973 15.8407C6.67675 15.8476 6.69411 15.8303 6.71668 15.832C6.71668 15.8268 6.71668 15.8216 6.71668 15.8164C6.71668 15.8216 6.71841 15.8268 6.71841 15.832C6.7323 15.8338 6.74966 15.8424 6.75313 15.8702C6.77223 15.957 6.77744 16.0421 6.77396 16.1289C6.8191 16.3632 6.84687 16.5958 6.72536 16.8267C6.78091 16.9725 6.83646 17.1166 6.89201 17.2625C7.1281 17.6392 7.4371 17.9204 7.8763 18.0454C8.4075 18.1964 8.94912 18.2363 9.49768 18.2259C9.5567 18.2259 9.61572 18.2259 9.67475 18.2259C10.607 18.4759 11.5461 18.3769 12.487 18.2815C12.5026 18.2485 12.5148 18.2155 12.5287 18.1825C12.4071 17.8909 12.4141 17.5992 12.5235 17.3076Z" fill="#D9D6E4"/>
<path d="M6.71676 16.4032C6.47372 16.2487 6.20118 16.3355 5.94252 16.3129C5.83489 16.6185 5.75504 16.9292 5.7724 17.2573C6.14563 17.259 6.51886 17.259 6.89382 17.2608C6.83827 17.115 6.78272 16.9709 6.72717 16.825C6.7237 16.6844 6.72023 16.5438 6.71676 16.4032Z" fill="#C6C4D6"/>
<path d="M43.2481 8.18325C43.2585 8.17457 43.2689 8.16589 43.2776 8.15721C43.2759 8.09819 43.2724 8.03916 43.2706 7.97841C43.2394 7.91938 43.2082 7.86036 43.1786 7.80134C43.1943 7.48887 43.0901 7.20417 42.9634 6.92815C42.5884 6.11746 41.8784 5.68174 41.1267 5.29115C40.014 4.71134 38.8474 4.24957 37.7104 3.7201C37.6201 3.60553 37.4934 3.54477 37.3615 3.49443C37.3024 3.47707 37.2417 3.4736 37.1809 3.48401C37.1531 3.49096 37.1271 3.50311 37.1011 3.51353C37.0993 3.50137 37.0976 3.48749 37.0941 3.47533C37.0524 3.47186 37.0091 3.46839 36.9674 3.46492C36.95 3.44409 36.9396 3.41805 36.9361 3.38507C36.8372 3.27744 36.7191 3.22709 36.5733 3.2757C36.5473 3.28091 36.5212 3.28612 36.4952 3.28959C36.4674 3.26008 36.4397 3.22883 36.4101 3.19932C36.3563 3.15418 36.3008 3.15245 36.2435 3.19585C36.2435 3.19585 36.2331 3.20453 36.2296 3.208C36.2383 3.19585 36.2452 3.18369 36.2539 3.17154C36.247 3.15766 36.24 3.14377 36.2331 3.12988C36.1168 3.1021 36.0022 3.07607 35.8859 3.04829C35.8616 3.0344 35.8355 3.02919 35.8078 3.03093C35.6776 2.92504 35.5196 2.90421 35.3616 2.87817C35.1672 2.79137 34.9728 2.70457 34.7575 2.68721C34.6898 2.59868 34.5926 2.60215 34.4954 2.60388C34.4138 2.56743 34.3305 2.53097 34.2489 2.49278C34.1621 2.35738 34.0336 2.32266 33.8826 2.34696C33.7142 2.31051 33.5458 2.27232 33.3757 2.23586C33.3427 2.20982 33.3045 2.19767 33.2611 2.19767C33.2455 2.20461 33.2316 2.21156 33.216 2.2185C33.032 2.14733 32.848 2.07442 32.664 2.00324C32.5476 1.87131 32.4157 1.80708 32.2438 1.89561C32.0512 1.85742 31.8585 1.81923 31.6675 1.78278C31.6519 1.76542 31.6276 1.75327 31.6068 1.74285C31.5877 1.73764 31.5668 1.73243 31.5477 1.72723C31.1415 1.63696 30.7353 1.54669 30.3291 1.45642C30.3221 1.46163 30.3169 1.47031 30.3117 1.47725C30.1503 1.36788 29.9611 1.39045 29.7805 1.3783C29.7649 1.35226 29.7458 1.32969 29.7215 1.3106C29.6364 1.30192 29.5514 1.29497 29.4663 1.28629C29.4576 1.29497 29.449 1.30192 29.4403 1.3106C29.2875 1.26546 29.1365 1.19429 28.9698 1.22727C28.9612 1.21859 28.9525 1.20991 28.9438 1.20123C28.5671 1.16304 28.2025 1.02416 27.8154 1.05194V1.02764C27.3519 0.755091 26.8433 0.748147 26.3277 0.774187C26.2808 0.786338 26.2479 0.803698 26.2218 0.822793C26.1524 0.775923 26.0673 0.788074 25.9875 0.775923C25.7062 0.671765 25.4146 0.671765 25.1212 0.694333C25.0674 0.69954 25.0119 0.704748 24.958 0.70822C24.9442 0.680445 24.9181 0.650934 24.8747 0.623158C24.5501 0.584967 24.2289 0.439147 23.8991 0.595383C23.8696 0.607535 23.8401 0.61795 23.8106 0.630102C23.2655 0.62663 22.7187 0.623158 22.1736 0.621422C22.1128 0.611007 22.0538 0.600591 21.993 0.591911L22.0017 0.621422C19.8578 0.55372 17.733 0.741203 15.6186 1.07451C13.624 1.39045 11.6693 1.86784 9.75974 2.5275C9.73023 2.52056 9.70246 2.51362 9.67294 2.50667C9.5549 2.56743 9.43512 2.62645 9.31707 2.68721C8.95079 2.80699 8.57929 2.91636 8.21821 3.05003C6.59336 3.65067 4.97197 4.26172 3.41309 5.02554C3.56238 5.14532 3.50856 5.31545 3.50856 5.46648C3.51377 6.13829 3.51204 6.81184 3.5103 7.48539C3.5103 7.65725 3.50162 7.82911 3.59363 7.98535L3.5971 7.98709C3.5971 8.04437 3.59536 8.10339 3.59536 8.16068H3.5971C3.9738 9.97996 5.14557 11.0337 6.8607 11.5753C7.18532 11.6777 7.55334 11.5857 7.85019 11.8027C8.12968 11.5857 8.38139 11.3323 8.7147 11.1899C8.87961 11.0233 9.08272 10.9469 9.31187 10.9313C9.37263 10.9 9.43512 10.8688 9.49588 10.8393C9.5549 10.8445 9.61392 10.8497 9.67121 10.8549C9.75974 10.8288 9.84654 10.8011 9.93507 10.775C9.93507 10.7733 9.93507 10.7733 9.93507 10.7716C9.93855 10.7716 9.94202 10.7716 9.94549 10.7716C10.9003 10.7611 11.7196 11.1066 12.4331 11.7229C12.9956 11.7229 13.558 11.7229 14.1187 11.7246C14.5145 11.3097 14.827 10.7993 15.3877 10.565C15.8321 10.0997 16.4276 9.96608 17.0195 9.91053C18.6114 9.75776 19.929 10.2855 20.8872 11.6083C20.9202 11.6534 20.9688 11.6881 21.0087 11.7281C21.3368 11.7246 21.6649 11.7229 21.993 11.7194H22C22 11.7194 22 11.7194 22 11.7177C22 11.7177 22.0017 11.7177 22.0017 11.7194C22.0573 11.7194 22.1111 11.7194 22.1666 11.7194H22.1736C22.4322 11.7558 22.7065 11.6361 22.9513 11.8027C23.1839 11.5475 23.4182 11.2923 23.6509 11.0372C24.2498 10.289 25.0796 9.99559 25.9875 9.90532C27.6384 9.7404 28.9351 10.3775 29.8951 11.7211C30.4437 11.7697 31.0026 11.6204 31.5443 11.8062C31.6797 11.6968 31.8168 11.5857 31.9522 11.4764C31.9592 11.4694 31.9678 11.4642 31.9748 11.4573C32.5338 10.9469 33.2056 10.7889 33.9399 10.8202C34.1239 10.8288 34.3096 10.8427 34.4937 10.8549C34.4954 10.8775 34.4989 10.8983 34.5006 10.9209C34.5579 10.9313 34.6152 10.9417 34.6725 10.9504L34.6638 10.9122C35.2349 11.0788 35.714 11.3982 36.1428 11.8027C36.3164 11.6447 36.5299 11.7159 36.7226 11.7229C37.4239 11.7472 38.1287 11.6395 38.8266 11.7819C39.2363 11.6864 39.646 11.6847 40.0557 11.7888C40.2657 11.6465 40.5018 11.7246 40.7257 11.7229C41.5729 11.7124 42.42 11.7177 43.2654 11.7177C43.2845 11.6066 43.3193 11.4937 43.3227 11.3826C43.3574 10.3098 43.3366 9.24565 43.2481 8.18325Z" fill="#EF6876"/>
<path d="M9.67312 17.179C9.82762 17.2744 10.0012 17.2675 10.1731 17.2675C10.9525 17.2658 11.7302 17.2675 12.5097 17.2675C12.5184 17.2675 12.5288 17.2675 12.5375 17.2675C12.652 16.2311 12.777 15.1948 12.8794 14.1584C12.9176 13.78 13.1294 13.4536 13.1607 13.0786C13.086 12.5353 12.7423 12.136 12.4333 11.7176C11.7181 11.1014 10.9004 10.7559 9.94567 10.7663C9.9422 10.7681 9.93872 10.7681 9.93525 10.7698C9.84672 10.7959 9.75992 10.8236 9.67139 10.8497C9.67312 12.9589 9.67312 15.068 9.67312 17.179Z" fill="#ECEAF1"/>
<path d="M9.49922 11.2075C9.49749 13.1066 9.49922 15.0058 9.49402 16.9032C9.49402 16.9657 9.4402 17.0281 9.41243 17.0924C9.47492 17.1948 9.57734 17.1757 9.67282 17.1792C9.67282 15.0683 9.67282 12.9591 9.67282 10.8481C9.6138 10.8429 9.55477 10.8377 9.49749 10.8325C9.43673 10.8638 9.37424 10.895 9.31348 10.9245C9.48707 10.9454 9.49922 11.0686 9.49922 11.2075Z" fill="#E8E7F0"/>
<path d="M34.4973 32.0283C34.0685 32.0058 33.6345 32.0804 33.2075 31.9867C31.9611 31.7107 31.2042 30.9312 30.8744 29.7143C30.8258 29.5338 30.7945 29.3498 30.7563 29.1675C30.7043 29.223 30.6522 29.2803 30.6001 29.3359C30.5029 30.2282 30.3553 31.1083 29.9717 31.9311C29.9734 31.9329 29.9734 31.9329 29.9752 31.9346C30.3848 31.8148 30.6574 31.9988 30.923 32.2991C31.2441 32.6637 31.7562 32.7245 32.1538 32.9762C32.2406 32.9779 32.3274 32.9796 32.4142 32.9814C32.7891 32.9796 33.1658 32.9779 33.5408 32.9762C33.862 32.8703 34.1467 32.6672 34.4921 32.6272C34.4921 32.5995 34.4938 32.57 34.4956 32.5422C34.4973 32.3703 34.4973 32.1985 34.4973 32.0283Z" fill="#D8586B"/>
<path d="M34.4971 32.0284C34.4971 32.2003 34.4971 32.3704 34.4971 32.5423C34.5544 32.5145 34.6134 32.4867 34.6707 32.4572C34.8668 32.3235 35.0786 32.209 35.2331 32.0215C35.3008 31.9399 35.4223 31.8618 35.2609 31.7542C35.0074 31.8462 34.7523 31.9364 34.4971 32.0284Z" fill="#DA5F72"/>
<path d="M33.5425 32.9747C33.7543 32.9747 33.9661 32.9625 34.1761 32.9799C34.4521 33.0024 34.5268 32.8688 34.4938 32.6257C34.1483 32.6657 33.8619 32.8688 33.5425 32.9747Z" fill="#ED6675"/>
<path d="M40.9028 24.7288C39.9255 24.734 38.9464 24.7322 37.9691 24.7322C37.917 25.2617 38.0906 25.7651 38.1618 26.2807C38.2416 26.8622 38.3423 27.4386 38.693 27.949C39.2936 28.8221 40.08 29.303 41.1598 29.244C41.4358 29.0166 41.4097 28.6312 41.6163 28.3691C41.7361 27.5618 41.8472 26.7511 41.9809 25.9457C42.092 25.2791 41.9496 24.9631 41.3524 24.6506C41.224 24.786 41.0539 24.727 40.9028 24.7288Z" fill="#ECEAF1"/>
<path d="M35.8874 24.7305C36.6287 24.8607 37.2397 25.5655 37.271 26.3745C37.2918 26.93 37.2675 27.482 37.0471 28.0115C36.9932 28.14 37.0262 28.3049 37.0262 28.4559C37.0314 28.4576 37.0384 28.4594 37.0436 28.4611C37.0957 28.3934 37.0609 28.2702 37.1946 28.2337C37.3161 28.5045 37.3456 28.8083 37.5001 29.0704C38.0522 30.0078 38.9479 30.3273 40.2273 30.0322C40.5832 29.8221 40.9495 29.6225 41.1613 29.2423C40.0815 29.3013 39.2951 28.8222 38.6945 27.9473C38.3438 27.4369 38.2431 26.8623 38.1633 26.279C38.0921 25.7634 37.9185 25.2617 37.9706 24.7305C37.9706 24.7028 37.9706 24.675 37.9689 24.6472C37.2762 24.6472 36.5836 24.6472 35.8892 24.6472C35.8874 24.675 35.8857 24.7028 35.8874 24.7305Z" fill="#D9D6E4"/>
<path d="M37.9693 24.7306C38.9466 24.7306 39.9257 24.7323 40.9031 24.7271C41.0541 24.7271 41.2225 24.7844 41.3509 24.6455C40.2226 24.6455 39.0942 24.6455 37.9658 24.6472C37.9693 24.675 37.9693 24.7028 37.9693 24.7306Z" fill="#E6E4EC"/>
<path d="M41.4341 13.1568C41.2171 12.485 40.7623 11.9937 40.0575 11.7837C39.6478 11.6795 39.2381 11.6812 38.8284 11.7767C38.8041 11.7923 38.7781 11.8045 38.752 11.8149C38.4465 12.4746 38.391 13.1985 38.2382 13.8946C38.1288 14.398 37.957 14.891 37.9656 15.417C37.9761 16.0055 38.2712 16.3093 38.8718 16.311C39.7519 16.3145 40.6338 16.3093 41.5139 16.3145C41.665 16.3163 41.8351 16.2572 41.9636 16.3996C42.0573 16.3249 42.0486 16.2277 42.0313 16.1253C41.9202 15.4778 41.8386 14.8251 41.691 14.1862C41.606 13.8199 41.6181 13.5891 42.0504 13.5526C41.7344 13.5925 41.5487 13.5144 41.4341 13.1568Z" fill="#ECEAF1"/>
<path d="M37.0768 14.6428C37.0525 14.5021 37.0021 14.3667 37.0177 14.2209C37.0073 13.3113 36.7608 12.4884 36.1446 11.7975C35.7158 11.3931 35.2367 11.0736 34.6655 10.907L34.6742 10.9452C34.6725 13.0526 34.6707 15.1601 34.669 17.2675C35.4502 17.2675 36.2331 17.2675 37.0143 17.2693C37.0421 17.2693 37.0716 17.2693 37.0993 17.2675C37.4517 16.3874 37.2243 15.5142 37.0768 14.6428Z" fill="#ECEAF1"/>
<path d="M34.6706 17.2659C34.6133 17.2659 34.5543 17.2659 34.497 17.2659C34.2522 17.2659 34.0057 17.2676 33.761 17.2676C32.0441 17.2676 31.282 16.3597 31.5511 14.6862C31.6969 13.7818 31.7802 12.867 31.8948 11.9573C31.9156 11.7959 31.9469 11.6344 31.9729 11.4747C31.966 11.4712 31.9608 11.4712 31.9538 11.4678C31.8184 11.5771 31.6813 11.6882 31.5459 11.7976C31.0199 12.4243 30.7248 13.1447 30.6762 13.9623C30.6172 14.9518 30.7994 15.9274 30.8532 16.91C30.8775 17.3579 30.8376 17.7953 30.6814 18.2172C30.6762 18.2206 30.671 18.2224 30.6658 18.2259C30.6779 18.2415 30.6918 18.2571 30.7092 18.271C30.8098 18.3317 30.9244 18.3526 31.039 18.3543C32.058 18.3665 33.077 18.3647 34.096 18.356C34.2418 18.3543 34.3824 18.33 34.497 18.2259C34.556 18.2259 34.6151 18.2259 34.6723 18.2259C35.0612 18.2658 35.4448 18.1807 35.8198 18.1182C36.3371 18.0314 36.8024 17.8092 37.0159 17.2676C36.2347 17.2659 35.4535 17.2659 34.6706 17.2659Z" fill="#D9D6E4"/>
<path d="M41.5154 16.3145C40.6353 16.3093 39.7534 16.3145 38.8733 16.3111C38.2726 16.3093 37.9775 16.0038 37.9671 15.4171C37.9584 14.8911 38.1303 14.398 38.2397 13.8946C38.3924 13.1968 38.4462 12.4746 38.7535 11.8149C37.8109 12.1326 37.3404 12.8235 37.1929 13.7766C37.1686 13.9363 37.2363 14.1342 37.021 14.221C37.0054 14.3668 37.0557 14.5022 37.08 14.6428C37.2276 15.5143 37.455 16.3875 37.1061 17.2641C38.3751 17.2641 39.6458 17.2676 40.9148 17.2658C41.4547 17.2658 42.0345 17.0089 41.9668 16.3996C41.8366 16.2573 41.6664 16.3163 41.5154 16.3145Z" fill="#D9D6E4"/>
<path d="M40.7277 11.7161C40.5055 11.7195 40.2694 11.6414 40.0576 11.782C40.7624 11.9938 41.2172 12.4833 41.4342 13.1552C41.5505 13.5128 41.7346 13.5909 42.0505 13.551C42.9844 13.2107 43.3004 12.7333 43.2674 11.7108C42.4203 11.7108 41.5731 11.7056 40.7277 11.7161Z" fill="#D8586B"/>
<path d="M29.9089 24.8712C30.737 25.3781 30.9557 26.1506 30.8377 27.0602C30.7578 27.6695 30.6693 28.2771 30.6762 28.8934C30.7839 28.9611 30.7682 29.0635 30.7561 29.1659C30.7943 29.3482 30.8255 29.5339 30.8741 29.7127C31.204 30.9296 31.9608 31.7091 33.2073 31.9851C33.6343 32.0789 34.0666 32.0042 34.4971 32.0268C34.7523 31.9365 35.0074 31.8445 35.2626 31.7542C35.523 31.5772 35.8147 31.44 35.9952 31.1657C35.5352 31.1171 35.0786 31.0477 34.6707 30.8064C34.5995 30.8047 34.5353 30.789 34.4971 30.7196C33.6187 30.3221 33.0562 29.6259 32.8201 28.7232C32.5389 27.647 32.4209 26.5359 32.3271 25.4249C32.1535 25.1819 32.2803 24.9041 32.2369 24.6472C32.2438 24.6472 32.2525 24.6472 32.2594 24.6472C32.2438 24.6264 32.2282 24.6056 32.2056 24.5865C31.4314 24.4459 30.6554 24.4875 29.8794 24.5639C29.8412 24.5847 29.8135 24.6056 29.7892 24.6264C29.7961 24.6333 29.8048 24.6385 29.8135 24.6455C29.7336 24.7705 29.8135 24.8121 29.9089 24.8712Z" fill="#D9D6E4"/>
<path d="M37.4986 29.0687C37.3441 28.8065 37.3146 28.5027 37.1931 28.2319C37.0594 28.2684 37.0942 28.3916 37.0421 28.4593C37.0369 28.4663 37.0317 28.4732 37.0265 28.4784C37.049 29.0409 36.8876 29.5721 36.7522 30.1085C36.7487 30.2422 36.7852 30.355 36.8824 30.4592C37.4257 31.039 38.1114 31.2837 38.8666 31.1119C39.4568 30.9782 40.047 30.7334 40.2293 30.0304C38.9464 30.3272 38.0507 30.0061 37.4986 29.0687Z" fill="#D8586B"/>
<path d="M4.28952 11.7247C3.98226 12.9155 3.83123 14.1359 3.64028 15.3459C3.55174 15.9014 4.01524 16.3076 4.602 16.3111C5.01863 16.3145 5.43699 16.3111 5.85362 16.3111C5.91264 15.8302 5.96125 15.3476 6.03242 14.8685C6.12617 14.2435 6.23379 13.6221 6.6348 13.1013C6.19387 12.0719 5.44914 11.6344 4.28952 11.7247Z" fill="#ECEAF1"/>
<path d="M22.002 27.3328C22.002 27.3347 22.002 27.3347 22.002 27.3367C22.0058 27.3347 22.0097 27.3347 22.0136 27.3347C22.0097 27.3328 22.0058 27.3328 22.002 27.3328Z" fill="#D9D6E4"/>
<path d="M22.0832 25.9457C22.0276 26.2096 21.9721 26.4734 21.9165 26.7373C22.0589 26.9144 22.104 27.1175 22.0727 27.3379C22.13 27.89 22.189 28.442 22.2463 28.994C22.3748 29.8811 22.3383 30.796 22.7827 31.6223C23.0379 32.0962 23.3678 32.5041 23.7393 32.8843C23.8538 32.9728 23.9667 33.0614 24.0812 33.1499C25.5256 34.0474 27.0011 34.129 28.5114 33.3235C28.5999 33.2246 28.7145 33.1725 28.836 33.1343C28.876 33.0839 28.9159 33.0336 28.9558 32.9833C26.8831 32.9051 25.2044 31.6917 24.5274 29.7665C24.2965 29.1103 24.2514 28.416 24.1854 27.7337C24.0847 26.706 23.892 25.6836 23.9059 24.6455C23.9111 24.6402 23.9181 24.635 23.9233 24.6298C23.7514 24.4962 23.5622 24.5465 23.3799 24.6038C22.847 24.7704 22.4026 25.0569 22.1196 25.5568C22.0641 25.6523 22.0259 25.753 21.9946 25.8589C21.9964 25.8641 21.9981 25.8693 22.0016 25.8745C22.0311 25.8971 22.0571 25.9214 22.0832 25.9457Z" fill="#D9D6E4"/>
<path d="M24.0795 33.1517C23.9649 33.0631 23.8521 32.9746 23.7375 32.8861C23.366 32.5059 23.0362 32.0979 22.781 31.624C22.3366 30.7977 22.3731 29.8811 22.2446 28.9958C22.1873 28.4437 22.1283 27.8917 22.071 27.3397C22.0519 27.3379 22.0311 27.3362 22.0103 27.3345C22.0068 27.3345 22.0033 27.3362 21.9998 27.3362C21.9981 29.1885 21.9964 31.039 21.9946 32.8913C21.9946 32.9208 21.9946 32.9486 21.9946 32.9781C22.0519 33.0649 22.1092 33.1517 22.1665 33.2367C22.1682 33.2662 22.17 33.294 22.1734 33.3235C23.3296 34.3825 24.6072 35.0959 26.2564 34.8026C27.1713 34.6394 27.9281 34.2106 28.5322 33.5075C28.5878 33.4433 28.5826 33.3773 28.5079 33.3253C26.9994 34.129 25.5238 34.0492 24.0795 33.1517Z" fill="#D8586B"/>
<path d="M9.6748 32.0302C9.6748 32.3444 9.67481 32.6586 9.67654 32.9745C9.73383 32.9745 9.78938 32.9745 9.84666 32.9763C9.96471 32.8599 10.1331 32.8582 10.2737 32.7957C10.8362 32.544 11.3934 32.2853 11.6694 31.676C11.0323 31.9555 10.3657 32.0614 9.6748 32.0302Z" fill="#D9596B"/>
<path d="M9.67491 32.0302C9.58638 32.0042 9.49785 31.9764 9.40931 31.9504C7.85216 31.4973 7.13695 30.4731 6.98071 28.7302C6.95814 28.4733 6.91995 28.2198 6.89044 27.9629C6.78975 28.3014 6.71164 28.6486 6.5797 28.9732C6.46687 29.2492 6.30889 29.5131 6.02246 29.6607L6.03288 29.6884V29.6902C6.10579 30.3724 6.34014 31.0008 6.68907 31.5876C7.11611 32.3028 7.78966 32.6951 8.54654 32.9746C8.86422 32.9746 9.1819 32.9746 9.49785 32.9746C9.55687 32.9746 9.61763 32.9729 9.67665 32.9729C9.67491 32.6587 9.67491 32.3444 9.67491 32.0302Z" fill="#D8586B"/>
<path d="M15.5857 30.1988C15.1899 29.4871 15.0632 28.6764 14.9816 27.8761C14.9017 27.0914 14.7768 26.3068 14.7941 25.5135C14.7924 25.51 14.7889 25.5082 14.7872 25.5048C14.7646 25.4735 14.7368 25.4458 14.7229 25.411C14.6379 25.1975 14.8549 24.8746 14.5823 24.7653C14.3653 24.6785 14.1605 24.9458 13.9261 24.9927C13.6657 25.2808 13.4054 25.5707 13.145 25.8589C13.2734 26.0499 13.138 26.2426 13.1345 26.4335C13.1224 27.3848 13.2595 28.3205 13.4001 29.2562C13.4956 30.6328 13.8255 31.9157 14.8774 32.9052C14.9608 32.9746 15.0424 33.0458 15.1257 33.1152C15.1361 33.1239 15.1465 33.1326 15.1569 33.1412C15.7315 33.4763 16.3218 33.7506 16.9953 33.8565C17.9883 34.0127 18.8736 33.7332 19.7329 33.2888C19.7971 33.2055 19.8787 33.1499 19.9864 33.1378C20.0263 33.0874 20.0662 33.0371 20.1061 32.985C18.0751 32.9052 16.5665 31.9591 15.5857 30.1988Z" fill="#D9D6E4"/>
<path d="M16.9936 33.8564C16.3218 33.7505 15.7298 33.4762 15.1552 33.1412C15.1413 33.1412 15.1274 33.1412 15.1135 33.1412C15.1187 33.1308 15.1205 33.1238 15.124 33.1151C15.0406 33.0457 14.959 32.9745 14.8757 32.9051C13.8237 31.9156 13.4939 30.6327 13.3984 29.2561C13.2613 29.2978 13.2509 29.4123 13.2335 29.5286C13.1484 30.0807 12.8985 30.5529 12.5356 30.9695C12.5287 30.9921 12.5235 31.0164 12.52 31.0407C12.5912 31.7298 12.8012 32.3739 13.145 32.9763C13.1727 32.978 13.2023 32.9797 13.23 32.9815C13.23 33.037 13.2318 33.0943 13.2318 33.1499C13.2613 33.1499 13.2908 33.1516 13.3203 33.1516C13.3863 33.2957 13.4661 33.4276 13.5807 33.5439C15.0233 35.0056 16.8564 35.2504 18.6184 34.3459C19.0698 34.115 19.5749 33.8633 19.7329 33.287C18.8719 33.7331 17.9865 34.0126 16.9936 33.8564Z" fill="#D8586B"/>
<path d="M10.838 30.8376C10.3901 30.6067 9.97177 30.3567 9.67318 29.9384C9.66798 29.9331 9.66277 29.9279 9.65582 29.9245C9.29475 29.6415 9.11073 29.2405 8.97707 28.8256C8.54828 27.4959 8.51877 26.0949 8.28442 24.7322C8.15769 24.7166 8.04659 24.76 7.93723 24.8173C7.37825 24.97 7.04321 25.3624 6.80886 25.8641C6.64047 26.4595 6.75504 27.0688 6.72379 27.6712C6.71685 27.8083 6.85399 27.8552 6.89045 27.9628C6.92169 28.218 6.95815 28.4732 6.98072 28.7301C7.13695 30.473 7.85217 31.4955 9.40932 31.9503C9.49785 31.9764 9.58639 32.0041 9.67492 32.0302C10.3658 32.0632 11.0324 31.9555 11.6695 31.6743C11.824 31.5094 12.0792 31.4712 12.2007 31.2629C11.765 31.0615 11.272 31.0615 10.838 30.8376Z" fill="#D9D6E4"/>
<path d="M6.57781 28.9748C6.70975 28.6502 6.78786 28.3013 6.88855 27.9645C6.85383 27.8551 6.71495 27.81 6.7219 27.6729C6.75315 27.0705 6.63857 26.4612 6.80696 25.8657C6.0848 26.1782 5.64387 27.0271 5.78795 27.7996C5.87128 28.2475 5.93898 28.7005 5.94245 29.1588C6.09001 29.3081 6.00321 29.4939 6.02057 29.664C6.307 29.513 6.46498 29.2491 6.57781 28.9748Z" fill="#C5C3D6"/>
<path d="M14.9677 24.7305C16.6394 24.7305 18.3128 24.7323 19.9846 24.7288C20.1356 24.7288 20.3057 24.7861 20.4342 24.6472C18.6548 24.6472 16.8755 24.6472 15.0961 24.6472C15.044 24.6472 14.9937 24.6472 14.9416 24.6472C14.9208 24.6472 14.9017 24.6472 14.8809 24.6472C14.9104 24.675 14.9399 24.7028 14.9677 24.7305Z" fill="#E6E4EC"/>
<path d="M8.62463 12.1204C8.55346 13.0613 8.48055 14.0022 8.34514 14.9344C8.20453 15.8996 8.54478 16.6547 9.41449 17.0922C9.44227 17.0297 9.49608 16.9672 9.49608 16.903C9.50129 15.0038 9.49955 13.1047 9.50129 11.2073C9.50129 11.0684 9.48914 10.9451 9.31381 10.9243C9.08466 10.9399 8.87982 11.0163 8.71664 11.183C8.77219 11.5041 8.6472 11.8062 8.62463 12.1204Z" fill="#ECEAF1"/>
<path d="M13.1468 17.6982C13.1468 17.5836 13.1451 17.469 13.1451 17.3544C12.9559 17.2329 12.7441 17.2746 12.5375 17.2676C12.5323 17.2815 12.5271 17.2954 12.5219 17.3093C12.4142 17.6009 12.4073 17.8926 12.5253 18.1842C12.5288 18.1946 12.5323 18.2051 12.5375 18.2155C12.7979 18.2172 13.0565 18.2207 13.3169 18.2224C13.343 18.0193 13.2162 17.8683 13.1468 17.6982Z" fill="#C6C4D7"/>
<path d="M6.72716 16.8251C6.84694 16.5959 6.81916 16.3616 6.77577 16.1272C6.77229 16.1133 6.77056 16.0994 6.76882 16.0855C6.7532 16.0039 6.73584 15.9206 6.72369 15.839C6.72369 15.8356 6.72195 15.8321 6.72195 15.8286C6.72195 15.8234 6.72021 15.8182 6.72021 15.813C6.72021 15.8182 6.72021 15.8234 6.72021 15.8286C6.72021 15.8321 6.72021 15.8356 6.72021 15.8373C6.72021 16.0248 6.72021 16.2123 6.72021 16.3997C6.72021 16.5438 6.72369 16.6844 6.72716 16.8251Z" fill="#EEEDF3"/>
<path d="M21.9965 16.0265C21.9965 16.1515 22.0382 16.2886 21.9219 16.391C21.9219 16.4483 21.9219 16.5074 21.9236 16.5646C21.974 16.5646 22.0243 16.5629 22.0746 16.5629C22.1319 15.9553 22.1909 15.346 22.2482 14.7384C22.3281 13.7194 22.4027 12.6987 22.953 11.7925C22.7083 11.6258 22.434 11.7456 22.1753 11.7092H22.1684C22.1128 11.7092 22.059 11.7092 22.0035 11.7092H22.0017H21.9948C21.9965 13.15 21.9983 14.5891 21.9965 16.0265Z" fill="#D8596C"/>
<path d="M31.8952 11.9557C31.7806 12.8653 31.6973 13.7802 31.5514 14.6846C31.2824 16.3581 32.0427 17.266 33.7613 17.266C34.0061 17.266 34.2526 17.266 34.4974 17.2643C34.4991 15.1464 34.5026 13.0285 34.5043 10.9107C34.5026 10.8881 34.4991 10.8673 34.4974 10.8447C34.3134 10.8325 34.1276 10.8169 33.9436 10.81C33.211 10.7787 32.5375 10.935 31.9785 11.4471C31.9768 11.4557 31.975 11.4644 31.9733 11.4714C31.9472 11.6345 31.916 11.7943 31.8952 11.9557Z" fill="#ECEAF1"/>
<path d="M34.4971 17.2659C34.5544 17.2659 34.6134 17.2659 34.6707 17.2659C34.6724 15.1585 34.6741 13.051 34.6759 10.9436C34.6186 10.9332 34.5613 10.9227 34.504 10.9141C34.5023 13.0302 34.4988 15.1481 34.4971 17.2659Z" fill="#E8E7F0"/>
<path d="M37.0195 14.2209C37.2347 14.1341 37.167 13.9345 37.1913 13.7765C37.3371 12.8235 37.8093 12.1326 38.7519 11.8149C38.778 11.8045 38.804 11.7923 38.8283 11.7767C38.1305 11.6361 37.4257 11.742 36.7243 11.7177C36.5334 11.7107 36.3199 11.6378 36.1445 11.7975C36.7625 12.4867 37.009 13.3113 37.0195 14.2209Z" fill="#D8586B"/>
<path d="M21.9967 17.0125C21.87 16.8805 21.9255 16.7191 21.9221 16.5663C21.9221 16.509 21.9221 16.45 21.9203 16.3927C21.8214 15.3112 21.7519 14.2262 21.5697 13.1517C21.4811 12.6326 21.245 12.1778 21.0107 11.7213C20.969 11.6813 20.9221 11.6466 20.8892 11.6015C19.9309 10.2804 18.6133 9.75268 17.0214 9.90371C16.4295 9.961 15.8341 10.0929 15.3896 10.5582C15.3254 11.2213 15.2699 11.8862 15.1883 12.5476C15.1692 12.7021 15.1449 12.8566 15.1414 13.0128C15.1414 13.0423 15.1414 13.0718 15.1397 13.1013C15.0598 13.4433 15.0373 13.7905 15.0529 14.1412C14.9209 14.3599 14.9782 14.6012 14.9678 14.8356C14.8411 15.2609 14.8463 15.7035 14.7925 16.1375C14.7925 16.1948 14.7925 16.2538 14.7925 16.3111C14.8168 17.443 15.6622 18.212 16.9121 18.2189C18.3425 18.2259 19.7729 18.2189 21.2034 18.2224C21.3544 18.2224 21.5245 18.1651 21.653 18.3092C21.8405 18.1825 21.7919 17.9013 21.9967 17.7867C22.0245 17.7867 22.054 17.7867 22.0818 17.7867C22.0661 17.528 21.955 17.2781 21.9967 17.0125Z" fill="#ECEAF1"/>
<path d="M21.2066 18.2224C19.7762 18.2189 18.3458 18.2258 16.9154 18.2189C15.6655 18.2119 14.8183 17.4429 14.7958 16.3111C14.7958 16.2538 14.7958 16.1948 14.7958 16.1375C14.8496 15.7035 14.8426 15.2608 14.9711 14.8355C14.9815 14.6011 14.9259 14.3599 15.0561 14.1411C15.0405 13.7905 15.0631 13.4433 15.1429 13.1013C15.1429 13.0718 15.1429 13.0423 15.1447 13.0127C15.1482 12.8565 15.1725 12.702 15.1915 12.5475C15.2731 11.8861 15.3287 11.2212 15.3929 10.5581C14.8322 10.7942 14.5197 11.3028 14.1239 11.7177C13.7958 12.3566 13.4955 13.0041 13.3705 13.7262C13.3028 13.5092 13.2334 13.294 13.1657 13.077C13.1344 13.4519 12.9209 13.7783 12.8845 14.1567C12.782 15.1948 12.6571 16.2295 12.5425 17.2658C12.7473 17.2728 12.9608 17.2311 13.1501 17.3526C13.1501 17.0141 13.1501 16.6739 13.1501 16.3354C13.2004 16.7902 13.3271 17.2467 13.1518 17.6964C13.2195 17.8665 13.348 18.0175 13.3237 18.2189C13.5337 18.6442 13.9069 18.8299 14.3444 18.9254C14.7645 19.0174 15.1881 19.0869 15.6203 19.0869C17.0889 19.0869 18.5593 19.0747 20.0279 19.0938C20.7171 19.1025 21.2587 18.8681 21.6597 18.3074C21.5278 18.1668 21.3577 18.2241 21.2066 18.2224ZM13.1344 16.3701C13.1067 16.377 13.1153 16.3649 13.1344 16.3701V16.3701ZM13.1813 16.6044C13.1744 16.5315 13.1657 16.4586 13.1535 16.3857C13.1535 16.3822 13.1518 16.3805 13.1501 16.3788C13.1657 16.3909 13.183 16.417 13.19 16.4708C13.1848 16.5142 13.1813 16.5593 13.1813 16.6044Z" fill="#D9D6E4"/>
<path d="M21.5695 13.1518C21.7518 14.2246 21.8212 15.3095 21.9202 16.3928C22.0365 16.2904 21.9948 16.1515 21.9948 16.0282C21.9965 14.5891 21.9948 13.1518 21.9931 11.7126C21.665 11.7161 21.3369 11.7179 21.0088 11.7213C21.2466 12.1779 21.481 12.6327 21.5695 13.1518Z" fill="#D8586B"/>
<path d="M13.1624 13.0771C13.2301 13.294 13.2996 13.5093 13.3673 13.7263C13.4923 13.0041 13.7926 12.3549 14.1207 11.7178C13.5582 11.7178 12.9958 11.7178 12.4351 11.7161C12.7441 12.1344 13.086 12.5354 13.1624 13.0771Z" fill="#D8596B"/>
<path d="M24.1856 27.7354C24.2533 28.4194 24.2967 29.1121 24.5276 29.7682C25.2046 31.6934 26.8833 32.9051 28.956 32.985C29.0133 32.9607 29.0706 32.9346 29.1279 32.9103C29.4629 32.6326 29.725 32.2906 29.9715 31.9347C29.9715 31.933 29.9733 31.9313 29.9733 31.9313C30.3569 31.1084 30.5045 30.2283 30.6017 29.336C30.5548 29.1763 30.6677 29.0444 30.6781 28.8951C30.6711 28.2788 30.7597 27.6712 30.8395 27.0619C30.9576 26.1522 30.7406 25.3797 29.9108 24.8728C29.8153 24.8138 29.7354 24.7722 29.8153 24.6489C29.8084 24.642 29.7997 24.635 29.791 24.6298C29.633 24.4909 29.4334 24.5083 29.2442 24.5083C27.6558 24.5031 26.0674 24.5031 24.479 24.5083C24.2863 24.5083 24.0849 24.4892 23.9252 24.635C23.92 24.6402 23.913 24.6437 23.9078 24.6506C23.8905 25.6853 24.0832 26.706 24.1856 27.7354Z" fill="#ECEAF1"/>
<path d="M30.7563 29.1659C30.7685 29.0634 30.7841 28.961 30.6765 28.8933C30.6678 29.0426 30.5532 29.1745 30.6001 29.3342C30.6522 29.2787 30.7042 29.2231 30.7563 29.1659Z" fill="#DA8FA0"/>
<path d="M32.3272 25.4267C32.4227 26.5359 32.539 27.6487 32.8202 28.725C33.0563 29.6277 33.617 30.3255 34.4972 30.7213C34.5354 30.7908 34.5996 30.8064 34.6708 30.8081C35.0787 31.0512 35.5353 31.1189 35.9953 31.1675C36.3876 30.914 36.5386 30.4904 36.7504 30.1085C36.8858 29.5721 37.049 29.0409 37.0247 28.4785C37.0247 28.4715 37.0247 28.4629 37.0247 28.4542C37.0247 28.3031 36.9935 28.1382 37.0455 28.0098C37.266 27.4803 37.2921 26.9265 37.2695 26.3728C37.2382 25.5655 36.6272 24.859 35.8859 24.7288C35.8859 24.701 35.8859 24.6733 35.8877 24.6455C35.4815 24.6437 35.077 24.642 34.6708 24.6403C34.6117 24.6403 34.5544 24.6403 34.4954 24.6403C33.8097 24.4163 33.1205 24.4476 32.4296 24.6177C32.4244 24.6316 32.4227 24.642 32.421 24.6524C32.4192 24.649 32.4158 24.6472 32.414 24.6437C32.3619 24.6437 32.3116 24.6455 32.2595 24.6455C32.2526 24.6455 32.2439 24.6455 32.2369 24.6455C32.2803 24.9059 32.1536 25.1836 32.3272 25.4267Z" fill="#ECEAF1"/>
<path d="M30.8533 16.9082C30.7994 15.9256 30.6172 14.95 30.6762 13.9605C30.5252 13.8772 30.5373 13.714 30.5165 13.5838C30.4158 12.9224 30.2162 12.2975 29.895 11.7107C28.935 10.3671 27.64 9.73001 25.9874 9.89492C25.0795 9.98519 24.2497 10.2786 23.6508 11.0268C23.6265 12.1326 23.4268 13.2193 23.3123 14.3164C23.2515 14.8997 23.1647 15.483 23.13 16.068C23.0519 17.363 23.8973 18.2119 25.2565 18.2171C26.8571 18.224 28.4594 18.2171 30.0599 18.2206C30.211 18.2206 30.3811 18.165 30.5078 18.3074C30.5599 18.2796 30.612 18.2501 30.664 18.2223C30.6692 18.2188 30.6745 18.2171 30.6797 18.2136C30.8376 17.7935 30.8776 17.3561 30.8533 16.9082Z" fill="#ECEAF1"/>
<path d="M30.5167 13.584C30.5358 13.7142 30.5237 13.8774 30.6764 13.9607C30.725 13.1431 31.0201 12.4226 31.5461 11.7959C31.0045 11.6102 30.4455 11.7595 29.897 11.7109C30.2181 12.2976 30.416 12.9243 30.5167 13.584Z" fill="#D8586B"/>
<path d="M22.0016 27.3327C22.005 27.3327 22.0085 27.3327 22.012 27.3344C22.0328 27.3362 22.0519 27.3379 22.0727 27.3397C22.104 27.1175 22.0589 26.9161 21.9165 26.739C21.9165 26.8536 21.9165 26.9682 21.9165 27.0827C22.0155 27.14 21.9929 27.2424 22.0016 27.3327Z" fill="#DF8E9D"/>
<path d="M13.4 29.2562C13.2594 28.3205 13.124 27.3848 13.1344 26.4335C13.1361 26.2425 13.2733 26.0516 13.1448 25.8589C12.8584 25.9873 12.6414 26.187 12.4921 26.4665C12.1692 27.0654 12.1484 27.7042 12.2282 28.3587C12.3341 29.2284 12.4348 30.0981 12.5372 30.9678C12.9 30.5512 13.15 30.0773 13.2351 29.527C13.2524 29.4124 13.2628 29.2961 13.4 29.2562Z" fill="#C5C3D6"/>
<path d="M22.0015 27.3362C22.0015 27.3345 22.0015 27.3345 22.0015 27.3328C21.9911 27.2425 22.0136 27.1418 21.9164 27.0811C21.8852 27.5255 21.8557 27.9699 21.8244 28.4143C21.7411 29.6173 21.6248 30.8151 21.1196 31.9348C21.4321 31.8775 21.5797 32.0233 21.6543 32.3202C21.7081 32.5354 21.7793 32.7628 21.9946 32.8913C21.9998 31.039 21.9998 29.1868 22.0015 27.3362Z" fill="#D8596B"/>
<path d="M30.0616 18.2224C28.461 18.2189 26.8587 18.2258 25.2582 18.2189C23.8989 18.2137 23.0535 17.3631 23.1316 16.0698C23.1663 15.4848 23.2531 14.9015 23.3139 14.3182C23.4285 13.2228 23.6281 12.1344 23.6524 11.0286C23.4198 11.2838 23.1854 11.5389 22.9528 11.7941C22.4025 12.7003 22.3279 13.721 22.248 14.74C22.1907 15.3476 22.1317 15.9569 22.0744 16.5645C22.0762 16.719 22.1335 16.8822 21.9981 17.0124C21.9564 17.278 22.0675 17.528 22.0848 17.7884C22.1421 17.9325 22.2012 18.0783 22.2584 18.2224C22.6907 18.8317 23.2636 19.1129 24.0291 19.1008C25.6592 19.073 27.2927 19.0747 28.9228 19.1008C29.6085 19.1112 30.1154 18.8473 30.5094 18.3126C30.3827 18.1668 30.2126 18.2241 30.0616 18.2224Z" fill="#D9D6E4"/>
<path d="M13.1468 17.6981C13.3221 17.2468 13.1936 16.792 13.145 16.3372C13.145 16.6757 13.145 17.0159 13.145 17.3544C13.145 17.469 13.1468 17.5836 13.1468 17.6981Z" fill="#E0DEE9"/>
<path d="M21.922 16.5662C21.9237 16.719 21.8699 16.8804 21.9966 17.0123C22.1321 16.8821 22.0748 16.719 22.073 16.5645C22.0227 16.5645 21.9723 16.5662 21.922 16.5662Z" fill="#E0A5B3"/>
<path d="M40.007 4.74972C40.007 4.74972 32.039 0.173742 23.1266 0.517461C14.2142 0.86118 7.26514 3.39741 7.26514 3.39741" fill="#EF6876"/>
</g>
<defs>
<clipPath id="clip0_27_5966">
<rect width="42.6768" height="39" fill="white" transform="translate(0.661621 0.5)"/>
</clipPath>
</defs>
</svg>
