<svg width="34" height="40" viewBox="0 0 34 40" fill="none" xmlns="http://www.w3.org/2000/svg">
<g clip-path="url(#clip0_27_5949)">
<path d="M10.5177 0.507956C18.1805 0.506364 25.8434 0.507956 33.5046 0.5C33.8038 0.5 33.9135 0.563645 33.9183 0.893007C34.0679 12.33 33.9501 23.7686 33.9788 35.2072C33.9804 35.6543 33.8833 36.0998 33.9056 36.5501C33.8149 36.8317 33.8945 37.126 33.8324 37.4124C33.7513 37.7768 33.6144 37.9137 33.2437 37.9232C32.6056 37.9391 32.2015 37.5859 32.1379 36.9287C31.9835 35.3615 31.6542 33.842 31.0082 32.3972C30.4354 31.118 29.7114 29.9358 28.7663 28.8968C27.374 27.3677 25.7606 26.1441 23.8226 25.3756C22.4575 24.8346 21.0557 24.4734 19.5807 24.4003C16.2028 24.2316 12.8216 24.3684 9.44368 24.3239C8.79609 24.3159 8.22169 24.16 7.76981 23.6476C7.2161 23.0192 7.0729 22.1981 7.42295 21.4296C7.62661 20.9825 7.90983 20.5784 8.10713 20.1265C8.45241 19.3357 8.56219 18.5497 8.08167 17.7669C7.62025 17.0174 6.9122 16.6833 6.0705 16.6929C3.92089 16.7199 2.5748 14.3603 3.75859 12.4016C5.65999 9.26072 7.55979 6.11666 9.42776 2.95669C9.88442 2.18341 10.3061 1.39421 10.5177 0.507956Z" fill="#FEDDC9"/>
<path d="M10.5173 0.507935C10.573 1.08074 10.3264 1.57558 10.0591 2.04178C8.58409 4.62258 7.05025 7.16837 5.5005 9.70462C4.9086 10.6736 4.28488 11.6283 3.75344 12.6307C2.91333 14.2155 3.64366 16.0723 5.5005 16.5576C5.84418 16.6467 6.20536 16.564 6.56337 16.6387C8.03993 16.9442 8.81958 18.2362 8.3852 19.673C8.20222 20.2776 7.88082 20.8107 7.56896 21.3453C6.87045 22.5386 7.74239 24.2316 9.32874 24.2204C12.1912 24.2029 15.0552 24.2125 17.9176 24.2172C19.4244 24.2188 20.9217 24.3302 22.3759 24.763C24.1914 25.3024 25.8573 26.1202 27.3148 27.3581C28.7754 28.5992 29.9799 30.036 30.8264 31.7544C31.5376 33.1975 32.0134 34.7139 32.1566 36.3257C32.1788 36.5739 32.2043 36.8237 32.2441 37.0703C32.33 37.6081 33.0126 38.025 33.482 37.7991C33.7779 37.6575 33.7747 37.3233 33.8257 37.0417C33.8543 36.8778 33.7636 36.6948 33.9036 36.5484C33.9052 37.4236 33.9004 38.2987 33.9132 39.1738C33.9163 39.4125 33.8432 39.4984 33.5965 39.4968C32.112 39.4872 30.6259 39.4857 29.1414 39.4984C28.8677 39.5 28.8168 39.3918 28.8104 39.1467C28.742 36.0775 27.7173 33.3439 25.7969 30.97C24.2105 29.0065 22.2121 27.5841 19.8126 26.7439C18.2883 26.2109 16.7306 25.942 15.1125 25.9563C12.3948 25.9786 9.67719 25.9627 6.95796 25.9659C6.40107 25.9659 5.85532 25.8768 5.3032 25.8259C4.55855 25.7575 3.80754 24.51 3.93483 23.7558C4.05417 23.051 4.52196 22.5211 4.76381 21.8815C5.04225 21.1496 5.31274 20.424 5.11226 19.6125C5.00884 19.1973 4.79245 18.8615 4.52355 18.5481C4.37876 18.3794 4.19259 18.3158 3.96029 18.319C3.29997 18.3285 2.63807 18.3683 1.98571 18.2044C0.334122 17.7907 -0.512355 15.8623 0.33094 14.3937C2.3453 10.8964 4.45195 7.45318 6.52995 3.99408C7.19504 2.88666 7.37484 1.76333 6.80203 0.507935C8.06857 0.507935 9.29373 0.507935 10.5173 0.507935Z" fill="#F5CCB2"/>
<path d="M5.97949 29.3836C6.11474 29.2564 6.2818 29.312 6.43455 29.3105C9.57225 29.3057 12.7099 29.2818 15.846 29.32C17.0935 29.3343 18.2836 29.7066 19.4245 30.219C21.8748 31.3232 23.6075 33.1323 24.6672 35.5858C24.9854 36.3209 25.2464 37.0863 25.31 37.8993C25.1032 37.9821 24.89 37.928 24.6815 37.928C23.1191 37.9327 21.555 37.928 19.9925 37.9312C18.6098 37.9343 17.3369 37.6272 16.3043 36.6392C15.8588 36.2127 15.286 36.2111 14.7386 36.1921C14.0401 36.1666 13.3384 36.1889 12.6367 36.2366C10.8738 36.3575 9.37176 35.8038 8.29617 34.3352C7.86497 33.7465 7.64221 33.0655 7.56266 32.3431C7.52924 32.0424 7.42582 31.7862 7.26035 31.538C6.88643 30.9795 6.45683 30.4417 6.41864 29.7257C6.40114 29.4521 6.09564 29.5364 5.97949 29.3836Z" fill="#FEDDC9"/>
<path d="M5.97976 29.3837C6.36799 29.3344 6.60348 29.4108 6.55256 29.8961C6.51915 30.2159 6.69576 30.5293 6.88829 30.7712C7.41336 31.4267 7.66794 32.165 7.8175 32.986C8.10868 34.5899 9.89073 35.9805 11.5391 36.0967C12.5097 36.1651 13.4612 35.9964 14.4238 36.0569C14.8328 36.0824 15.2369 36.1333 15.6442 36.1635C16.0945 36.1969 16.3905 36.5486 16.7023 36.8206C17.3483 37.3839 18.1073 37.6528 18.9347 37.7339C20.8886 37.9265 22.8504 37.7721 24.8075 37.8183C24.9778 37.823 25.1544 37.7944 25.3087 37.8994C25.401 38.329 25.3676 38.7682 25.4105 39.201C25.436 39.4571 25.3358 39.5049 25.1289 39.4953C25.0891 39.4937 25.0494 39.4953 25.0096 39.4953C21.6173 39.4953 18.2266 39.4937 14.8344 39.4985C14.5845 39.4985 14.4334 39.4699 14.3634 39.1723C14.1581 38.3036 13.5408 37.8278 12.645 37.8199C11.5726 37.8103 10.4985 37.8199 9.42613 37.8167C7.43404 37.8119 5.77132 36.5486 5.22715 34.6297C5.20647 34.5549 5.18738 34.4753 5.18419 34.3974C5.15715 33.8421 4.97735 33.352 4.62571 32.9112C4.36954 32.5914 4.2327 32.1952 4.04177 31.8341C3.48647 30.7823 4.67822 29.2548 5.77609 29.3853C5.8461 29.3965 5.91293 29.3853 5.97976 29.3837Z" fill="#F5CCB2"/>
</g>
<defs>
<clipPath id="clip0_27_5949">
<rect width="33.9927" height="39" fill="white" transform="translate(0.00341797 0.5)"/>
</clipPath>
</defs>
</svg>
