<svg width="44" height="40" viewBox="0 0 44 40" fill="none" xmlns="http://www.w3.org/2000/svg">
<g clip-path="url(#clip0_27_6244)">
<path d="M26.47 39.5C26.442 36.9614 26.5261 34.4298 26.7712 31.9035C26.7974 31.8054 26.8219 31.7074 26.7519 31.6233C26.7572 31.5743 26.7642 31.527 26.7694 31.478C26.7887 31.4728 26.8097 31.4675 26.8289 31.464C26.9147 30.2052 27.1126 28.9587 27.3244 27.7156C27.5958 26.1172 28.0072 24.5468 28.4046 22.9763C27.6185 23.3545 26.8342 23.7326 26.0499 24.1108C26.0218 24.1423 25.9938 24.1721 25.9658 24.2036C25.8083 25.009 25.6437 25.8143 25.4984 26.6232C25.255 27.9712 25.0082 29.3193 24.9136 30.6902C24.8944 30.9388 24.7998 31.1786 24.8226 31.4343C24.8226 31.4448 24.8226 31.4535 24.8243 31.464L24.8278 31.4728H24.8471C24.8663 31.5078 24.8733 31.5428 24.8628 31.5796C24.8558 31.6006 24.8436 31.6198 24.8278 31.6408L24.8243 31.6513C24.6808 32.1135 24.6825 32.6055 24.6755 33.0712C24.6562 34.2477 24.5302 35.4207 24.5582 36.6008C24.5845 37.7913 23.6898 38.7664 22.4976 38.9118" fill="#F06977"/>
<path d="M16.382 31.6497C16.347 31.6742 16.3102 31.6969 16.2734 31.7197C16.3155 31.7022 16.3505 31.6777 16.382 31.6497Z" fill="#B7D991"/>
<path d="M17.6321 28.5629C17.5148 28.3511 17.422 28.12 17.1594 28.043C14.7451 29.0304 12.2765 29.869 9.80097 30.6831C9.70468 30.7146 9.60663 30.7409 9.51034 30.7707C9.47007 30.8389 9.40354 30.8547 9.33001 30.8582C9.309 30.8757 9.28975 30.888 9.26874 30.8932C9.25298 30.8967 9.23897 30.8967 9.22322 30.8932C9.22147 30.8985 9.21796 30.9055 9.21621 30.9107C9.19871 30.9282 9.17945 30.9457 9.16194 30.9615C9.16019 30.9615 9.15844 30.9632 9.15844 30.965C8.99562 31.0963 8.79253 31.1453 8.59644 31.2031C8.22178 31.4202 8.164 31.5462 8.16926 31.6058C8.17101 31.6075 8.17276 31.611 8.17451 31.6128C8.18326 31.625 8.19202 31.6373 8.20077 31.6478L8.20427 31.6495C8.19902 31.6495 8.19377 31.6478 8.18852 31.6478C8.31807 32.1538 8.76452 32.3078 9.16019 32.5162C9.16019 32.5022 9.15844 32.4864 9.15669 32.4724C9.15844 32.4724 9.16019 32.4741 9.16019 32.4759C9.17069 32.4829 9.17945 32.4899 9.1882 32.4987C9.20746 32.4899 9.22672 32.4882 9.24773 32.4917C9.25298 32.4952 9.25823 32.4969 9.26348 32.5022C9.27049 32.5057 9.27749 32.5109 9.28449 32.5162C9.3055 32.5337 9.32126 32.5564 9.33001 32.5862C9.4193 32.5144 9.5296 32.5214 9.63815 32.5407C11.62 32.8873 13.4846 32.4917 15.2949 31.7511C15.3789 31.7178 15.4647 31.6828 15.5487 31.646C15.5785 31.6338 15.61 31.6198 15.6398 31.6075C15.6538 31.6023 15.659 31.5988 15.6608 31.6005C15.6608 31.5988 15.6625 31.5988 15.6625 31.5988H15.6643C15.666 31.5988 15.666 31.5988 15.6678 31.5988C15.6695 31.5988 15.6695 31.5988 15.6695 31.5988C15.673 31.597 15.6765 31.5953 15.6818 31.5935C15.7255 31.583 15.7658 31.5813 15.8061 31.5918C16.1632 31.3414 17.6251 30.3172 17.6899 30.1824C17.7179 30.1264 17.6601 30.2524 17.5218 30.4643C17.7144 30.2419 17.7932 29.9688 17.8615 29.6904C17.8422 29.6712 17.823 29.6537 17.8037 29.6362C17.7547 29.279 17.8177 28.9008 17.6321 28.5629Z" fill="#B7D991"/>
<path d="M17.9014 29.2265C17.8734 28.5805 17.595 28.127 17.1416 27.9905C17.1486 28.008 17.1539 28.0272 17.1591 28.0448C17.4217 28.1218 17.5145 28.3529 17.6318 28.5647C17.8174 28.9026 17.7544 29.279 17.8051 29.6379C17.8244 29.6555 17.8437 29.673 17.8629 29.6922C17.8699 29.666 17.8752 29.6397 17.8822 29.6134C17.8822 29.4821 17.9067 29.3561 17.9014 29.2265Z" fill="#D9596B"/>
<path d="M20.8428 37.5812C20.8533 37.4324 20.8655 37.2853 20.8778 37.1365C20.855 37.2835 20.8463 37.4341 20.8428 37.5812Z" fill="#D9596B"/>
<path d="M9.04283 29.097L9.00781 29.0952C9.02707 29.104 9.04458 29.1092 9.06384 29.111C9.05683 29.1075 9.04983 29.1005 9.04283 29.097Z" fill="#9ECA70"/>
<path d="M20.1634 31.5639C20.0566 31.5429 19.9498 31.5096 19.8447 31.4658C19.899 31.5569 19.9533 31.6479 20.0075 31.7389C20.0216 31.6111 20.0863 31.5726 20.1634 31.5639Z" fill="#D97588"/>
<path d="M24.77 31.6514H24.8243L24.8278 31.6409V31.6006C24.8068 31.6128 24.7875 31.6286 24.77 31.6514Z" fill="#D97588"/>
<path d="M20.8813 38.4828C20.9146 38.0381 20.8813 37.5864 20.8778 37.1382C20.8655 37.287 20.8533 37.4341 20.8428 37.5829" fill="#F06977"/>
<path d="M9.11792 30.9423C8.89732 31.0421 8.72575 31.1296 8.59619 31.2049C8.79403 31.1471 8.99712 31.0981 9.15819 30.9668C9.15644 30.9563 9.15468 30.9475 9.15293 30.937C9.14068 30.937 9.13017 30.9405 9.11792 30.9423Z" fill="#B7D991"/>
<path d="M42.0708 6.16897C42.0761 6.15497 42.0813 6.14096 42.0866 6.12695C42.0323 6.13396 41.985 6.15672 41.9448 6.20049C41.9308 6.21974 41.9185 6.239 41.9062 6.25826H41.985C42.013 6.22675 42.0428 6.19698 42.0708 6.16897Z" fill="#E86EA3"/>
<path d="M31.4771 6.26059C31.4771 6.2586 31.479 6.2586 31.479 6.25662L31.4771 6.25464V6.26059Z" fill="#E86EA3"/>
<path d="M43.1598 2.43458C43.158 2.44508 43.1545 2.45384 43.1528 2.46434C43.088 2.76197 43.0302 3.0561 42.9689 3.35023C42.7694 4.30615 42.4507 5.22355 42.0866 6.12519C42.0813 6.13919 42.0761 6.1532 42.0708 6.16721C42.0936 6.15495 42.1163 6.13919 42.1356 6.12344C42.2686 6.01839 42.3247 5.85907 42.3842 5.70676C42.6345 5.05372 42.8534 4.39018 43.0145 3.70738C43.0705 3.47103 43.1108 3.23293 43.1335 2.99307C43.116 3.38875 42.9602 3.79842 43.2228 4.17309V2.15796C43.2 2.2525 43.179 2.34354 43.1598 2.43458Z" fill="#D74F8C"/>
<path d="M12.2222 6.43159H12.2712C12.2852 6.41583 12.2939 6.40008 12.3027 6.38257H12.2467C12.2397 6.39657 12.2309 6.41408 12.2222 6.43159Z" fill="#EA88B4"/>
<path d="M2.75915 25.3819C3.26512 26.0647 3.88664 26.6162 4.78128 26.7423C4.95811 26.765 5.15244 26.6722 5.30826 26.8263H5.56912C5.69343 26.6845 5.858 26.7598 6.00681 26.7405C7.01875 26.5514 8.00268 26.2538 8.98311 25.9509C8.99887 25.9229 9.01988 25.9036 9.04264 25.8896C8.88857 25.8634 8.75026 25.9247 8.6067 25.9614C7.74532 26.1785 6.8962 26.4376 6.03482 26.653C5.88426 26.709 5.72844 26.716 5.57087 26.7107C5.48158 26.7107 5.39405 26.7107 5.30476 26.7125C5.13318 26.7142 4.96161 26.7248 4.79528 26.667C4.56944 26.6162 4.34534 26.5689 4.1405 26.4516C3.21785 25.9264 2.57182 25.1876 2.31445 24.1406" fill="#EF71A6"/>
<path d="M9.04468 25.8913C9.02016 25.9053 8.99916 25.9246 8.9834 25.9526C9.01666 25.9316 9.05693 25.9193 9.09545 25.9053C9.12521 25.8948 9.15322 25.8825 9.17773 25.8633H9.15672C9.11646 25.865 9.07794 25.8703 9.04468 25.8913Z" fill="#DC6A9F"/>
<path d="M9.11475 29.104C9.12701 29.0987 9.13926 29.0917 9.15152 29.0812C9.17253 29.0637 9.19003 29.0427 9.20404 29.0217C9.26181 29.0374 9.30558 29.0129 9.3406 28.9744V28.9517C9.30208 28.9604 9.26532 28.9709 9.2268 28.9797C9.20229 28.9867 9.17778 28.9919 9.15327 28.9989C9.1165 29.0322 9.07973 29.0655 9.04297 29.0987C9.04997 29.1022 9.05697 29.1075 9.06398 29.1127C9.08149 29.1127 9.09899 29.1092 9.11475 29.104Z" fill="#ABCE88"/>
<path d="M9.29834 30.86H9.32985C9.40339 30.8565 9.46992 30.8407 9.51018 30.7724C9.49618 30.7707 9.48567 30.7672 9.47342 30.7637C9.43665 30.7899 9.37712 30.8214 9.29834 30.86Z" fill="#ABCE88"/>
<path d="M4.78125 26.744C4.93707 26.8999 5.1314 26.8036 5.30823 26.8281C5.15241 26.6723 4.95808 26.7668 4.78125 26.744Z" fill="#DD6B95"/>
<path d="M5.56934 26.8279C5.7164 26.8086 5.88447 26.8874 6.00703 26.7421C5.85821 26.7596 5.69364 26.6861 5.56934 26.8279Z" fill="#DD6B95"/>
<path d="M34.6756 14.3696C36.8343 12.7922 38.8389 11.0519 40.4373 8.88621C41.0046 8.11763 41.5368 7.32453 41.8992 6.43164H41.8187C40.9976 8.10362 39.8981 9.58126 38.5938 10.8978C37.4173 12.0831 36.169 13.1948 34.7894 14.149C34.7071 14.2068 34.6195 14.2611 34.5513 14.3346V14.4046C34.5915 14.3941 34.6423 14.3924 34.6756 14.3696Z" fill="#EF71A6"/>
<path d="M34.4411 14.5358C34.4761 14.5183 34.5094 14.5025 34.5444 14.485C34.5462 14.4588 34.5479 14.4308 34.5514 14.4045V14.3345C34.5409 14.3467 34.5304 14.3572 34.5199 14.3712C34.4936 14.4028 34.4726 14.4395 34.4569 14.4798C34.4236 14.4833 34.3956 14.4973 34.3711 14.5183V14.5708C34.3939 14.5586 34.4184 14.5463 34.4411 14.5358Z" fill="#EB84B2"/>
<path d="M36.3828 6.26001C36.3968 6.28802 36.4126 6.31778 36.4266 6.3458C36.4318 6.35805 36.4388 6.37031 36.4441 6.38256C36.4528 6.40007 36.4616 6.41583 36.4704 6.43333C36.4809 6.41408 36.4861 6.39657 36.4861 6.38256C36.4879 6.36856 36.4844 6.3563 36.4774 6.3458C36.4598 6.30728 36.4126 6.28977 36.3828 6.26001Z" fill="#EC7EAE"/>
<path d="M41.9851 6.2583H41.9063C41.8923 6.28106 41.88 6.30382 41.8695 6.32833C41.838 6.34409 41.8047 6.35459 41.7715 6.3616C41.7942 6.37035 41.817 6.3791 41.8398 6.39136C41.8328 6.40361 41.8275 6.41762 41.8205 6.43163L41.8188 6.43338H41.8993C41.9676 6.39311 41.9851 6.33008 41.9851 6.2583Z" fill="#EC7EAE"/>
<path d="M22.4972 38.9118C23.6895 38.7665 24.5841 37.7913 24.5579 36.6008C24.5298 35.4208 24.6559 34.2477 24.6752 33.0712C24.6822 32.6055 24.6804 32.1136 24.824 31.6514H24.7697C24.7679 31.6531 24.7662 31.6549 24.7644 31.6566C24.7504 31.6741 24.7382 31.6934 24.7259 31.7126V31.7144C24.6454 31.8475 24.6296 31.998 24.6191 32.1503C24.5246 33.5825 24.4423 35.0163 24.4388 36.4537C24.4353 37.716 23.7192 38.5651 22.4814 38.7962" fill="#D9596B"/>
<path d="M24.8276 31.639C24.8434 31.618 24.8556 31.5988 24.8627 31.5777C24.8732 31.541 24.8662 31.506 24.8469 31.4709H24.8276V31.5988V31.639Z" fill="#EA8190"/>
<path d="M8.1882 31.6497H8.20046C8.1917 31.6392 8.18295 31.6269 8.1742 31.6147C8.17245 31.6129 8.1707 31.6094 8.16895 31.6077C8.1707 31.6357 8.1882 31.6497 8.1882 31.6497Z" fill="#BDDDA2"/>
<path d="M9.21073 32.5216H9.24574C9.25274 32.5163 9.258 32.511 9.26325 32.504C9.258 32.4988 9.25274 32.497 9.24749 32.4935C9.22648 32.49 9.20722 32.4918 9.18797 32.5005C9.17921 32.4918 9.17046 32.4848 9.15995 32.4778V32.5181L9.1582 32.5198C9.17571 32.5216 9.19322 32.5216 9.21073 32.5216Z" fill="#BDDDA2"/>
<path d="M9.15283 30.9353C9.15458 30.9458 9.15633 30.9546 9.15808 30.9651C9.15808 30.9633 9.15983 30.9616 9.16159 30.9616C9.17909 30.9458 9.19835 30.9283 9.21586 30.9108C9.21761 30.9056 9.22111 30.8986 9.22286 30.8933C9.19835 30.9038 9.17734 30.9143 9.15458 30.9248C9.15458 30.9283 9.15283 30.9318 9.15283 30.9353Z" fill="#BDDDA2"/>
<path d="M9.22314 30.8932C9.2389 30.8967 9.25291 30.8967 9.26866 30.8932C9.28967 30.8879 9.30893 30.8757 9.32994 30.8582H9.29843C9.27567 30.8704 9.25116 30.8809 9.22314 30.8932Z" fill="#BDDDA2"/>
<path d="M15.8057 31.5918C15.7654 31.5831 15.7234 31.5831 15.6814 31.5936C15.6761 31.5953 15.6726 31.5971 15.6691 31.5988C15.6691 31.5988 15.6691 31.5988 15.6674 31.5988C15.6656 31.5988 15.6656 31.5988 15.6639 31.5988H15.6621C15.6621 31.5988 15.6604 31.5988 15.6604 31.6006C15.6586 31.5988 15.6534 31.6023 15.6394 31.6076C15.6096 31.6198 15.5781 31.6338 15.5483 31.6461H15.7269C15.7269 31.6478 15.7549 31.6268 15.8057 31.5918Z" fill="#BDDDA2"/>
<path d="M14.6418 27.425C15.5154 27.3848 16.354 27.4916 17.1174 27.9538C17.1226 27.9573 17.1296 27.9608 17.1349 27.9643C17.9367 27.9118 18.6125 27.4881 19.3303 27.1992C19.6052 27.0889 19.9816 27.0994 20.1077 26.7282C20.1059 26.7247 20.1042 26.7212 20.1007 26.7177C19.7978 26.1697 19.3233 25.8248 18.7789 25.564V25.3486L15.6677 26.3203L14.1131 27.2132L14.0886 27.2867L14.0605 27.369C14.2409 27.5248 14.451 27.4338 14.6418 27.425Z" fill="#C34761"/>
<path d="M21.9336 30.1563V30.102C21.9214 30.0915 21.9056 30.081 21.8881 30.074C21.8548 30.0617 21.8163 30.0582 21.769 30.0687C21.8076 30.0897 21.8478 30.1107 21.8881 30.1317C21.9039 30.1388 21.9179 30.1475 21.9336 30.1563Z" fill="#D97A8C"/>
<path d="M21.8879 34.6101C21.8949 34.5908 21.9054 34.5733 21.9177 34.5558C21.9229 34.5523 21.9299 34.5506 21.9352 34.5453V34.5295H21.8879H21.7671C21.8091 34.5593 21.8494 34.5716 21.8879 34.5646V34.6101Z" fill="#DA6F82"/>
<path d="M9.32089 32.5932C9.32614 32.5967 9.32964 32.6002 9.33489 32.6054C9.92665 32.763 10.5307 32.7927 11.1417 32.7892C11.5794 32.7875 12.0118 32.7542 12.439 32.6877C13.5875 32.5126 14.7027 32.2202 15.7269 31.646H15.5484C15.4643 31.6828 15.3785 31.7178 15.2945 31.751C13.4842 32.4916 11.6196 32.8873 9.63778 32.5406C9.52923 32.5214 9.41893 32.5144 9.32964 32.5862C9.32089 32.5564 9.30513 32.5336 9.28412 32.5161C9.27712 32.5109 9.27012 32.5056 9.26311 32.5021C9.25786 32.5091 9.25261 32.5144 9.24561 32.5196C9.27012 32.5441 9.29638 32.5704 9.32089 32.5932Z" fill="#B7D991"/>
<path d="M9.16016 9.42196C9.16541 9.42547 9.17066 9.42722 9.17766 9.43072C9.21618 9.47799 9.24069 9.52876 9.2547 9.58304C9.2652 9.53051 9.28446 9.47799 9.31772 9.42897C9.32123 9.42722 9.32648 9.42547 9.33173 9.42196V9.40796H9.16016V9.42196Z" fill="#EA88B4"/>
<path d="M9.33357 25.851C9.2933 25.8247 9.25128 25.8212 9.20751 25.8352C9.19175 25.8405 9.17425 25.851 9.15674 25.8615H9.17775C9.23027 25.8632 9.28104 25.8632 9.33181 25.865C9.33532 25.8615 9.33882 25.8597 9.34057 25.8562C9.36683 25.8335 9.38959 25.8054 9.4036 25.7739C9.38434 25.7774 9.36333 25.7809 9.34232 25.7827C9.34057 25.8054 9.33882 25.8282 9.33357 25.851Z" fill="#EA88B4"/>
<path d="M8.20466 31.6515L8.20106 31.6497H8.18848C8.19387 31.6497 8.19927 31.6515 8.20466 31.6515Z" fill="#B7D991"/>
<path d="M9.15674 32.4724C9.15849 32.4864 9.16024 32.5022 9.16024 32.5162V32.4759C9.16024 32.4759 9.15849 32.4724 9.15674 32.4724Z" fill="#B7D991"/>
<path d="M22.4816 38.7945C23.7194 38.5634 24.4354 37.7143 24.4389 36.452C24.4425 35.0146 24.5247 33.5807 24.6193 32.1486C24.6298 31.9963 24.6455 31.8457 24.7261 31.7127V31.7109C24.7383 31.6917 24.7506 31.6724 24.7646 31.6549C24.7663 31.6532 24.7681 31.6514 24.7698 31.6497C24.7874 31.6286 24.8066 31.6129 24.8276 31.5989V31.4711L24.8241 31.4623C24.8224 31.4518 24.8224 31.4431 24.8224 31.4326C24.7996 31.1769 24.8941 30.9371 24.9134 30.6885C25.0079 29.3176 25.2548 27.9695 25.4982 26.6215C25.6435 25.8126 25.808 25.0073 25.9656 24.2019C25.9324 24.2177 25.9008 24.2352 25.8676 24.2509C25.1568 24.6098 24.4442 24.9687 23.6984 25.2506C23.6844 25.2384 23.6704 25.2243 23.6599 25.2103C23.4813 25.3767 23.427 25.6078 23.378 25.8266C23.2099 26.5707 22.7897 27.0732 22.0492 27.2903C21.9949 27.3235 21.9564 27.369 21.9441 27.4303C21.8898 27.39 21.8268 27.3935 21.7585 27.4233C21.6727 27.3498 21.5537 27.3375 21.4381 27.3253C21.0775 27.2885 20.7711 27.1327 20.491 26.9121C20.3789 26.8228 20.2756 26.7107 20.1146 26.7107C20.1093 26.7125 20.1058 26.716 20.1006 26.7178C20.1041 26.7213 20.1058 26.7248 20.1076 26.7283C19.9815 27.0994 19.6051 27.0889 19.3302 27.1992C18.6124 27.4881 17.9366 27.9118 17.1348 27.9643C17.1383 27.973 17.14 27.98 17.1418 27.9888C17.5952 28.1254 17.8736 28.5788 17.9016 29.2248C17.9069 29.3544 17.8823 29.4822 17.8823 29.6118C17.8753 29.638 17.8701 29.6643 17.8631 29.6905C18.0714 29.8726 18.3113 30.0162 18.5389 30.1668C19.0326 30.4906 19.2935 31.0316 19.7487 31.3835C19.7802 31.4115 19.8134 31.4378 19.8449 31.4641C19.95 31.5078 20.0568 31.5411 20.1636 31.5621C20.0866 31.5726 20.0218 31.6094 20.0078 31.7372C20.2774 32.3167 20.4997 32.9102 20.624 33.5387C20.8604 34.7275 20.8551 35.9338 20.8779 37.1365C20.8814 37.5847 20.9147 38.0364 20.8814 38.4811" fill="#D9596B"/>
<path d="M21.8881 30.0722C21.9056 30.0792 21.9214 30.0898 21.9336 30.1003V30.1545C21.9179 30.1458 21.9039 30.1388 21.8881 30.13C21.8478 30.109 21.8076 30.088 21.769 30.067C21.8163 30.0582 21.8548 30.06 21.8881 30.0722Z" fill="#D9596B"/>
<path d="M21.8879 34.5312H21.9352V34.547C21.9299 34.5523 21.9229 34.554 21.9177 34.5575C21.9054 34.575 21.8949 34.5925 21.8879 34.6118V34.5663C21.8494 34.5733 21.8091 34.561 21.7671 34.5312H21.8879Z" fill="#D9596B"/>
<path d="M31.5122 16.4583C32.0444 16.1256 32.4331 15.8753 32.827 15.6354C33.3155 15.336 33.7497 14.9579 34.2661 14.7092C34.3011 14.6917 34.3344 14.676 34.3694 14.6602C34.3694 14.6305 34.3694 14.6007 34.3712 14.5727V14.5202C34.3624 14.5272 34.3554 14.5342 34.3484 14.5429C34.3257 14.5674 34.3082 14.5972 34.2906 14.6287C34.1173 14.5814 33.9895 14.7163 33.8582 14.7985C33.2682 15.1732 32.7027 15.5864 32.0987 15.9383C31.9919 16.0013 31.8851 16.1571 31.7573 16.0696C31.6382 15.9873 31.7188 15.8262 31.7293 15.7002C31.8098 14.613 31.9324 13.5292 31.9604 12.4368C32.0006 10.8926 31.8903 9.35366 31.7573 7.81824C31.7188 7.38055 31.8116 6.89909 31.5349 6.49992C31.5332 6.49817 31.5332 6.49817 31.5332 6.49817C31.5174 6.47541 31.4999 6.45265 31.4824 6.43164C31.4842 6.44039 31.4842 6.4509 31.4859 6.45965C31.8991 9.74934 31.9709 13.0443 31.5122 16.4583Z" fill="#EF71A6"/>
<path d="M34.4479 6.12866C34.4427 6.16193 34.4339 6.19344 34.4199 6.22495C34.4024 6.23021 34.3849 6.24071 34.3691 6.25647H34.4024H34.5092H34.5442C34.525 6.23896 34.5057 6.22846 34.4864 6.22145C34.4689 6.19344 34.4567 6.16193 34.4479 6.12866Z" fill="#E67EAD"/>
<path d="M34.8558 1.53296C34.8418 1.55047 34.8278 1.56797 34.812 1.58898C34.833 1.57498 34.8488 1.55572 34.8558 1.53296Z" fill="#C975A7"/>
<path d="M29.5582 6.25304H29.602C29.5897 6.23728 29.5722 6.22153 29.5547 6.20752C29.5547 6.22328 29.5547 6.23903 29.5564 6.25479L29.5582 6.25304Z" fill="#D74D8B"/>
<path d="M30.8066 2.8757C30.9975 3.81936 31.1393 4.77177 31.2653 5.72594C31.2916 5.91852 31.3021 6.11636 31.4439 6.25292H31.4772L31.4789 6.25467C31.3914 5.65416 31.3319 5.05015 31.2111 4.45664C31.1043 3.93141 31.057 3.39392 30.9555 2.86694V2.86869L30.8066 2.8757Z" fill="#D74D8B"/>
<path d="M28.8228 2.48887C29.0854 3.5971 29.2412 4.72459 29.418 5.84858C29.4355 5.96238 29.4443 6.07968 29.5003 6.17948C29.5161 6.20574 29.5336 6.23025 29.5563 6.25476C29.5546 6.239 29.5546 6.22325 29.5546 6.20749C29.5423 6.0079 29.5353 5.81007 29.5091 5.61048C29.39 4.71059 29.2219 3.8212 29.0469 2.93181C28.9856 2.61667 28.9033 2.30679 28.7983 2.00391C28.7948 2.00741 28.793 2.01091 28.7895 2.01441C28.7492 2.17723 28.786 2.3348 28.8228 2.48887Z" fill="#E86EA3"/>
<path d="M27.0986 18.8445C27.0916 18.8497 27.0863 18.8567 27.0811 18.862H27.1879C27.2474 18.8322 27.3069 18.8042 27.3664 18.7744C27.2614 18.7342 27.1791 18.7867 27.0986 18.8445Z" fill="#EF71A6"/>
<path d="M29.6021 6.47875H29.6004C29.5076 6.63282 29.5339 6.80089 29.5549 6.97247C29.6039 7.3909 29.6494 7.81283 29.6827 8.23301C29.8087 9.81921 29.772 11.4089 29.7755 12.9968C29.7772 14.415 29.5916 15.8156 29.3885 17.2162C29.3448 17.5156 29.203 17.7204 28.9246 17.8535C28.5307 18.0408 28.156 18.2666 27.7551 18.447C27.6028 18.5152 27.4032 18.5713 27.3682 18.7726C27.6851 18.629 28.0002 18.482 28.3188 18.3402C29.0612 18.011 29.5706 17.6136 29.6196 16.6437C29.6739 15.6107 29.87 14.5708 29.8945 13.5308C29.9505 11.1655 29.9348 8.79851 29.6389 6.44374C29.6389 6.43848 29.6372 6.43323 29.6372 6.42798H29.6354C29.6214 6.44549 29.6109 6.46124 29.6021 6.47875Z" fill="#EF71A6"/>
<path d="M21.7656 7.40854C21.7709 7.41204 21.7779 7.41379 21.7831 7.41554C21.8199 7.46456 21.8444 7.51533 21.8602 7.56961C21.8707 7.51533 21.8899 7.46456 21.9249 7.41379C21.9284 7.41204 21.9319 7.41029 21.9372 7.40679V7.39453H21.7656V7.40854Z" fill="#EA8DB8"/>
<path d="M6.06491 18.9863C6.07016 19.0021 6.08066 19.0178 6.09467 19.0353V18.9863V18.9496V18.8638C6.07016 18.8935 6.05615 18.9215 6.05615 18.9496C6.05615 18.9636 6.05965 18.9758 6.06491 18.9863Z" fill="#EB83B1"/>
<path d="M26.4577 22.1569C26.5295 22.2654 26.4297 22.3775 26.4052 22.486C26.2844 22.9972 26.0936 23.4944 26.0533 24.0249C26.0533 24.0529 26.0516 24.0827 26.0498 24.1107C26.8341 23.7326 27.6185 23.3544 28.4046 22.9762C28.4554 22.8414 28.5236 22.7119 28.5534 22.5718C28.6882 21.9345 29.0401 21.3638 29.1084 20.709C28.1665 21.0942 27.2893 21.6089 26.4 22.0973C26.4262 22.1148 26.4455 22.1359 26.4577 22.1569Z" fill="#D9596B"/>
<path d="M23.6601 25.212C23.6706 25.226 23.6846 25.24 23.6986 25.2523C24.4444 24.9704 25.157 24.6115 25.8678 24.2526C25.901 24.2368 25.9325 24.2193 25.9658 24.2036C25.9938 24.1721 26.0218 24.1423 26.0498 24.1108C26.0516 24.0828 26.0533 24.053 26.0533 24.025C26.0936 23.4945 26.2844 22.9973 26.4052 22.4861C26.4298 22.3775 26.5296 22.2655 26.4578 22.1569C26.4455 22.1359 26.4263 22.1167 26.4 22.0974C25.6612 22.4563 24.8716 22.7224 24.2168 23.2424C24.1905 23.2827 24.166 23.3247 24.1415 23.3667C23.8456 23.8919 23.7581 24.4855 23.6215 25.0615C23.6075 25.114 23.625 25.1665 23.6601 25.212Z" fill="#C34761"/>
<path d="M21.7671 13.6133C21.7951 13.6395 21.8231 13.6518 21.8511 13.6518C21.8634 13.6518 21.8756 13.65 21.8879 13.6448V13.6133H21.8511H21.7671Z" fill="#E995BD"/>
<path d="M21.7691 21.2991C21.7656 21.2974 21.7603 21.2974 21.7568 21.2974V21.3166H21.7621C21.7691 21.3166 21.7778 21.3149 21.7848 21.3149C21.7796 21.3096 21.7743 21.3061 21.7691 21.2991Z" fill="#E995BD"/>
<path d="M21.8705 21.2832C21.8687 21.2937 21.867 21.3042 21.8652 21.3147C21.888 21.313 21.9108 21.3112 21.9335 21.3112C21.9388 21.2832 21.944 21.2569 21.9475 21.2289V21.1711C21.916 21.1992 21.8897 21.2377 21.8705 21.2832Z" fill="#E995BD"/>
<path d="M27.0355 18.9198H27.0338C26.9708 18.9408 26.9095 18.9549 26.8447 18.9636H26.8395C26.8115 18.9636 26.7834 18.9671 26.7537 18.9741C26.7519 18.9741 26.7519 18.9759 26.7502 18.9759H26.7484C26.6994 19.0004 26.6486 19.0231 26.5996 19.0459H26.7537C26.8395 19.0406 26.9253 19.0354 27.0093 19.0301C27.011 19.0301 27.011 19.0301 27.0128 19.0301C27.0723 18.9741 27.1301 18.9181 27.1879 18.8621H27.0811C27.0618 18.8813 27.0461 18.9006 27.0355 18.9198Z" fill="#E995BD"/>
<path d="M10.1211 18.9863V19.0353H10.1333C10.1456 19.0196 10.1526 19.0038 10.1561 18.9863C10.1631 18.9478 10.1509 18.9075 10.1211 18.8638V18.9863Z" fill="#EA8DB8"/>
<path d="M16.2349 19.0336H16.2507V18.9863V18.8655C16.2209 18.9075 16.2104 18.9478 16.2157 18.9863C16.2174 19.002 16.2244 19.0195 16.2349 19.0336Z" fill="#EA8DB8"/>
<path d="M10.1285 19.0428C10.1321 19.0409 10.134 19.0372 10.134 19.0354H10.1211C10.1229 19.0391 10.1266 19.0409 10.1285 19.0428Z" fill="#EF71A6"/>
<path d="M16.2403 19.0427C16.2439 19.0409 16.2474 19.0373 16.251 19.0337H16.2349C16.2349 19.0373 16.2367 19.0409 16.2403 19.0427Z" fill="#EF71A6"/>
<path d="M21.7429 21.2956C21.5679 21.2641 21.4173 21.3498 21.265 21.4094C19.5352 22.1044 17.7967 22.775 16.0477 23.4262C14.2602 24.0898 12.4674 24.7393 10.6519 25.3293C10.2439 25.4606 9.80449 25.5167 9.42457 25.7338C9.39656 25.7495 9.36855 25.767 9.34229 25.7845C9.36329 25.7828 9.3843 25.7793 9.40356 25.7758C10.1074 25.6917 10.7657 25.4256 11.4274 25.2015C13.2903 24.566 15.1443 23.9007 16.9879 23.2092C18.5881 22.6069 20.1673 21.9504 21.7569 21.3183V21.2991C21.7517 21.2956 21.7464 21.2956 21.7429 21.2956Z" fill="#EF71A6"/>
<path d="M21.785 21.3165C21.778 21.3165 21.7692 21.3183 21.7622 21.3183C21.778 21.3288 21.792 21.3393 21.806 21.3445H21.8077C21.827 21.3691 21.841 21.3971 21.8515 21.4268C21.8515 21.4391 21.8532 21.4513 21.8532 21.4636V21.4268C21.855 21.4006 21.8567 21.3761 21.8585 21.3515C21.883 21.3498 21.9093 21.3358 21.9338 21.3113C21.911 21.3113 21.8883 21.313 21.8655 21.3148C21.8375 21.3148 21.8112 21.3148 21.785 21.3165Z" fill="#DA7BAB"/>
<path d="M22.0282 24.1738C22.0177 24.1703 22.0054 24.1668 21.9949 24.1615C21.9091 24.1108 21.8723 24.0442 21.8601 23.9707C21.8548 24.0547 21.8478 24.137 21.8408 24.2211C21.8356 24.2351 21.8286 24.2473 21.8198 24.2578C21.8601 24.2491 21.9004 24.2386 21.9389 24.2281C21.9686 24.2106 21.9984 24.1931 22.0282 24.1738Z" fill="#DA7BAB"/>
<path d="M2.31445 24.1406C2.57182 25.1875 3.21785 25.9263 4.1405 26.4516C4.34534 26.5689 4.56944 26.6161 4.79528 26.6669C4.96161 26.7247 5.13318 26.7142 5.30476 26.7124C5.39405 26.7107 5.48158 26.7107 5.57087 26.7107C5.72844 26.7159 5.88426 26.7089 6.03482 26.6529C6.8962 26.4376 7.74532 26.1784 8.6067 25.9613C8.75026 25.9246 8.88857 25.8633 9.04264 25.8896H9.04439C9.07765 25.8703 9.11617 25.8633 9.15644 25.8616C9.17394 25.851 9.19145 25.8405 9.20721 25.8353C9.25098 25.8213 9.293 25.8248 9.33326 25.851C9.33852 25.8283 9.34027 25.8055 9.34202 25.7828C9.36828 25.7653 9.39629 25.7478 9.4243 25.732C9.80422 25.5149 10.2437 25.4589 10.6516 25.3276C12.4671 24.7376 14.2599 24.088 16.0474 23.4245C17.7965 22.7732 19.535 22.1027 21.2647 21.4076C21.417 21.3481 21.5676 21.2623 21.7427 21.2938C21.7462 21.2938 21.7514 21.2956 21.7567 21.2973C21.7602 21.2973 21.7654 21.2973 21.7689 21.2991C21.7742 21.3043 21.7794 21.3096 21.7847 21.3148C21.811 21.3131 21.8372 21.3131 21.8652 21.3131C21.867 21.3026 21.8687 21.2921 21.8705 21.2816C21.8897 21.236 21.916 21.1993 21.9475 21.1695C21.9685 21.1467 21.9913 21.1292 22.0158 21.1135C22.0736 21.075 22.1418 21.047 22.2066 21.0207C23.6265 20.4289 25.0201 19.7794 26.4137 19.1316C26.4137 19.1316 26.4137 19.1316 26.4155 19.1316C26.4767 19.1019 26.538 19.0738 26.5993 19.0458C26.6483 19.0231 26.6991 19.0003 26.7481 18.9758H26.7499C26.7516 18.9758 26.7516 18.9741 26.7534 18.9741C26.7831 18.967 26.8111 18.9635 26.8391 18.9635H26.8444C26.9092 18.9548 26.9705 18.9408 27.0335 18.9198H27.0352C27.0457 18.9005 27.0615 18.8813 27.0808 18.862C27.086 18.8568 27.0913 18.8497 27.0983 18.8445C27.1788 18.785 27.2611 18.7342 27.3661 18.7745L27.3679 18.7727C27.4029 18.5714 27.6025 18.5154 27.7548 18.4471C28.1557 18.2667 28.5304 18.0409 28.9243 17.8536C29.2027 17.7205 29.3445 17.5157 29.3883 17.2163C29.5913 15.8157 29.7769 14.4151 29.7752 12.9969C29.7717 11.409 29.8084 9.81931 29.6824 8.23312C29.6491 7.81294 29.6036 7.391 29.5546 6.97257C29.5336 6.801 29.5073 6.63292 29.6001 6.47886H29.6018C29.6106 6.46135 29.6211 6.44559 29.6351 6.42808H29.6369H29.6386C29.6124 6.37031 29.5843 6.31253 29.5581 6.25301L29.5563 6.25476C29.5336 6.23025 29.5161 6.20574 29.5003 6.17948C29.4443 6.07968 29.4355 5.96238 29.418 5.84858C29.2412 4.72459 29.0854 3.5971 28.8228 2.48887C28.786 2.3348 28.7492 2.17548 28.7895 2.01441C28.793 2.01091 28.7947 2.00741 28.7982 2.00391C28.6757 1.652 28.5251 1.31235 28.3466 0.984961L28.0769 0.5H12.3761C12.3761 0.5 5.48333 0.98321 2.57006 6.41408" fill="#EF71A6"/>
<path d="M6.09467 18.9513V18.988V19.0371C6.08066 19.0195 6.07016 19.0038 6.06491 18.988C6.05965 18.9758 6.05615 18.9635 6.05615 18.9513C6.05615 18.9233 6.07016 18.8952 6.09467 18.8655V18.9513Z" fill="#EF71A6"/>
<path d="M9.33173 9.42196C9.32648 9.42547 9.32123 9.42722 9.31772 9.42897C9.28446 9.47799 9.2652 9.53051 9.2547 9.58304C9.24069 9.52876 9.21618 9.47799 9.17766 9.43072C9.17066 9.42722 9.16541 9.42547 9.16016 9.42196V9.40796H9.33173V9.42196Z" fill="#EF71A6"/>
<path d="M10.1333 19.0371C10.1333 19.0388 10.1316 19.0423 10.1281 19.0441C10.1263 19.0423 10.1228 19.0388 10.1211 19.0371V18.988V18.8655C10.1509 18.9092 10.1631 18.9495 10.1561 18.988C10.1526 19.0055 10.1456 19.0195 10.1333 19.0371Z" fill="#EF71A6"/>
<path d="M12.2712 6.43159H12.2222C12.2309 6.41583 12.2397 6.39833 12.2467 6.38257H12.3027C12.2939 6.40008 12.2852 6.41408 12.2712 6.43159Z" fill="#EF71A6"/>
<path d="M16.2507 18.9863V19.0336C16.2472 19.0371 16.2437 19.0406 16.2402 19.0423C16.2367 19.0388 16.2349 19.0353 16.2349 19.0336C16.2244 19.0178 16.2174 19.002 16.2157 18.9863C16.2104 18.9478 16.2209 18.9075 16.2507 18.8655V18.9863Z" fill="#EF71A6"/>
<path d="M21.8879 13.6448C21.8756 13.65 21.8634 13.6518 21.8511 13.6518C21.8231 13.6518 21.7951 13.6395 21.7671 13.6133H21.8511H21.8879V13.6448Z" fill="#EF71A6"/>
<path d="M21.9372 7.4085C21.9319 7.412 21.9284 7.41375 21.9249 7.4155C21.8899 7.46627 21.8707 7.51704 21.8602 7.57132C21.8444 7.51704 21.8199 7.46627 21.7831 7.41725C21.7779 7.4155 21.7709 7.41375 21.7656 7.41025V7.39624H21.9372V7.4085Z" fill="#EF71A6"/>
<path d="M26.4157 19.1317C26.414 19.1317 26.4139 19.1317 26.4139 19.1317C25.0203 19.7795 23.6267 20.429 22.2069 21.0208C22.1421 21.047 22.0738 21.075 22.016 21.1135C21.9915 21.1293 21.9688 21.1468 21.9478 21.1696V21.2273C22.5868 20.9612 23.2328 20.7109 23.8631 20.4237C24.8348 19.9808 25.8292 19.5869 26.7536 19.0459H26.5995C26.5383 19.0739 26.477 19.1037 26.4157 19.1317Z" fill="#EF71A6"/>
<path d="M17.6896 30.1843C17.6231 30.3191 16.163 31.3433 15.8058 31.5936C15.7551 31.6286 15.727 31.6479 15.727 31.6479C14.7028 32.2221 13.5876 32.5145 12.4391 32.6896C12.0119 32.7561 11.5795 32.7894 11.1418 32.7911C10.5308 32.7946 9.92677 32.7649 9.33501 32.6073C9.32976 32.6021 9.32625 32.5986 9.321 32.5951C9.29649 32.5705 9.27023 32.546 9.24572 32.5215H9.2107C9.1932 32.5215 9.17569 32.5215 9.15818 32.5198L9.15993 32.518C8.76426 32.3097 8.31781 32.1556 8.18826 31.6496C8.18826 31.6496 8.1725 31.6356 8.169 31.6076C8.16375 31.5481 8.21977 31.422 8.59619 31.205C8.72749 31.1297 8.89907 31.0421 9.11791 30.9423C9.13017 30.9406 9.14067 30.9388 9.15293 30.9371C9.15293 30.9336 9.15468 30.9301 9.15468 30.9266C9.17744 30.9161 9.19845 30.9056 9.22296 30.8951C9.25097 30.8828 9.27548 30.8706 9.29824 30.8601C9.37703 30.8233 9.43655 30.79 9.47332 30.7638C9.48557 30.7673 9.49608 30.7708 9.51008 30.7725C9.60638 30.7428 9.70442 30.7165 9.80071 30.685C12.2763 29.8709 14.7449 29.0323 17.1592 28.0448C17.1539 28.0273 17.1487 28.0081 17.1417 27.9906C17.1399 27.9818 17.1382 27.9748 17.1347 27.966C17.1294 27.9625 17.1224 27.959 17.1172 27.9555C16.3538 27.4933 15.5152 27.3865 14.6416 27.4268C14.4507 27.4338 14.2406 27.5266 14.0603 27.3708L14.0883 27.2885C13.9098 27.264 13.7452 27.3183 13.5824 27.3795C12.3306 27.8487 11.0525 28.2427 9.78495 28.6716C9.65715 28.7154 9.52934 28.7574 9.4243 28.8362C9.39103 28.8607 9.36127 28.8887 9.33326 28.922L9.34026 28.9517V28.9745C9.30524 29.013 9.26148 29.0375 9.2037 29.0218C9.18969 29.0428 9.17219 29.0638 9.15118 29.0813C9.13892 29.0918 9.12667 29.0988 9.11441 29.104C9.09865 29.111 9.08115 29.1145 9.06364 29.1128C9.04438 29.111 9.02687 29.1058 9.00761 29.097C8.77651 29.3194 8.47188 29.4507 8.2758 29.7151C7.89763 30.0565 7.54748 30.4136 7.33038 30.8583C7.32163 30.8601 7.31463 30.8601 7.31463 30.8601C7.31463 30.8601 6.93296 31.7092 7.04501 32.1294C7.04676 32.1329 7.04851 32.1364 7.04851 32.1399C7.08878 32.5075 7.26035 32.8279 7.58424 33.0888C7.99042 33.4162 8.45262 33.6158 8.97435 33.663C9.08465 33.7541 9.21245 33.7366 9.33851 33.7261C11.8666 33.8644 14.1724 33.2253 16.2365 31.7442C16.2488 31.7372 16.2628 31.7284 16.275 31.7214C16.3118 31.6987 16.3468 31.6742 16.3836 31.6514C16.9368 31.2767 17.3202 30.7795 17.5251 30.4661C17.6616 30.2543 17.7177 30.1265 17.6896 30.1843Z" fill="#9ECA70"/>
<path d="M0.714355 28.8764C1.52496 30.2787 3.06738 30.8705 4.7061 30.3925C6.14347 29.9723 7.57385 29.5294 9.00772 29.097L9.04274 29.0987C9.0795 29.0655 9.11627 29.0322 9.15303 28.9989C9.17754 28.9919 9.20205 28.9867 9.22657 28.9797C9.26508 28.9709 9.30185 28.9604 9.34037 28.9517L9.33336 28.9219C9.36137 28.8886 9.39114 28.8606 9.4244 28.8361C9.52945 28.7573 9.65725 28.7153 9.78506 28.6715C11.0526 28.2426 12.3307 27.8487 13.5825 27.3795C13.7453 27.3182 13.9099 27.2639 14.0884 27.2884L14.1129 27.2149L15.6676 26.322L18.7787 25.3503V25.5657C19.7364 25.1648 20.6958 24.7656 21.6552 24.3647C21.727 24.3524 21.7848 24.3191 21.8198 24.2596C21.8286 24.2491 21.8356 24.2368 21.8408 24.2228C21.8478 24.1388 21.8548 24.0565 21.8601 23.9725C21.8723 24.046 21.9091 24.1125 21.9949 24.1633C22.0054 24.1686 22.0176 24.1721 22.0281 24.1756C22.2102 24.2368 22.3695 24.1493 22.5306 24.0793C23.0681 23.8464 23.6126 23.6223 24.1413 23.3667C24.1658 23.3247 24.1903 23.2827 24.2166 23.2424C24.8714 22.7224 25.661 22.4563 26.3998 22.0974C27.2892 21.609 28.1663 21.0942 29.1082 20.7091C29.9696 20.1996 30.8415 19.7076 31.6556 19.1264C31.7361 19.0949 31.8167 19.0616 31.8972 19.0283C31.941 18.9793 31.983 18.9285 32.0268 18.8778C32.1073 18.8445 32.1896 18.813 32.2701 18.7815C33.0002 18.4366 33.669 18.0024 34.259 17.4491C34.2992 17.4019 34.3378 17.3528 34.378 17.3056C34.4288 17.2898 34.4813 17.2741 34.5338 17.2583C34.5706 17.2128 34.6074 17.169 34.6441 17.1235C36.7923 15.6038 38.7759 13.9056 40.3989 11.8187C41.6279 10.236 42.4858 8.47122 42.955 6.52087C42.9568 6.43334 42.9568 6.34755 42.9585 6.26001C43.1511 5.57896 43.1861 4.87691 43.2229 4.17485C42.9603 3.80019 43.1161 3.39051 43.1336 2.99484C43.1108 3.23469 43.0706 3.4728 43.0145 3.70915C42.8535 4.39195 42.6346 5.05549 42.3843 5.70852C42.3247 5.86084 42.2687 6.02016 42.1357 6.1252C42.1164 6.14096 42.0936 6.15672 42.0709 6.16897C42.0429 6.19873 42.0131 6.2285 41.9851 6.25826C41.9851 6.33179 41.9676 6.39482 41.8993 6.43334C41.5369 7.32623 41.0047 8.11932 40.4374 8.88791C38.839 11.0536 36.8344 12.7939 34.6757 14.3713C34.6424 14.3941 34.5916 14.3958 34.5514 14.4063C34.5479 14.4326 34.5461 14.4606 34.5444 14.4868C34.5093 14.5044 34.4761 14.5201 34.4411 14.5376C34.4183 14.5481 34.3938 14.5604 34.371 14.5726C34.3693 14.6006 34.3693 14.6304 34.3693 14.6602C34.3343 14.6759 34.301 14.6917 34.266 14.7092C33.7495 14.9578 33.3153 15.336 32.8269 15.6353C32.4329 15.8752 32.0443 16.1256 31.512 16.4582C31.9707 13.0442 31.8989 9.74928 31.4858 6.4596C31.484 6.45084 31.484 6.44034 31.4823 6.43159L31.4805 6.43334C31.4788 6.38432 31.4788 6.33354 31.477 6.28452V6.26001V6.25476H31.4438C31.3019 6.1182 31.2914 5.92036 31.2652 5.72778C31.1391 4.77186 30.9991 3.8212 30.8065 2.87754L30.9535 2.87053V2.86878L30.4913 0.5H28.0788L28.3467 0.986712C28.527 1.3141 28.6775 1.65375 28.7983 2.00566C28.9034 2.30854 28.9874 2.61842 29.047 2.93356C29.222 3.82295 29.3901 4.71234 29.5092 5.61223C29.5354 5.81182 29.5424 6.00965 29.5547 6.20924C29.5722 6.22325 29.5897 6.239 29.6019 6.25476H29.5582C29.5844 6.31428 29.6125 6.37206 29.6387 6.42983H29.637C29.637 6.43509 29.6387 6.44034 29.6387 6.44559C29.9346 8.80037 29.9503 11.1674 29.8943 13.5327C29.8698 14.5726 29.6737 15.6126 29.6195 16.6455C29.5704 17.6155 29.061 18.0129 28.3186 18.342C28 18.4838 27.6849 18.6309 27.368 18.7745C27.368 18.7745 27.368 18.7762 27.368 18.778L27.3662 18.7762C27.3067 18.806 27.2472 18.834 27.1876 18.8638C27.1299 18.9198 27.0721 18.9758 27.0126 19.0318C27.0108 19.0318 27.0108 19.0318 27.0091 19.0318C26.925 19.0371 26.8392 19.0423 26.7535 19.0476C25.8291 19.5886 24.8346 19.9825 23.8629 20.4254C23.2327 20.7126 22.5866 20.9629 21.9476 21.229C21.9441 21.257 21.9389 21.2833 21.9336 21.3113C21.9091 21.3358 21.8828 21.3498 21.8583 21.3516C21.8566 21.3761 21.8548 21.4006 21.8531 21.4269V21.4636C21.8531 21.4514 21.8513 21.4391 21.8513 21.4269C21.8408 21.3971 21.8268 21.3691 21.8076 21.3446H21.8058C21.7918 21.3393 21.7778 21.3288 21.762 21.3183H21.7568C20.1671 21.9504 18.5879 22.6069 16.9877 23.2092C15.1441 23.9007 13.2901 24.566 11.4273 25.2015C10.7655 25.4256 10.1072 25.6917 9.40339 25.7758C9.38939 25.8073 9.36663 25.8353 9.34037 25.8581C9.33862 25.8616 9.33511 25.8633 9.33161 25.8668C9.28084 25.8651 9.23007 25.8651 9.17754 25.8633C9.15303 25.8826 9.12502 25.8948 9.09526 25.9053C9.05674 25.9193 9.01647 25.9316 8.98321 25.9526C8.00278 26.2555 7.01885 26.5531 6.00691 26.7422C5.88436 26.8875 5.71629 26.8087 5.56922 26.828H5.30836C5.13153 26.8035 4.9372 26.8998 4.78138 26.7439C3.88674 26.6179 3.26522 26.0664 2.75925 25.3836" fill="#DC4F8D"/>
<path d="M43.2861 0.5H30.4897L30.9537 2.86703C31.057 3.39401 31.1043 3.9315 31.2093 4.45672C31.3301 5.05023 31.3896 5.65425 31.4772 6.25476C31.4772 6.25651 31.4754 6.25651 31.4754 6.25826V6.28277C31.4772 6.33179 31.4772 6.38256 31.4789 6.43159L31.4807 6.42983C31.4982 6.45084 31.5157 6.4736 31.5314 6.49636C31.5314 6.49636 31.5314 6.49636 31.5332 6.49811C31.8098 6.89729 31.717 7.37875 31.7555 7.81644C31.8886 9.35186 31.9989 10.8908 31.9586 12.435C31.9306 13.5274 31.8081 14.6112 31.7275 15.6984C31.717 15.8244 31.6365 15.9855 31.7555 16.0678C31.8834 16.1553 31.9901 15.9995 32.0969 15.9365C32.701 15.5846 33.2665 15.1714 33.8565 14.7967C33.9878 14.7144 34.1156 14.5796 34.2889 14.6269C34.3064 14.5954 34.3239 14.5656 34.3467 14.5411C34.3537 14.5324 34.3607 14.5254 34.3694 14.5184C34.3939 14.4974 34.422 14.4833 34.4552 14.4798C34.471 14.4396 34.492 14.4028 34.5183 14.3713C34.5288 14.3573 34.5393 14.3468 34.5498 14.3345C34.618 14.261 34.7056 14.2067 34.7879 14.1489C36.1675 13.1948 37.4158 12.083 38.5923 10.8978C39.8966 9.58121 40.9961 8.10356 41.8172 6.43159L41.8189 6.42983C41.8259 6.41583 41.8312 6.40182 41.8382 6.38957C41.8154 6.37731 41.7927 6.36856 41.7699 6.3598C41.8032 6.3528 41.8364 6.3423 41.868 6.32654C41.8785 6.30203 41.8907 6.27927 41.9047 6.25651C41.917 6.23725 41.9292 6.21799 41.9432 6.19873C41.9835 6.15496 42.0308 6.13221 42.085 6.1252C42.4492 5.22356 42.7678 4.30616 42.9674 3.35024C43.0287 3.05611 43.0865 2.76199 43.1513 2.46436C43.1495 2.40658 43.1478 2.34706 43.1443 2.28753C43.1425 2.26827 43.1373 2.26127 43.1303 2.26302C43.076 2.28403 43.1705 2.20699 43.1705 2.15622C43.1688 2.25952 43.1635 2.35056 43.1583 2.43459C43.1775 2.3418 43.1985 2.25076 43.2213 2.15797V4.1731C43.3088 4.02604 43.2808 3.86322 43.2808 3.7074C43.2826 2.95107 43.2791 2.19474 43.2773 1.43841H43.2843V0.5H43.2861ZM34.5095 6.25826H34.4027H34.3694C34.3852 6.2425 34.4027 6.232 34.4202 6.22675C34.4342 6.19523 34.443 6.16372 34.4482 6.13045C34.457 6.16197 34.4692 6.19348 34.4867 6.22324C34.506 6.23025 34.5253 6.24075 34.5445 6.25826H34.5095ZM34.8124 1.58897C34.8281 1.56797 34.8421 1.55046 34.8561 1.53295C34.8491 1.55571 34.8334 1.57497 34.8124 1.58897ZM36.4704 6.43334C36.4616 6.41583 36.4528 6.40007 36.4441 6.38256C36.4388 6.37031 36.4318 6.35805 36.4266 6.3458C36.4126 6.31779 36.3968 6.28802 36.3828 6.26001C36.4126 6.28977 36.4598 6.30903 36.4774 6.3458C36.4844 6.3563 36.4879 6.36856 36.4861 6.38256C36.4861 6.39482 36.4809 6.41408 36.4704 6.43334Z" fill="#EF71A6"/>
</g>
<defs>
<clipPath id="clip0_27_6244">
<rect width="42.5716" height="39" fill="white" transform="translate(0.714355 0.5)"/>
</clipPath>
</defs>
</svg>
