<svg width="42" height="44" viewBox="0 0 42 44" fill="none" xmlns="http://www.w3.org/2000/svg">
<g clip-path="url(#clip0_27_6155)">
<path d="M21.1665 39.3486C21.163 39.3504 21.1595 39.3539 21.1577 39.3574C21.163 39.3627 21.1665 39.3662 21.17 39.3714V39.3486C21.1682 39.3486 21.1682 39.3486 21.1665 39.3486Z" fill="#D9596B"/>
<path d="M3.56244 31.1658C2.9256 31.5304 2.36923 31.9978 1.88818 32.5644C2.03027 32.4206 2.71846 31.7324 3.56244 31.1658Z" fill="#D9596B"/>
<path d="M6.31179 30.2806C6.21079 30.2926 6.10979 30.308 6.01221 30.3234C6.46415 30.2823 6.90583 30.243 7.29614 30.2122C6.96746 30.2207 6.64048 30.2395 6.31179 30.2806Z" fill="#D9596B"/>
<path d="M41.7929 18.9204C41.5396 17.3454 41.2314 15.7842 40.3583 14.4043C38.9443 12.1686 36.9088 11.0541 34.2656 11.0404C34.2913 11.2733 34.1561 11.3674 33.9524 11.3931C33.7401 11.4205 33.6083 11.3315 33.5792 11.1106V11.1038C33.5809 11.0815 33.5826 11.061 33.5843 11.0404C33.5552 11.0302 33.5244 11.0216 33.4953 11.013C33.4388 11.0148 33.3806 11.0148 33.3241 11.0165C33.2008 10.9651 33.0776 10.9172 33.0639 11.1089C33.0622 11.1089 33.0622 11.1089 33.0604 11.1089C32.8687 10.9429 32.6547 11.0165 32.4527 11.0678C31.9135 11.1996 31.3879 11.3828 30.8709 11.5814C29.6058 12.071 27.9915 11.6841 27.2622 10.6073C27.192 10.5029 27.1115 10.3985 26.9797 10.3608C26.9472 10.3283 26.9147 10.2957 26.8821 10.2615L26.7332 9.99959C26.5312 9.37132 26.4661 8.72592 26.473 8.06683C26.4833 7.1424 26.4679 6.21625 26.4627 5.29011C26.4713 5.23361 26.4816 5.17712 26.4901 5.12063V2.89514C26.4816 2.83864 26.4713 2.78215 26.4627 2.72566C26.4679 2.23947 26.4661 1.755 26.4781 1.27053C26.4833 1.08051 26.4353 0.984639 26.2196 0.986351C24.4803 1.00176 22.7393 1.00689 21 1.01717C21.0034 2.64006 21.0086 4.26296 21.012 5.88585C21.0616 5.88928 21.113 5.89099 21.1626 5.89441C21.1643 5.28326 21.1729 4.67382 21.1661 4.06266C21.1626 3.78533 21.2568 3.71172 21.5273 3.7956C21.8251 3.88634 22.0357 4.0969 22.2788 4.26125C22.2805 4.26296 22.2805 4.26467 22.2805 4.26638C22.4534 4.57966 22.6246 4.89294 22.7958 5.20451V5.20622C22.7975 5.20622 22.7975 5.20794 22.7975 5.20794V9.96021V10.0835V10.2581C22.7975 10.2992 22.7958 10.342 22.7975 10.3831C22.789 11.2784 22.8112 12.1617 23.2186 13.0023C23.7545 14.1133 25.5674 15.1816 27.1954 14.4797C28.3801 13.9678 29.6195 13.6802 30.9206 13.7692C31.7132 13.824 32.4852 13.9969 33.2385 14.2537C33.2659 14.2623 33.2933 14.2708 33.3207 14.2811C33.3224 14.3085 33.3258 14.3359 33.3292 14.3633C33.3583 14.3633 33.3857 14.3633 33.4131 14.365C33.4388 14.3633 33.4662 14.365 33.4919 14.365C33.4936 14.3924 33.4953 14.4215 33.497 14.4506C34.2246 14.6012 34.7587 15.0788 35.2996 15.5325C36.89 16.8678 37.5885 18.6722 37.9428 20.6477C38.0473 21.2315 38.1174 21.8221 38.203 22.4093V22.4127V22.4144C38.2356 22.4469 38.2749 22.4743 38.3246 22.5C38.4068 22.5051 38.4872 22.5103 38.5694 22.512C38.4684 22.5154 38.3691 22.5205 38.2698 22.5257C38.2424 22.5428 38.2202 22.5616 38.203 22.5805L38.2048 22.5822C38.2818 23.5254 38.4478 24.4636 38.3075 25.4171C38.2321 25.9358 38.2647 26.4631 38.2236 26.9886C38.1294 28.1562 37.8778 29.2877 37.5696 30.4056C37.1999 31.7495 36.6863 33.0454 36.0666 34.2968C35.9912 34.4492 35.8937 34.5896 35.8064 34.7351L35.8081 34.7402C35.8064 34.7419 35.8064 34.7453 35.8046 34.747C35.832 34.7796 35.868 34.8035 35.9091 34.8189C35.9348 34.8207 35.9587 34.8224 35.9844 34.8241C35.9433 34.8241 35.9039 34.8258 35.8629 34.8258C35.8252 34.8275 35.7892 34.8326 35.755 34.8446C35.743 34.8652 35.7327 34.8857 35.7225 34.9063L35.7191 34.9097C35.0839 36.0652 34.3564 37.1574 33.497 38.1589C33.4953 38.188 33.4936 38.2171 33.4936 38.2479C33.4713 38.2582 33.4508 38.2702 33.4285 38.2822C33.4234 38.2839 33.4199 38.2873 33.4148 38.289H33.4131C33.3857 38.3044 33.3566 38.3181 33.3292 38.3335C33.3275 38.3609 33.3258 38.39 33.3241 38.4174V38.5201C33.3224 38.681 33.3224 38.8419 33.3207 39.0029C33.4011 38.9772 33.461 38.9293 33.497 38.8505C35.0309 37.7669 36.3781 36.4881 37.5166 34.9936C37.5046 34.884 37.4566 34.8395 37.3984 34.8258C37.5012 34.8052 37.6039 34.7796 37.7066 34.7453C38.6379 33.6377 39.3466 32.3897 39.968 31.0938C41.2554 28.4044 41.9384 25.5712 41.959 22.5839C41.9093 22.5377 41.8563 22.5137 41.7946 22.5051C41.8563 22.488 41.9128 22.4572 41.9624 22.4093C42.024 21.24 41.9795 20.0742 41.7929 18.9204Z" fill="#F06977"/>
<path d="M21.1629 5.90653V5.89455C21.1132 5.89112 21.0619 5.88941 21.0122 5.88599C21.0636 5.9305 21.1132 5.93392 21.1629 5.90653Z" fill="#D9596B"/>
<path d="M8.74598 39.1211C8.7357 39.1742 8.71345 39.2255 8.67236 39.2735C8.75796 39.2991 8.84355 39.3231 8.92915 39.3471C8.82301 39.2889 8.77165 39.2101 8.74598 39.1211Z" fill="#DA6D80"/>
<path d="M38.2699 22.5258C38.3692 22.5207 38.4685 22.5156 38.5695 22.5121C38.4873 22.5104 38.4068 22.5053 38.3247 22.5001C38.275 22.4745 38.2357 22.4471 38.2031 22.4146V22.5806C38.2202 22.5618 38.2425 22.5429 38.2699 22.5258Z" fill="#EB7A89"/>
<path d="M41.9593 22.584C41.9593 22.5258 41.961 22.4676 41.9627 22.4094C41.913 22.4574 41.8566 22.4882 41.7949 22.5053C41.8566 22.5139 41.9096 22.5378 41.9593 22.584Z" fill="#EB7A89"/>
<path d="M0.619552 34.6409C0.540804 34.7093 0.530532 34.8035 0.521973 34.8994C0.583602 34.8514 0.650366 34.824 0.718843 34.8086C0.670909 34.7847 0.633247 34.735 0.619552 34.6409Z" fill="#DA697C"/>
<path d="M33.3244 38.4175C32.8673 38.9054 32.4119 39.3916 31.9565 39.8777C32.4496 39.6449 32.881 39.318 33.3209 39.003C33.3227 38.842 33.3227 38.6811 33.3244 38.5202V38.4175Z" fill="#EF6A78"/>
<path d="M35.8627 34.8258C35.9038 34.8258 35.9432 34.8241 35.9843 34.8241C35.9586 34.8224 35.9346 34.8207 35.909 34.819C35.8679 34.8036 35.8319 34.7796 35.8045 34.7471C35.7874 34.7796 35.7703 34.8121 35.7549 34.8446C35.7891 34.8327 35.8251 34.8275 35.8627 34.8258Z" fill="#EB7A88"/>
<path d="M37.5166 34.9936C37.5799 34.9097 37.6432 34.8275 37.7066 34.7454C37.6039 34.7796 37.5012 34.8053 37.3984 34.8258C37.4566 34.8395 37.5046 34.884 37.5166 34.9936Z" fill="#EB7A88"/>
<path d="M33.5791 11.1107C33.6082 11.3316 33.74 11.4206 33.9523 11.3932C34.156 11.3675 34.2913 11.2733 34.2656 11.0405H33.5842C33.5825 11.0611 33.5808 11.0816 33.5791 11.1039V11.1107Z" fill="#F06977"/>
<path d="M33.7607 14.627C35.4161 15.5001 36.6128 16.7909 37.2616 18.5524C37.6416 19.5847 37.8607 20.6615 38.0182 21.7503C38.0491 21.9763 38.0217 22.2382 38.1997 22.4128H38.2014H38.2031V22.4094C38.1175 21.8222 38.0473 21.2316 37.9429 20.6478C37.5885 18.6723 36.8901 16.8679 35.2997 15.5326C34.7588 15.079 34.2246 14.6013 33.4971 14.4507V14.4866C33.5741 14.5517 33.6717 14.5808 33.7607 14.627Z" fill="#D9596B"/>
<path d="M33.4284 14.3992C33.4301 14.4078 33.4335 14.4164 33.4387 14.4232C33.4506 14.4403 33.4626 14.4557 33.478 14.4694C33.4832 14.4763 33.49 14.4814 33.4969 14.4865V14.4506C33.4952 14.4215 33.4934 14.3924 33.4917 14.365C33.4661 14.365 33.4387 14.3633 33.413 14.365C33.3856 14.3633 33.3582 14.3633 33.3291 14.3633V14.3821C33.3616 14.4009 33.3942 14.4061 33.4284 14.3992Z" fill="#D97487"/>
<path d="M20.9936 36.6152C20.9954 36.6134 20.9973 36.6115 20.9992 36.6096H20.9917L20.9936 36.6152Z" fill="#F19C79"/>
<path d="M20.5756 39.246C20.1476 39.2545 19.7265 39.1997 19.3019 39.1586C17.3161 38.9635 15.4296 38.4157 13.6166 37.594C12.6922 37.1745 12.0913 36.5309 12.004 35.4746C11.9886 35.2829 12.0006 35.0586 11.8499 34.908L11.8345 34.9097C11.8277 36.2501 12.3532 37.2447 13.6594 37.7412C13.9248 37.8422 14.1816 37.9654 14.4435 38.0716C16.544 38.931 18.7301 39.3555 20.9984 39.3709V39.3487C20.9984 39.347 20.9984 39.347 20.9984 39.3452C20.8837 39.2391 20.7262 39.2425 20.5756 39.246Z" fill="#F19C79"/>
<path d="M8.72225 35.4815V35.4438C8.70684 35.4644 8.69144 35.4884 8.67432 35.5055C8.68972 35.4969 8.70684 35.4901 8.72225 35.4815Z" fill="#DA7083"/>
<path d="M8.68457 32.3452C8.72394 32.3709 8.75989 32.376 8.79413 32.3658C8.81125 32.3623 8.82837 32.3538 8.84378 32.3401L8.79413 32.3418L8.68457 32.3452Z" fill="#DA7083"/>
<path d="M11.8608 34.9084C11.8608 34.9014 11.859 34.8962 11.859 34.8892C11.8538 34.8927 11.8485 34.8979 11.8432 34.9014L11.8345 34.9102L11.8502 34.9084H11.8608Z" fill="#DA7083"/>
<path d="M4.25249 34.7865C4.24565 34.7711 4.23538 34.7556 4.22168 34.7385V34.7865V34.8224V34.9063C4.24736 34.8772 4.25934 34.8498 4.25934 34.8224C4.25934 34.8104 4.25763 34.7984 4.25249 34.7865Z" fill="#DA6D80"/>
<path d="M7.9502 34.8224C7.9502 34.8498 7.96389 34.8772 7.98786 34.9063V34.8224V34.7865V34.7402C7.97416 34.7556 7.96389 34.771 7.95875 34.7865C7.95362 34.7984 7.9502 34.8104 7.9502 34.8224Z" fill="#DA6D80"/>
<path d="M25.2746 38.693C24.0215 38.9327 22.7786 39.2528 21.4861 39.2443C21.3714 39.2443 21.2533 39.2614 21.1694 39.3453C21.1694 39.347 21.1694 39.347 21.1694 39.3487V39.3709C22.5989 39.3829 23.9907 39.1364 25.3636 38.7632C25.4595 38.7084 25.5554 38.6554 25.6512 38.6023C25.5263 38.6348 25.4013 38.6656 25.2746 38.693Z" fill="#F19C79"/>
<path d="M30.669 34.9045C30.645 34.908 30.6176 34.9097 30.592 34.9131C30.5903 34.9131 30.5902 34.9131 30.5885 34.9131C29.6282 36.0276 28.4692 36.9058 27.2366 37.6881C26.723 38.0151 26.1838 38.3044 25.6514 38.6023C25.5555 38.6553 25.4596 38.7084 25.3638 38.7632C25.4905 38.7427 25.6188 38.7341 25.7404 38.7016C27.1698 38.3027 28.5291 37.7275 29.7976 36.9606C30.7803 36.3665 31.7612 35.7605 32.5572 34.9131H32.4597C31.8622 34.9097 31.2665 34.908 30.669 34.9045Z" fill="#DD8765"/>
<path d="M33.4387 38.1728C33.4352 38.1796 33.4301 38.1847 33.4267 38.1916C33.4233 38.2053 33.4215 38.2207 33.4198 38.2344C33.3787 38.2464 33.3582 38.2994 33.3291 38.3337C33.3565 38.3183 33.3856 38.3046 33.413 38.2892H33.4147C33.4198 38.2875 33.4233 38.284 33.4284 38.2823C33.4506 38.2703 33.4712 38.2584 33.4934 38.2481C33.4934 38.2173 33.4952 38.1882 33.4969 38.1591V38.0854C33.4763 38.1146 33.4575 38.1437 33.4387 38.1728Z" fill="#D96E81"/>
<path d="M35.8013 34.7437C35.7396 34.7676 35.6985 34.8036 35.7122 34.8686C35.6968 34.8823 35.6831 34.896 35.6694 34.9097H35.7191L35.7225 34.9063C35.7328 34.8858 35.743 34.8652 35.755 34.8447C35.7704 34.8121 35.7876 34.7796 35.8047 34.7471C35.8064 34.7454 35.8064 34.742 35.8081 34.7402L35.8064 34.7351H35.7944C35.7961 34.7385 35.7978 34.742 35.8013 34.7437Z" fill="#D96E81"/>
<path d="M30.8453 34.7351C30.8145 34.7368 30.7854 34.7368 30.7563 34.7385C30.7408 34.7676 30.7254 34.7967 30.71 34.8258C30.6963 34.8515 30.6826 34.8789 30.6689 34.9046C31.2664 34.908 31.8621 34.9097 32.4596 34.9131H32.5572C32.5829 34.9097 32.6103 34.908 32.6376 34.9063C32.6565 34.8721 32.6753 34.8378 32.6941 34.8053C32.7061 34.783 32.7181 34.7625 32.7301 34.7402H32.6719C32.0624 34.7385 31.4547 34.7368 30.8453 34.7351Z" fill="#DD8765"/>
<path d="M38.1554 22.9503C38.1434 23.8714 38.2342 24.7872 38.1948 25.7168C38.0784 28.4696 37.4022 31.0597 36.2723 33.5539C36.0994 33.9374 35.8632 34.2986 35.7913 34.7232C35.7895 34.7249 35.7896 34.7283 35.7896 34.73C35.7913 34.7317 35.793 34.7335 35.7947 34.7352H35.8067C35.894 34.5897 35.9916 34.4493 36.0669 34.2969C36.6866 33.0455 37.2002 31.7496 37.5699 30.4057C37.8781 29.2879 38.1297 28.1563 38.2239 26.9887C38.265 26.4632 38.2325 25.9359 38.3078 25.4172C38.4482 24.4637 38.2821 23.5255 38.2051 22.5823L38.2034 22.5806C38.1143 22.685 38.1571 22.8219 38.1554 22.9503Z" fill="#D9596B"/>
<path d="M21.1712 5.90299C21.1797 5.89785 21.19 5.89101 21.1985 5.88416C21.2927 5.74549 21.2824 5.588 21.2841 5.43393C21.2893 5.05388 21.279 4.67212 21.2893 4.29208C21.2996 3.90005 21.404 3.84869 21.7549 4.03187C21.9261 4.1226 22.0562 4.29721 22.2771 4.28352C22.2771 4.28009 22.2788 4.27838 22.2788 4.27496C22.289 4.67383 22.515 4.9563 22.7958 5.20624V5.20453C22.6246 4.89296 22.4534 4.57968 22.2805 4.2664C22.2805 4.26469 22.2805 4.26297 22.2788 4.26126C22.0357 4.09692 21.8251 3.88635 21.5272 3.79562C21.2568 3.71174 21.1626 3.78535 21.166 4.06268C21.1729 4.67383 21.1643 5.28328 21.1626 5.89443V5.90641C21.166 5.90641 21.1677 5.9047 21.1712 5.90299Z" fill="#D5596B"/>
<path d="M22.7071 5.32442C22.69 5.37749 22.6745 5.43227 22.6728 5.48876C22.6472 6.88911 22.6608 8.28946 22.666 9.68981C22.666 9.78225 22.678 9.87469 22.7139 9.95687H22.7156C22.7345 10.0014 22.7619 10.0442 22.7978 10.0835V9.96029V5.20801C22.7978 5.20801 22.7978 5.2063 22.7961 5.2063C22.7653 5.22342 22.7345 5.25937 22.7071 5.32442Z" fill="#D5596B"/>
<path d="M35.6284 34.9542C35.3785 35.2264 35.2347 35.5722 35.0395 35.882C34.5858 36.6028 34.0483 37.2618 33.5758 37.9671C33.5484 38.0065 33.5227 38.0459 33.4971 38.0853V38.1589C34.3565 37.1574 35.084 36.0652 35.7191 34.9097H35.6695C35.6558 34.9251 35.6421 34.9388 35.6284 34.9542Z" fill="#D9596B"/>
<path d="M22.7495 11.8501C22.9532 14.038 25.3773 15.4075 27.3186 14.5601C29.1366 13.7675 31.0112 13.6511 32.9114 14.2793C33.0261 14.317 33.1459 14.3667 33.2641 14.3119C33.2692 14.3256 33.2778 14.3393 33.2863 14.3512C33.2966 14.3615 33.3069 14.3701 33.3188 14.3769C33.3223 14.3786 33.3257 14.3804 33.3291 14.3821V14.3632C33.3257 14.3358 33.3223 14.3085 33.3206 14.2811C33.2932 14.2708 33.2658 14.2622 33.2384 14.2537C32.4851 13.9969 31.7131 13.824 30.9204 13.7692C29.6194 13.6802 28.38 13.9678 27.1953 14.4796C25.5673 15.1815 23.7544 14.1133 23.2185 13.0023C22.8111 12.1617 22.7888 11.2784 22.7974 10.383C22.7957 10.3419 22.7974 10.2991 22.7974 10.2581C22.7786 10.3009 22.7615 10.3419 22.7495 10.3847C22.5851 10.8675 22.7033 11.3588 22.7495 11.8501Z" fill="#D9596B"/>
<path d="M37.4428 22.5856C37.4514 22.5684 37.4634 22.5496 37.4771 22.5308C37.4856 22.5291 37.4959 22.5274 37.5045 22.5274C37.4411 22.5222 37.3795 22.5171 37.3179 22.5154C37.3487 22.5393 37.3778 22.5633 37.4086 22.5856H37.4428Z" fill="#DA7284"/>
<path d="M38.1998 22.4128C38.1981 22.4163 38.1981 22.4163 38.1964 22.4163C38.1313 22.4591 38.0646 22.4865 37.9961 22.5053C38.0663 22.5173 38.1348 22.5412 38.2032 22.5806V22.4146V22.4128H38.2015H38.1998Z" fill="#DA7284"/>
<path d="M21.0839 36.7312C21.0856 36.7568 21.089 36.7825 21.089 36.8082C21.089 36.7825 21.0907 36.7551 21.0907 36.7294C21.0941 36.6884 21.1027 36.6507 21.1198 36.6165C21.0856 36.6148 21.0496 36.613 21.0137 36.6113C21.0445 36.6439 21.0685 36.6832 21.0839 36.7312Z" fill="#ECA890"/>
<path d="M21.1697 39.3487C21.1697 39.347 21.1697 39.347 21.1697 39.3452C21.168 39.3452 21.168 39.3452 21.168 39.347C21.1252 39.2973 21.103 39.2425 21.0927 39.186C21.0756 39.246 21.0465 39.299 21.0002 39.347L20.9985 39.3452C20.9985 39.347 20.9985 39.347 20.9985 39.3487C21.0002 39.3487 21.0002 39.3487 21.002 39.3487H21.0157H21.1509H21.1663C21.168 39.3487 21.168 39.3487 21.1697 39.3487Z" fill="#ECA890"/>
<path d="M27.7673 22.6731C27.7177 22.757 27.6663 22.8426 27.6167 22.9264H33.2386C33.2386 22.9264 33.2386 22.9264 33.2403 22.9282V22.9264C34.2452 23.0771 34.9951 23.5599 35.2981 24.5733C35.4812 25.1862 35.3854 25.8059 35.257 26.4205C35.0909 27.2114 34.8478 27.98 34.6082 28.7504C35.4042 28.6511 36.1472 28.3652 36.897 28.105C36.986 28.0742 37.0767 28.0451 37.1658 28.016C37.1966 28.0074 37.2274 27.9971 37.2582 27.9869C37.6879 27.1275 37.83 26.1876 38.0611 25.2683C38.3145 24.2532 38.1227 23.3801 37.4311 22.6132C37.4243 22.6046 37.4174 22.596 37.4089 22.5875C37.378 22.5652 37.3489 22.5413 37.3181 22.5173C37.2719 22.4831 37.224 22.4471 37.1778 22.4112C36.4998 21.9472 35.7243 21.978 34.9557 21.9695H33.5896H30.1794H30.152C29.4159 21.9952 28.6815 22.0294 28.0224 22.4163L27.9197 22.519C27.8701 22.5704 27.8187 22.6217 27.7673 22.6731Z" fill="#DBD7E5"/>
<path d="M11.8724 34.8755C11.8844 34.8241 11.8758 34.7779 11.8467 34.7385H11.8398C11.8467 34.7882 11.8518 34.8395 11.8587 34.8892C11.8587 34.896 11.8604 34.9012 11.8604 34.908C11.8655 34.896 11.8689 34.8858 11.8724 34.8755Z" fill="#EBAA92"/>
<path d="M20.9914 36.5873C20.9948 36.1748 20.9743 35.7622 21.0051 35.3513C21.0273 35.0637 20.9503 34.9148 20.7295 34.896C20.6815 34.8908 20.6285 34.8925 20.5668 34.9011C20.5394 34.9028 20.5103 34.9062 20.4829 34.9097C19.7776 35.6526 19.9831 36.3391 20.9931 36.6147L20.9914 36.6096V36.5873Z" fill="#CB7452"/>
<path d="M16.3662 28.7075C15.137 29.6748 13.8034 30.476 12.3825 31.135C11.2441 31.664 10.044 31.9944 8.8457 32.3402C9.14186 32.4258 9.4055 32.2872 9.67427 32.2136C11.0507 31.8404 12.3671 31.3165 13.6237 30.6335C14.9932 29.8871 16.2515 28.9934 17.4224 27.9697C17.5439 27.8636 17.7014 27.7591 17.6604 27.5503C17.2974 28.0108 16.8198 28.3498 16.3662 28.7075Z" fill="#D9596B"/>
<path d="M11.8591 34.7408C11.8609 34.7338 11.8609 34.725 11.8644 34.718C11.8574 34.7233 11.8504 34.7303 11.8433 34.7355C11.8416 34.7373 11.8416 34.7373 11.8398 34.7391H11.8469L11.8591 34.7408Z" fill="#D9596B"/>
<path d="M25.5057 34.908C24.9356 34.9097 24.3639 34.9114 23.7938 34.9131H23.7459L23.7407 34.9114C23.9598 35.466 24.232 35.6903 24.6703 35.6783C25.1308 35.6646 25.3551 35.466 25.5382 34.9062L25.5331 34.908H25.5057Z" fill="#CB7452"/>
<path d="M21.5136 34.9097C21.4845 34.9063 21.4571 34.9029 21.4297 34.9012C21.3955 34.8806 21.3629 34.8584 21.3287 34.8378C21.2859 34.8104 21.2431 34.7848 21.2003 34.7574C21.19 34.7505 21.1798 34.7437 21.1695 34.7385C21.113 34.7385 21.0548 34.7368 20.9966 34.7368C20.9401 34.7368 20.8853 34.7368 20.8288 34.7385C20.8254 34.7402 20.8203 34.7437 20.8168 34.7471C20.733 34.7967 20.6508 34.8481 20.5669 34.9012C20.6285 34.8926 20.6816 34.8909 20.7295 34.896C20.9504 34.9149 21.0274 35.0638 21.0051 35.3514C20.9743 35.7623 20.9949 36.1748 20.9915 36.5874V36.6097H20.9983C21.0034 36.6097 21.0086 36.6114 21.0137 36.6114C21.0497 36.6131 21.0856 36.6148 21.1198 36.6165C21.137 36.6182 21.1524 36.6182 21.1678 36.6199C21.1952 36.5942 21.2243 36.5686 21.2517 36.5412C22.046 36.18 22.1436 35.5757 21.5136 34.9097Z" fill="#CB7452"/>
<path d="M25.5506 34.7421C25.5471 34.7386 25.5436 34.7369 25.5384 34.7351L25.5366 34.7369L25.5506 34.7421Z" fill="#EBA991"/>
<path d="M25.5382 34.9062C25.5365 34.9045 25.5349 34.9028 25.5332 34.9028V34.9078L25.5382 34.9062Z" fill="#EBA991"/>
<path d="M30.662 34.8481C30.6346 34.8652 30.6106 34.8857 30.5901 34.9114L30.5884 34.9131C30.5901 34.9131 30.5901 34.9131 30.5918 34.9131C30.6175 34.9097 30.6449 34.908 30.6688 34.9046C30.6825 34.8789 30.6962 34.8515 30.7099 34.8258C30.7253 34.7967 30.7407 34.7676 30.7561 34.7385H30.7048C30.6791 34.7693 30.662 34.8036 30.662 34.8481Z" fill="#EBA991"/>
<path d="M21.5135 34.9098C21.4724 34.8687 21.4228 34.8447 21.368 34.8362C21.3543 34.8362 21.3406 34.8362 21.3286 34.8379C21.3629 34.8584 21.3954 34.8807 21.4296 34.9012C21.457 34.9029 21.4844 34.9064 21.5135 34.9098Z" fill="#EAAA92"/>
<path d="M23.7378 34.7334C23.7342 34.737 23.7306 34.7388 23.7271 34.7406L23.7396 34.7352C23.7396 34.7352 23.7396 34.7352 23.7378 34.7334Z" fill="#EAAA92"/>
<path d="M23.7463 34.9062C23.7445 34.9081 23.7426 34.91 23.7407 34.9119L23.7463 34.9137V34.9062Z" fill="#EAAA92"/>
<path d="M33.247 34.3568C33.271 34.3397 33.295 34.3209 33.3172 34.302C33.3172 34.2729 33.3206 34.2456 33.3241 34.2182V34.1702C33.3241 33.2595 33.3224 32.3488 33.3224 31.438C33.3172 31.4329 33.3121 31.4295 33.307 31.4243C32.7728 32.1776 32.3123 32.9839 31.7097 33.6892C31.4444 33.999 31.1876 34.3175 30.9308 34.6324H30.9291C30.9017 34.6667 30.8726 34.7009 30.8452 34.7352C31.4547 34.7369 32.0624 34.7386 32.6718 34.7403H32.73C32.7574 34.7386 32.7848 34.7352 32.8122 34.7335C32.8276 34.7043 32.8447 34.6787 32.8636 34.6547C32.9646 34.5246 33.1135 34.451 33.247 34.3568Z" fill="#DD8765"/>
<path d="M33.3175 34.302C33.2953 34.3208 33.2713 34.3397 33.2473 34.3568C33.1138 34.4509 32.9649 34.5246 32.8639 34.6547C32.845 34.6786 32.8279 34.7043 32.8125 34.7334C33.1326 34.7659 33.4168 34.7591 33.3175 34.302Z" fill="#DA5C6C"/>
<path d="M33.3261 31.3096C33.3809 31.2531 33.4357 31.1966 33.4904 31.1401C33.4904 31.1384 33.4904 31.1384 33.4904 31.1367C33.4921 31.0819 33.4956 31.0254 33.4973 30.9724V30.9707C33.4956 30.3133 33.4939 29.6542 33.4921 28.9968C33.4921 28.9968 33.4921 28.9968 33.4921 28.9951C33.3774 28.9934 33.2645 28.9934 33.1498 28.9934C33.1481 28.9917 33.1481 28.9917 33.1463 28.9934C33.1446 28.9917 33.1446 28.9917 33.1429 28.9934C33.1412 28.9917 33.1412 28.9917 33.1395 28.9934C33.1155 28.9917 33.0898 28.9917 33.0659 28.9934C33.0642 28.9917 33.0642 28.9917 33.0625 28.9934C33.0607 28.9917 33.0607 28.9917 33.059 28.9934C33.0573 28.9917 33.0573 28.9917 33.0556 28.9934C33.0025 28.9917 32.9512 28.9917 32.8981 28.9917H32.8964C32.554 28.9934 32.2116 28.9951 31.8692 28.9968C31.14 28.8924 30.4912 28.5928 29.8423 28.2487C28.4214 27.4955 26.8876 27.1668 25.2767 27.213C25.1055 27.2164 24.9343 27.2113 24.7631 27.2113C23.7 28.3857 22.5034 29.4077 21.1749 30.2722L21.1664 30.2962C21.1407 30.3184 21.1201 30.3578 21.091 30.3749C21.0859 30.4091 21.0825 30.4451 21.079 30.481C21.0773 30.517 21.0756 30.553 21.0756 30.5889C21.0653 30.5393 21.0448 30.4982 21.0037 30.4571C20.9986 30.4622 20.9917 30.4656 20.9866 30.4708C20.4696 30.8816 19.867 31.1453 19.273 31.4209C17.9069 32.0492 16.4534 32.3915 14.9932 32.7048C14.519 32.8075 14.0533 32.9359 13.5877 33.0678C12.843 33.2766 12.2884 33.696 12.035 34.4527C12.0076 34.5366 11.9648 34.6102 11.9117 34.677C11.8946 34.6992 11.8775 34.7198 11.8587 34.7403L11.8467 34.7386C11.8758 34.778 11.8843 34.8242 11.8724 34.8755C11.8689 34.8858 11.8655 34.8961 11.8604 34.9081H11.8501C12.0008 35.0587 11.9888 35.283 12.0042 35.4747C12.0915 36.531 12.6924 37.1746 13.6168 37.5941C15.4297 38.4158 17.3163 38.9636 19.3021 39.1587C19.7266 39.1998 20.1478 39.2546 20.5757 39.2461C20.7264 39.2426 20.8839 39.2392 20.9986 39.3454L21.0003 39.3471C21.0465 39.2991 21.0756 39.2461 21.0927 39.1861C21.103 39.2426 21.1253 39.2974 21.1681 39.3471C21.1681 39.3453 21.1681 39.3454 21.1698 39.3454C21.2537 39.2615 21.3718 39.2443 21.4865 39.2443C22.779 39.2529 24.0218 38.9328 25.275 38.6931C25.4016 38.6657 25.5266 38.6349 25.6516 38.6024C26.184 38.3045 26.7232 38.0152 27.2368 37.6882C28.4694 36.9059 29.6284 36.0277 30.5887 34.9132L30.5904 34.9115C30.611 34.8858 30.635 34.8653 30.6623 34.8481C30.6623 34.8036 30.6795 34.7694 30.7051 34.7386H30.7565C30.7856 34.7369 30.8147 34.7369 30.8455 34.7352C30.8729 34.7009 30.902 34.6667 30.9294 34.6324H30.9311C31.1879 34.3175 31.4447 33.999 31.71 33.6892C32.3126 32.9839 32.7731 32.1776 33.3073 31.4243C33.3124 31.4175 33.3175 31.4089 33.3227 31.4021C33.3244 31.3712 33.3244 31.3404 33.3261 31.3096ZM21.2519 36.5412C21.2246 36.5686 21.1955 36.5943 21.1681 36.62C21.1527 36.6183 21.1372 36.6183 21.1201 36.6166C21.103 36.6508 21.0944 36.6885 21.091 36.7295C21.091 36.7552 21.0893 36.7826 21.0893 36.8083C21.0893 36.7826 21.0859 36.7569 21.0842 36.7313C21.0688 36.6833 21.0448 36.6439 21.014 36.6114C21.0089 36.6114 21.0037 36.6097 20.9986 36.6097C20.9969 36.6114 20.9952 36.6131 20.9934 36.6148C19.9834 36.3392 19.778 35.6527 20.4833 34.9098C20.5107 34.9064 20.5398 34.9029 20.5672 34.9012C20.6511 34.8481 20.7332 34.7968 20.8171 34.7471C20.8171 34.7454 20.8137 34.742 20.812 34.7386H20.8291C20.8633 34.6907 20.913 34.6718 20.9695 34.6633H20.9969C21.0123 34.6633 21.0277 34.665 21.0431 34.6684C21.0585 34.6359 21.0688 34.5999 21.0739 34.5657C21.0927 34.6273 21.1236 34.6855 21.1681 34.7369H21.1698H21.2126C21.2074 34.7454 21.204 34.7523 21.2006 34.7574C21.2434 34.7848 21.2862 34.8105 21.329 34.8379C21.341 34.8362 21.3547 34.8362 21.3684 34.8362C21.4231 34.8447 21.4728 34.8687 21.5139 34.9098V34.9115C22.1439 35.5757 22.0463 36.18 21.2519 36.5412ZM25.5386 34.9064C25.3554 35.4661 25.1311 35.6647 24.6706 35.6784C24.2324 35.6904 23.9602 35.4661 23.7411 34.9115C23.7428 34.9098 23.7445 34.9081 23.7462 34.9064C23.7445 34.8944 23.7428 34.8824 23.7411 34.8704C23.7376 34.8276 23.7325 34.7848 23.7274 34.7403C23.7308 34.7386 23.7342 34.7369 23.7376 34.7334C23.7411 34.7317 23.7445 34.73 23.7479 34.7266H23.7496C23.8335 34.1463 24.1759 33.8535 24.7408 33.8792C25.2133 33.9015 25.4975 34.2079 25.5317 34.73C25.5352 34.73 25.5369 34.7317 25.5386 34.7352C25.5437 34.7369 25.5471 34.7386 25.5506 34.742C25.5454 34.7882 25.5403 34.8345 25.5369 34.8807C25.5352 34.8875 25.5352 34.8961 25.5334 34.9029C25.5352 34.9029 25.5369 34.9046 25.5386 34.9064ZM25.5283 32.0012C24.9993 31.9961 24.6758 31.6554 24.6758 31.1076C24.6758 30.5666 25.0404 30.2003 25.578 30.2003C26.0607 30.202 26.4716 30.6094 26.4767 31.0922C26.4818 31.6349 26.0932 32.0064 25.5283 32.0012ZM29.2175 33.8724C28.7673 33.8741 28.2776 33.3793 28.2845 32.9308C28.2896 32.4754 28.7844 31.9927 29.2329 32.0064C29.6523 32.0184 30.1385 32.508 30.1471 32.9274C30.1573 33.3742 29.6694 33.8706 29.2175 33.8724Z" fill="#F19C79"/>
<path d="M36.897 28.1032C36.1472 28.3634 35.4042 28.6493 34.6082 28.7486C34.5773 28.7726 34.5465 28.7966 34.5174 28.8188C34.2487 29.5703 33.9234 30.2945 33.4988 30.9707C33.4971 31.0238 33.4937 31.0803 33.492 31.135C33.492 31.1367 33.492 31.1367 33.492 31.1385C33.4372 31.195 33.3824 31.2514 33.3276 31.3079C33.3259 31.3388 33.3259 31.3696 33.3242 31.4004V31.4363C33.3242 32.3471 33.3259 33.2578 33.3259 34.1686V34.2165C33.3807 34.1874 33.4372 34.1583 33.492 34.1292C33.492 34.1275 33.492 34.1275 33.492 34.1258C33.4971 34.0761 33.5005 34.0247 33.5057 33.9751C33.8327 33.72 34.086 33.3965 34.3462 33.0781C35.5994 31.5408 36.6162 29.8682 37.2599 27.9834C37.2291 27.9937 37.1983 28.0039 37.1675 28.0125C37.0767 28.0433 36.986 28.0724 36.897 28.1032Z" fill="#DD8765"/>
<path d="M21.1747 30.2721V30.1951C21.1422 30.2327 21.1165 30.2755 21.1011 30.3252C21.1233 30.3149 21.1439 30.3063 21.1661 30.2961L21.1747 30.2721Z" fill="#D97F91"/>
<path d="M33.3291 38.3335C33.3582 38.2993 33.3787 38.2462 33.4198 38.2342C33.4215 38.2205 33.4233 38.2051 33.4267 38.1914C33.4301 38.1846 33.4352 38.1795 33.4387 38.1726C33.4575 38.1435 33.4763 38.1144 33.4969 38.0853C33.5226 38.0459 33.5482 38.0065 33.5756 37.9672C34.0481 37.2619 34.5857 36.6028 35.0393 35.8821C35.2345 35.5722 35.3783 35.2264 35.6282 34.9542C35.6419 34.9388 35.6556 34.9251 35.6693 34.9097C35.683 34.896 35.6967 34.8823 35.7121 34.8686C35.6984 34.8036 35.7395 34.7676 35.8011 34.7436C35.7977 34.7419 35.796 34.7385 35.7943 34.7351C35.7926 34.7334 35.7908 34.7317 35.7891 34.7299C35.7891 34.7282 35.7891 34.7248 35.7908 34.7231C35.8627 34.2985 36.099 33.9373 36.2719 33.5539C37.4018 31.0596 38.078 28.4695 38.1944 25.7167C38.2337 24.7871 38.143 23.8713 38.155 22.9503C38.1567 22.8219 38.1139 22.6849 38.2029 22.5805C38.1344 22.5411 38.066 22.5171 37.9958 22.5052C38.0643 22.4863 38.131 22.4589 38.1961 22.4161C38.1978 22.4161 38.1978 22.4161 38.1995 22.4127C38.0215 22.2381 38.0489 21.9762 38.018 21.7502C37.8605 20.6614 37.6414 19.5846 37.2614 18.5523C36.6126 16.7908 35.4159 15.5 33.7605 14.6269C33.6715 14.5807 33.5739 14.5516 33.4969 14.4865C33.49 14.4814 33.4832 14.4763 33.478 14.4694C33.4626 14.4557 33.4506 14.4403 33.4387 14.4232C33.4335 14.4163 33.4301 14.4078 33.4284 14.3992C33.3942 14.4061 33.3616 14.4009 33.3291 14.3821C33.3257 14.3804 33.3223 14.3787 33.3188 14.377C33.3068 14.3701 33.2966 14.3616 33.2863 14.3513C33.2777 14.3393 33.2692 14.3256 33.2641 14.3119C33.1459 14.3667 33.0261 14.3171 32.9114 14.2794C31.0112 13.6511 29.1366 13.7675 27.3186 14.5602C25.3773 15.4075 22.9532 14.038 22.7495 11.8502C22.7032 11.3589 22.5851 10.8675 22.7495 10.3848C22.7614 10.342 22.7786 10.3009 22.7974 10.2581V10.0835C22.7614 10.0441 22.7341 10.0013 22.7152 9.95681H22.7135C22.6776 9.87464 22.6656 9.78219 22.6656 9.68975C22.6604 8.2894 22.6467 6.88905 22.6724 5.48871C22.6741 5.43221 22.6895 5.37743 22.7067 5.32436C22.7341 5.25931 22.7649 5.22336 22.7957 5.20624C22.5149 4.9563 22.289 4.67384 22.2787 4.27496C22.2787 4.27838 22.277 4.2801 22.277 4.28352C22.0561 4.29721 21.926 4.1226 21.7548 4.03187C21.4039 3.84869 21.2995 3.90005 21.2892 4.29208C21.2789 4.67212 21.2892 5.05388 21.2841 5.43393C21.2824 5.588 21.2926 5.7455 21.1985 5.88416C21.1899 5.89101 21.1796 5.89786 21.1711 5.90299C21.1677 5.9047 21.1659 5.90642 21.1625 5.90642C21.1129 5.93381 21.0632 5.93038 21.0119 5.88587C21.0016 7.28622 20.9913 8.68485 20.9811 10.0852V10.2564L20.9006 14.1459C21.0119 14.2743 20.8783 14.5721 21.1505 14.5893V14.6423C21.1779 14.7793 21.207 14.9179 21.2344 15.0549C21.3303 15.7157 21.7343 16.183 22.2085 16.6042C22.9361 17.2513 23.828 17.455 24.7644 17.5577C25.5433 17.6416 25.9644 18.3555 25.6905 19.095C25.6118 19.3073 25.5074 19.511 25.4029 19.7147C25.0023 20.5056 24.499 21.2315 23.9769 21.9454C23.8913 22.0618 23.7424 22.1816 23.792 22.3391V22.3408C23.8057 22.3785 23.8297 22.4178 23.8691 22.4606C23.8947 22.476 23.9221 22.488 23.9495 22.4966C23.8382 22.4949 23.727 22.4949 23.6277 22.5651C23.5797 22.601 23.5301 22.6353 23.4822 22.6712C23.3897 22.6815 23.3315 22.7414 23.2767 22.8064C22.7614 23.4296 22.1503 23.9586 21.5939 24.5389C21.4501 24.6896 21.2361 24.7786 21.1796 25.0045C21.1813 25.0268 21.1779 25.0456 21.1711 25.0662C21.1129 25.0919 21.0547 25.1158 20.9947 25.1415C20.9896 25.1638 20.9879 25.1877 20.9913 25.2117C19.9197 26.0454 18.8206 26.8414 17.6599 27.5502C17.701 27.759 17.5435 27.8634 17.422 27.9696C16.251 28.9933 14.9928 29.8869 13.6232 30.6333C12.3667 31.3164 11.0502 31.8402 9.67385 32.2134C9.40508 32.287 9.14145 32.4257 8.84528 32.3401V32.3418C8.84357 32.3418 8.84357 32.3401 8.84357 32.3401C8.82817 32.3538 8.81105 32.3624 8.79393 32.3658C8.75969 32.3761 8.72374 32.3709 8.68436 32.3452L8.67409 32.347L1.86409 32.5918H1.86238C1.37106 33.1738 0.958488 33.8586 0.619529 34.6409C0.633224 34.7351 0.670886 34.7847 0.71882 34.8087C0.650343 34.8241 0.583579 34.8515 0.52195 34.8994C0.186414 35.5431 0.047749 36.245 0.0357656 36.9503C0.00323923 38.8403 0.0272061 40.7319 0.0117988 42.6219C0.00837498 42.9163 0.114514 42.9728 0.379861 42.9694C1.25979 42.954 2.14142 42.9608 3.02306 42.9591C3.10694 42.8461 3.19083 42.7331 3.27471 42.6202C3.34832 42.8256 3.12749 42.8564 3.02306 42.9591C4.01083 42.978 5.00032 43.0019 5.98981 43.0139C6.24488 43.0173 6.50852 42.9934 6.35958 42.6116C6.36472 42.1271 6.36129 41.6444 6.37328 41.1599C6.39724 40.3365 6.85433 39.6705 7.57675 39.412C7.92941 39.2854 8.30261 39.2819 8.67238 39.2734C8.71347 39.2254 8.73572 39.1741 8.74599 39.121C8.77167 39.21 8.82303 39.2888 8.92917 39.347C9.31093 39.4702 9.66872 39.6363 10.0094 39.8503C11.5398 40.8038 13.173 41.5399 14.8969 42.0655C16.8844 42.6698 18.9131 43.0053 20.9965 42.9454C21.041 42.8975 21.0786 42.8427 21.094 42.7811C21.1009 42.841 21.13 42.8958 21.1711 42.9437C21.6555 42.9728 22.1366 42.9266 22.6194 42.8889C25.9696 42.6185 29.075 41.5999 31.9561 39.8777C32.4115 39.3915 32.8669 38.9053 33.324 38.4174C33.3257 38.39 33.3274 38.3609 33.3291 38.3335ZM3.36373 42.6099C3.33634 42.6116 3.30724 42.6116 3.27985 42.6133C3.27813 42.615 3.27642 42.6167 3.27471 42.6185C3.27471 42.6167 3.27471 42.615 3.273 42.6133H3.27985C3.30552 42.5808 3.33634 42.5568 3.374 42.5414C3.3877 42.5397 3.4031 42.538 3.4168 42.5363C3.44761 42.5329 3.47672 42.5294 3.50753 42.5243C3.45789 42.55 3.40995 42.5791 3.36373 42.6099ZM4.2214 34.8224V34.7864V34.7385C4.2351 34.7556 4.24537 34.771 4.25221 34.7864C4.25735 34.7984 4.25906 34.8104 4.25906 34.8224C4.25906 34.8498 4.24708 34.8772 4.2214 34.9063V34.8224ZM4.30871 42.1015C4.29159 42.1066 4.27618 42.11 4.25906 42.1151C4.26762 42.1066 4.27447 42.0963 4.28132 42.086C4.32069 42.0672 4.35835 42.0706 4.39259 42.0963C4.3652 42.098 4.33781 42.0997 4.30871 42.1015ZM7.98761 34.7864V34.8224V34.9063C7.96365 34.8772 7.94995 34.8498 7.94995 34.8224C7.94995 34.8104 7.95338 34.7984 7.95851 34.7864C7.96365 34.771 7.97392 34.7556 7.98761 34.7402V34.7864ZM8.72203 35.4815C8.70662 35.49 8.6895 35.4969 8.67409 35.5054C8.69121 35.4883 8.70662 35.4644 8.72203 35.4438V35.4815ZM32.8121 34.7334C32.7847 34.7351 32.7573 34.7385 32.7299 34.7402C32.7179 34.7625 32.706 34.783 32.694 34.8053C32.6752 34.8378 32.6563 34.872 32.6375 34.9063C32.6101 34.908 32.5827 34.9097 32.557 34.9131C31.761 35.7605 30.7801 36.3665 29.7974 36.9606C28.5289 37.7275 27.1696 38.3027 25.7402 38.7016C25.6186 38.7341 25.4902 38.7427 25.3636 38.7632C23.9906 39.1364 22.5988 39.3829 21.1694 39.3709C21.1659 39.3658 21.1625 39.3624 21.1574 39.3573C21.1557 39.3538 21.154 39.3521 21.1505 39.3487H21.0153C21.0136 39.3521 21.0119 39.3538 21.0084 39.3573C21.0067 39.3538 21.005 39.3504 21.0016 39.3487C20.9999 39.3487 20.9999 39.3487 20.9982 39.3487V39.3709C18.7299 39.3555 16.5438 38.931 14.4432 38.0716C14.1813 37.9655 13.9245 37.8422 13.6592 37.7412C12.353 37.2447 11.8274 36.2501 11.8343 34.9097L11.8428 34.9011C11.848 34.8977 11.8531 34.8926 11.8583 34.8891C11.8514 34.8395 11.8463 34.7881 11.8394 34.7385C11.8411 34.7368 11.8411 34.7368 11.8428 34.7351C11.8497 34.7299 11.8565 34.7231 11.8634 34.718C12.0277 33.7182 12.68 33.1841 13.613 32.9444C14.599 32.691 15.5954 32.4771 16.5831 32.2254C17.8654 31.9001 19.1031 31.4516 20.2586 30.7925C20.4914 30.659 20.7431 30.558 20.9862 30.4416C20.9896 30.4159 20.9947 30.3919 21.0016 30.368C21.0341 30.3543 21.0649 30.3406 21.0975 30.3269V30.3252C21.0992 30.3252 21.0992 30.3252 21.1009 30.3252C21.1163 30.2755 21.142 30.2327 21.1745 30.1951C21.195 30.1694 21.219 30.1471 21.2464 30.1266V30.1249C21.2532 30.1198 21.2618 30.1146 21.2704 30.1078C22.4567 29.2552 23.602 28.3565 24.5761 27.2574C24.6428 27.1821 24.7302 27.1325 24.8312 27.1119C24.838 27.1119 24.8431 27.1102 24.85 27.1102C25.9542 25.8468 26.8615 24.4533 27.6045 22.9503C27.536 22.8766 27.5908 22.7808 27.6575 22.6815C27.6729 22.6592 27.6901 22.6387 27.7089 22.6199C27.7192 22.6096 27.7294 22.601 27.7397 22.5925C27.7226 22.5582 27.7037 22.5377 27.6781 22.5206C27.7311 22.5223 27.7842 22.5206 27.839 22.5188C27.8989 22.4829 27.9622 22.4504 28.0222 22.4144C28.6813 22.0275 29.4157 21.9933 30.1518 21.9676C30.1621 21.9573 30.174 21.9488 30.186 21.9436C30.1826 21.9505 30.1809 21.9591 30.1792 21.9676H33.5893H34.9554C35.7241 21.9762 36.4996 21.9454 37.1775 22.4093C37.2237 22.4452 37.2716 22.4812 37.3179 22.5154C37.3795 22.5171 37.4411 22.5223 37.5045 22.5274C37.4959 22.5274 37.4856 22.5291 37.4771 22.5308C37.4634 22.5497 37.4514 22.5685 37.4428 22.5856C37.4377 22.5942 37.4343 22.6027 37.4309 22.6113C38.1225 23.3782 38.3142 24.2513 38.0608 25.2665C37.8297 26.1858 37.6876 27.1256 37.2579 27.985C36.6143 29.8698 35.5974 31.5424 34.3443 33.0797C34.0841 33.3981 33.8307 33.7216 33.5037 33.9767C33.4986 34.0263 33.4952 34.0777 33.49 34.1273C33.49 34.1291 33.49 34.1291 33.49 34.1308C33.4352 34.1599 33.3787 34.189 33.324 34.2181C33.3205 34.2455 33.3171 34.2729 33.3171 34.302C33.4164 34.759 33.1322 34.7659 32.8121 34.7334Z" fill="#D9596B"/>
<path d="M27.7674 22.6729C27.7486 22.6507 27.7297 22.6336 27.7092 22.6199C27.6904 22.6387 27.6732 22.6592 27.6578 22.6815C27.5911 22.7808 27.5363 22.8767 27.6048 22.9503C27.6082 22.9417 27.6133 22.9349 27.6168 22.9263C27.6664 22.8424 27.7178 22.7568 27.7674 22.6729Z" fill="#D9596B"/>
<path d="M24.763 27.2114C24.7921 27.1771 24.8212 27.1446 24.8503 27.1104C24.8434 27.1104 24.8383 27.1121 24.8315 27.1121C24.7305 27.1326 24.6431 27.1823 24.5764 27.2576C23.6023 28.3566 22.457 29.2554 21.2707 30.1079C21.2621 30.1148 21.2536 30.1199 21.2467 30.125V30.1267C21.2193 30.1473 21.1953 30.1695 21.1748 30.1952V30.2723C22.5033 29.4077 23.6999 28.3857 24.763 27.2114Z" fill="#D9596B"/>
<path d="M23.8693 22.4607C23.8299 22.4179 23.806 22.3785 23.7923 22.3408C23.7546 22.3665 23.7169 22.3956 23.681 22.423C23.6639 22.4692 23.645 22.5171 23.6279 22.5651C23.7272 22.4949 23.8385 22.4949 23.9498 22.4966C23.9224 22.488 23.895 22.4761 23.8693 22.4607Z" fill="#D98092"/>
<path d="M27.9196 22.5173L28.0223 22.4146C27.9624 22.4505 27.8991 22.483 27.8391 22.519C27.7844 22.5207 27.7313 22.5224 27.6782 22.5207C27.7039 22.5378 27.7227 22.5584 27.7399 22.5926C27.7296 22.6011 27.7193 22.6097 27.709 22.62C27.7296 22.6337 27.7484 22.6508 27.7672 22.6731C27.8186 22.6217 27.87 22.5703 27.9196 22.5173Z" fill="#D98092"/>
<path d="M25.2763 27.2129C26.8872 27.1667 28.4211 27.4954 29.8419 28.2486C30.4908 28.5927 31.1396 28.8923 31.8689 28.9967C32.2112 28.995 32.5536 28.9933 32.896 28.9916C32.9114 28.9522 32.9302 28.8803 32.9422 28.8803C33.3993 28.9111 33.3257 28.5927 33.3257 28.3137C33.3223 26.6976 33.324 25.0799 33.324 23.4638C33.324 23.2806 33.3445 23.094 33.2401 22.928C33.2401 22.928 33.2401 22.928 33.2384 22.9263H27.6165C27.613 22.9348 27.6079 22.9417 27.6045 22.9502C26.8615 24.4533 25.9542 25.8468 24.85 27.1102C24.8209 27.1444 24.7918 27.177 24.7627 27.2112C24.9339 27.2112 25.1051 27.2163 25.2763 27.2129Z" fill="#EDEBF1"/>
<path d="M33.0589 28.9933C33.0606 28.9916 33.0606 28.9916 33.0623 28.9933C33.064 28.9916 33.064 28.9916 33.0657 28.9933C33.0897 28.9916 33.1154 28.9916 33.1393 28.9933C33.141 28.9916 33.141 28.9916 33.1428 28.9933C33.1445 28.9916 33.1445 28.9916 33.1462 28.9933C33.1479 28.9916 33.1479 28.9916 33.1496 28.9933C33.2643 28.9933 33.3773 28.9933 33.492 28.995C33.492 28.995 33.492 28.995 33.492 28.9967V28.995C33.8258 28.894 34.1699 28.8529 34.5157 28.8204C34.5465 28.7964 34.5773 28.7725 34.6064 28.7502C34.8461 27.9798 35.0892 27.2112 35.2553 26.4203C35.3837 25.8074 35.4795 25.186 35.2963 24.5731C34.9933 23.5614 34.2435 23.0769 33.2386 22.9263V22.928C33.3431 23.094 33.3225 23.2806 33.3225 23.4638C33.3225 25.0799 33.3208 26.6976 33.3242 28.3137C33.3242 28.5927 33.3995 28.9111 32.9408 28.8803C32.9271 28.8786 32.9099 28.9522 32.8945 28.9916H32.8962C32.9493 28.9916 33.0007 28.9916 33.0537 28.9933C33.0572 28.9916 33.0572 28.9916 33.0589 28.9933Z" fill="#EDEBF1"/>
<path d="M11.9115 34.6769C11.9645 34.6102 12.0073 34.5366 12.0347 34.4527C12.2881 33.696 12.8428 33.2766 13.5874 33.0677C14.0531 32.9359 14.5187 32.8075 14.9929 32.7048C16.4532 32.3915 17.9066 32.0491 19.2727 31.4209C19.8667 31.1452 20.4693 30.8816 20.9863 30.4708V30.4417C20.7432 30.5581 20.4916 30.6591 20.2588 30.7926C19.1032 31.4517 17.8655 31.9002 16.5833 32.2255C15.5955 32.4771 14.5992 32.6911 13.6131 32.9445C12.6801 33.1841 12.0279 33.7183 11.8635 34.718C11.8601 34.7249 11.8601 34.7334 11.8584 34.7403C11.8772 34.7197 11.8943 34.6992 11.9115 34.6769Z" fill="#F19C79"/>
<path d="M20.9969 34.6633H20.9695C20.913 34.6719 20.8633 34.6907 20.8291 34.7387C20.8856 34.7369 20.9404 34.7369 20.9969 34.7369V34.6633Z" fill="#F19C79"/>
<path d="M21.0034 30.4571C21.0445 30.4981 21.0651 30.5392 21.0753 30.5889C21.0753 30.5529 21.0771 30.517 21.0788 30.481C21.0822 30.4451 21.0856 30.4091 21.0908 30.3749C21.1199 30.3578 21.1404 30.3184 21.1661 30.2961C21.1438 30.3064 21.1233 30.315 21.101 30.3252C21.0993 30.3252 21.0993 30.3252 21.0976 30.3252V30.327C21.0651 30.3407 21.0343 30.3543 21.0017 30.368C20.9949 30.392 20.9898 30.416 20.9863 30.4417V30.4708C20.9915 30.4656 20.9983 30.4622 21.0034 30.4571Z" fill="#EAAB96"/>
<path d="M21.1695 34.7386V34.7369H21.1678C21.1233 34.6855 21.0924 34.6273 21.0736 34.5657C21.0685 34.5999 21.0582 34.6359 21.0428 34.6684C21.0274 34.665 21.012 34.6633 20.9966 34.6633V34.7369C21.0548 34.7369 21.113 34.7386 21.1695 34.7386Z" fill="#EAAB96"/>
<path d="M25.5502 34.742L25.5365 34.7369L25.5314 34.7352V34.7301C25.4972 34.2079 25.213 33.9015 24.7405 33.8792C24.1756 33.8536 23.8332 34.1463 23.7493 34.7266H23.7476V34.7318L23.739 34.7352L23.7271 34.7403C23.7322 34.7848 23.7373 34.8276 23.7407 34.8704C23.7425 34.8824 23.7442 34.8944 23.7459 34.9064V34.9132H23.7938C24.3639 34.9115 24.9357 34.9098 25.5057 34.9081H25.5331V34.903C25.5348 34.8961 25.5348 34.8876 25.5365 34.8807C25.54 34.8345 25.5451 34.7883 25.5502 34.742Z" fill="#CB7452"/>
<path d="M25.578 30.2002C25.0404 30.2002 24.6758 30.5665 24.6758 31.1075C24.6758 31.6553 24.9993 31.996 25.5283 32.0011C26.0932 32.0063 26.4819 31.6348 26.4767 31.0921C26.4716 30.6093 26.0607 30.2019 25.578 30.2002Z" fill="#CB7452"/>
<path d="M29.2327 32.0064C28.7841 31.9927 28.2894 32.4755 28.2843 32.9308C28.2774 33.3793 28.767 33.8741 29.2172 33.8724C29.6692 33.8707 30.1571 33.3742 30.1468 32.9274C30.1383 32.508 29.6521 32.0184 29.2327 32.0064Z" fill="#CB7452"/>
<path d="M33.4917 28.9952C33.4934 29.6543 33.4951 30.3133 33.4968 30.9707V30.9724C33.9231 30.2962 34.2467 29.5704 34.5154 28.8206C34.1713 28.8531 33.8255 28.8942 33.4917 28.9952Z" fill="#F09C79"/>
<path d="M8.68453 32.3453L8.79409 32.3418L8.84374 32.3401H8.84545C10.0438 31.9943 11.2438 31.6639 12.3823 31.1349C13.8032 30.4758 15.1367 29.6747 16.3659 28.7074C16.8196 28.3496 17.2972 28.0107 17.6601 27.5502C17.5043 27.5331 17.3965 27.6392 17.2749 27.706C14.8389 29.0293 12.247 29.8065 9.50967 30.0787V30.077L8.84887 30.0992L8.67255 30.1044C8.67255 30.1044 8.09221 30.1454 7.29617 30.2122C6.90585 30.243 6.46418 30.2824 6.01223 30.3235C5.80509 30.344 5.59623 30.3646 5.38909 30.3851C4.79163 30.445 4.14111 30.7771 3.56248 31.1657C2.7185 31.7324 2.03031 32.4206 1.88822 32.5644C1.87967 32.5747 1.87282 32.5815 1.86768 32.5866C1.86597 32.5866 1.86597 32.5883 1.86426 32.5918L8.67426 32.347L8.68453 32.3453Z" fill="#F06977"/>
</g>
<defs>
<clipPath id="clip0_27_6155">
<rect width="41.9762" height="42.0275" fill="white" transform="translate(0.0117188 0.986328)"/>
</clipPath>
</defs>
</svg>
