<svg width="32" height="40" viewBox="0 0 32 40" fill="none" xmlns="http://www.w3.org/2000/svg">
<g clip-path="url(#clip0_27_6049)">
<path d="M5.58083 8.68781C5.37669 8.37856 5.15999 7.97733 4.95898 7.46826C5.07519 7.92341 5.27462 8.33415 5.58083 8.68781Z" fill="#D9596B"/>
<path d="M4.44397 5.62726C4.40472 5.41951 4.37174 5.20224 4.34033 4.97388C4.36546 5.19431 4.4 5.41158 4.44397 5.62726Z" fill="#D9596B"/>
<path d="M19.164 37.7507C18.7651 37.2733 18.5123 36.7452 18.5139 36.1077C18.5154 35.4004 18.5578 34.6899 18.2846 34.0096C17.9281 33.1263 17.2984 32.5141 16.4662 32.0986C16.4442 32.0875 16.4206 32.0796 16.3955 32.0748C16.3955 32.0748 16.3013 32.0368 16.16 31.9908C16.1458 31.986 16.1333 31.9812 16.1191 31.9781C16.1003 31.9717 16.0799 31.9654 16.0595 31.9606C16.0281 31.9511 15.9951 31.9416 15.9621 31.9321C15.8946 31.9131 15.8223 31.8972 15.7485 31.8813C15.6261 31.856 15.5004 31.8401 15.3827 31.8385C15.3811 31.8353 15.3779 31.8353 15.3764 31.8322V31.8306H15.3748C15.3701 31.8258 15.3654 31.8242 15.3622 31.8195C13.0036 31.8195 10.6434 31.8179 8.28165 31.8179H7.28764C7.15573 31.8163 7.02539 31.8163 6.89349 31.8147C6.68463 31.7909 6.48049 31.7545 6.28106 31.7053C5.91046 31.6149 5.55557 31.4801 5.21795 31.2819C5.11588 31.2216 5.01695 31.1613 4.94158 31.0757C4.9086 31.0392 4.88033 30.9964 4.85678 30.9473L4.8505 30.9425C4.83165 30.933 4.81124 30.9235 4.79239 30.9124C4.76099 30.8965 4.73115 30.8806 4.69975 30.8648C4.6966 30.8394 4.69503 30.814 4.69189 30.7887C3.43721 29.8911 2.71015 28.643 2.61593 27.1237C2.5484 26.0278 2.93784 25.0113 3.84078 24.2739C4.10773 24.0566 4.38411 23.8695 4.69346 23.7267C4.6966 23.7014 4.69817 23.676 4.70132 23.6506C4.72644 23.6506 4.75157 23.6506 4.77826 23.649C4.80339 23.649 4.82851 23.6474 4.85364 23.6474L4.85678 23.6459H4.85835L4.85992 23.6443C5.29019 23.492 5.72674 23.4016 6.19155 23.4048C9.45939 23.4159 12.7272 23.4111 15.9935 23.4096H16.0092H16.0171H16.1537H16.1584C16.1584 23.4127 16.16 23.4159 16.16 23.4191C16.1631 23.4159 16.1662 23.4127 16.1694 23.4096C19.6162 23.4096 23.0647 23.4096 26.5115 23.4127C26.7596 23.4143 26.9968 23.3874 27.2229 23.2922C27.2512 23.2795 27.2794 23.2668 27.3077 23.2526C27.3093 23.2272 27.3124 23.2018 27.3155 23.1764C27.3375 23.1764 27.3579 23.1748 27.3799 23.1748C27.4082 23.1748 27.4365 23.1748 27.4632 23.1733C27.4647 23.1479 27.4663 23.1209 27.4679 23.094V23.0147C27.4679 22.6991 27.4679 22.3819 27.4694 22.0663V21.9949C27.4663 21.968 27.4647 21.941 27.4632 21.9141C27.4365 21.9141 27.4082 21.9141 27.3815 21.9125C27.3595 21.9141 27.3375 21.9125 27.3155 21.9125C27.3124 21.8871 27.3093 21.8617 27.3077 21.8364C27.3045 21.83 27.2998 21.8253 27.2967 21.8205C27.2731 21.8078 27.2496 21.7967 27.2245 21.7872C27.0109 21.6968 26.7879 21.6635 26.5508 21.6635C23.0914 21.6683 19.6304 21.6683 16.1694 21.6683C16.1662 21.6651 16.1647 21.6635 16.1615 21.6603C16.16 21.6619 16.1568 21.6635 16.1553 21.6651C16.1553 21.6651 16.1553 21.6635 16.1537 21.6635V21.6683C16.1521 21.6683 16.1521 21.6683 16.1505 21.6683H16.0218H16.0092H15.9935C13.1371 21.6667 10.2807 21.6635 7.42426 21.6683C6.50562 21.6698 5.67177 21.405 4.90703 20.9086C4.88975 20.8991 4.87405 20.888 4.85678 20.8769L4.85207 20.8737C4.83008 20.8626 4.80653 20.8515 4.78454 20.8388C4.75628 20.8246 4.72801 20.8087 4.69975 20.7944C4.6966 20.7691 4.69346 20.7437 4.69032 20.7183C4.58197 20.7136 4.50502 20.6596 4.46106 20.5597C4.43436 20.5581 4.40924 20.5566 4.38254 20.5534C4.36841 20.5264 4.35584 20.4979 4.34014 20.4709C4.31345 20.4677 4.28675 20.4693 4.25848 20.4725C4.21609 20.4725 4.17212 20.4741 4.12972 20.4725C4.17212 20.4471 4.20195 20.4202 4.2208 20.3948C3.57696 19.7097 3.02421 18.9659 2.80908 18.0287C2.52328 16.7917 2.506 15.5785 3.27075 14.4763C3.62721 13.9625 4.12344 13.6405 4.69346 13.4201L4.70132 13.4217H4.73429C4.77355 13.4217 4.81281 13.4217 4.8505 13.4201C4.85207 13.3947 4.85364 13.3678 4.85521 13.3408C4.88347 13.3138 4.91331 13.29 4.94472 13.271C5.13787 13.141 5.3687 13.1378 5.59326 13.1378C8.91135 13.1315 12.2294 13.133 15.5475 13.1362C15.6779 13.1362 15.8082 13.1394 15.9338 13.1885C15.9574 13.1981 15.9778 13.2108 15.9966 13.2282C15.9998 13.2298 16.0014 13.2314 16.0045 13.2345C16.0139 13.2425 16.0233 13.252 16.0328 13.2631H16.1537L16.1647 13.2615C16.1788 13.2488 16.1929 13.2377 16.2086 13.2282C16.4002 13.095 16.6264 13.1362 16.8415 13.1362C19.4388 13.133 22.0361 13.1267 24.6319 13.1394C25.3652 13.1426 26.0907 13.0633 26.8193 13.0284C26.9701 13.022 27.1208 12.9824 27.2559 13.0649C27.259 13.0585 27.2637 13.0522 27.2669 13.0458C27.2794 13.0315 27.2936 13.0189 27.3077 13.0125C27.0988 12.5938 27.1789 12.1609 27.2606 11.728C27.2716 11.7169 27.2826 11.7057 27.2936 11.6946C27.2888 11.6899 27.2841 11.6851 27.281 11.6788C26.9261 11.7391 26.5759 11.636 26.2195 11.6376C23.1024 11.6487 19.9853 11.6439 16.8682 11.6423C16.6483 11.6423 16.4238 11.6724 16.2134 11.5709C16.1992 11.5583 16.1851 11.544 16.171 11.5313V11.5297C16.1694 11.5281 16.1678 11.5281 16.1662 11.5265C16.1647 11.5234 16.1615 11.5218 16.16 11.5202C16.1254 11.544 16.083 11.5535 16.0328 11.5456C16.0233 11.5408 16.0155 11.5345 16.0076 11.5297V11.5281C16.0061 11.5281 16.0045 11.5281 16.0045 11.5265C16.0014 11.525 15.9998 11.5234 15.9982 11.5202H15.9966C14.6839 11.5646 13.3883 11.4885 12.1556 10.9699C11.1648 10.5528 10.2241 10.0548 9.49237 9.23812C9.45468 9.23495 9.417 9.22543 9.38088 9.21116C9.35104 9.19689 9.32435 9.17944 9.30393 9.16041C9.29451 9.15248 9.28666 9.14455 9.28038 9.13504C9.2631 9.11601 9.25211 9.0938 9.2474 9.06684C9.23484 9.06367 9.22228 9.05891 9.20971 9.05574C9.18616 9.03988 9.1626 9.02244 9.14062 9.00341C9.12806 8.99706 9.11706 8.98755 9.1045 8.97645C8.49208 8.50861 8.10421 7.85364 7.73832 7.18916C7.0144 5.86971 6.66579 4.4551 6.70662 2.94217C6.72232 2.35063 6.70662 2.36174 6.12717 2.34429C5.7126 2.3316 5.29333 2.42359 4.88504 2.27927C4.87562 2.2761 4.86463 2.27134 4.85521 2.26817C4.85207 2.26658 4.8505 2.26658 4.84736 2.265C4.84264 2.26024 4.83793 2.25548 4.83479 2.25072C4.80496 2.27134 4.77512 2.27768 4.74371 2.26817C4.72801 2.26341 4.71231 2.2539 4.6966 2.23962V2.23804C4.5804 2.23962 4.46263 2.24121 4.34642 2.24279L6.40983 9.60763C7.79642 11.1412 9.53634 12.0451 11.6139 12.3671C11.4741 12.3893 11.3375 12.3861 11.2025 12.3893C9.09508 12.4337 6.98928 12.2656 4.88347 12.4035C4.87405 12.394 4.8662 12.3829 4.85678 12.3734C4.80182 12.375 4.74843 12.375 4.69503 12.375C4.58511 12.4004 4.46106 12.3686 4.36841 12.4606C3.88004 12.4844 3.41365 12.6081 2.98024 12.827C1.28272 13.6818 0.340528 15.0742 0.137956 16.974C0.00447841 18.2206 0.251019 19.3782 0.976508 20.4138C1.05502 20.4566 1.13668 20.4931 1.22462 20.5026C1.1885 20.528 1.16181 20.5724 1.15081 20.6501C1.59522 21.2956 2.20293 21.7317 2.9033 22.0584C3.37753 22.2804 3.89417 22.3597 4.3794 22.5421C4.42965 22.5532 4.47519 22.5579 4.51602 22.5579C4.47362 22.5659 4.42494 22.5833 4.37155 22.6119C3.25348 22.7102 2.32856 23.2383 1.56224 24.0201C0.359372 25.2476 -0.116436 26.7542 0.155229 28.4606C0.382926 29.8926 1.12255 31.0186 2.32542 31.8242C2.43691 31.8956 2.5484 31.9686 2.6599 32.0399C3.17025 32.3381 3.70887 32.5522 4.30088 32.6108C4.47362 32.7345 4.66677 32.6838 4.85521 32.6743C7.15573 32.679 9.45625 32.6822 11.7568 32.6901C12.187 32.6901 12.6142 32.6981 13.046 32.7488C14.4938 32.9169 15.681 34.0429 15.9354 35.5368C15.9982 35.5178 16.0375 35.4892 16.0595 35.4543C16.0736 36.6675 16.0909 37.8807 16.0767 39.0939C16.0736 39.3905 16.1772 39.4761 16.4646 39.4729C17.8905 39.4603 19.3163 39.4666 20.7422 39.4666C20.8317 39.4666 20.9259 39.4888 21.006 39.4238C21.0091 39.1637 21.0123 38.9068 21.0138 38.6467C21.0107 38.6419 21.006 38.6388 21.0028 38.634C20.2978 38.5373 19.6492 38.3279 19.164 37.7507Z" fill="#D9596B"/>
<path d="M16.3957 32.0749C16.4208 32.0796 16.4444 32.0875 16.4664 32.0986C17.2986 32.5141 17.9283 33.1263 18.2848 34.0096C18.558 34.69 18.5156 35.4005 18.5141 36.1078C18.5125 36.7453 18.7653 37.2734 19.1642 37.7507C19.6478 38.328 20.298 38.5373 21.003 38.6341C20.9025 38.5024 20.7518 38.4834 20.6026 38.4549C19.4453 38.236 18.6271 37.2432 18.6193 36.0522C18.6193 36.0491 18.6193 36.0443 18.6193 36.0411C18.6177 35.8271 18.624 35.613 18.6224 35.3989C18.6224 35.3275 18.6193 35.2546 18.6161 35.1832C18.5408 33.7527 17.8467 32.7251 16.5998 32.0701C16.5308 32.0336 16.4569 32.0003 16.3863 31.9876H16.3847C16.3455 31.9797 16.3078 31.9797 16.2716 31.9876H16.1602C16.1602 31.9892 16.1602 31.9892 16.1602 31.9908C16.3015 32.0368 16.3957 32.0749 16.3957 32.0749Z" fill="#F06977"/>
<path d="M27.4634 18.3348H27.4681L27.4634 18.3301V18.3348Z" fill="#F06977"/>
<path d="M16.16 31.9908C16.16 31.9893 16.16 31.9893 16.16 31.9877C16.1584 31.9861 16.1584 31.9861 16.1568 31.9845C16.1521 31.9813 16.1474 31.9797 16.1427 31.9766C16.1348 31.9766 16.127 31.9766 16.1191 31.9766C16.1333 31.9813 16.1474 31.9861 16.16 31.9908Z" fill="#D97486"/>
<path d="M20.7423 39.4666C19.3165 39.4666 17.8906 39.4603 16.4647 39.473C16.1774 39.4761 16.0737 39.3905 16.0769 39.0939C16.091 37.8807 16.0737 36.6675 16.0596 35.4543C16.0376 35.4892 15.9984 35.5178 15.9355 35.5368C15.9575 35.8635 15.9936 36.1902 15.9968 36.5169C16.0062 37.3733 16.0109 38.2312 15.9936 39.0876C15.9874 39.381 16.047 39.5031 16.3737 39.4999C17.8215 39.4825 19.2709 39.492 20.7203 39.4888C20.8161 39.4888 20.9323 39.5364 21.0061 39.4238C20.926 39.4888 20.8318 39.4666 20.7423 39.4666Z" fill="#D97486"/>
<path d="M27.5055 26.8019C27.4914 26.794 27.4788 26.786 27.4678 26.7749C27.4615 26.7717 27.4568 26.767 27.4521 26.7622C27.4443 26.7559 27.438 26.748 27.4333 26.74C27.3972 26.74 27.3595 26.7416 27.3234 26.7416C27.3171 26.7448 27.3124 26.7464 27.3061 26.7495V26.7511H27.3045C27.2998 26.748 27.2951 26.7448 27.2919 26.7416H16.1631L16.1552 26.74H16.1505C16.116 26.7067 16.0814 26.6988 16.0469 26.7147C16.0453 26.7147 16.0453 26.7147 16.0453 26.7147C16.0327 26.721 16.0202 26.7289 16.0092 26.74L15.9966 26.7416V26.7749C15.984 26.7876 15.9683 26.7987 15.9511 26.8066C15.7375 26.8923 15.513 26.8669 15.2915 26.8685C12.6911 26.8701 10.0906 26.8685 7.49017 26.8701C6.88874 26.8701 6.28887 26.859 5.68901 26.9319C5.43148 26.9636 5.15353 27.0112 4.90856 26.859C4.89286 26.8828 4.87558 26.9018 4.8536 26.9161C4.85203 26.9161 4.84889 26.9177 4.84732 26.9192C4.82219 26.9319 4.79079 26.9383 4.75467 26.9335C4.74054 26.924 4.7264 26.9161 4.71227 26.9097H4.69971L4.69814 26.9113C4.65417 26.9541 4.59607 26.9811 4.53168 27.0001C4.282 27.0731 4.0543 27.1793 4.05273 27.4886C4.05273 27.7962 4.18307 28.0484 4.43589 28.226C4.51598 28.2831 4.61805 28.3085 4.69343 28.3751C4.69657 28.3767 4.69971 28.3782 4.70128 28.3814C4.72169 28.3989 4.73897 28.4211 4.75467 28.4464C4.75624 28.4512 4.75938 28.456 4.75938 28.4607C4.79236 28.456 4.82219 28.4639 4.85046 28.4845C4.85203 28.4829 4.85517 28.4813 4.85674 28.4797C4.85831 28.4782 4.85831 28.4782 4.85831 28.4782C4.87558 28.4623 4.89129 28.448 4.90699 28.4338C5.09072 28.3386 5.29015 28.3592 5.48487 28.3592C8.77627 28.3576 12.0677 28.3576 15.3575 28.3608C15.4863 28.3608 15.6182 28.3465 15.7438 28.3687L15.5993 28.4004L15.995 28.4845C15.9982 28.4845 16.2557 28.4988 16.5227 28.5971C16.4489 28.559 16.3688 28.5178 16.2918 28.4766C16.1584 28.4068 16.0422 28.3449 16.0013 28.3243C15.9919 28.3196 15.9856 28.3164 15.9856 28.3164C15.2444 27.939 14.442 27.7724 13.6317 27.6012H15.995H16.1615C17.0613 27.6075 17.9611 27.617 18.8609 27.617C21.6655 27.6123 24.4716 27.7487 27.2762 27.5996C27.2841 27.6091 27.2935 27.6202 27.3029 27.6297C27.3563 27.6281 27.4097 27.6265 27.4631 27.6265C27.5212 27.5996 27.5809 27.5742 27.639 27.5472C28.3566 27.5044 29.0067 27.2697 29.5815 26.832C29.5799 26.8304 29.5783 26.8288 29.5783 26.8273C28.889 26.8606 28.1965 26.9129 27.5055 26.8019Z" fill="#D9596B"/>
<path d="M27.5055 26.802C28.1964 26.913 28.8889 26.8606 29.5783 26.8273C29.4794 26.7147 29.3459 26.756 29.2265 26.7544C28.6408 26.7512 28.0535 26.7528 27.4678 26.7544V26.775C27.4788 26.7861 27.4913 26.794 27.5055 26.802Z" fill="#D95A6C"/>
<path d="M27.8293 18.2191C27.6989 18.2191 27.567 18.2302 27.4634 18.3222V18.3301L27.4681 18.3349C27.8701 18.3349 28.2721 18.3507 28.6741 18.3317C28.9772 18.3174 29.2912 18.4189 29.5833 18.2603C29.0007 18.1747 28.415 18.2223 27.8293 18.2191Z" fill="#DA5A6C"/>
<path d="M27.8103 16.7076C28.3976 16.706 28.9865 16.7504 29.5722 16.6696C29.4717 16.5665 29.3382 16.6061 29.2173 16.6061C28.6347 16.6014 28.0521 16.6045 27.468 16.6045H27.4648V16.6077C27.5638 16.6918 27.6878 16.7076 27.8103 16.7076Z" fill="#DA5A6C"/>
<path d="M4.30744 2.2429V2.22863C4.30587 1.76079 4.30744 1.29454 4.3043 0.826706C4.30272 0.677633 4.33413 0.569793 4.51629 0.579309C4.68431 0.587238 4.69531 0.69825 4.69531 0.823535V2.23814V2.23973H4.72043H4.722C4.75655 2.23973 4.78796 2.23814 4.8225 2.23814H4.85077L4.85391 2.24131C5.36269 2.24131 5.87305 2.26034 6.38026 2.2318C6.72102 2.21277 6.84194 2.31109 6.82152 2.6695C6.75557 3.76852 6.90318 4.84216 7.27378 5.88408C7.66165 6.97358 8.21754 7.95842 9.02155 8.79259C9.07651 8.84809 9.11891 8.9147 9.16759 8.97655C9.19428 8.97814 9.22255 8.97972 9.24924 8.98131C9.26652 9.01461 9.28222 9.04633 9.29792 9.07805C9.30892 9.09708 9.31834 9.11611 9.32776 9.13514C9.35289 9.13831 9.37958 9.14148 9.40471 9.14148C11.4775 9.14148 13.5519 9.14466 15.6248 9.13197C15.9074 9.13038 16.0189 9.19858 16.0079 9.50465C15.9859 10.1755 15.9985 10.8479 15.9969 11.5203L16.0032 11.5187C16.0535 11.5187 16.1037 11.5171 16.1555 11.5171C16.1555 10.8463 16.1728 10.1755 16.1524 9.50465C16.143 9.20016 16.2513 9.13038 16.534 9.13197C18.1624 9.14307 19.7908 9.13673 21.4193 9.13514C21.3941 9.08439 21.3674 9.03364 21.3423 8.98289C21.3423 8.98289 21.3423 8.98289 21.3407 8.98289C19.7469 8.98131 18.1514 8.97338 16.5575 8.98607C16.2607 8.98765 16.1288 8.92422 16.1524 8.59277C16.1806 8.17251 16.1602 7.74908 16.1618 7.32723H15.9954L16.0048 7.30503C14.8946 7.30662 13.7843 7.31931 12.6741 7.3082C12.3915 7.30503 12.0994 7.25904 11.8277 7.18133C10.2621 6.73094 9.33247 5.47175 9.32619 3.82244C9.32148 2.74087 9.31206 1.65929 9.30578 0.577723C9.29478 0.571379 9.28379 0.565036 9.2728 0.558692C9.23982 0.538076 9.20842 0.514288 9.17544 0.514288C7.60669 0.507944 6.03793 0.511116 4.46918 0.500015C4.23206 0.498429 4.22892 0.625299 4.23049 0.799746C4.23206 1.28027 4.22578 1.76238 4.22892 2.2429H4.30744Z" fill="#F06977"/>
<path d="M1.22467 20.5026C1.13674 20.4931 1.05508 20.4566 0.976562 20.4138C1.03466 20.4915 1.09277 20.5708 1.15087 20.6501C1.16186 20.5724 1.18856 20.528 1.22467 20.5026Z" fill="#DA7386"/>
<path d="M4.12842 20.4727C4.17082 20.4743 4.21479 20.4727 4.25718 20.4727C4.28545 20.4696 4.31215 20.468 4.33884 20.4711C4.32785 20.4474 4.31529 20.4236 4.30272 20.3998C4.28074 20.3982 4.25875 20.3966 4.23834 20.3966C4.23363 20.3998 4.22735 20.4014 4.22107 20.4045C4.22264 20.4014 4.22421 20.3982 4.22578 20.395C4.22421 20.395 4.22107 20.395 4.2195 20.395C4.20065 20.4204 4.17082 20.4474 4.12842 20.4727Z" fill="#DA7386"/>
<path d="M4.37943 22.5422C4.381 22.566 4.37786 22.5898 4.37158 22.612C4.42497 22.5835 4.47365 22.566 4.51605 22.5581C4.47522 22.5581 4.42968 22.5533 4.37943 22.5422Z" fill="#D97588"/>
<path d="M4.85579 20.8706C4.85405 20.8723 4.85232 20.8723 4.85059 20.8741L4.85579 20.8776V20.8706Z" fill="#D97588"/>
<path d="M4.8561 23.648V23.646L4.85205 23.648L4.85407 23.6501C4.85407 23.6501 4.8561 23.6501 4.8561 23.648Z" fill="#D97588"/>
<path d="M27.4524 26.7622C27.4572 26.767 27.4619 26.7717 27.4681 26.7749V26.7543L27.4603 26.7511C27.454 26.7463 27.4462 26.7432 27.4399 26.74H27.4336C27.4383 26.7479 27.4446 26.7558 27.4524 26.7622Z" fill="#DB7586"/>
<path d="M27.3063 17.3818C27.3063 17.3835 27.3047 17.3835 27.3047 17.3851L27.3179 17.3868C27.3146 17.3851 27.3129 17.3818 27.3096 17.3801C27.308 17.3801 27.308 17.3818 27.3063 17.3818Z" fill="#E88D9A"/>
<path d="M27.3096 17.5487C27.3129 17.547 27.3146 17.5453 27.3179 17.542L27.3047 17.5437C27.3047 17.5453 27.3063 17.5453 27.3063 17.547C27.308 17.547 27.308 17.5487 27.3096 17.5487Z" fill="#E88D9A"/>
<path d="M16.1521 8.59279C16.1285 8.92424 16.2604 8.98767 16.5572 8.98609C18.1511 8.9734 19.7466 8.98133 21.3404 8.98292C21.3404 8.98292 21.3404 8.98292 21.342 8.98292C21.3671 9.03366 21.3938 9.08441 21.419 9.13516C19.7905 9.13675 18.1621 9.14309 16.5337 9.13199C16.251 9.1304 16.1427 9.20018 16.1521 9.50467C16.1725 10.1755 16.1552 10.8463 16.1552 11.5172L16.1599 11.5187H16.1646C19.6398 11.5187 23.1133 11.5203 26.5885 11.5156C26.8303 11.514 27.0517 11.5584 27.2653 11.6583C27.2778 11.6631 27.292 11.6694 27.3045 11.6757V11.6805C27.3061 11.6789 27.3092 11.6757 27.3108 11.6742C27.3296 11.6837 27.3501 11.6948 27.3689 11.7043C27.4003 11.7217 27.4317 11.7376 27.4631 11.7535C27.4631 11.3776 27.4663 11.0033 27.4663 10.6275C27.4678 10.2548 27.4663 9.88211 27.46 9.50784C27.46 9.50626 27.46 9.50467 27.46 9.50308C27.46 9.5015 27.46 9.49833 27.46 9.49674C27.4537 9.22556 27.5322 9.12723 27.8117 9.13199C28.7916 9.14785 29.7715 9.13992 30.7514 9.1415C30.7027 9.03684 30.632 8.9512 30.5331 8.89252C29.7401 8.05042 28.7932 7.5128 27.6374 7.38435C27.5809 7.35739 27.5228 7.33043 27.4663 7.30347C27.4207 7.30981 27.3752 7.31615 27.3296 7.32408C27.3234 7.31774 27.3187 7.3114 27.3124 7.30347C26.2304 7.30664 25.1485 7.3114 24.0649 7.31298C21.4299 7.31774 18.7965 7.32091 16.1615 7.32567C16.1599 7.7491 16.1804 8.17253 16.1521 8.59279Z" fill="#F06977"/>
<path d="M9.29793 9.07799C9.28223 9.04627 9.26652 9.01455 9.24925 8.98125C9.22255 8.97966 9.19429 8.97808 9.16759 8.97649C9.11891 8.91464 9.07651 8.84803 9.02155 8.79253C8.21755 7.95835 7.66165 6.97352 7.27378 5.88402C6.90319 4.8421 6.75558 3.76846 6.82153 2.66944C6.84194 2.31103 6.72103 2.21271 6.38027 2.23174C5.87306 2.26028 5.3627 2.24125 4.85392 2.24125L4.85077 2.23808H4.82251C4.78796 2.23808 4.75656 2.23967 4.72201 2.23967H4.72044H4.69531C4.71102 2.25394 4.72672 2.26345 4.74242 2.26821C4.77383 2.27773 4.80366 2.27138 4.8335 2.25077C4.83664 2.25552 4.84135 2.26028 4.84606 2.26504C4.8492 2.26663 4.85077 2.26663 4.85392 2.26821C4.86334 2.27138 4.87433 2.27614 4.88375 2.27931C5.29204 2.42363 5.71131 2.33165 6.12588 2.34433C6.70533 2.36178 6.72103 2.35068 6.70533 2.94221C6.6645 4.45514 7.01311 5.86975 7.73703 7.1892C8.10291 7.85369 8.49078 8.50866 9.10321 8.97649C9.11577 8.98759 9.12676 8.99711 9.13933 9.00345C9.16131 9.02248 9.18487 9.03993 9.20842 9.05578C9.22098 9.05896 9.23355 9.06371 9.24611 9.06689C9.25082 9.09385 9.26181 9.11605 9.27909 9.13508H9.32777C9.31834 9.11605 9.30892 9.09702 9.29793 9.07799Z" fill="#D9596B"/>
<path d="M27.4663 12.9445C27.6359 12.8477 27.7207 12.6638 27.7223 12.4592C27.7207 12.253 27.6359 12.0262 27.4663 11.8455V12.9445Z" fill="#DA5A6C"/>
<path d="M27.3689 11.7044C27.3501 11.6949 27.3297 11.6838 27.3108 11.6743C27.3093 11.6758 27.3061 11.679 27.3045 11.6806V11.6758C27.292 11.6695 27.2779 11.6632 27.2653 11.6584C27.0517 11.5585 26.8303 11.5141 26.5885 11.5157C23.1134 11.5204 19.6398 11.5188 16.1647 11.5188H16.16L16.1553 11.5173C16.1034 11.5173 16.0532 11.5188 16.0029 11.5188V11.5268C16.0029 11.5284 16.0045 11.5284 16.0061 11.5284V11.5299C16.0139 11.5347 16.0218 11.541 16.0312 11.5458C16.0814 11.5537 16.1238 11.5442 16.1584 11.5204C16.16 11.522 16.1631 11.5236 16.1647 11.5268C16.1662 11.5284 16.1678 11.5284 16.1694 11.5299V11.5315C16.1835 11.5442 16.1977 11.5585 16.2118 11.5712C16.4222 11.6727 16.6468 11.6425 16.8666 11.6425C19.9837 11.6441 23.1008 11.6489 26.2179 11.6378C26.5743 11.6362 26.9245 11.7393 27.2794 11.679C27.2826 11.6854 27.2873 11.6901 27.292 11.6949C27.281 11.706 27.27 11.7171 27.259 11.7282C27.1774 12.1611 27.0973 12.5941 27.3061 13.0127C27.292 13.0191 27.2779 13.0318 27.2653 13.046C27.2621 13.0524 27.2574 13.0587 27.2543 13.0651C27.1192 12.9826 26.9685 13.0223 26.8177 13.0286C26.0891 13.0635 25.3636 13.1428 24.6303 13.1396C22.0345 13.1269 19.4372 13.1333 16.8399 13.1364C16.6248 13.1364 16.3987 13.0952 16.2071 13.2284C16.1914 13.2379 16.1772 13.249 16.1631 13.2617H16.1804C19.8644 13.1904 23.553 13.4282 27.2339 13.1079C27.2574 13.1063 27.281 13.1031 27.3045 13.1015C27.3061 13.0762 27.3093 13.0508 27.3124 13.0254H27.3846H27.4616C27.4631 12.9985 27.4647 12.9715 27.4663 12.9445V11.8455C27.4647 11.8186 27.4647 11.7916 27.4631 11.7646C27.4631 11.7615 27.4631 11.7583 27.4631 11.7535C27.4317 11.7377 27.4003 11.7218 27.3689 11.7044Z" fill="#D9596B"/>
<path d="M27.4394 26.74C27.4316 26.7352 27.4237 26.7305 27.4159 26.7273C27.3829 26.7162 27.3531 26.7241 27.3232 26.7416C27.3594 26.7416 27.397 26.74 27.4332 26.74H27.4394Z" fill="#EA8190"/>
<path d="M27.4663 23.0148V23.0941C27.6328 22.9165 27.7176 22.731 27.7191 22.5438C27.7176 22.3583 27.6343 22.1727 27.4679 21.9951V22.0665C27.4663 22.3821 27.4663 22.6992 27.4663 23.0148Z" fill="#DA5A6C"/>
<path d="M4.1219 24.1724C4.30249 24.0313 4.54118 23.9694 4.69193 23.7918V23.7268C4.38258 23.8695 4.1062 24.0567 3.83925 24.2739C2.93631 25.0114 2.54687 26.0279 2.61439 27.1238C2.70861 28.643 3.43567 29.8911 4.69036 30.7887V30.7158C4.64011 30.6539 4.5773 30.6048 4.51606 30.554C3.77486 29.9339 3.25038 29.1584 2.92846 28.245C2.79498 27.8644 2.72432 27.4806 2.71332 27.1031C2.67878 25.9803 3.17814 24.9146 4.1219 24.1724Z" fill="#F06977"/>
<path d="M4.72173 23.7553C4.739 23.7331 4.75314 23.7077 4.76727 23.6808C4.76727 23.6792 4.76884 23.6776 4.76884 23.676C4.80025 23.6776 4.82694 23.6681 4.85364 23.649L4.85207 23.6475C4.82694 23.6475 4.80182 23.649 4.77669 23.649C4.75 23.6506 4.72487 23.6506 4.69975 23.6506C4.69661 23.676 4.69504 23.7014 4.69189 23.7268V23.7918C4.70289 23.7807 4.71231 23.768 4.72173 23.7553Z" fill="#EA8190"/>
<path d="M4.69828 30.8649C4.72969 30.8808 4.75952 30.8966 4.79093 30.9125C4.80977 30.9236 4.83019 30.9331 4.84903 30.9426V30.9061C4.82705 30.8887 4.80349 30.876 4.7768 30.8697C4.77523 30.8633 4.77366 30.8554 4.77052 30.849C4.75952 30.8173 4.74382 30.7888 4.72655 30.7618C4.71555 30.746 4.70299 30.7301 4.69043 30.7158V30.7888C4.69357 30.8141 4.69514 30.8395 4.69828 30.8649Z" fill="#EB7E8D"/>
<path d="M2.74928 16.4666C2.79796 15.1948 3.3036 14.2337 4.4358 13.639C4.53159 13.5899 4.63052 13.5423 4.69962 13.4646V13.4249C4.69962 13.4233 4.69962 13.4233 4.69962 13.4218L4.69177 13.4202C4.12174 13.6406 3.62552 13.9625 3.26905 14.4764C2.50431 15.5786 2.52158 16.7917 2.80738 18.0287C3.02251 18.966 3.57527 19.7098 4.2191 20.3949C4.22067 20.3949 4.22381 20.3949 4.22538 20.3949C4.22695 20.3933 4.22695 20.3917 4.22852 20.3885C4.22538 20.3901 4.22381 20.3901 4.22067 20.3917C4.24265 20.3632 4.24893 20.3346 4.24736 20.3092C4.23637 20.222 4.1343 20.1475 4.07777 20.084C3.19525 19.1278 2.75242 18.0208 2.74456 16.7299C2.74456 16.6443 2.74614 16.5555 2.74928 16.4666Z" fill="#F06977"/>
<path d="M4.33407 20.4029C4.32779 20.3981 4.32151 20.3918 4.31523 20.387C4.28539 20.3775 4.26184 20.3823 4.23828 20.3965C4.26027 20.3981 4.28068 20.3997 4.30266 20.3997C4.31366 20.4013 4.32465 20.4013 4.33407 20.4029Z" fill="#F06977"/>
<path d="M15.8961 31.9021C15.8475 31.891 15.7972 31.8846 15.7485 31.8799C15.8223 31.8942 15.8946 31.9116 15.9621 31.9306C15.9417 31.9195 15.9197 31.91 15.8961 31.9021Z" fill="#EA8391"/>
<path d="M16.1443 31.9766C16.116 31.9592 16.0877 31.9528 16.061 31.9592C16.0814 31.9655 16.1019 31.9719 16.1207 31.9766C16.127 31.9766 16.1364 31.9766 16.1443 31.9766Z" fill="#EA8391"/>
<path d="M4.68874 20.7184C4.68874 20.7041 4.68717 20.6914 4.6856 20.6771V20.6756C4.67147 20.601 4.62279 20.5772 4.56311 20.5725C4.55683 20.5677 4.54898 20.5645 4.54113 20.5598C4.51443 20.5582 4.48774 20.5582 4.45947 20.5598C4.50344 20.6597 4.58039 20.7136 4.68874 20.7184Z" fill="#EC6775"/>
<path d="M4.69526 0.823423C4.69526 0.698138 4.68427 0.587126 4.51625 0.579197C4.33409 0.569682 4.30268 0.677522 4.30425 0.826595C4.30739 1.29443 4.30582 1.76068 4.30739 2.22851V2.24279H4.34508C4.46129 2.2412 4.57906 2.23962 4.69526 2.23803V0.823423Z" fill="#F06B79"/>
<path d="M27.4631 18.3221C27.4615 18.3237 27.4599 18.3237 27.4599 18.3268C27.4584 18.3268 27.4568 18.3284 27.4552 18.33C27.4003 18.2967 27.3516 18.3015 27.3076 18.3332V18.3348L27.3108 18.3364C27.3579 18.3364 27.405 18.3364 27.4505 18.3348H27.4631V18.33V18.3221Z" fill="#D97588"/>
<path d="M27.4272 17.5688C27.4398 17.5641 27.4524 17.5561 27.4649 17.5435H27.4398C27.4351 17.5514 27.432 17.5609 27.4272 17.5688Z" fill="#D97588"/>
<path d="M27.8102 16.7078C27.6878 16.7078 27.5637 16.692 27.4648 16.6079V16.6047H27.4475C27.402 16.6047 27.3564 16.6031 27.3109 16.6031L27.3093 16.6047H27.3077L27.303 16.6063V16.6C27.3015 16.6016 27.2983 16.6047 27.2967 16.6063H27.2889C27.1413 16.73 26.9591 16.7189 26.7833 16.7189C23.4181 16.7221 20.0528 16.7221 16.6876 16.7189C16.5071 16.7189 16.3202 16.73 16.16 16.6111C16.1584 16.6095 16.1553 16.6063 16.1553 16.6047V16.6031V16.592H16.1443H16.0187H16.0046V16.6047V16.6063C15.9245 16.6761 15.8271 16.7046 15.7266 16.7046C14.3683 16.711 13.0115 16.7586 11.6563 16.6824C11.5919 16.6602 11.5543 16.6333 11.5307 16.6031C11.5291 16.6031 11.5276 16.6031 11.526 16.6031C11.5244 16.6016 11.5213 16.6 11.5197 16.6C11.515 16.5968 11.5103 16.5952 11.5056 16.592C11.4852 16.592 11.4648 16.5936 11.4459 16.5936C10.8445 16.8236 10.243 16.8616 9.64161 16.5936C9.59607 16.5936 9.54739 16.592 9.50185 16.592C9.49714 16.5952 9.49243 16.5984 9.48614 16.6031C9.48457 16.6031 9.48457 16.6031 9.483 16.6031C9.46259 16.6269 9.43432 16.6491 9.3935 16.6697C9.09827 16.7475 8.79834 16.7126 8.49998 16.7142C7.30497 16.7189 6.10838 16.711 4.91179 16.7237C4.89452 16.7173 4.87725 16.711 4.86311 16.6983C4.85997 16.6983 4.85683 16.6967 4.85526 16.6935C4.85055 16.6904 4.84741 16.6872 4.84427 16.6856C4.8427 16.6856 4.8427 16.6872 4.84113 16.6872C4.82385 16.7316 4.78931 16.7601 4.74063 16.7697C4.72806 16.7649 4.71707 16.7617 4.70294 16.7554C4.70137 16.757 4.70137 16.7586 4.6998 16.7601C4.69823 16.7601 4.69823 16.7617 4.69666 16.7617L4.69195 16.7633L4.69038 16.7649C4.37003 17.2327 4.35904 17.7022 4.69666 18.1748V18.1763C4.71864 18.1732 4.7422 18.1716 4.76418 18.1684C4.8003 18.1811 4.83171 18.2001 4.85683 18.2255C4.85997 18.2271 4.86311 18.2303 4.86468 18.2334V18.235C4.86939 18.2366 4.87096 18.2398 4.87096 18.2414C4.8851 18.2334 4.89923 18.2239 4.91336 18.2144C5.21172 18.1652 5.51166 18.2128 5.81159 18.2128C8.98364 18.2081 12.1541 18.2081 15.3262 18.2112C15.5554 18.2112 15.7973 18.17 16.0046 18.3238V18.3365H16.0108H16.1412H16.1553V18.3238C16.3202 18.1922 16.5165 18.2096 16.7081 18.2096C20.0528 18.2065 23.3976 18.2065 26.7424 18.2096C26.9371 18.2096 27.1397 18.1874 27.303 18.3333V18.3286C27.292 18.3175 27.2779 18.3032 27.2653 18.2905C27.179 18.0558 27.1758 17.8195 27.2685 17.5848C27.2795 17.5753 27.2905 17.5642 27.303 17.5547V17.5436H27.3046L27.3172 17.542C27.314 17.5452 27.3125 17.5467 27.3093 17.5483C27.3077 17.5515 27.3046 17.5531 27.303 17.5547V18.3286C27.3046 18.3302 27.3062 18.3318 27.3077 18.3333C27.3517 18.3016 27.4004 18.2969 27.4554 18.3302C27.4569 18.3286 27.4585 18.327 27.4601 18.327C27.4601 18.3238 27.4616 18.3238 27.4632 18.3222C27.5668 18.2303 27.6988 18.2192 27.8291 18.2192C28.4148 18.2223 29.0005 18.1748 29.5831 18.2604C29.0194 17.8544 28.3913 17.6213 27.705 17.5388V17.3897C28.3881 17.3073 29.0147 17.0757 29.5769 16.6729C29.5753 16.6713 29.5737 16.6713 29.5737 16.6697C28.988 16.7522 28.3975 16.7062 27.8102 16.7078ZM27.3046 17.385H27.303V17.3739C27.3046 17.3755 27.3077 17.3771 27.3093 17.3802C27.3125 17.3818 27.314 17.385 27.3172 17.3866L27.3046 17.385ZM27.4271 17.5689C27.4318 17.561 27.4349 17.5515 27.4396 17.5436H27.4648C27.4522 17.5563 27.4396 17.5642 27.4271 17.5689Z" fill="#D9596B"/>
<path d="M4.8554 30.9472C4.87268 30.9599 4.88995 30.971 4.90722 30.9821C4.89937 30.9663 4.89152 30.9504 4.87896 30.933C4.87268 30.9266 4.86639 30.9203 4.85854 30.9155V30.9139C4.8554 30.9123 4.85226 30.9092 4.84912 30.906V30.9425L4.8554 30.9472Z" fill="#F06977"/>
<path d="M7.28592 31.818H8.27993C10.6401 31.818 13.0003 31.8196 15.3605 31.8196C15.2161 31.6848 15.0323 31.7022 14.8564 31.7006C12.5057 31.6974 10.1549 31.6974 7.80256 31.7006C7.65494 31.7022 7.49948 31.6879 7.36758 31.7672C7.34245 31.7609 7.3189 31.7545 7.29377 31.7466C7.15872 31.7212 7.0221 31.7101 6.88392 31.7133C6.78342 31.7165 6.68291 31.7181 6.58398 31.7181C6.68606 31.7514 6.7897 31.7831 6.89177 31.8148C7.02367 31.8164 7.15401 31.8164 7.28592 31.818Z" fill="#F06977"/>
<path d="M4.94027 31.0757C5.01564 31.1614 5.11457 31.2216 5.21664 31.2819C5.55426 31.4801 5.90916 31.6149 6.27975 31.7053C6.47918 31.7545 6.68333 31.791 6.89218 31.8147C6.79011 31.7814 6.68647 31.7497 6.58439 31.718C6.5734 31.718 6.56241 31.718 6.55142 31.718C5.98139 31.5388 5.41764 31.3437 4.91671 30.9996C4.91357 30.9933 4.90886 30.9869 4.90729 30.9822C4.89002 30.9711 4.87274 30.96 4.85547 30.9473C4.87902 30.9964 4.90729 31.0392 4.94027 31.0757Z" fill="#D9596C"/>
<path d="M16.0079 21.6684C16.0079 21.6637 16.0063 21.6605 16.0063 21.6558C16.0063 21.6589 16.0063 21.6621 16.0063 21.6637C16.0063 21.6637 16.0063 21.6653 16.0048 21.6653C16.0032 21.6637 16 21.6621 15.9985 21.6621C15.9969 21.6637 15.9953 21.6669 15.9922 21.6684H16.0079Z" fill="#D9596B"/>
<path d="M16.0079 23.4239V23.4097H15.9922C15.9969 23.4144 16.0016 23.4208 16.0063 23.4255L16.0079 23.4239Z" fill="#D9596B"/>
<path d="M9.32749 9.13525H9.27881C9.28509 9.14477 9.29294 9.1527 9.30236 9.16063C9.32278 9.17966 9.34947 9.1971 9.37931 9.21138C9.41543 9.22565 9.45311 9.23516 9.4908 9.23834C9.46097 9.20662 9.4327 9.1749 9.40443 9.1416C9.37931 9.1416 9.35261 9.13843 9.32749 9.13525Z" fill="#D9596B"/>
<path d="M6.99544 13.2632C9.99632 13.2584 12.9956 13.2616 15.995 13.2616V13.2283C15.9761 13.2109 15.9557 13.1982 15.9321 13.1887C15.8065 13.1395 15.6762 13.1363 15.5458 13.1363C12.2278 13.1331 8.90966 13.1316 5.59157 13.1379C5.36701 13.1379 5.13617 13.1411 4.94302 13.2711C4.91162 13.2902 4.88178 13.3139 4.85352 13.3409C4.87864 13.3361 4.90377 13.3314 4.92889 13.3282C5.61512 13.214 6.30606 13.2648 6.99544 13.2632Z" fill="#D9596B"/>
<path d="M15.9966 11.5204C15.9982 11.5237 15.9998 11.5253 16.003 11.5269V11.5188L15.9966 11.5204Z" fill="#D9596B"/>
<path d="M4.69971 13.4645C4.70599 13.4582 4.7107 13.4518 4.71698 13.4439C4.74996 13.4867 4.77037 13.5343 4.78293 13.585C4.7845 13.5343 4.80335 13.4883 4.83161 13.4471C4.8379 13.4471 4.84261 13.4439 4.84889 13.4407C4.87087 13.4296 4.89129 13.4106 4.90699 13.3836C4.91641 13.3646 4.92269 13.3472 4.92897 13.3281C4.90385 13.3313 4.87872 13.3361 4.8536 13.3408C4.85203 13.3678 4.85046 13.3947 4.84889 13.4201C4.8112 13.4217 4.77194 13.4217 4.73268 13.4217H4.69971C4.69971 13.4233 4.69971 13.4233 4.69971 13.4249V13.4645Z" fill="#F06977"/>
<path d="M16.1553 26.74L16.1631 26.7416L16.1584 26.7368C16.1568 26.7384 16.1553 26.7384 16.1553 26.74Z" fill="#D9596B"/>
<path d="M16.0075 9.50454C16.0185 9.19847 15.907 9.13028 15.6243 9.13186C13.5515 9.14455 11.4771 9.14138 9.4043 9.14138C9.43256 9.17468 9.46083 9.2064 9.49066 9.23812C10.2224 10.0548 11.1631 10.5528 12.1539 10.9699C13.3866 11.4885 14.6822 11.5646 15.9949 11.5202H15.9965C15.9981 10.8478 15.9855 10.1754 16.0075 9.50454Z" fill="#F06977"/>
<path d="M16.0077 13.2632H16.0312C16.0218 13.2521 16.0124 13.2425 16.003 13.2346C15.9998 13.2314 15.9983 13.2299 15.9951 13.2283V13.2616L16.0077 13.2632Z" fill="#D9596B"/>
<path d="M16.1573 16.603H16.1553V16.6051L16.1573 16.603Z" fill="#F06977"/>
<path d="M16.1813 13.2617H16.1636L16.1523 13.2633V13.2811C16.162 13.2763 16.1717 13.2698 16.1813 13.2617Z" fill="#F06977"/>
<path d="M16.1553 18.3371L16.1652 18.3337C16.1619 18.3304 16.1586 18.3271 16.1553 18.3237V18.3371Z" fill="#F06977"/>
<path d="M26.5494 21.6636C26.7865 21.6636 27.0095 21.6969 27.2231 21.7873C27.2482 21.7968 27.2702 21.8079 27.2953 21.8206C27.2686 21.7794 27.2404 21.7445 27.2074 21.7143C27.0252 21.5415 26.774 21.5542 26.5369 21.5542C23.2502 21.5478 19.9619 21.5494 16.6752 21.5526C16.4978 21.5526 16.314 21.5415 16.1602 21.6604C16.1633 21.6636 16.1649 21.6652 16.168 21.6683C19.629 21.6683 23.09 21.6683 26.5494 21.6636Z" fill="#F06977"/>
<path d="M16.6625 28.6558C16.5416 28.5923 16.4191 28.5337 16.2935 28.4766C16.3704 28.5162 16.4505 28.5574 16.5243 28.5971C16.5714 28.6145 16.6169 28.6336 16.6625 28.6558Z" fill="#F06977"/>
<path d="M31.5211 20.5756C31.4552 20.5169 31.3829 20.4868 31.3075 20.4725C31.3107 20.4709 31.3154 20.4662 31.3185 20.4646C31.3892 20.4805 31.4583 20.509 31.5211 20.5645C31.4787 20.482 31.4363 20.3996 31.3923 20.3171C31.3923 20.3203 31.3908 20.3219 31.3908 20.3235C31.0123 19.4369 30.392 18.7693 29.5833 18.2713C29.2912 18.4299 28.9772 18.3284 28.6741 18.3427C28.2721 18.3617 27.8701 18.3459 27.4681 18.3459H27.4508C27.4053 18.3474 27.3582 18.3474 27.3111 18.3474L27.3079 18.3459L27.3032 18.3443H16.1649L16.1555 18.3474H16.1414C16.0848 18.4204 16.0644 18.5013 16.055 18.5853C16.055 18.5837 16.055 18.5806 16.055 18.579C16.055 18.5822 16.055 18.5853 16.055 18.5885C16.044 18.5076 16.0283 18.4283 16.011 18.3474H16.0047L15.9953 18.3443C12.448 18.3459 8.9006 18.3443 5.35324 18.3506C5.18992 18.3506 5.04231 18.311 4.88999 18.2745C4.879 18.2713 4.86801 18.2697 4.85702 18.2666L4.84759 18.2681C4.79891 18.2412 4.74866 18.2174 4.69998 18.1904C4.69841 18.1904 4.69841 18.1889 4.69684 18.1889L4.6937 18.1873C4.42518 18.0033 4.2917 17.7369 4.29327 17.4689C4.2917 17.2024 4.42361 16.9344 4.69213 16.752L4.69684 16.7505C4.69841 16.7505 4.69841 16.7489 4.69998 16.7489C4.74552 16.7251 4.78949 16.7013 4.8366 16.6775C4.84131 16.6759 4.84445 16.6728 4.84916 16.6712L4.85545 16.6728C5.05488 16.6077 5.25902 16.5887 5.46944 16.5903C6.80736 16.595 8.14684 16.5919 9.48633 16.5919H9.49418C9.49104 16.595 9.48633 16.5998 9.48319 16.603C9.48476 16.603 9.48476 16.603 9.48633 16.603C9.49104 16.5982 9.49575 16.595 9.50203 16.5919C9.54914 16.5919 9.59625 16.5935 9.64179 16.5935H9.86164H11.2058H11.4461C11.4649 16.5935 11.4854 16.5919 11.5058 16.5919C11.5105 16.595 11.5152 16.5966 11.5199 16.5998C11.5215 16.5998 11.5246 16.6014 11.5262 16.603C11.5277 16.603 11.5293 16.603 11.5309 16.603C11.5278 16.5998 11.5246 16.595 11.523 16.5919C11.5246 16.5919 11.5246 16.5919 11.5262 16.5919C13.0164 16.5935 14.5051 16.5935 15.9953 16.595C15.9985 16.5982 16.0016 16.6014 16.0047 16.6046V16.5919H16.0189H16.1445H16.1555V16.603H16.1571L16.1649 16.595H27.3032C27.2985 16.5998 27.2938 16.6014 27.2891 16.6061H27.2969C27.2985 16.6046 27.3016 16.6014 27.3032 16.5998V16.6061L27.3079 16.6046H27.3095L27.3111 16.603C27.3566 16.603 27.4021 16.6046 27.4477 16.6046H27.465H27.4681C28.0523 16.6046 28.6349 16.6014 29.2174 16.6061C29.3384 16.6061 29.4718 16.5665 29.5723 16.6696C29.5739 16.6712 29.5755 16.6712 29.5755 16.6728C29.577 16.6759 29.5802 16.6759 29.5818 16.6791C29.7639 16.6236 29.8943 16.4872 30.0309 16.3698C31.419 15.1915 32.0456 13.6992 31.8823 11.8596C31.7928 10.8653 31.3845 10.0184 30.8427 9.21435C30.8113 9.19373 30.7815 9.17312 30.7501 9.1525C29.7702 9.15092 28.7903 9.15884 27.8104 9.14299C27.5325 9.13823 27.454 9.23655 27.4587 9.50298C27.4587 9.50457 27.4587 9.50615 27.4587 9.50774C27.465 9.88201 27.4665 10.2547 27.465 10.6274C27.4634 11.0032 27.4618 11.3791 27.4618 11.7533C27.4618 11.7565 27.4618 11.7597 27.4618 11.7644C27.4634 11.7914 27.4634 11.8184 27.465 11.8453C27.6346 12.0261 27.7194 12.2529 27.7209 12.4591C27.7225 12.6684 27.6377 12.8571 27.465 12.9554C27.4634 12.9824 27.4618 13.0094 27.4603 13.0363H27.3111C27.3079 13.0617 27.3048 13.0871 27.3032 13.1124C27.2797 13.114 27.2561 13.1172 27.2326 13.1188C23.5517 13.4391 19.863 13.2013 16.179 13.2726C16.1696 13.2806 16.1602 13.2869 16.1508 13.2917C16.1445 13.2948 16.1398 13.298 16.1335 13.2996H16.1319C16.11 13.3376 16.0974 13.3773 16.0895 13.4185C16.0801 13.3789 16.066 13.3392 16.0487 13.2996L16.0471 13.298C16.033 13.2917 16.0204 13.2853 16.0063 13.2742L15.9937 13.2726C12.9944 13.2726 9.99511 13.2695 6.99423 13.2742C6.30485 13.2758 5.61391 13.225 4.92768 13.3392C4.9214 13.3583 4.91512 13.3757 4.9057 13.3947C4.88999 13.4217 4.86958 13.4407 4.84759 13.4518C4.84131 13.455 4.8366 13.4582 4.83032 13.4582C4.80206 13.4994 4.78321 13.5454 4.78164 13.5961C4.76908 13.5454 4.74866 13.4978 4.71569 13.455C4.70941 13.4629 4.70469 13.4693 4.69841 13.4756C4.62932 13.5533 4.53039 13.6009 4.4346 13.6501C3.3024 14.2448 2.79675 15.2058 2.74807 16.4777C2.74493 16.5633 2.74336 16.6474 2.74336 16.7314C2.74964 18.0223 3.19404 19.1309 4.07657 20.0856C4.1331 20.1474 4.23674 20.2235 4.24616 20.3108C4.2493 20.3361 4.24302 20.3631 4.22575 20.3901C4.22418 20.3916 4.22418 20.3932 4.22261 20.3964C4.22104 20.3996 4.21947 20.4027 4.21789 20.4059C4.22261 20.4012 4.22889 20.4012 4.23517 20.398C4.25872 20.3837 4.28385 20.379 4.31211 20.3885C4.3184 20.3932 4.32468 20.3996 4.33096 20.4043C4.31997 20.4027 4.31054 20.4027 4.29955 20.4012C4.31211 20.4249 4.32468 20.4487 4.33567 20.4725C4.35137 20.4995 4.36393 20.528 4.37807 20.555C4.40476 20.5582 4.42989 20.5597 4.45658 20.5613C4.48485 20.5597 4.51155 20.5597 4.53824 20.5613C4.54609 20.5661 4.55237 20.5693 4.56023 20.574C4.6199 20.5788 4.66858 20.6026 4.68271 20.6771V20.6787C4.68428 20.6914 4.68585 20.7041 4.68585 20.7199C4.68899 20.7453 4.69213 20.7707 4.69527 20.796C4.72354 20.8103 4.7518 20.8262 4.78007 20.8404C4.80206 20.8531 4.82561 20.8642 4.84759 20.8753C4.84916 20.8738 4.85073 20.8738 4.85231 20.8722C4.84916 20.8611 4.84916 20.85 4.84759 20.8389C4.85545 20.8452 4.8633 20.8531 4.86958 20.8626H4.87115C4.87272 20.8658 4.87586 20.8706 4.879 20.8738C5.05174 20.8404 5.18678 20.9467 5.32497 21.0212C6.0222 21.3907 6.76339 21.5509 7.54855 21.5478C10.1443 21.5414 12.74 21.5446 15.3358 21.5478C15.5619 21.5478 15.799 21.5049 16.0016 21.6556C16 21.6588 15.9969 21.6603 15.9953 21.6635C15.9969 21.6651 16 21.6651 16.0016 21.6667C16.0032 21.6667 16.0032 21.6651 16.0032 21.6651C16.0032 21.6619 16.0032 21.6588 16.0032 21.6572C15.9985 21.6207 15.9969 21.5842 15.9969 21.5462C15.9969 21.5826 15.9985 21.6191 16.0032 21.654C16.0032 21.6556 16.0032 21.6572 16.0032 21.6572C16.0032 21.6619 16.0047 21.6651 16.0047 21.6699H16.0173H16.1461C16.1476 21.6699 16.1476 21.6699 16.1492 21.6699V21.6651C16.1508 21.6651 16.1508 21.6667 16.1508 21.6667C16.1524 21.6651 16.1555 21.6635 16.1571 21.6619C16.311 21.5414 16.4931 21.5541 16.6721 21.5541C19.9588 21.5509 23.2471 21.5493 26.5338 21.5557C26.7709 21.5557 27.0221 21.543 27.2043 21.7159C27.2357 21.7444 27.2655 21.7809 27.2922 21.8221C27.2954 21.8285 27.3001 21.8332 27.3032 21.838C27.3048 21.8633 27.3079 21.8887 27.3111 21.9141C27.3331 21.9141 27.355 21.9157 27.377 21.9141C27.4037 21.9157 27.432 21.9157 27.4587 21.9157C27.4602 21.9426 27.4618 21.9696 27.465 21.9966C27.6314 22.1742 27.7146 22.3597 27.7162 22.5453C27.7178 22.734 27.6346 22.9243 27.4634 23.1067C27.4618 23.1336 27.4602 23.1606 27.4587 23.186C27.432 23.1876 27.4037 23.1876 27.3755 23.1876C27.3535 23.1876 27.3331 23.1891 27.3111 23.1891C27.3079 23.2145 27.3048 23.2399 27.3032 23.2653C27.275 23.316 27.242 23.3572 27.2059 23.3905C27.0771 23.5079 26.9028 23.5285 26.7285 23.5412C26.3893 23.5634 26.0485 23.5507 25.7093 23.5507C22.754 23.5523 19.8002 23.5523 16.8449 23.5491C16.6125 23.5491 16.3706 23.5888 16.1586 23.4445C16.1571 23.4397 16.1571 23.4365 16.1555 23.4318C16.1524 23.4334 16.1508 23.4349 16.1492 23.4381C16.1351 23.4492 16.1225 23.4619 16.11 23.4762C16.0754 23.5349 16.0597 23.5999 16.0503 23.6633C16.0487 23.6015 16.044 23.5396 16.0409 23.4778C16.0283 23.4651 16.0173 23.4524 16.0047 23.4397C16.0047 23.4397 16.0047 23.4397 16.0032 23.4381C15.7975 23.5888 15.5588 23.5475 15.3279 23.5491C12.404 23.5523 9.48005 23.5507 6.55454 23.5507C6.09757 23.5507 5.64061 23.5269 5.19621 23.6728C5.08471 23.7109 4.96694 23.7188 4.85388 23.6586L4.85231 23.6601C4.85231 23.6617 4.85231 23.6617 4.85231 23.6633C4.85073 23.6633 4.85074 23.6617 4.85074 23.6617C4.82404 23.6808 4.79734 23.6903 4.76594 23.6887C4.76594 23.6903 4.76437 23.6919 4.76437 23.6934C4.75023 23.7204 4.7361 23.7458 4.71883 23.768C4.70941 23.7807 4.69998 23.7934 4.68899 23.8045C4.53824 23.9821 4.29955 24.0439 4.11896 24.1851C3.17677 24.9257 2.67898 25.9866 2.71038 27.1047C2.72138 27.4821 2.79047 27.8659 2.92552 28.2465C3.24744 29.16 3.77192 29.9355 4.51312 30.5556C4.57436 30.6063 4.63717 30.6555 4.68742 30.7173C4.69998 30.7316 4.71255 30.7475 4.72354 30.7633C4.74081 30.7903 4.75652 30.8188 4.76751 30.8505C4.77065 30.8569 4.77222 30.8648 4.77379 30.8711C4.80048 30.8775 4.82404 30.8902 4.84602 30.9076C4.84916 30.9108 4.85231 30.914 4.85545 30.9156V30.9171C4.8633 30.9219 4.86958 30.9282 4.87586 30.9346C4.88685 30.9504 4.8947 30.9663 4.90413 30.9837C4.90727 30.9901 4.91198 30.9948 4.91355 31.0012C5.41448 31.3453 5.97823 31.5404 6.54825 31.7196C6.55925 31.7196 6.57024 31.7196 6.58123 31.7196C6.68016 31.7196 6.78066 31.718 6.88116 31.7148C7.01935 31.7117 7.15597 31.7228 7.29102 31.7481C7.31614 31.7561 7.3397 31.7624 7.36482 31.7688C7.49673 31.6895 7.65219 31.7037 7.7998 31.7022C10.1521 31.699 12.5029 31.699 14.8537 31.7022C15.0296 31.7037 15.2133 31.6863 15.3578 31.8211C15.3625 31.8259 15.3672 31.8274 15.3703 31.8322H15.3719V31.8338C15.3735 31.837 15.3766 31.837 15.3782 31.8401C15.496 31.8401 15.6216 31.8576 15.7441 31.8829C15.7943 31.8877 15.843 31.894 15.8917 31.9051C15.9152 31.9131 15.9372 31.9226 15.9576 31.9337C15.9922 31.9432 16.0236 31.9527 16.055 31.9622C16.0833 31.9559 16.11 31.9622 16.1382 31.9797C16.1429 31.9829 16.1476 31.9844 16.1524 31.9876C16.1539 31.9892 16.1539 31.9892 16.1555 31.9908H16.267C16.3031 31.9829 16.3408 31.9829 16.38 31.9908H16.3816C16.4523 32.0035 16.5261 32.0368 16.5952 32.0732C17.842 32.7282 18.5361 33.7559 18.6115 35.1863C18.6146 35.2577 18.6162 35.3306 18.6178 35.402C18.6193 35.6161 18.613 35.8302 18.6146 36.0443C18.6146 36.0475 18.6146 36.0522 18.6146 36.0554C18.6225 37.2464 19.4406 38.2392 20.5979 38.458C20.7487 38.4866 20.8979 38.5056 20.9984 38.6372C21.0015 38.642 21.0062 38.6451 21.0094 38.6499C21.0141 38.1488 21.0235 37.6476 21.0204 37.1449C21.0172 36.2362 21.0549 35.3291 20.8727 34.4267C20.7079 33.6068 20.4079 32.8408 20.0703 32.0859C20.0546 32.013 20.0185 31.9591 19.9541 31.9273C19.9431 31.8956 19.9321 31.8639 19.9196 31.8322C19.8944 31.8021 19.8646 31.7783 19.83 31.7624C19.6636 31.3834 19.4061 31.063 19.1485 30.7506C18.4733 29.9307 17.6975 29.2377 16.7821 28.7302C16.7915 28.7397 16.6706 28.6779 16.5198 28.6002C16.2544 28.5018 15.9969 28.4876 15.9922 28.4876C15.9922 28.4907 15.9922 28.4955 15.9922 28.4987H15.9011C12.2171 28.4971 8.53471 28.4971 4.85231 28.4971L4.84602 28.4987V28.5003H4.69213C4.69056 28.4733 4.69056 28.4463 4.68899 28.4194C4.26657 28.348 3.91639 27.9325 3.91796 27.5313C3.91796 27.5027 3.91796 27.4742 3.9211 27.4472C3.9635 27.0872 4.16921 26.9413 4.69056 26.9017H4.6937H4.70627H4.84288C4.84602 26.8763 4.84916 26.8509 4.85074 26.8256C4.87429 26.824 4.89942 26.824 4.92297 26.8224C8.61166 26.6654 12.3019 26.778 15.9922 26.7447L16.0047 26.7431C16.0157 26.732 16.0283 26.7241 16.0409 26.7177C16.0409 26.7177 16.0409 26.7177 16.0424 26.7177C16.077 26.7019 16.1115 26.7098 16.1461 26.7431C16.1461 26.7431 16.1508 26.7415 16.1555 26.7368C16.1586 26.7304 16.1618 26.7225 16.1665 26.7161C16.3424 26.5988 16.5418 26.6178 16.7365 26.6178C20.0593 26.6146 23.3806 26.6146 26.7034 26.6178C26.9091 26.6178 27.1242 26.5893 27.3001 26.7431H27.3016V26.7447C27.3001 26.7447 27.3001 26.7447 27.2985 26.7447H27.2875C27.2922 26.7479 27.2969 26.751 27.3001 26.7542H27.3016V26.7526C27.3079 26.7479 27.3126 26.7479 27.3189 26.7447C27.3488 26.7272 27.3786 26.7193 27.4116 26.7304C27.4194 26.7336 27.4273 26.7383 27.4351 26.7431C27.4414 26.7463 27.4493 26.7494 27.4555 26.7542L27.4634 26.7574C28.0491 26.7558 28.6364 26.7542 29.2222 26.7574C29.3415 26.759 29.4765 26.7193 29.5739 26.8303C29.5755 26.8319 29.577 26.8335 29.577 26.8351C29.5786 26.8383 29.5818 26.8398 29.5833 26.8414C31.664 25.5204 32.4743 22.8973 31.5211 20.5756ZM16.0471 19.2435C16.0471 19.3925 16.0471 19.5416 16.0487 19.6891C16.0487 19.8921 16.0487 20.0443 16.0613 20.1585C16.0723 19.8318 16.0958 19.5051 16.0942 19.1784C16.0958 19.5083 16.0723 19.8398 16.0613 20.1696C16.0487 20.0554 16.0487 19.9032 16.0487 19.7002C16.0487 19.548 16.0471 19.3957 16.0471 19.2435Z" fill="#F06977"/>
<path d="M4.70136 26.9084C4.70136 26.91 4.69971 26.91 4.69971 26.91H4.71291C4.70961 26.9084 4.70631 26.9067 4.70466 26.905C4.70466 26.9067 4.70301 26.9084 4.70136 26.9084Z" fill="#F06977"/>
<path d="M4.84131 16.6879C4.84333 16.6879 4.84333 16.6859 4.84535 16.6859C4.84535 16.6859 4.84333 16.6859 4.84333 16.6838C4.84333 16.6859 4.84131 16.6859 4.84131 16.6879Z" fill="#F06977"/>
<path d="M4.69703 16.7537C4.69373 16.757 4.69208 16.762 4.69043 16.7653L4.69208 16.7637L4.69703 16.762C4.69868 16.762 4.69868 16.7603 4.70033 16.7603C4.70199 16.7587 4.70199 16.757 4.70364 16.7553C4.70199 16.7553 4.70033 16.7537 4.69868 16.7537C4.69868 16.7537 4.69868 16.7537 4.69703 16.7537Z" fill="#F06977"/>
<path d="M16.8476 23.5366C19.8029 23.5397 22.7567 23.5397 25.7121 23.5381C26.0512 23.5381 26.392 23.5508 26.7312 23.5286C26.9055 23.5159 27.0798 23.4953 27.2086 23.378C27.2447 23.3447 27.2777 23.3034 27.3059 23.2527C27.2777 23.267 27.2494 23.2796 27.2211 23.2923C26.995 23.3875 26.7579 23.4144 26.5098 23.4129C23.0629 23.4097 19.6145 23.4097 16.1676 23.4097C16.1645 23.4129 16.1613 23.416 16.1582 23.4192C16.1598 23.424 16.1598 23.4271 16.1613 23.4319C16.3733 23.5762 16.6152 23.5366 16.8476 23.5366Z" fill="#F06977"/>
<path d="M16.1629 26.7416H27.2918H27.3028C27.3044 26.7416 27.3044 26.7416 27.3059 26.7416V26.74H27.3044C27.1285 26.5861 26.9133 26.6147 26.7076 26.6147C23.3848 26.6115 20.0636 26.6115 16.7408 26.6147C16.5461 26.6147 16.3466 26.5957 16.1708 26.713C16.1661 26.7194 16.1629 26.7273 16.1598 26.7336C16.1598 26.7352 16.1582 26.7352 16.1582 26.7368L16.1629 26.7416Z" fill="#F06977"/>
<path d="M4.69352 28.4053V28.3751C4.61814 28.3085 4.51607 28.2832 4.43599 28.2261C4.18316 28.0484 4.05283 27.7963 4.05283 27.4886C4.0544 27.1794 4.2821 27.0731 4.53178 27.0002C4.59616 26.9811 4.65426 26.9542 4.69823 26.9114V26.9003V26.8987H4.69509C4.17374 26.9383 3.96803 27.0842 3.92563 27.4442C3.92249 27.4728 3.92092 27.4997 3.92249 27.5283C3.92877 27.9263 4.27581 28.3339 4.69352 28.4053Z" fill="#D9596B"/>
<path d="M4.69824 26.9114C4.69981 26.9114 4.69981 26.9098 4.69981 26.9098L4.70138 26.9082C4.70295 26.9082 4.70452 26.9066 4.70452 26.905C4.70766 26.9066 4.7108 26.9082 4.71238 26.9098C4.72651 26.9161 4.73907 26.9241 4.75477 26.9336C4.79089 26.9383 4.8223 26.932 4.84742 26.9193V26.8987H4.7108H4.69824V26.9003V26.9114Z" fill="#DA7385"/>
<path d="M4.6965 28.486H4.77031H4.85039V28.4844C4.82213 28.4638 4.79229 28.4559 4.75931 28.4606C4.75931 28.4559 4.75617 28.4511 4.7546 28.4464C4.7389 28.421 4.72163 28.3988 4.70121 28.3813C4.69964 28.3782 4.6965 28.3766 4.69336 28.375V28.4051C4.69493 28.4321 4.69493 28.4591 4.6965 28.486Z" fill="#DA7385"/>
<path d="M4.85752 28.4797C4.85579 28.4815 4.85232 28.4832 4.85059 28.485L4.85752 28.4832C4.85752 28.4815 4.85752 28.4815 4.85752 28.4797Z" fill="#DA7385"/>
<path d="M4.85749 23.646H4.85547V23.648L4.85749 23.646Z" fill="#F06977"/>
<path d="M5.19926 23.6602C5.64367 23.5143 6.10063 23.5381 6.55759 23.5381C9.48311 23.5381 12.407 23.5397 15.331 23.5365C15.5618 23.5349 15.8005 23.5761 16.0062 23.4255C16.0015 23.4207 15.9968 23.4144 15.9921 23.4096C12.7258 23.4112 9.45798 23.416 6.19014 23.4049C5.72532 23.4017 5.28877 23.4921 4.8585 23.6443L4.85693 23.6459C4.97 23.7062 5.08777 23.6983 5.19926 23.6602Z" fill="#F06977"/>
<path d="M4.84717 26.9191C4.84874 26.9175 4.85188 26.9159 4.85345 26.9159C4.87543 26.9017 4.89271 26.8826 4.90841 26.8589C5.15338 27.0111 5.43133 26.9635 5.68886 26.9318C6.28872 26.8589 6.88859 26.87 7.49002 26.87C10.0905 26.8684 12.6909 26.87 15.2914 26.8684C15.5128 26.8668 15.7374 26.8922 15.9509 26.8065C15.9682 26.7986 15.9839 26.7875 15.9965 26.7748V26.7415C12.3062 26.7748 8.61594 26.6622 4.92725 26.8192C4.9037 26.8208 4.87857 26.8208 4.85502 26.8224C4.85345 26.8478 4.85031 26.8731 4.84717 26.8985V26.9191Z" fill="#D9596B"/>
<path d="M16.003 28.3243C15.9983 28.3212 15.992 28.3196 15.9873 28.3164C15.9873 28.3164 15.9936 28.3196 16.003 28.3243Z" fill="#D9596B"/>
<path d="M15.9056 28.4844H15.9967L15.601 28.4004L15.7455 28.3686C15.6198 28.3464 15.4863 28.3607 15.3592 28.3607C12.0693 28.3575 8.77792 28.3575 5.48653 28.3591C5.29181 28.3591 5.09238 28.3385 4.90865 28.4337C4.89295 28.4479 4.87724 28.4622 4.85997 28.4781C4.85997 28.4781 4.85997 28.4781 4.8584 28.4797C4.8584 28.4812 4.8584 28.4812 4.8584 28.4828C8.53924 28.4828 12.2216 28.4828 15.9056 28.4844Z" fill="#D9596B"/>
<path d="M4.69342 18.1762L4.69656 18.1778V18.1762V18.1746C4.35894 17.702 4.36836 17.2326 4.69027 16.7648C4.69342 16.7616 4.69499 16.7568 4.69656 16.7537C4.69656 16.7521 4.69656 16.7521 4.69656 16.7505L4.69184 16.7521C4.42332 16.936 4.29141 17.2025 4.29298 17.4689C4.29612 17.7321 4.42803 17.9954 4.69342 18.1762Z" fill="#D9596C"/>
<path d="M16.005 18.3371V18.3237L15.9951 18.3337L16.005 18.3371Z" fill="#F06977"/>
<path d="M4.90555 20.9088C5.67029 21.4051 6.50414 21.67 7.42278 21.6684C10.2792 21.6636 13.1356 21.6668 15.992 21.6684C15.9936 21.6668 15.9967 21.6636 15.9983 21.6621C15.9999 21.6589 16.003 21.6573 16.0046 21.6541C15.802 21.5035 15.5649 21.5463 15.3388 21.5463C12.743 21.5431 10.1473 21.5399 7.55154 21.5463C6.76638 21.5495 6.02519 21.3893 5.32796 21.0198C5.18978 20.9452 5.05473 20.839 4.88199 20.8723C4.87885 20.8691 4.87571 20.8644 4.87414 20.8612H4.87257C4.86629 20.8517 4.85844 20.8437 4.85059 20.8374C4.85216 20.8485 4.85216 20.8596 4.8553 20.8707V20.877C4.87257 20.8882 4.88827 20.8993 4.90555 20.9088Z" fill="#F06977"/>
<path d="M4.69835 16.7536C4.69992 16.7536 4.70149 16.7552 4.70306 16.7552C4.71562 16.76 4.72818 16.7647 4.74075 16.7695C4.78943 16.7584 4.82397 16.7298 4.84125 16.687C4.84125 16.6854 4.84282 16.6854 4.84282 16.6838C4.84282 16.6838 4.84439 16.6838 4.84439 16.6854C4.84753 16.6886 4.85067 16.6918 4.85538 16.6933V16.6727L4.8491 16.6711C4.84439 16.6727 4.84125 16.6759 4.83654 16.6775C4.78943 16.7013 4.74546 16.7251 4.69992 16.7489C4.69835 16.7489 4.69835 16.7504 4.69678 16.7504C4.69678 16.752 4.69678 16.752 4.69678 16.7536C4.69835 16.7536 4.69835 16.7536 4.69835 16.7536Z" fill="#D97588"/>
<path d="M4.69992 18.1793C4.7486 18.2063 4.79885 18.2301 4.84753 18.257L4.85695 18.2554V18.2253C4.83183 18.1999 4.80042 18.1809 4.7643 18.1682C4.74232 18.1714 4.71876 18.173 4.69678 18.1761V18.1777C4.69835 18.1777 4.69835 18.1793 4.69992 18.1793Z" fill="#D97588"/>
<path d="M26.7424 18.2097C23.3976 18.2065 20.0528 18.2065 16.708 18.2097C16.5164 18.2097 16.3202 18.1922 16.1553 18.3238C16.1584 18.327 16.1616 18.3302 16.1647 18.3334H27.303C27.1397 18.1875 26.9371 18.2097 26.7424 18.2097Z" fill="#D9596B"/>
<path d="M16.16 16.6111C16.3202 16.73 16.507 16.7189 16.6876 16.7189C20.0528 16.7221 23.418 16.7221 26.7832 16.7189C26.9575 16.7189 27.1397 16.73 27.2889 16.6063C27.2936 16.6016 27.2983 16.6 27.303 16.5952H16.1647L16.1568 16.6031L16.1553 16.6047C16.1553 16.6063 16.1584 16.6095 16.16 16.6111Z" fill="#D9596B"/>
<path d="M27.2684 17.5848C27.1758 17.8195 27.1789 18.0558 27.2653 18.2905C27.2778 18.3032 27.292 18.3175 27.303 18.3286V17.5547C27.2904 17.5642 27.2794 17.5753 27.2684 17.5848Z" fill="#D9596B"/>
<path d="M4.85693 18.2556C4.86793 18.2588 4.87892 18.2604 4.88991 18.2636C5.04223 18.3 5.18984 18.3397 5.35316 18.3397C8.90052 18.3333 12.4479 18.3349 15.9952 18.3333L16.0047 18.3238C15.7974 18.17 15.5555 18.2112 15.3263 18.2112C12.1542 18.2081 8.98374 18.2081 5.81169 18.2128C5.51176 18.2128 5.21183 18.1652 4.91347 18.2144C4.89933 18.2239 4.8852 18.2334 4.87107 18.2414C4.87107 18.2398 4.8695 18.2366 4.86479 18.235V18.2334C4.86321 18.2303 4.86007 18.2271 4.85693 18.2255V18.2556Z" fill="#D9596B"/>
<path d="M11.6564 16.6824C13.0116 16.7586 14.3684 16.711 15.7267 16.7046C15.8272 16.7046 15.9246 16.6761 16.0047 16.6063V16.6047C16.0015 16.6016 15.9984 16.5984 15.9952 16.5952C14.505 16.5936 13.0163 16.5936 11.5261 16.592C11.5245 16.592 11.5245 16.592 11.5229 16.592C11.5245 16.5952 11.5292 16.6 11.5308 16.6031C11.5544 16.6333 11.592 16.6602 11.6564 16.6824Z" fill="#D9596B"/>
<path d="M4.85547 16.6935C4.85704 16.6967 4.86018 16.6983 4.86332 16.6983C4.87745 16.7109 4.89473 16.7173 4.912 16.7236C6.10859 16.7109 7.30517 16.7189 8.50019 16.7141C8.79855 16.7125 9.09848 16.7474 9.3937 16.6697C9.43453 16.6491 9.4628 16.6269 9.48321 16.6031C9.48635 16.5999 9.49106 16.5952 9.4942 16.592H9.48635C8.14687 16.592 6.80738 16.5952 5.46947 16.5904C5.25904 16.5888 5.0549 16.6079 4.85547 16.6729V16.6935Z" fill="#D9596B"/>
<path d="M16.0486 13.287L16.0502 13.2886C16.0675 13.3282 16.0816 13.3679 16.091 13.4075C16.0989 13.3663 16.1115 13.3266 16.1334 13.2886H16.135C16.1413 13.287 16.146 13.2838 16.1523 13.2806V13.2632H16.0314H16.0078C16.0219 13.2743 16.0345 13.2806 16.0486 13.287Z" fill="#F06977"/>
<path d="M16.0547 18.5791C16.0626 18.4934 16.083 18.411 16.1411 18.3364H16.0107C16.028 18.4173 16.0437 18.4982 16.0547 18.5791Z" fill="#F06977"/>
<path d="M16.0078 23.4271C16.0204 23.4398 16.0314 23.4525 16.0439 23.4652C16.0471 23.527 16.0518 23.5889 16.0534 23.6507C16.0628 23.5873 16.0785 23.5223 16.113 23.4636C16.1256 23.4493 16.1381 23.4366 16.1523 23.4255V23.4097H16.0157H16.0078V23.4239C16.0078 23.4255 16.0078 23.4255 16.0078 23.4271Z" fill="#F06977"/>
<path d="M11.4459 16.5935H11.2056H9.86145H9.6416C10.243 16.8615 10.8445 16.8235 11.4459 16.5935Z" fill="#CF6076"/>
<path d="M16.7867 28.7272C16.7835 28.724 16.7662 28.7129 16.727 28.6907C16.7066 28.678 16.6846 28.6669 16.6626 28.6558C16.6171 28.6336 16.57 28.613 16.5244 28.5972C16.6752 28.6749 16.7961 28.7351 16.7867 28.7272Z" fill="#D9596B"/>
<path d="M4.34661 2.24292H4.30892H4.2304L4.22569 3.32449V3.46246L4.22412 3.68131C4.24768 4.14598 4.2885 4.57575 4.3419 4.97381C4.37173 5.20059 4.40628 5.41944 4.44554 5.62719C4.58216 6.35828 4.76274 6.96568 4.9606 7.4684C5.1616 7.97747 5.37831 8.3787 5.58245 8.68794C6.02842 9.3667 6.41158 9.61093 6.41158 9.61093V9.60776L4.34661 2.24292Z" fill="#D9596B"/>
</g>
<defs>
<clipPath id="clip0_27_6049">
<rect width="31.8367" height="39" fill="white" transform="translate(0.081543 0.5)"/>
</clipPath>
</defs>
</svg>
