<svg width="58" height="40" viewBox="0 0 58 40" fill="none" xmlns="http://www.w3.org/2000/svg">
<g clip-path="url(#clip0_27_6589)">
<path d="M42.6079 28.0287C40.5362 29.9753 38.1367 31.3683 35.4535 32.3107C34.4584 32.6607 33.4237 32.878 32.389 33.0907C32.289 33.1113 32.1984 33.0724 32.1309 32.9924C31.1707 33.3469 30.2592 33.841 29.2292 34.0034C29.1106 34.04 28.992 34.0766 28.8735 34.1155C28.4852 34.1887 28.0969 34.2619 27.7086 34.3374C26.9483 34.5409 26.1717 34.6119 25.3835 34.5592C19.9985 34.4838 15.7645 32.3016 12.7535 27.8801C12.7419 27.8641 12.7326 27.848 12.7233 27.8297C12.221 27.0154 12.2234 27.02 12.8884 26.3429C13.0465 26.1805 13.1697 25.9838 13.3092 25.8031C13.0325 25.3777 12.6489 25.0163 12.4838 24.5222C12.328 24.4444 12.2094 24.33 12.135 24.1768C11.5723 23.2801 10.919 22.4567 10.1052 21.7636C9.97964 21.9603 9.85176 22.157 9.72388 22.3537C9.35186 23.12 8.74734 23.5775 7.8731 23.5981C7.03141 23.6164 6.47338 23.1383 6.06416 22.4635C5.7433 21.9351 5.54334 21.3679 5.51776 20.748C5.51079 20.6725 5.50381 20.5947 5.49684 20.5192C5.2899 19.6935 5.52474 18.9043 5.72005 18.1129C5.16667 17.692 4.95974 17.0584 4.70398 16.466C4.32033 15.5716 4.17618 14.6269 4.22965 13.6548C4.13898 13.6891 4.04132 13.7051 3.96459 13.7554C1.95105 15.0249 0.751294 16.8571 0.539709 19.1674C0.258371 22.2508 1.5116 24.6663 4.23663 26.2995C5.76888 27.2167 7.11279 28.3215 8.10561 29.8289C9.28211 31.6154 10.5818 33.3126 12.2513 34.6988C12.3443 34.7948 12.3629 34.939 12.4629 35.0304C13.3348 35.7761 14.2788 36.4212 15.2879 36.9724C15.4622 37.0937 15.6738 37.1188 15.8598 37.2126C16.1063 37.3178 16.3597 37.4116 16.6015 37.526C19.2824 38.7955 22.1167 39.4337 25.0859 39.4977C26.3972 39.5252 27.6946 39.3353 28.992 39.1615C29.0688 39.1592 29.1455 39.1569 29.2222 39.1546C30.3034 38.7635 31.4613 38.6216 32.5146 38.1413C33.2307 37.8142 33.9608 37.5214 34.6862 37.2126C34.849 37.1074 35.0536 37.1303 35.221 37.0342C38.811 34.9504 41.5337 32.0774 43.3356 28.3741C43.5426 27.9441 43.8472 27.5278 43.8146 27.0109C43.796 27.02 43.7774 27.0292 43.7565 27.036C43.2868 27.267 42.9706 27.6879 42.6079 28.0287Z" fill="#DBD7E5"/>
<path d="M10.3914 20.5313C10.3937 20.5266 10.3984 20.5242 10.4007 20.5219L10.3682 20.5078C10.3751 20.5149 10.3821 20.5219 10.3914 20.5313Z" fill="#EDEBF1"/>
<path d="M4.70382 16.466C4.95958 17.0584 5.16652 17.692 5.71989 18.1129C5.7292 18.0923 5.74082 18.0717 5.75012 18.0511C4.91541 16.8526 4.39226 15.5465 4.37831 14.0711C4.37598 13.9178 4.35041 13.7692 4.2295 13.6548C4.17602 14.6269 4.32018 15.5716 4.70382 16.466Z" fill="#EDEBF1"/>
<path d="M53.852 21.1873C49.6715 21.1873 45.4909 21.1827 41.3104 21.1804C41.2848 21.201 41.2546 21.2101 41.2197 21.2124C40.2199 22.0862 39.8432 23.2779 39.4549 24.4788C38.4714 27.5256 36.6671 29.996 33.9909 31.8328C33.4585 32.2742 32.8191 32.5464 32.2425 32.9193H32.2401C32.2029 32.9422 32.1681 32.9673 32.1309 32.9925C32.1983 33.0725 32.289 33.1114 32.3889 33.0908C33.4236 32.8781 34.4583 32.6608 35.4534 32.3109C38.1366 31.3684 40.5361 29.9754 42.6078 28.0289C42.9705 27.688 43.2867 27.2672 43.7564 27.0361C43.7773 27.0293 43.7959 27.0201 43.8145 27.011C44.1726 26.8394 44.1238 26.446 44.2307 26.1532C44.6213 25.0667 44.6074 25.0621 45.7188 24.9935C45.8141 24.9729 45.8932 24.9226 45.9652 24.8631H46.4303C49.9156 24.8631 53.3986 24.8562 56.884 24.87C57.3234 24.8723 57.5048 24.7785 57.4862 24.305C57.442 23.2574 57.4583 22.2097 57.4513 21.1621C56.2515 21.1713 55.0518 21.1873 53.852 21.1873Z" fill="#EDEBF1"/>
<path d="M5.75011 18.0513C6.0361 17.4703 6.36627 16.9236 6.98009 16.6079C7.66368 15.9697 8.8053 16.3037 9.43076 17.038C10.105 17.8294 10.391 18.7558 10.391 19.7783C10.391 20.0253 10.398 20.2723 10.4003 20.5217C10.398 20.5239 10.3934 20.5262 10.391 20.5308C10.4329 20.5697 10.484 20.604 10.5515 20.6337C10.5701 20.6383 10.5863 20.6406 10.6049 20.6429C10.5724 20.6429 10.5375 20.6452 10.505 20.6475C10.4608 20.6543 10.4189 20.668 10.384 20.6863C10.3864 20.7069 10.3887 20.7252 10.391 20.7458C10.3585 20.7893 10.3236 20.835 10.2887 20.8785C10.305 21.1736 10.1818 21.4458 10.1143 21.7271C10.1213 21.7225 10.1283 21.7202 10.1353 21.718C10.777 22.029 11.1351 22.6238 11.5792 23.1293C11.8233 23.4083 12.0093 23.7354 12.2116 24.0488C12.2162 24.0557 12.2209 24.0648 12.2255 24.0717C12.2395 24.0946 12.2534 24.1197 12.272 24.1403C12.2999 24.122 12.3162 24.0991 12.3302 24.0717C12.3348 24.138 12.3488 24.2021 12.3674 24.2661C12.3674 24.2684 12.3697 24.2684 12.3697 24.2684C12.4069 24.3141 12.4464 24.3599 12.4836 24.4056C12.5138 24.44 12.5417 24.4766 12.5697 24.5132C12.7905 24.934 13.1742 25.2588 13.3369 25.7163C13.3532 25.6546 13.3648 25.5882 13.4067 25.5356C14.4158 24.2249 14.8715 22.6992 15.1645 21.1095C15.1738 21.0546 15.2017 21.002 15.2249 20.9494C15.2389 20.9151 15.2551 20.8831 15.2738 20.8533C15.2761 20.851 15.2761 20.851 15.2738 20.8488V20.8465C15.2738 20.8122 15.2714 20.7801 15.2691 20.7458C15.2691 20.739 15.2691 20.7298 15.2714 20.7229C15.2714 20.6543 15.2761 20.5857 15.2807 20.5171C15.2668 20.4988 15.2551 20.4805 15.2458 20.4645C15.2063 20.3913 15.2203 20.3387 15.2807 20.3021C15.1668 19.9155 15.1854 19.5061 15.1482 19.1126C14.9459 17.0219 14.2182 15.1646 12.7533 13.6137C12.7185 13.5771 12.6882 13.5383 12.6627 13.4971C12.6255 13.4422 12.5976 13.385 12.5813 13.3209C12.5348 13.2432 12.4836 13.17 12.4232 13.1082C12.372 13.0579 12.3162 13.0144 12.2465 12.9847V12.836C12.3232 12.7766 12.379 12.7034 12.4208 12.6256C12.4185 12.4838 12.4185 12.3419 12.4185 12.2001C12.4766 12.2505 12.5278 12.2779 12.5697 12.2893C12.5697 12.287 12.572 12.2848 12.572 12.2825C14.4646 9.33632 17.0246 7.20904 20.4122 6.09966C20.5936 6.04019 20.7843 6.00588 20.9703 5.95784C22.8141 5.30822 24.716 5.18928 26.6458 5.36541C27.3411 5.42717 28.0316 5.5484 28.7222 5.64676C28.7338 5.64904 28.7431 5.64904 28.7547 5.65133C28.8314 5.69479 28.9082 5.73596 28.9849 5.77942C29.0291 5.77714 29.0756 5.77714 29.1198 5.77485C29.1546 5.77485 29.1872 5.77256 29.2221 5.77256C29.2267 5.8023 29.229 5.83203 29.229 5.86177C30.5962 6.11796 31.8239 6.71039 33.0027 7.40576C36.2462 9.3203 38.4016 12.0766 39.4874 15.6358C39.8362 16.7795 40.2919 17.8523 41.1964 18.6872L41.201 18.6895C41.2033 18.6895 41.2033 18.6895 41.2057 18.6895C41.215 18.6734 41.2266 18.6597 41.2405 18.646C41.3894 18.5385 41.5614 18.5156 41.7358 18.5156C43.0448 18.5202 44.3562 18.4699 45.6652 18.5408C45.6885 18.5453 45.7117 18.5499 45.7327 18.5568C45.7443 18.5591 45.7559 18.5636 45.7652 18.5682C45.7861 18.4927 45.8024 18.415 45.814 18.3372C45.8187 18.4424 45.835 18.5453 45.8908 18.6323C45.9163 18.6483 45.9419 18.6666 45.9652 18.6872C49.5458 18.6917 53.1265 18.6963 56.7072 18.7032C56.9327 18.7055 57.1722 18.6414 57.3838 18.7855C57.414 18.7855 57.4442 18.7901 57.4744 18.8015V15.7822C57.4744 15.0273 57.4744 15.0273 56.6816 15.0273H45.7327C45.628 14.9336 45.5025 14.8741 45.3653 14.8855C44.4678 14.961 44.491 14.579 44.319 13.9774C44.2423 13.7098 44.2423 13.3827 43.9051 13.2706C44.0376 13.0831 43.9237 12.9024 43.8516 12.7262C43.6633 12.2482 43.4633 11.7724 43.2378 11.308C42.0915 8.93602 40.4872 6.90025 38.4969 5.16183C38.1551 4.86447 37.8389 4.50535 37.3623 4.39098C37.246 4.3155 37.1298 4.23772 37.0135 4.16224C36.86 4.14394 36.7066 4.1325 36.5531 4.12564C36.6066 4.09362 36.6485 4.03643 36.6647 3.9335C35.5719 3.23356 34.4629 2.55192 33.2422 2.08529C32.0122 1.6118 30.7845 1.12459 29.4569 0.959894C29.2197 0.898134 29.1453 0.978193 29.1221 1.09485C29.1012 1.00564 29.0616 0.921008 28.9919 0.845524C28.8966 0.843237 28.8105 0.82265 28.7594 0.731155C27.9549 0.655671 27.155 0.527577 26.3506 0.513852C24.8857 0.486404 23.4256 0.479542 21.9631 0.715143C18.959 1.20007 16.2224 2.28429 13.7624 4.04787H13.6462C13.6066 4.08676 13.5694 4.12335 13.5299 4.16224C13.144 4.46875 12.7557 4.77297 12.3674 5.0772V5.37227C12.3418 5.31051 12.3046 5.24875 12.2511 5.19157C10.9863 6.23919 9.93298 7.47209 9.01689 8.81937C8.35191 9.79837 7.68925 10.7842 6.88011 11.6489C6.12213 12.4563 5.17581 13.0648 4.22949 13.6549C4.3504 13.7693 4.37597 13.918 4.3783 14.0712C4.39225 15.5466 4.9154 16.8527 5.75011 18.0513Z" fill="#EDEBF1"/>
<path d="M56.7072 18.7031C53.1265 18.6962 49.5459 18.6916 45.9652 18.6871H45.7327C44.2237 18.6871 42.7147 18.6894 41.2057 18.6894C41.2034 18.6916 41.2034 18.6939 41.2011 18.6962V18.6894L41.1964 18.6871H41.0058C39.6363 18.6894 38.2668 18.6916 36.8973 18.6939C36.7252 18.5407 36.5625 18.3783 36.3811 18.2365C35.9022 17.8545 35.6255 17.5205 36.1928 16.9189C36.6299 16.4569 36.4881 15.8141 36.0556 15.4275C35.5557 14.9815 34.8745 14.9266 34.3932 15.4047C33.9886 15.805 33.7375 15.6471 33.4399 15.3383C32.7493 14.6224 32.0727 13.8904 31.3589 13.1973C30.5939 12.4516 30.0406 12.4402 29.2361 13.0898H29.2337C29.2291 13.1264 29.2221 13.163 29.2175 13.1973C29.171 13.2454 29.1268 13.2911 29.0826 13.3369C29.0547 13.3666 29.0268 13.394 28.9966 13.4238V13.4261C28.9966 13.6937 28.9966 13.9613 28.9989 14.2289C29.0268 14.2587 29.0547 14.2884 29.0826 14.3182C29.0942 14.3273 29.1035 14.3387 29.1128 14.3479C29.1384 14.3753 29.164 14.4028 29.1919 14.4302C29.1919 14.4302 29.1919 14.4325 29.1942 14.4325C29.2012 14.4394 29.2082 14.4485 29.2151 14.4554C29.2198 14.492 29.2268 14.5309 29.2314 14.5675C29.6709 15.0204 30.094 15.4939 30.5591 15.9216C30.8497 16.1869 30.9032 16.4317 30.6056 16.6787C30.1336 17.0676 29.7662 17.5685 29.243 17.9002C29.2337 17.9368 29.2268 17.9711 29.2175 18.0054C29.2244 18.838 29.2314 19.6729 29.2384 20.5078C29.2128 20.4964 29.1849 20.4872 29.1593 20.4758C29.1593 20.4827 29.1617 20.4918 29.164 20.4987C29.3151 20.6451 30.2754 20.2013 30.9869 19.753C31.4542 19.2932 31.8727 18.7786 32.3819 18.3645C32.6447 18.1518 32.7935 18.0237 33.0655 18.3691C33.319 18.6916 33.6724 18.9364 33.9816 19.2155C34.6466 19.8125 34.6536 19.8582 34.1234 20.5055C34.1165 20.5078 34.1072 20.5078 34.1002 20.5078V20.5101C34.0653 20.5147 34.0304 20.5193 33.9932 20.5238C33.977 20.5536 33.9607 20.581 33.9467 20.6108C33.9444 20.6153 33.9421 20.6176 33.9398 20.6222C33.9188 20.6611 33.8979 20.7 33.877 20.7389C35.386 20.7389 36.8973 20.7366 38.4063 20.7366V20.7343C38.4063 20.7343 38.4063 20.7343 38.4063 20.7366C40.1106 20.7366 41.8149 20.7366 43.5192 20.7389C44.1354 20.7411 44.7515 20.7411 45.3677 20.748C45.4932 20.7503 45.6792 20.7114 45.6909 20.8944C45.6955 20.9699 45.6769 21.0156 45.6444 21.0431C45.5769 21.1048 45.4444 21.0774 45.3514 21.0774C44.0051 21.0843 42.6589 21.0865 41.3104 21.0888C41.3104 21.1186 41.308 21.1483 41.308 21.1803C45.4886 21.1826 49.6691 21.1872 53.8497 21.1872C55.0494 21.1872 56.2492 21.1712 57.4489 21.162C57.4489 21.1369 57.4489 21.1117 57.4443 21.0843C57.507 20.9767 57.514 20.8624 57.4745 20.7457C57.4722 20.6679 57.4698 20.5925 57.4675 20.5147C57.4675 20.5147 57.4675 20.5147 57.4652 20.5147C57.4675 19.9428 57.4675 19.3733 57.4698 18.8014C57.4396 18.79 57.4094 18.7854 57.3792 18.7854C57.1722 18.6413 56.9327 18.7054 56.7072 18.7031Z" fill="#C34861"/>
<path d="M45.733 18.5567C45.7121 18.5498 45.6889 18.5453 45.6656 18.5407C44.3566 18.4698 43.0452 18.5201 41.7362 18.5155C41.5618 18.5155 41.3897 18.5384 41.2409 18.6459C41.227 18.6596 41.2154 18.6733 41.2061 18.6894C42.715 18.6894 44.224 18.6871 45.733 18.6871V18.5567Z" fill="#EDEBF1"/>
<path d="M29.4572 0.95977C29.3363 0.792791 29.1526 0.861413 28.9922 0.845401C29.0619 0.920885 29.1015 1.00552 29.1224 1.09473C29.1456 0.97807 29.22 0.898011 29.4572 0.95977Z" fill="#E8E7EF"/>
<path d="M36.5532 4.12573C36.7067 4.1326 36.8601 4.14403 37.0136 4.16233C36.8973 4.08685 36.7811 4.01137 36.6648 3.93359C36.6486 4.03653 36.6067 4.09371 36.5532 4.12573Z" fill="#E8E7EF"/>
<path d="M12.3677 5.07715C12.3282 5.11603 12.291 5.15492 12.2515 5.19152C12.3049 5.2487 12.3421 5.31046 12.3677 5.37222V5.07715Z" fill="#E9E8F0"/>
<path d="M12.4185 12.2002C12.4185 12.342 12.4185 12.4838 12.4208 12.6256C12.4812 12.5181 12.5208 12.4015 12.5696 12.2894C12.5277 12.278 12.4766 12.2505 12.4185 12.2002Z" fill="#E9E8F0"/>
<path d="M25.0881 33.411C24.8858 32.5487 24.344 31.8762 23.8255 31.1991C23.6465 30.9658 23.5186 30.7233 23.407 30.4626C22.6118 30.2819 22.005 29.7672 21.4004 29.2914C20.1844 28.3353 19.2613 27.1527 18.9289 25.6225C18.6289 24.25 18.8568 22.9233 19.4148 21.6424C19.5404 21.3496 19.6729 21.0591 19.8008 20.7663C19.7984 20.7641 19.7961 20.7618 19.7938 20.7572C18.4824 20.7526 17.1687 20.7618 15.8574 20.7366C15.5528 20.7297 15.3993 20.851 15.2877 21.0889C15.032 22.8021 14.5484 24.4239 13.3509 25.7551L13.3091 25.8032C13.1696 25.9839 13.0463 26.1806 12.8882 26.343C12.2232 27.0201 12.2209 27.0155 12.7231 27.8298C12.7324 27.8481 12.7417 27.8641 12.7534 27.8801C15.7644 32.3016 19.9984 34.4838 25.3833 34.5593C25.3601 34.5158 25.3415 34.4724 25.3229 34.4289C25.1927 34.1018 25.1671 33.7496 25.0881 33.411Z" fill="#D9596B"/>
<path d="M27.1321 31.8397C26.6601 31.0574 26.2625 30.2317 25.5324 29.621C24.6605 28.8913 23.9815 28.9851 23.4096 29.9389C23.3119 30.1013 23.3049 30.2271 23.3584 30.3621C23.3724 30.3941 23.3886 30.4284 23.4072 30.4627C23.5188 30.7235 23.6467 30.9659 23.8258 31.1993C24.3443 31.8763 24.886 32.5488 25.0883 33.4112C25.1674 33.7497 25.1929 34.102 25.3231 34.4291C25.3417 34.4725 25.3603 34.516 25.3836 34.5594C26.1718 34.612 26.9484 34.5411 27.7087 34.3376C27.711 34.2918 27.711 34.2483 27.7087 34.2049C27.6971 33.3769 27.3344 32.6266 27.1321 31.8397Z" fill="#C34761"/>
<path d="M15.288 21.0889C15.2833 21.0111 15.2787 20.931 15.274 20.8533C15.2554 20.883 15.2391 20.915 15.2252 20.9493C15.2019 21.002 15.174 21.0546 15.1647 21.1095C14.8718 22.6992 14.4161 24.2249 13.407 25.5356C13.3651 25.5882 13.3535 25.6545 13.3372 25.7163C13.1744 25.2588 12.7908 24.934 12.5699 24.5131C12.542 24.4765 12.5141 24.4399 12.4839 24.4056V24.5222C12.649 25.0163 13.0326 25.3777 13.3093 25.8032L13.3512 25.7551C14.5486 24.4239 15.0322 22.8021 15.288 21.0889Z" fill="#EDEBF1"/>
<path d="M7.13627 20.7549L7.15255 20.7388H7.13395C7.12 20.7137 7.10837 20.6908 7.09674 20.6656C7.07117 20.6199 7.04559 20.5719 7.02234 20.5261L7.01537 20.5101V20.5078C6.51082 20.5124 6.00394 20.517 5.4994 20.5192H5.49707C5.50405 20.5947 5.51102 20.6725 5.518 20.748C5.54357 21.3679 5.74586 21.9351 6.0644 22.4635C6.47362 23.1383 7.03164 23.6164 7.87333 23.5981C8.74757 23.5798 9.3521 23.1223 9.72411 22.3537C9.66599 22.3675 9.60786 22.3812 9.55206 22.3903C8.25 22.6236 7.69662 21.6835 7.13627 20.7549Z" fill="#395167"/>
<path d="M32.7911 31.9608C31.6076 32.153 30.4171 32.0295 29.2337 32.0706C29.2313 32.6745 29.229 33.2807 29.229 33.8868V34.0035C30.259 33.8411 31.1705 33.347 32.1307 32.9925C32.1679 32.9673 32.2028 32.9421 32.24 32.9193H32.2423C32.819 32.5464 33.4584 32.2742 33.9908 31.8327C33.942 31.8122 33.8955 31.7961 33.849 31.787C33.4816 31.6978 33.1398 31.9037 32.7911 31.9608Z" fill="#D9596C"/>
<path d="M11.5791 23.1293C11.135 22.6238 10.7769 22.0291 10.1352 21.718C10.1282 21.7203 10.1213 21.7226 10.1143 21.7272C10.1096 21.7386 10.1073 21.7523 10.105 21.7638C10.9188 22.4568 11.5721 23.2803 12.1348 24.177C12.1674 24.1358 12.1929 24.0923 12.2115 24.0489C12.0092 23.7355 11.8232 23.4084 11.5791 23.1293Z" fill="#EDEBF0"/>
<path d="M7.0153 20.5079C6.57353 19.4283 6.51541 18.3395 6.9037 17.2324C6.96183 17.07 7.09668 16.9053 7.04088 16.7246C7.02925 16.6857 7.01065 16.6468 6.98043 16.6079C6.3666 16.9236 6.03643 17.4703 5.75044 18.0513C5.74114 18.0718 5.72952 18.0924 5.72022 18.113C5.52491 18.9045 5.29007 19.6936 5.49701 20.5193H5.49933C6.00388 20.5148 6.50843 20.5125 7.0153 20.5079Z" fill="#3A5167"/>
<path d="M10.2891 20.8785C10.2705 20.8556 10.2519 20.835 10.2309 20.8213C10.0798 20.6932 9.88218 20.7504 9.70547 20.7481C8.87541 20.7389 8.04535 20.7412 7.21296 20.7389H7.15251L7.13623 20.7549C7.69658 21.6836 8.24996 22.6237 9.55202 22.3904C9.60782 22.3813 9.66595 22.3676 9.72407 22.3538C9.85195 22.1571 9.97984 21.9604 10.1054 21.7637C10.1077 21.7522 10.11 21.7385 10.1147 21.7271C10.1821 21.4457 10.3054 21.1735 10.2891 20.8785Z" fill="#455D72"/>
<path d="M10.3841 20.6863C10.4189 20.668 10.4608 20.6543 10.505 20.6474C10.5375 20.6451 10.5724 20.6428 10.605 20.6428C10.5864 20.6406 10.5701 20.6383 10.5515 20.6337C10.484 20.604 10.4329 20.5696 10.391 20.5308C10.3841 20.5353 10.3771 20.5422 10.3701 20.5468C10.3748 20.5925 10.3794 20.6406 10.3841 20.6863Z" fill="#E8E7EF"/>
<path d="M12.3701 24.2684C12.3701 24.2684 12.3678 24.2684 12.3678 24.2661C12.3492 24.2021 12.3352 24.138 12.3306 24.0717C12.3166 24.0992 12.3003 24.122 12.2724 24.1403C12.2538 24.1197 12.2399 24.0946 12.2259 24.0717C12.2213 24.0648 12.2166 24.0557 12.212 24.0488C12.1934 24.0923 12.1678 24.1358 12.1353 24.1769C12.2097 24.3302 12.3282 24.4445 12.484 24.5223V24.4057C12.4468 24.3599 12.4073 24.3142 12.3701 24.2684Z" fill="#E8E7EF"/>
<path d="M28.9826 32.0684C28.3944 32.1188 27.8456 31.8534 27.2667 31.8374C27.2225 31.8374 27.176 31.8374 27.1318 31.8397C27.3341 32.6266 27.6968 33.3768 27.7085 34.2049C27.7108 34.2483 27.7108 34.2918 27.7085 34.3375C28.0968 34.262 28.485 34.1888 28.8733 34.1156C28.8919 34.063 28.9082 34.0127 28.9222 33.9601C29.0942 33.3356 28.9408 32.6975 28.9826 32.0684Z" fill="#D9596B"/>
<path d="M29.2339 32.0707L29.2153 32.0684H29.2014C29.1339 32.0662 29.0688 32.0662 29.0014 32.0662L28.9898 32.0684H28.9828C28.941 32.6975 29.0944 33.3357 28.9224 33.9601C28.9084 34.0127 28.8921 34.0631 28.8735 34.1157C28.9921 34.0768 29.1107 34.0402 29.2293 34.0036V33.8869C29.2293 33.2808 29.2316 32.6746 29.2339 32.0707Z" fill="#D9596B"/>
<path d="M6.90374 17.2323C6.51544 18.3394 6.57357 19.4282 7.01534 20.5079V20.5102L7.02232 20.5262C7.04557 20.5719 7.07114 20.62 7.09672 20.6657C7.10835 20.6909 7.11997 20.7137 7.13392 20.7389H7.15252H7.21298C8.04536 20.7412 8.87543 20.7389 9.70549 20.748C9.8822 20.7503 10.0798 20.6932 10.231 20.8212C10.2519 20.835 10.2705 20.8556 10.2891 20.8784C10.324 20.835 10.3588 20.7892 10.3914 20.7458C10.3891 20.7252 10.3867 20.7069 10.3844 20.6863C10.3798 20.6405 10.3751 20.5925 10.3705 20.5468C10.3681 20.533 10.3681 20.5193 10.3658 20.5056L10.3681 20.5079L10.4007 20.5216C10.3984 20.2723 10.3914 20.0252 10.3914 19.7782C10.3914 18.7557 10.1054 17.8293 9.43113 17.0379C8.80567 16.3037 7.66405 15.9697 6.98046 16.6079C7.01069 16.6468 7.02929 16.6856 7.04092 16.7245C7.09672 16.9052 6.96186 17.0699 6.90374 17.2323Z" fill="#455D72"/>
<path d="M39.755 23.1452C39.49 23.8383 39.3202 24.5634 39.0436 25.2519C37.9833 27.8984 36.286 30.06 33.9423 31.7275C33.8167 31.5354 33.5889 31.6223 33.4168 31.6612C32.2938 31.9242 31.1521 31.9014 30.0128 31.8968C29.7385 31.8968 29.4525 31.8648 29.2177 32.0569H29.2153V32.0684L29.2339 32.0706C30.4174 32.0295 31.6079 32.153 32.7913 31.9608C33.1401 31.9037 33.4819 31.6978 33.8493 31.787C33.8958 31.7962 33.9423 31.8122 33.9911 31.8328C36.6673 29.996 38.4716 27.5256 39.4551 24.4788C39.8434 23.2779 40.2201 22.0862 41.2199 21.2124H41.1013C40.4154 21.6859 40.0434 22.3881 39.755 23.1452Z" fill="#F06977"/>
<path d="M41.3083 21.0888H41.0479C39.8644 21.0888 38.6809 21.0842 37.4998 21.0934C37.2952 21.0934 37.0696 21.0156 36.8999 21.2032C38.2996 21.2055 39.7017 21.2077 41.1014 21.2123H41.22C41.2548 21.21 41.2851 21.2009 41.3106 21.1803C41.3106 21.1483 41.313 21.1185 41.313 21.0888C41.3106 21.0888 41.3106 21.0888 41.3083 21.0888Z" fill="#C6576B"/>
<path d="M45.9654 18.6871C45.9422 18.6665 45.9166 18.6482 45.891 18.6322C45.8352 18.5453 45.8189 18.4424 45.8143 18.3372C45.8027 18.4149 45.7864 18.4927 45.7655 18.5682C45.7562 18.5636 45.7445 18.559 45.7329 18.5567V18.6871H45.9654Z" fill="#E8E6EF"/>
<path d="M30.3013 24.0923C29.9804 24.3507 29.5689 24.4171 29.2247 24.6252L29.2154 24.6321H29.155C29.1248 24.6321 29.0945 24.6321 29.0643 24.6344C29.0434 24.6321 29.0225 24.6344 29.0015 24.6344L28.9736 24.6572V24.7373C28.976 25.5333 28.9806 26.3316 28.9829 27.1253V27.1459L29.0039 27.1597H29.0341C29.0597 27.1574 29.0829 27.1574 29.1085 27.1574C29.1457 27.1551 29.1806 27.1551 29.2178 27.1528C29.2224 27.1185 29.2271 27.0842 29.2271 27.0521C29.2294 27.0476 29.2294 27.043 29.2294 27.0384H29.248C29.5386 27.0613 29.7967 26.9698 30.0664 26.86C30.9197 26.5077 30.9221 26.5192 31.3429 27.3106C31.4313 27.4776 31.5382 27.6377 31.6429 27.7978C32.0753 28.4429 32.6775 28.6487 33.2611 28.3537C33.8238 28.0677 34.0772 27.3221 33.7982 26.677C33.6169 26.2584 33.396 25.8536 33.1821 25.451C33.0612 25.2245 33.0402 25.0438 33.2449 24.8402C34.4702 23.6325 35.6816 22.4156 36.8999 21.2033C37.0697 21.0157 37.2952 21.0935 37.4998 21.0935C38.681 21.0843 39.8644 21.0889 41.0479 21.0889H41.3083C41.3106 21.0889 41.3107 21.0889 41.313 21.0889C42.6615 21.0866 44.0078 21.0843 45.354 21.0775C45.447 21.0775 45.5795 21.1049 45.647 21.0432C45.6795 21.0157 45.6981 20.97 45.6935 20.8945C45.6819 20.7115 45.4958 20.7504 45.3703 20.7481C44.7541 20.7412 44.138 20.7412 43.5218 20.739C41.8175 20.739 40.1132 20.739 38.4089 20.7367C38.4089 20.7367 38.4089 20.7367 38.4089 20.7344V20.7367C36.8999 20.7367 35.3886 20.739 33.8796 20.739C33.8424 20.7481 33.8075 20.755 33.7727 20.7595C32.638 21.8964 31.5615 23.0858 30.3013 24.0923Z" fill="#C34761"/>
<path d="M29.7336 6.09742C33.2724 7.23882 36.0299 9.34551 37.9621 12.4884C38.7085 13.7053 39.1502 15.0388 39.5943 16.3769C39.8757 17.2233 40.2523 18.0307 41.001 18.5911C40.8383 18.5271 40.6639 18.5065 40.4825 18.5042C39.5013 18.5042 38.5201 18.4996 37.5389 18.5088C37.3739 18.5111 37.2041 18.5065 37.0576 18.5797C36.6949 18.4196 36.4694 18.1039 36.1927 17.8432C35.9904 17.651 35.9834 17.452 36.1671 17.2416C36.2555 17.1409 36.3229 17.0243 36.3857 16.9053C36.6693 16.3609 36.5926 15.8005 36.1811 15.3774C35.7347 14.9245 35.1627 14.8238 34.593 15.1029C33.7769 15.5009 33.7769 15.5009 33.1352 14.8398C32.9213 14.6202 32.7329 14.3755 32.5214 14.1536C32.0587 13.6687 31.6192 13.1586 31.0542 12.7835C30.373 12.3351 29.7661 12.4083 29.2337 12.9916V13.0877V13.09H29.236C30.0405 12.4404 30.5938 12.4518 31.3588 13.1975C32.0726 13.8906 32.7492 14.6225 33.4398 15.3385C33.7374 15.6473 33.9885 15.8051 34.3931 15.4048C34.8744 14.9267 35.5556 14.9816 36.0555 15.4277C36.488 15.8142 36.6298 16.457 36.1927 16.9191C35.6254 17.5206 35.9021 17.8546 36.381 18.2366C36.5624 18.3784 36.7251 18.5408 36.8972 18.6941C38.2667 18.6918 39.6362 18.6895 41.0057 18.6872H41.1963C40.2919 17.8523 39.8361 16.7795 39.4874 15.6358C38.4016 12.0767 36.2462 9.32035 33.0027 7.4058C31.8238 6.71044 30.5962 6.118 29.229 5.86182V5.919C29.3708 6.03337 29.5638 6.04252 29.7336 6.09742Z" fill="#F06977"/>
<path d="M29.1406 5.8205C29.1592 5.84795 29.1778 5.87311 29.2011 5.89369C29.2104 5.90284 29.2197 5.91199 29.229 5.91885V5.86167C29.229 5.83193 29.2267 5.8022 29.222 5.77246C29.1871 5.77246 29.1546 5.77475 29.1197 5.77475C29.0755 5.77704 29.029 5.77704 28.9849 5.77932V5.85709C29.0407 5.85709 29.0918 5.84566 29.1406 5.8205Z" fill="#EA8795"/>
<path d="M20.6962 6.31475C19.9056 7.06273 19.4034 7.97997 19.043 8.98643C18.7361 9.8442 18.8105 10.7203 18.8803 11.5963C18.943 11.5735 18.9895 11.5369 19.0267 11.4934C19.0267 11.514 19.0244 11.5323 19.0221 11.5529C19.0198 11.5689 19.0198 11.5849 19.0151 11.6009C19.0081 11.6718 18.9942 11.7404 18.9709 11.8068C18.943 11.8388 18.9175 11.8708 18.8965 11.9028C19.1407 13.0328 19.7894 14.0301 20.0196 15.167C20.0428 15.183 20.0684 15.1944 20.094 15.2081C20.0986 15.2127 20.1009 15.215 20.1056 15.2196C20.1172 15.2287 20.1265 15.2401 20.1381 15.2516C20.1056 15.2539 20.0754 15.2562 20.0451 15.2562C20.1823 15.6702 20.259 16.0911 20.2776 16.5257C20.3288 17.8706 20.259 19.1996 19.9196 20.508C19.8824 20.5126 19.8475 20.5194 19.8103 20.524V20.6109C19.808 20.6544 19.808 20.6979 19.808 20.739H19.8266C19.8196 20.7436 19.8126 20.7505 19.8057 20.7573C19.8033 20.7596 19.8033 20.7642 19.801 20.7665C19.9219 20.9449 19.7661 21.1508 19.701 21.3292C19.429 22.1 19.0988 22.848 19.0058 23.6783C18.8012 25.5014 19.3685 27.0477 20.6264 28.3766C21.3821 29.1726 22.2703 29.7857 23.2352 30.2958C23.2026 30.2203 23.205 30.1333 23.2282 30.0327C23.4444 29.1681 24.414 28.7586 25.1999 29.2321C25.8184 29.605 26.3043 30.1242 26.6647 30.7441C26.8647 31.0918 27.0623 31.444 27.2483 31.8009C27.8621 31.6156 28.4225 31.8535 28.9852 32.0662C28.9898 32.0616 28.9968 32.057 29.0015 32.0525C29.0084 32.0479 29.0131 32.0433 29.0201 32.0387C29.0619 31.977 29.0852 31.9129 29.0968 31.8443C29.1131 31.9061 29.1386 31.9655 29.1805 32.0227C29.1921 32.0342 29.2037 32.0433 29.2154 32.0548V32.057H29.2177C29.4525 31.8649 29.7385 31.8969 30.0129 31.8969C31.1522 31.9015 32.2938 31.9244 33.4168 31.6613C33.5889 31.6224 33.8167 31.5355 33.9423 31.7277C36.286 30.0602 37.9833 27.8986 39.0436 25.2521C39.3203 24.5636 39.49 23.8384 39.7551 23.1454C40.0434 22.3882 40.4154 21.686 41.1013 21.2125C39.7016 21.208 38.2996 21.2057 36.8998 21.2034C35.6815 22.4157 34.4701 23.6326 33.2448 24.8403C33.0402 25.0439 33.0611 25.2246 33.182 25.4511C33.3959 25.8536 33.6168 26.2585 33.7981 26.6771C34.0772 27.3221 33.8237 28.0678 33.261 28.3538C32.6774 28.6488 32.0752 28.443 31.6428 27.7979C31.5381 27.6378 31.4312 27.4777 31.3428 27.3107C30.922 26.5193 30.9197 26.5078 30.0664 26.8601C29.7966 26.9699 29.5386 27.0614 29.2479 27.0385C29.2409 27.0431 29.234 27.0477 29.227 27.0522C29.227 27.0843 29.2223 27.1186 29.2177 27.1529C29.1805 27.1552 29.1456 27.1552 29.1084 27.1575C29.0968 27.1895 29.0875 27.2238 29.0828 27.2581C29.0712 27.2238 29.0549 27.1918 29.034 27.1597H29.0038L28.9829 27.146C28.4899 27.3107 28.0017 27.2924 27.5018 27.1575C26.7414 26.9562 26.5415 26.7343 26.5461 26.0252C26.5508 25.355 26.7321 25.1537 27.5087 24.9753C27.997 24.8632 28.4853 24.7626 28.9735 24.6573L29.0015 24.6345C29.0317 24.6047 29.0596 24.591 29.0898 24.5887C29.1177 24.5841 29.1433 24.5887 29.1712 24.6047C29.1851 24.5796 29.2037 24.5544 29.2247 24.5361V24.6253C29.5688 24.4172 29.9803 24.3508 30.3012 24.0924C31.5614 23.0859 32.6379 21.8965 33.7702 20.7596C33.8051 20.755 33.84 20.7482 33.8772 20.739C33.8981 20.7002 33.9191 20.6613 33.94 20.6224C33.9423 20.6178 33.9446 20.6155 33.947 20.6109C33.9609 20.5812 33.9772 20.5538 33.9935 20.524C34.0307 20.5194 34.0655 20.5149 34.1004 20.5103V20.508C34.0632 20.4257 34.1051 20.3182 34.1934 20.2015C34.3864 19.9499 34.3027 19.744 34.1074 19.5496C33.7586 19.1973 33.3913 18.8634 33.0262 18.5271C32.81 18.3304 32.6379 18.3327 32.431 18.5248C32.1799 18.7582 31.9102 18.9663 31.6776 19.2271C31.5498 19.3712 31.2894 19.5633 30.9871 19.7532C30.2779 20.1992 29.3153 20.6453 29.1642 20.4989C29.1619 20.492 29.1596 20.4828 29.1596 20.476C29.1131 20.4577 29.0666 20.4394 29.0201 20.4211C29.0154 20.4211 29.0108 20.4188 29.0061 20.4165L28.9805 20.3959C28.19 19.7234 28.19 18.9206 28.9805 18.2481C28.9875 18.2046 28.9922 18.1611 28.9991 18.1177C29.0294 18.104 29.0573 18.088 29.0875 18.0719C29.0921 18.0697 29.0968 18.0674 29.1014 18.0651C29.141 18.0445 29.1805 18.0262 29.2177 18.0056C29.227 17.9713 29.234 17.937 29.2433 17.9004V17.8158C29.5455 17.4452 29.9152 17.141 30.264 16.8162C30.7127 16.3999 30.7081 16.3061 30.2803 15.8532C29.9315 15.4826 29.499 15.183 29.2316 14.7392V14.5677C29.227 14.5311 29.22 14.4922 29.2154 14.4556C29.2084 14.4487 29.2014 14.4396 29.1944 14.4327C29.1921 14.4327 29.1921 14.4304 29.1921 14.4304C29.1642 14.403 29.1386 14.3755 29.1131 14.3481C29.1038 14.3389 29.0945 14.3275 29.0828 14.3183C29.0549 14.2886 29.027 14.2589 28.9991 14.2291C28.9968 13.9615 28.9968 13.6939 28.9968 13.4262V13.424C29.027 13.3942 29.0549 13.3668 29.0828 13.337C29.127 13.2913 29.1712 13.2455 29.2177 13.1975C29.2223 13.1632 29.2293 13.1266 29.234 13.09V13.0877V12.9916C29.7664 12.4084 30.3733 12.3352 31.0545 12.7835C31.6195 13.1586 32.059 13.6687 32.5217 14.1536C32.7332 14.3755 32.9216 14.6203 33.1355 14.8399C33.7772 15.5009 33.7772 15.5009 34.5933 15.1029C35.163 14.8238 35.735 14.9245 36.1814 15.3774C36.5929 15.8006 36.6697 16.361 36.386 16.9054C36.3232 17.0243 36.2558 17.141 36.1674 17.2416C35.9837 17.4521 35.9907 17.6511 36.193 17.8432C36.4697 18.104 36.6952 18.4196 37.0579 18.5797C37.2044 18.5065 37.3742 18.5111 37.5392 18.5088C38.5204 18.4997 39.5016 18.5043 40.4828 18.5043C40.6642 18.5065 40.8386 18.5271 41.0013 18.5912C40.2526 18.0308 39.876 17.2233 39.5946 16.377C39.1505 15.0389 38.7088 13.7053 37.9624 12.4884C36.0302 9.34555 33.2727 7.23886 29.7339 6.09745C29.5641 6.04255 29.3711 6.03341 29.2293 5.91904C29.22 5.91217 29.2107 5.90302 29.2014 5.89387C29.1782 5.87329 29.1596 5.84813 29.141 5.82068C29.0921 5.84584 29.041 5.85728 28.9852 5.85728V5.7795C28.9084 5.73604 28.8317 5.69487 28.755 5.65141C28.7434 5.64912 28.7341 5.64912 28.7224 5.64684C28.0319 5.54848 27.3413 5.42725 26.6461 5.36549C24.7163 5.18936 22.8143 5.3083 20.9705 5.95792C20.9264 6.01511 20.8868 6.07458 20.845 6.13405C20.8008 6.1981 20.752 6.25986 20.6962 6.31475Z" fill="#F06977"/>
<path d="M28.9853 32.0661C28.4226 31.8533 27.8622 31.6154 27.2484 31.8007C27.0624 31.4439 26.8648 31.0916 26.6648 30.744C26.3044 30.1241 25.8185 29.6048 25.2 29.232C24.4141 28.7585 23.4445 29.1679 23.2283 30.0326C23.205 30.1332 23.2027 30.2201 23.2353 30.2956C22.2703 29.7855 21.3822 29.1725 20.6265 28.3765C19.3686 27.0475 18.8013 25.5013 19.0059 23.6782C19.0989 22.8479 19.4291 22.0999 19.7011 21.3291C19.7662 21.1506 19.922 20.9448 19.8011 20.7664C19.6732 21.0591 19.5407 21.3496 19.4151 21.6424C18.8571 22.9234 18.6292 24.2501 18.9292 25.6225C19.2617 27.1528 20.1847 28.3353 21.4008 29.2915C22.0053 29.7672 22.6121 30.2819 23.4073 30.4626C23.3887 30.4283 23.3724 30.394 23.3585 30.362C23.305 30.227 23.312 30.1012 23.4096 29.9388C23.9816 28.985 24.6606 28.8912 25.5325 29.6208C26.2626 30.2316 26.6601 31.0573 27.1321 31.8396C27.1763 31.8373 27.2228 31.8373 27.267 31.8373C27.846 31.8533 28.3947 32.1187 28.9829 32.0684H28.9899L29.0015 32.0661V32.0523C28.9969 32.0569 28.9899 32.0615 28.9853 32.0661Z" fill="#F06977"/>
<path d="M15.8575 20.7366C17.1688 20.7618 18.4825 20.7526 19.7939 20.7572H19.8055L19.8078 20.7389C19.8078 20.6977 19.8078 20.6542 19.8102 20.6108V20.5239C19.8474 20.5193 19.8822 20.5124 19.9194 20.5079C20.2589 19.1995 20.3287 17.8705 20.2775 16.5255C20.2589 16.0909 20.1822 15.67 20.045 15.256H20.038C20.0334 15.2263 20.0264 15.1965 20.0194 15.1668C19.7892 14.03 19.1405 13.0327 18.8964 11.9027C18.8894 11.8775 18.8824 11.8501 18.8778 11.8249C18.8778 11.7494 18.8778 11.6717 18.8801 11.5962C18.8104 10.7201 18.736 9.84404 19.0429 8.98627C19.4033 7.97982 19.9055 7.06257 20.696 6.3146C20.7518 6.2597 20.8007 6.19794 20.8448 6.13389C20.8867 6.07442 20.9262 6.01495 20.9704 5.95776C20.7844 6.0058 20.5937 6.04011 20.4124 6.09958C17.0247 7.20897 14.4647 9.33624 12.5721 12.2824C12.5721 12.2847 12.5698 12.287 12.5698 12.2893C12.5209 12.4013 12.4814 12.518 12.421 12.6255C12.3791 12.7033 12.3233 12.7765 12.2466 12.8359V12.9846C12.3163 13.0144 12.3721 13.0578 12.4233 13.1081C12.4837 13.1699 12.5349 13.2431 12.5814 13.3209C12.607 13.3415 12.6349 13.3643 12.6605 13.3872C13.8532 14.3662 14.4647 15.6975 14.9251 17.1134C15.2553 18.1358 15.3622 19.1972 15.3715 20.2677C15.3529 20.3157 15.3366 20.366 15.318 20.4141C15.3064 20.4461 15.2948 20.4758 15.2832 20.5079C15.2832 20.5101 15.2808 20.5147 15.2808 20.517C15.2762 20.5856 15.2715 20.6542 15.2715 20.7229C15.2692 20.7297 15.2692 20.7389 15.2692 20.7457C15.2715 20.7801 15.2739 20.8121 15.2739 20.8464V20.8487C15.2762 20.851 15.2762 20.851 15.2739 20.8532C15.2785 20.931 15.2832 21.0111 15.2878 21.0889C15.3994 20.851 15.5529 20.7297 15.8575 20.7366Z" fill="#D9596B"/>
<path d="M15.3182 20.4142C15.3368 20.3662 15.3531 20.3159 15.3717 20.2678C15.3624 19.1974 15.2554 18.136 14.9253 17.1135C14.4649 15.6976 13.8534 14.3664 12.6606 13.3874C12.635 13.3645 12.6071 13.3416 12.5815 13.321C12.5978 13.3851 12.6257 13.4423 12.6629 13.4972C12.6885 13.5383 12.7187 13.5772 12.7536 13.6138C14.2184 15.1647 14.9462 17.022 15.1485 19.1127C15.1857 19.5061 15.1671 19.9156 15.281 20.3022C15.2205 20.3388 15.2066 20.3914 15.2461 20.4646C15.2554 20.4806 15.267 20.4989 15.281 20.5172C15.281 20.5149 15.2833 20.5103 15.2833 20.508C15.2949 20.476 15.3066 20.4463 15.3182 20.4142Z" fill="#EDEBF1"/>
<path d="M29.0825 27.2581C29.0872 27.2238 29.0965 27.1895 29.1081 27.1575C29.0825 27.1575 29.0593 27.1575 29.0337 27.1598C29.0546 27.1918 29.0709 27.2238 29.0825 27.2581Z" fill="#E98897"/>
<path d="M29.1805 32.0227C29.1386 31.9655 29.1131 31.906 29.0968 31.8442C29.0852 31.9129 29.0619 31.9769 29.0201 32.0387C29.0131 32.0432 29.0084 32.0478 29.0015 32.0524V32.0661C29.0689 32.0661 29.134 32.0661 29.2014 32.0684H29.2154V32.057V32.0547C29.2037 32.0432 29.1921 32.0341 29.1805 32.0227Z" fill="#E98897"/>
<path d="M19.0151 11.6009C19.0198 11.5849 19.0198 11.5689 19.0221 11.5529C19.0244 11.5323 19.0267 11.514 19.0267 11.4934C18.9895 11.5369 18.943 11.5735 18.8803 11.5963C18.8779 11.6718 18.8779 11.7496 18.8779 11.8251C18.8826 11.8502 18.8896 11.8777 18.8965 11.9029C18.9175 11.8708 18.943 11.8388 18.9709 11.8068C18.9942 11.7404 19.0081 11.6718 19.0151 11.6009Z" fill="#DF6B7D"/>
<path d="M20.1056 15.2194C20.1009 15.2148 20.0986 15.2125 20.0939 15.2079C20.0684 15.1942 20.0428 15.1828 20.0195 15.1667C20.0265 15.1965 20.0335 15.2262 20.0381 15.256H20.0451C20.0753 15.256 20.1056 15.2537 20.1381 15.2514C20.1265 15.2399 20.1172 15.2285 20.1056 15.2194Z" fill="#DF6B7D"/>
<path d="M31.6774 19.2269C31.9099 18.9661 32.1796 18.758 32.4307 18.5247C32.6376 18.3325 32.8097 18.3302 33.0259 18.5269C33.391 18.8632 33.7583 19.1971 34.1071 19.5494C34.3024 19.7438 34.3861 19.9497 34.1931 20.2013C34.1048 20.318 34.0629 20.4255 34.1001 20.5078C34.1071 20.5078 34.1164 20.5078 34.1234 20.5055C34.6535 19.8582 34.6465 19.8125 33.9816 19.2154C33.6723 18.9364 33.3189 18.6916 33.0655 18.3691C32.7934 18.0237 32.6446 18.1518 32.3819 18.3645C31.8704 18.7808 31.4542 19.2955 30.9868 19.753C31.2891 19.5631 31.5472 19.371 31.6774 19.2269Z" fill="#F06977"/>
<path d="M29.1549 24.6322H29.2154L29.2247 24.6253V24.5361C29.2037 24.5544 29.1851 24.5796 29.1712 24.6048C29.1433 24.5887 29.1177 24.5842 29.0898 24.5887C29.0596 24.591 29.0317 24.6048 29.0015 24.6345C29.0224 24.6345 29.0433 24.6322 29.0642 24.6345C29.0945 24.6322 29.1247 24.6322 29.1549 24.6322Z" fill="#E9909E"/>
<path d="M30.2801 15.8531C30.7079 16.306 30.7125 16.3998 30.2638 16.8161C29.915 17.1409 29.5453 17.4452 29.2431 17.8157V17.9004C29.7662 17.5687 30.1336 17.0677 30.6056 16.6789C30.9032 16.4319 30.8497 16.1871 30.5591 15.9218C30.0941 15.494 29.6709 15.0205 29.2314 14.5676V14.7392C29.4988 15.1829 29.9313 15.4826 30.2801 15.8531Z" fill="#F06977"/>
<path d="M29.0876 18.0719C29.0573 18.088 29.0294 18.104 28.9992 18.1177C28.9922 18.1612 28.9876 18.2046 28.9806 18.2481C28.1901 18.9206 28.1901 19.7234 28.9806 20.3959L29.0062 20.4165C29.0108 20.4188 29.0155 20.4211 29.0201 20.4211C29.0666 20.4394 29.1131 20.4577 29.1596 20.476C29.1852 20.4874 29.2131 20.4966 29.2387 20.508C29.2317 19.6731 29.2247 18.8382 29.2178 18.0056C29.1806 18.0262 29.141 18.0445 29.1015 18.0651C29.0969 18.0674 29.0922 18.0697 29.0876 18.0719Z" fill="#C34761"/>
<path d="M28.9734 24.7373V24.6572C28.4851 24.7624 27.9968 24.8631 27.5086 24.9752C26.732 25.1536 26.5506 25.3549 26.546 26.0251C26.5413 26.7342 26.7413 26.9561 27.5016 27.1573C28.0015 27.2923 28.4898 27.3106 28.9827 27.1459V27.1253C28.9804 26.3316 28.9757 25.5333 28.9734 24.7373Z" fill="#C34761"/>
</g>
<defs>
<clipPath id="clip0_27_6589">
<rect width="57" height="39" fill="white" transform="translate(0.5 0.5)"/>
</clipPath>
</defs>
</svg>
