<svg width="40" height="40" viewBox="0 0 40 40" fill="none" xmlns="http://www.w3.org/2000/svg">
<g clip-path="url(#clip0_27_6474)">
<path d="M31.7202 26.114C31.6816 26.1395 31.6447 26.1506 31.6094 26.1442V26.114H31.7202Z" fill="#F06977"/>
<path d="M31.6094 31.2519C31.6479 31.244 31.6848 31.2535 31.7218 31.2838H31.6094V31.2519Z" fill="#F06977"/>
<path d="M32.936 20.467C32.9456 20.4861 32.9456 20.5099 32.9263 20.5434C32.9135 20.5179 32.9006 20.4925 32.8878 20.467C32.8814 20.4559 32.8765 20.4447 32.8701 20.4336H32.9071C32.9183 20.4431 32.9295 20.4543 32.936 20.467Z" fill="#F06977"/>
<path d="M35.5773 31.8423V31.9536H35.5484C35.5436 31.9425 35.542 31.9314 35.542 31.9202C35.542 31.8948 35.5532 31.8693 35.5773 31.8423Z" fill="#F06977"/>
<path d="M2.09945 31.8423C2.11711 31.8614 2.12674 31.8805 2.12995 31.8995C2.12032 31.8948 2.10908 31.8884 2.09945 31.8805C2.0866 31.8725 2.07536 31.8645 2.06412 31.8534C2.05609 31.8471 2.04806 31.8407 2.04164 31.8327L2.04003 31.8311C1.89712 31.6514 1.89231 31.4382 1.89231 31.2251C1.89231 29.453 1.88267 27.6809 1.89712 25.9073C1.90033 25.6321 1.98383 25.3616 1.95011 25.0833C2.06412 25.2073 2.01434 25.36 2.01595 25.5016C2.01916 27.393 2.01916 29.2844 2.01595 31.1758C2.01595 31.4016 2.02879 31.6228 2.09623 31.8391L2.09945 31.8423Z" fill="#F06977"/>
<path d="M6.93562 20.4336H6.97255C6.96774 20.4447 6.96131 20.4559 6.9565 20.467C6.94204 20.4925 6.9292 20.5179 6.91635 20.5434C6.89708 20.5099 6.89708 20.4861 6.90672 20.467C6.91314 20.4543 6.92438 20.4431 6.93562 20.4336Z" fill="#F06977"/>
<path d="M7.92653 31.9536C7.9185 31.9155 7.92813 31.8773 7.95864 31.8423V31.9536H7.92653Z" fill="#F06977"/>
<path d="M8.55415 26.5117V26.5419C8.52043 26.5483 8.4835 26.5372 8.44336 26.5117H8.55415Z" fill="#F06977"/>
<path d="M39.4857 37.297C39.3042 35.6092 39.1196 33.923 38.9365 32.2368C38.9285 32.0396 38.8386 31.9616 38.7037 31.933C38.7631 31.9171 38.8193 31.8885 38.8707 31.8407C38.8386 31.4049 38.8193 30.969 38.7711 30.5363C38.5961 29.0013 38.4243 27.4662 38.2252 25.9343C37.9651 23.9412 37.2104 22.1452 35.9804 20.5465C35.9017 20.4924 35.8166 20.4638 35.7299 20.4495C35.7668 20.4272 35.7973 20.3859 35.8134 20.3127C35.6721 20.1393 35.5356 19.9596 35.3846 19.7925C34.3634 18.6599 33.2057 17.6975 31.8055 17.0453C31.7782 17.0167 31.7509 16.9881 31.7236 16.9594C31.669 16.9324 31.6144 16.9038 31.5598 16.8767C31.5518 16.8847 31.5437 16.8942 31.5357 16.9022C30.5675 16.4631 29.5815 16.0766 28.5105 15.9604V19.9118L28.4993 19.9182C28.4993 19.923 28.5009 19.9277 28.5025 19.9325C28.5009 19.9341 28.4993 19.9341 28.4993 19.9341C28.5041 20.6165 28.5089 21.2958 28.5137 21.9782C28.5282 21.9814 28.5426 21.9846 28.5555 21.9909C28.5635 21.9909 28.5699 21.9893 28.578 21.9861V21.9973C28.5731 22.7338 28.6807 23.4735 28.5121 24.2052C28.4334 25.1151 28.1155 25.92 27.4507 26.5738C27.0718 26.9461 26.6944 27.3215 26.3155 27.6953C25.747 28.2584 25.3809 28.9345 25.1529 29.6917C25.1433 29.8523 25.1337 30.0114 25.124 30.1705C25.1337 30.7256 25.1417 31.2824 25.1497 31.8376C25.1513 31.8853 25.1513 31.9314 25.1529 31.9775C25.1449 31.9839 25.1369 31.9919 25.1288 31.9982C25.1385 32.0268 25.1481 32.0539 25.1577 32.0825C25.3874 33.1547 26.0698 33.985 26.6719 34.8584C26.8968 34.8886 27.0075 35.0715 27.1328 35.2163C28.268 36.5366 29.6425 37.4417 31.4153 37.666C31.4651 37.6724 31.5132 37.7058 31.5614 37.7264L31.5662 37.7217H31.5678C31.5742 37.7153 31.5823 37.7105 31.5887 37.7058C31.5983 37.6994 31.6064 37.6915 31.6144 37.6835C31.624 37.6565 31.6304 37.6294 31.6337 37.6024C31.6385 37.6231 31.6449 37.6421 31.6513 37.6612C31.6561 37.6724 31.661 37.6819 31.6674 37.693C31.6866 37.6978 31.7043 37.7074 31.722 37.7233L31.7252 37.728C32.3241 37.8696 32.9407 37.771 33.5477 37.8696C34.2205 37.9794 34.8965 37.7614 35.5773 37.806C35.656 37.1538 36.0173 36.6384 36.5054 36.2534C37.0257 35.843 38.3633 36.1723 38.686 36.745C38.8787 37.0854 39.1645 37.386 39.1902 37.8044C39.3251 37.8187 39.3958 37.7042 39.4969 37.6501C39.4937 37.5324 39.4985 37.4131 39.4857 37.297ZM32.907 20.4336C32.9182 20.4431 32.9295 20.4543 32.9359 20.467C32.9455 20.4861 32.9455 20.5099 32.9263 20.5434C32.9134 20.5179 32.9006 20.4924 32.8877 20.467C32.8813 20.4559 32.8765 20.4447 32.8701 20.4336C32.862 20.4193 32.8556 20.405 32.8476 20.3906C32.8653 20.4065 32.8877 20.4193 32.907 20.4336ZM31.5646 31.284C31.5598 31.2792 31.5566 31.276 31.5534 31.2713C31.5566 31.2681 31.5614 31.2665 31.5646 31.2665C31.5791 31.2569 31.5951 31.2522 31.6096 31.2522C31.6481 31.2442 31.685 31.2538 31.722 31.284H31.5646ZM31.7204 26.1141C31.6818 26.1395 31.6449 26.1507 31.6096 26.1443C31.5951 26.1411 31.5807 26.1364 31.5662 26.1268C31.563 26.1268 31.5614 26.1236 31.5582 26.1221C31.5614 26.1189 31.563 26.1173 31.5662 26.1141H31.7204ZM30.9689 31.8869C30.9689 31.8726 30.9737 31.8566 30.9833 31.8423C30.9833 31.8391 30.9849 31.8344 30.9882 31.8312C30.993 31.8344 30.9962 31.8376 31.001 31.8423V31.9982C30.9705 31.9616 30.9609 31.925 30.9689 31.8869ZM35.5484 31.9537C35.5436 31.9425 35.542 31.9314 35.542 31.9203C35.542 31.8948 35.5532 31.8694 35.5773 31.8423V31.9982C35.5645 31.9823 35.5549 31.968 35.5484 31.9537Z" fill="#F06977"/>
<path d="M35.5484 31.9536C35.5436 31.9424 35.542 31.9313 35.542 31.9202H35.5773V31.9981C35.5645 31.9822 35.5548 31.9679 35.5484 31.9536Z" fill="#F06977"/>
<path d="M39.497 37.6499C39.4248 37.7883 39.3477 37.9172 39.1614 37.8058C39.1614 37.8042 39.1598 37.8042 39.1598 37.8042C39.1566 37.7979 39.1534 37.7931 39.1502 37.7867C38.9511 37.4082 38.7471 37.0312 38.5159 36.6701C38.3361 36.3901 38.0888 36.2596 37.7564 36.239C36.5778 36.1674 36.2149 36.3885 35.746 37.4718C35.6979 37.5847 35.6786 37.7152 35.5919 37.8074C35.5903 37.809 35.5887 37.8106 35.5871 37.8122C35.5839 37.8154 35.5806 37.8186 35.5774 37.8202C35.5582 37.8392 35.5357 37.8552 35.5084 37.8695C34.7826 37.9522 34.0584 38.0715 33.3246 37.957C32.8027 37.8742 32.2552 38.0047 31.7478 37.7788C31.7397 37.774 31.7317 37.7677 31.7253 37.7613C31.7221 37.7597 31.7205 37.7565 31.7173 37.7549C31.7076 37.7454 31.698 37.7343 31.6884 37.7231C31.6803 37.7136 31.6739 37.7024 31.6675 37.6929C31.6867 37.6977 31.7044 37.7072 31.7221 37.7231L31.7253 37.7279C32.3242 37.8695 32.9408 37.7708 33.5478 37.8695C34.2206 37.9792 34.8966 37.7613 35.5774 37.8058C35.6561 37.1536 36.0174 36.6382 36.5055 36.2533C37.0258 35.8429 38.3634 36.1722 38.6861 36.7448C38.8788 37.0852 39.1646 37.3859 39.1903 37.8042C39.3252 37.8186 39.3959 37.704 39.497 37.6499Z" fill="#F06977"/>
<path d="M31.0006 31.9981C30.9701 31.9615 30.9605 31.9249 30.9685 31.8867H31.0006V31.9981Z" fill="#F06977"/>
<path d="M31.4152 37.666C31.465 37.6724 31.5132 37.7058 31.5614 37.7264C31.412 37.8267 31.2402 37.7487 31.0893 37.7217C29.6056 37.4497 28.4045 36.7052 27.3929 35.6537C27.303 35.5615 27.2163 35.4676 27.1312 35.3722C27.0332 35.2608 26.9353 35.1526 26.8245 35.0572C26.7667 35.0063 26.704 34.9586 26.6382 34.9156C26.0842 34.2666 25.6137 33.5635 25.2701 32.7809C25.1722 32.5597 25.1995 32.3148 25.1577 32.0825C25.3873 33.1547 26.0698 33.985 26.6719 34.8584C26.8967 34.8886 27.0075 35.0715 27.1328 35.2163C28.268 36.5366 29.6425 37.4417 31.4152 37.666Z" fill="#F06977"/>
<path d="M31.5683 37.7217C31.5665 37.7235 31.5647 37.7253 31.561 37.7272L31.5665 37.7217H31.5683Z" fill="#F06977"/>
<path d="M8.53671 39.1277C8.51744 39.2438 8.48694 39.36 8.43876 39.4761C6.33204 39.4777 4.22211 39.4999 2.11539 39.4745C1.16801 39.4618 0.445434 38.6871 0.50324 37.7533C0.575498 36.5682 0.718408 35.3863 0.840444 34.2044C0.906279 33.5474 0.991383 32.892 1.06685 32.2367C1.0797 32.0458 1.15677 31.9312 1.31574 31.901C1.35428 31.8931 1.39924 31.8899 1.44902 31.8931C1.60317 31.9026 1.75732 31.8851 1.91147 31.9042C1.94358 31.909 1.9757 31.9137 2.00781 31.9217C2.03993 31.9312 2.07043 31.9471 2.09773 31.9662C2.10255 31.9694 2.10737 31.9726 2.11218 31.9774C2.11539 31.979 2.11861 31.9806 2.12182 31.9837C2.12503 31.9885 2.12824 31.9949 2.13145 31.9996C2.14109 32.014 2.14911 32.0283 2.15714 32.0426C2.29202 32.2796 2.30969 32.5532 2.38837 32.8093C3.14146 35.2575 4.76485 36.8164 7.25534 37.4877C7.51386 37.5577 7.7756 37.607 8.03894 37.6515C8.18024 37.6754 8.336 37.6897 8.44198 37.7947C8.44358 37.7947 8.44358 37.7963 8.44519 37.7979C8.44519 37.7979 8.44679 37.7979 8.44679 37.7995C8.44679 37.7995 8.4484 37.7995 8.4484 37.801C8.47409 37.8265 8.49657 37.8583 8.51423 37.8965C8.51905 37.9872 8.52547 38.0794 8.5335 38.1701C8.55919 38.4914 8.59131 38.8112 8.53671 39.1277Z" fill="#D9596B"/>
<path d="M14.8039 36.4839C14.616 38.2003 13.3956 39.3154 11.6486 39.4617C11.04 39.5126 10.4218 39.4649 9.80845 39.4617C9.77633 39.274 9.87428 39.1229 9.98026 38.9941C10.2902 38.6202 10.5744 38.2257 10.873 37.844C10.8763 37.8392 10.8795 37.836 10.8827 37.8312C10.8891 37.8233 10.8955 37.8137 10.9019 37.8058C12.0211 36.3725 13.1708 34.9615 14.1712 33.4424C14.4442 33.0304 14.6032 32.5675 14.7461 32.0998C14.7477 32.0982 14.7493 32.0966 14.7509 32.095C14.7589 32.0871 14.7685 32.0807 14.7766 32.0775C14.7975 32.068 14.8215 32.0696 14.8472 32.0839C14.8569 33.5506 14.9644 35.0252 14.8039 36.4839Z" fill="#C34761"/>
<path d="M30.195 39.4635C29.3552 39.4922 28.509 39.5653 27.6853 39.3601C26.2273 38.9958 25.2173 37.771 25.1578 36.2089C25.1065 34.8361 25.1546 33.4585 25.1578 32.0825C25.3875 33.1547 26.0699 33.985 26.6721 34.8584C26.9434 35.0986 27.173 35.3722 27.393 35.6537C27.5857 35.9035 27.7704 36.1612 27.9647 36.4077C28.6535 37.281 29.3376 38.1575 29.9959 39.0531C30.0858 39.1756 30.2303 39.279 30.195 39.4635Z" fill="#C34761"/>
<path d="M6.97257 20.4336C6.96776 20.4447 6.96133 20.4559 6.95652 20.467H6.90674C6.91316 20.4543 6.9244 20.4431 6.93564 20.4336H6.97257Z" fill="#F06977"/>
<path d="M37.8106 39.4824C35.781 39.4952 33.7529 39.4792 31.7233 39.4761C31.6831 39.3456 31.651 39.2136 31.6301 39.0832C31.5755 38.7634 31.5739 38.4437 31.6285 38.1239C31.6494 38.0015 31.6783 37.8774 31.7168 37.7549C31.7201 37.7453 31.7217 37.7374 31.7249 37.7278C32.3238 37.8694 32.9404 37.7708 33.5474 37.8694C34.2202 37.9792 34.8962 37.7613 35.577 37.8058C35.5786 37.8058 35.5786 37.8074 35.5802 37.8074C35.5818 37.809 35.5851 37.8106 35.5867 37.8122C35.5995 37.8217 35.6123 37.8297 35.6268 37.8376C35.6364 37.8472 35.6461 37.8567 35.6541 37.8662C35.6605 37.8726 35.6653 37.879 35.6702 37.8853C35.6814 37.8996 35.691 37.914 35.7007 37.9283C35.8548 38.2226 36.0266 38.5057 36.2193 38.7777C36.2723 38.8525 36.3221 38.932 36.3879 38.9973C36.8102 39.4156 38.1639 39.2915 38.5027 38.8032C38.7162 38.493 38.8896 38.1558 39.0727 37.8265C39.0759 37.8201 39.0791 37.8137 39.0823 37.8074C39.1048 37.7899 39.1273 37.7819 39.1498 37.7867C39.1626 37.7883 39.1755 37.7947 39.1899 37.8042C39.3248 37.8185 39.3955 37.704 39.4966 37.6499C39.5512 38.6982 38.8607 39.4745 37.8106 39.4824Z" fill="#D9596B"/>
<path d="M32.936 20.467H32.8878C32.8814 20.4558 32.8766 20.4447 32.8701 20.4336C32.8621 20.4193 32.8557 20.4049 32.8477 20.3906C32.8653 20.4065 32.8878 20.4193 32.9071 20.4336C32.9183 20.4431 32.9295 20.4543 32.936 20.467Z" fill="#F06977"/>
<path d="M19.8409 0.5C20.0272 0.501591 20.2135 0.503181 20.4013 0.504772C20.411 0.679753 20.2456 0.678162 20.1525 0.749745C19.4877 1.07903 19.2693 1.66283 19.234 2.34366C19.2163 2.67294 19.2436 3.00381 19.2259 3.3315C19.2083 3.65124 19.3528 3.75941 19.6531 3.73555C19.7847 3.72601 19.9196 3.7276 20.0513 3.75782C20.1236 3.78009 20.1846 3.8135 20.2215 3.8819C20.3114 4.08392 20.2889 4.29708 20.2889 4.50706C20.2922 5.25947 20.2922 6.01189 20.2889 6.76431C20.2889 6.92179 20.2922 7.08245 20.2167 7.2288C20.1733 7.30038 20.1043 7.3322 20.0272 7.35129C19.751 7.38628 19.4748 7.40378 19.2003 7.33061C19.1537 7.31152 19.1152 7.28129 19.083 7.24153C18.9819 7.0745 18.9995 6.88679 18.9979 6.70386C18.9947 6.00712 18.9979 5.30879 18.9963 4.61204C18.9947 4.11415 18.9931 4.11415 18.4889 4.0187C18.4359 4.00916 18.3878 3.99007 18.3412 3.96303C18.1854 3.75464 18.3556 3.49694 18.2368 3.28219C18.2384 2.64113 18.2304 1.99847 18.5034 1.39399C18.7635 0.822919 19.234 0.563629 19.8409 0.5Z" fill="#DBD7E5"/>
<path d="M31.6304 39.0831C31.6143 39.2136 31.5918 39.344 31.5629 39.4761C31.1069 39.4967 30.6509 39.5126 30.1948 39.4633C29.0724 37.9951 27.9468 36.5252 26.8244 35.057C26.773 34.9902 26.7233 34.925 26.6719 34.8582C26.8967 34.8884 27.0075 35.0713 27.1327 35.2161C28.268 36.5364 29.6425 37.4415 31.4152 37.6658C31.465 37.6722 31.5132 37.7056 31.5613 37.7262C31.5918 37.8599 31.6143 37.9919 31.6288 38.1239C31.6705 38.4437 31.6705 38.7634 31.6304 39.0831Z" fill="#D9596B"/>
<path d="M2.09609 31.8391C2.08484 31.8439 2.07521 31.8486 2.06397 31.8534C2.01419 31.8773 1.96281 31.8932 1.91143 31.9043C1.71553 31.9504 1.51481 31.925 1.3157 31.9011C1.28198 31.898 1.24826 31.8932 1.21454 31.89C1.14068 31.882 1.11017 31.82 1.12141 31.7437C1.34942 29.7298 1.57583 27.7143 1.80866 25.6989C1.83275 25.4921 1.90179 25.2885 1.94996 25.0833C2.06397 25.2073 2.01419 25.36 2.0158 25.5016C2.01901 27.393 2.01901 29.2844 2.0158 31.1758C2.0158 31.4016 2.02864 31.6228 2.09609 31.8391Z" fill="#D9596C"/>
<path d="M10.9309 37.8869C10.6049 38.4452 10.1071 38.8843 9.80845 39.4617C9.40702 39.5142 9.00398 39.4967 8.60255 39.476C8.57525 39.3599 8.55277 39.2438 8.53671 39.1277C8.49336 38.8079 8.49496 38.4898 8.5335 38.17C8.54635 38.0476 8.56562 37.9251 8.5897 37.8026C8.5897 37.801 8.59131 37.7978 8.59131 37.7962L8.59291 37.7946C8.59452 37.793 8.59773 37.7915 8.59934 37.7899C8.71816 37.6944 8.86107 37.6865 9.00398 37.6833C9.50818 37.6753 10.0124 37.669 10.5166 37.6865C10.6515 37.6912 10.8249 37.6594 10.902 37.8058C10.9148 37.828 10.9244 37.8551 10.9309 37.8869Z" fill="#D9596B"/>
<path d="M6.93562 20.4336H6.97255C6.96774 20.4447 6.96131 20.4559 6.9565 20.467C6.94204 20.4925 6.9292 20.5179 6.91635 20.5434C6.89708 20.5099 6.89708 20.4861 6.90672 20.467C6.91314 20.4543 6.92438 20.4431 6.93562 20.4336Z" fill="#E98291"/>
<path d="M8.59751 26.5117C8.60072 26.5149 8.60233 26.5165 8.60393 26.5197C8.60233 26.5229 8.60072 26.5244 8.59751 26.5244C8.58466 26.534 8.57021 26.5388 8.55415 26.5419C8.52043 26.5483 8.4835 26.5372 8.44336 26.5117H8.59751Z" fill="#E98291"/>
<path d="M11.5169 21.7523C11.5265 21.9686 11.5699 22.1977 11.4896 22.4093C11.4896 22.4108 11.4896 22.4108 11.4896 22.4124C11.4752 22.449 11.4559 22.4856 11.4334 22.5222C11.4206 22.5222 11.4077 22.5222 11.3965 22.5206C11.3981 21.7809 11.3981 21.0428 11.3981 20.3047C11.3981 20.2999 11.3981 20.2968 11.3997 20.292C11.4029 20.2936 11.4061 20.2952 11.4077 20.2968C11.4174 20.2999 11.4254 20.3063 11.435 20.3111C11.4575 20.3683 11.4752 20.4272 11.4896 20.4845V20.4861C11.5892 20.9028 11.4993 21.3307 11.5169 21.7523Z" fill="#E98291"/>
<path d="M28.5134 21.9782C28.5279 21.9814 28.5423 21.9845 28.5551 21.9909C28.5327 21.9925 28.5118 21.9845 28.4877 21.9702C28.4877 21.967 28.4861 21.9654 28.4861 21.9623C28.4829 21.9495 28.4797 21.9352 28.4765 21.9225C28.3271 21.2608 28.3271 20.6006 28.4909 19.9389C28.4925 19.9373 28.4957 19.9357 28.4989 19.9341C28.5038 20.6165 28.5086 21.2958 28.5134 21.9782Z" fill="#E98291"/>
<path d="M31.7203 26.114C31.6817 26.1395 31.6448 26.1506 31.6095 26.1442C31.595 26.1411 31.5806 26.1363 31.5661 26.1267C31.5629 26.1267 31.5613 26.1236 31.5581 26.122C31.5613 26.1188 31.5629 26.1172 31.5661 26.114H31.7203Z" fill="#E98291"/>
<path d="M32.9263 20.5433C32.9135 20.5179 32.9006 20.4924 32.8878 20.467C32.8814 20.4558 32.8766 20.4447 32.8701 20.4336C32.8621 20.4193 32.8557 20.4049 32.8477 20.3906C32.8653 20.4065 32.8878 20.4193 32.9071 20.4336C32.9183 20.4431 32.9295 20.4543 32.936 20.467C32.9456 20.4861 32.9456 20.5099 32.9263 20.5433Z" fill="#E98291"/>
<path d="M7.92653 31.9536C7.9185 31.9155 7.92813 31.8773 7.95864 31.8423V31.9982C7.95383 32.0029 7.95061 32.0061 7.9458 32.0093C7.94259 32.0061 7.94098 32.0014 7.94098 31.9982C7.93135 31.9839 7.92813 31.968 7.92653 31.9536Z" fill="#EB7E8D"/>
<path d="M8.59751 26.5117C8.60072 26.5149 8.60233 26.5165 8.60393 26.5197C8.60233 26.5229 8.60072 26.5244 8.59751 26.5244C8.58466 26.534 8.57021 26.5388 8.55415 26.5419C8.52043 26.5483 8.4835 26.5372 8.44336 26.5117H8.59751Z" fill="#EB7E8D"/>
<path d="M8.45654 32.3975H8.59945V32.4197C8.59303 32.4229 8.58661 32.4261 8.57858 32.4261C8.55128 32.4388 8.52077 32.4404 8.48705 32.4356C8.47742 32.4229 8.46618 32.4102 8.45654 32.3975Z" fill="#EB7E8D"/>
<path d="M14.8473 32.0839C14.8264 32.0855 14.8056 32.0871 14.7847 32.0871C14.7735 32.0903 14.7622 32.0935 14.751 32.095C14.759 32.0871 14.7686 32.0807 14.7767 32.0775C14.7975 32.068 14.8216 32.0696 14.8473 32.0839Z" fill="#EB7E8D"/>
<path d="M35.542 31.9202C35.542 31.8948 35.5532 31.8693 35.5773 31.8423V31.9982C35.5645 31.9823 35.5548 31.968 35.5484 31.9536C35.5436 31.9425 35.542 31.9314 35.542 31.9202Z" fill="#ED7786"/>
<path d="M38.9364 32.2367C38.9284 32.0394 38.8385 31.9615 38.7036 31.9328C38.763 31.9169 38.8192 31.8883 38.8706 31.8406C38.9397 31.9647 38.9621 32.0967 38.9364 32.2367Z" fill="#ED7786"/>
<path d="M32.936 20.467C32.9456 20.4861 32.9456 20.5099 32.9263 20.5433C32.9135 20.5179 32.9006 20.4924 32.8878 20.467C32.8814 20.4558 32.8766 20.4447 32.8701 20.4336C32.8621 20.4193 32.8557 20.4049 32.8477 20.3906C32.8653 20.4065 32.8878 20.4193 32.9071 20.4336C32.9183 20.4431 32.9295 20.4543 32.936 20.467Z" fill="#EB7F8D"/>
<path d="M35.9805 20.5463C35.9018 20.4923 35.8167 20.4636 35.73 20.4493C35.7669 20.427 35.7974 20.3857 35.8135 20.3125C35.8697 20.3904 35.9259 20.4684 35.9805 20.5463Z" fill="#EB7F8D"/>
<path d="M4.15629 20.3826C4.19483 20.4192 4.23658 20.4414 4.27993 20.4542C4.19322 20.4685 4.10812 20.4955 4.02783 20.548C4.07119 20.4939 4.11294 20.4382 4.15629 20.3826Z" fill="#EB7F8D"/>
<path d="M6.97255 20.4336C6.96774 20.4447 6.96131 20.4559 6.9565 20.467C6.94204 20.4925 6.9292 20.5179 6.91635 20.5434C6.89708 20.5099 6.89708 20.4861 6.90672 20.467C6.91314 20.4543 6.92438 20.4431 6.93562 20.4336H6.97255Z" fill="#EB7F8D"/>
<path d="M31.7248 37.728V37.7614C31.7248 38.3325 31.7248 38.9036 31.7232 39.4762H31.5626C31.561 38.8924 31.561 38.3102 31.561 37.7264L31.5659 37.7216H31.5675C31.5739 37.7153 31.5819 37.7105 31.5883 37.7057C31.614 37.6898 31.6413 37.6867 31.667 37.693C31.6863 37.6978 31.7039 37.7073 31.7216 37.7232L31.7248 37.728Z" fill="#D9596B"/>
<path d="M8.60261 37.8058C8.60261 38.3626 8.60261 38.9177 8.60261 39.4745C8.54801 39.4745 8.49502 39.4745 8.44043 39.4745C8.44043 38.9177 8.44043 38.361 8.44043 37.8058C8.45167 37.7947 8.46452 37.7851 8.47576 37.774C8.50626 37.7645 8.53838 37.7645 8.56889 37.774C8.57852 37.7851 8.59137 37.7963 8.60261 37.8058Z" fill="#D9596B"/>
<path d="M2.13005 31.8995C2.13487 31.925 2.12845 31.952 2.11239 31.9775C2.10918 31.9839 2.10436 31.9918 2.09794 31.9982C1.88598 31.9982 1.67081 32.0173 1.46046 31.995C1.25011 31.9711 1.14253 32.0666 1.06706 32.2368C1.05261 32.0698 1.04458 31.9027 1.12165 31.7437C1.41069 31.9393 1.73344 31.8073 2.04174 31.8327C2.06101 31.8343 2.07867 31.8359 2.09633 31.8391L2.09954 31.8423C2.11721 31.8614 2.12684 31.8805 2.13005 31.8995Z" fill="#D9596B"/>
<path d="M21.7665 2.09073C21.7665 2.11777 21.7681 2.14481 21.7681 2.17344C21.6669 2.38501 21.5882 2.60612 21.455 2.80178C21.3249 2.99426 21.2976 3.21378 21.3249 3.44126C21.341 3.58124 21.3923 3.726 21.288 3.85644C20.9106 4.01074 20.5365 4.02824 20.164 3.84371C20.111 3.84371 20.0564 3.84212 20.0034 3.84212C19.8284 3.5367 19.936 3.19151 19.9665 2.89564C20.0227 2.32456 20.0114 1.75508 20.0532 1.1856C20.066 1.00585 20.0259 0.814957 20.1656 0.660656C20.2459 0.608162 20.3245 0.555668 20.4048 0.503174C21.1595 0.724286 21.6332 1.18719 21.7039 1.99528C21.7023 2.03028 21.7424 2.05891 21.7665 2.09073Z" fill="#EDEBF1"/>
<path d="M21.768 9.09311C21.768 9.62282 21.768 10.1541 21.7664 10.6838C21.7215 10.7061 21.6749 10.7172 21.6251 10.7188C21.2638 10.7125 20.9025 10.722 20.5428 10.7125C20.151 10.7013 20.0692 10.6234 20.0531 10.2464C20.0419 9.98233 20.0547 9.71668 20.0499 9.45102C20.0451 9.13924 20.1912 8.98335 20.5059 8.97698C20.6263 8.9738 20.7468 8.97221 20.8672 8.97062C21.5641 8.96744 21.5625 8.96744 21.5657 8.25797C21.5673 7.97959 21.548 7.70122 21.5866 7.42443C21.5962 7.37671 21.6155 7.33217 21.6412 7.29081C21.6749 7.24627 21.7166 7.23672 21.7664 7.26217C21.768 7.87302 21.768 8.48227 21.768 9.09311Z" fill="#EDEBF1"/>
<path d="M21.768 7.26376C21.7407 7.26376 21.715 7.26376 21.6877 7.26376C21.5785 7.16514 21.5673 7.03152 21.5641 6.89949C21.5529 6.21388 21.5529 5.52986 21.5641 4.84426C21.5657 4.71223 21.5785 4.57861 21.6877 4.47998C21.715 4.50702 21.7407 4.53407 21.768 4.55952C21.768 5.46146 21.768 6.36182 21.768 7.26376Z" fill="#E7E6ED"/>
<path d="M30.9878 31.8311C30.9926 31.8342 30.9958 31.8374 31.0006 31.8422V31.9981C30.9701 31.9615 30.9605 31.9249 30.9685 31.8867C30.9685 31.8724 30.9733 31.8565 30.983 31.8422C30.983 31.839 30.9846 31.8342 30.9878 31.8311Z" fill="#EC7A89"/>
<path d="M31.6094 31.2519C31.648 31.244 31.6849 31.2535 31.7218 31.2838H31.5645C31.5596 31.279 31.5564 31.2758 31.5532 31.271C31.5564 31.2678 31.5613 31.2663 31.5645 31.2663C31.5789 31.2567 31.595 31.2519 31.6094 31.2519Z" fill="#EC7A89"/>
<path d="M31.6674 37.693C31.6867 37.6977 31.7044 37.7073 31.722 37.7232H31.6883C31.6466 37.7232 31.608 37.7232 31.5679 37.7216C31.5743 37.7152 31.5823 37.7105 31.5887 37.7057C31.5984 37.6993 31.6064 37.6914 31.6144 37.6834C31.6241 37.6564 31.6305 37.6293 31.6337 37.6023C31.6385 37.623 31.6449 37.6421 31.6514 37.6612C31.6562 37.6723 31.661 37.6818 31.6674 37.693Z" fill="#EC7A89"/>
<path d="M35.5773 31.8423V31.9982C35.5645 31.9823 35.5548 31.968 35.5484 31.9536C35.5436 31.9425 35.542 31.9314 35.542 31.9202C35.542 31.8948 35.5532 31.8693 35.5773 31.8423Z" fill="#EC7A89"/>
<path d="M31.5661 26.1267C31.5629 26.1267 31.5613 26.1236 31.5581 26.122C31.5613 26.1188 31.5629 26.1172 31.5661 26.114H31.7203C31.6817 26.1395 31.6448 26.1506 31.6095 26.1442C31.595 26.1411 31.5806 26.1363 31.5661 26.1267Z" fill="#EB7F8D"/>
<path d="M31.7218 31.2838H31.5645C31.5596 31.279 31.5564 31.2758 31.5532 31.271C31.5564 31.2678 31.5613 31.2663 31.5645 31.2663C31.5789 31.2567 31.595 31.2519 31.6094 31.2519C31.648 31.244 31.6849 31.2535 31.7218 31.2838Z" fill="#EB7F8D"/>
<path d="M2.13138 31.9998C2.14101 32.0141 2.14904 32.0284 2.15707 32.0427C2.1378 32.0316 2.11853 32.0157 2.09926 31.9998L2.09766 31.9982V31.9664C2.09766 31.9377 2.09926 31.9091 2.09926 31.8805V31.8423C2.11693 31.8614 2.12656 31.8805 2.12977 31.8996C2.13459 31.925 2.12817 31.952 2.11211 31.9775C2.11532 31.9791 2.11853 31.9807 2.12174 31.9839C2.12495 31.9886 2.12817 31.995 2.13138 31.9998Z" fill="#EC7988"/>
<path d="M7.95864 31.8423V31.9982C7.95383 32.0029 7.95061 32.0061 7.9458 32.0093C7.94259 32.0061 7.94098 32.0014 7.94098 31.9982C7.93135 31.9839 7.92813 31.968 7.92653 31.9536C7.9185 31.9155 7.92813 31.8773 7.95864 31.8423Z" fill="#EC7988"/>
<path d="M39.19 37.8042C39.1804 37.8042 39.1708 37.8058 39.1611 37.8058C39.1435 37.8074 39.1274 37.8074 39.1098 37.8074C39.0969 37.8138 39.0857 37.8202 39.0728 37.8265C38.7164 38.0015 38.347 37.9331 37.9777 37.8711C37.9472 37.8551 37.9215 37.8361 37.9006 37.8154H37.899C37.899 37.8138 37.8974 37.8122 37.8958 37.8122C37.8958 37.8106 37.8942 37.8106 37.8942 37.8106C37.8942 37.809 37.8926 37.8074 37.8926 37.8074C37.8091 37.7136 37.8107 37.5847 37.7915 37.4622C37.7417 37.168 37.5779 36.9914 37.268 36.9643C36.9436 36.9341 36.7461 37.0948 36.6193 37.3747C36.5615 37.502 36.5823 37.6627 36.5004 37.782C36.4972 37.7899 36.4908 37.7963 36.4844 37.8042C36.4731 37.8186 36.4603 37.8313 36.4442 37.844C36.4442 37.844 36.4442 37.844 36.4426 37.844C36.433 37.8536 36.4234 37.8615 36.4121 37.8679C36.3816 37.8742 36.3527 37.879 36.3222 37.8854C36.1263 37.922 35.9288 37.9474 35.7409 37.8854C35.7185 37.879 35.6976 37.8711 35.6767 37.8615C35.659 37.8536 35.643 37.8456 35.6269 37.8377C35.6125 37.8297 35.5996 37.8217 35.5868 37.8122C35.5836 37.8122 35.5804 37.809 35.5771 37.8074V37.8058C35.6558 37.1536 36.0171 36.6382 36.5053 36.2533C37.0255 35.8429 38.3631 36.1722 38.6858 36.7448C38.8785 37.0852 39.1644 37.3859 39.19 37.8042Z" fill="#F06977"/>
<path d="M31.0006 31.8422V31.9981C30.9701 31.9615 30.9605 31.9249 30.9685 31.8867C30.9685 31.8724 30.9733 31.8565 30.983 31.8422C30.983 31.839 30.9846 31.8342 30.9878 31.8311C30.9926 31.8342 30.9958 31.8374 31.0006 31.8422Z" fill="#EB7F8E"/>
<path d="M7.94599 32.0099C7.94261 32.0065 7.94092 32.0014 7.94092 31.998H7.95952C7.95444 32.0031 7.95106 32.0065 7.94599 32.0099Z" fill="#F06977"/>
<path d="M8.44497 37.798C8.44336 37.7996 8.44336 37.7996 8.44176 37.8012L8.43855 37.8059C5.18534 37.5403 2.57763 35.1828 2.09912 31.9998H2.13124C2.14087 32.0141 2.1489 32.0284 2.15693 32.0427C2.29181 32.2797 2.30947 32.5533 2.38815 32.8094C3.14124 35.2576 4.76463 36.8165 7.25512 37.4878C7.51365 37.5578 7.77538 37.6071 8.03872 37.6516C8.18003 37.6755 8.33578 37.6898 8.44176 37.7948C8.44336 37.7948 8.44336 37.7964 8.44497 37.798Z" fill="#F06977"/>
<path d="M3.12205 35.9749C3.49779 35.9828 3.88156 35.8937 4.14971 36.1562C4.52224 36.5205 4.75026 36.9929 4.96703 37.4622C5.01039 37.556 4.94616 37.6419 4.91725 37.7278C4.77274 38.1605 4.50298 38.5232 4.24606 38.8923C4.17862 38.9893 4.07906 39.0561 3.95382 39.0879C3.45283 39.2136 2.94381 39.1945 2.44603 39.1134C2.04781 39.0482 1.92578 38.6505 1.73148 38.3578C1.53558 38.0635 1.24655 37.7469 1.41194 37.3827C1.63835 36.8848 1.85994 36.3535 2.36735 36.0464C2.60982 35.9001 2.89082 36.0051 3.12205 35.9749Z" fill="#D9596B"/>
<path d="M14.8522 31.6784C14.849 30.8878 14.8474 30.0956 14.8442 29.305C14.8105 29.3575 14.7784 29.4084 14.7318 29.48C14.4621 28.4015 13.7363 27.6666 12.9302 26.9905C12.6556 26.8919 12.4677 26.7089 12.3714 26.4338C11.8335 25.7863 11.6006 25.0212 11.4931 24.2067C11.3469 23.8409 11.432 23.4607 11.4256 23.0868C11.416 22.9039 11.4063 22.721 11.3967 22.5396C11.3951 22.5333 11.3935 22.5269 11.3919 22.5205H11.3967C11.3983 21.7809 11.3983 21.0428 11.3983 20.3047C11.3983 20.2999 11.3983 20.2967 11.3999 20.2919C11.408 20.1933 11.416 20.0931 11.424 19.9945C11.416 19.969 11.4144 19.9436 11.4208 19.9165C11.4192 19.5443 11.4176 19.1721 11.416 18.7998C11.416 18.4801 11.4144 18.1619 11.4144 17.8438C11.4128 17.3602 11.4144 16.8782 11.4096 16.3946C11.408 16.2562 11.4545 16.1019 11.3132 15.9954C11.1687 16.0208 11.0242 16.0431 10.8813 16.0717C10.0913 16.2292 9.35904 16.5505 8.61077 16.8321C8.61077 16.8496 8.60756 16.8687 8.59953 16.8846C8.54814 16.8894 8.49676 16.8941 8.44538 16.8989C8.44217 16.9196 8.43896 16.9403 8.43896 16.9609C6.70958 17.7309 5.30457 18.8984 4.15647 20.3826C4.19501 20.4192 4.23676 20.4415 4.28011 20.4542C4.1934 20.4685 4.1083 20.4955 4.02801 20.548C3.00034 21.9097 2.29222 23.4129 1.9502 25.0832C2.0642 25.2073 2.01442 25.36 2.01603 25.5016C2.01924 27.393 2.01924 29.2843 2.01603 31.1757C2.01603 31.4016 2.02888 31.6227 2.09632 31.8391L2.09953 31.8422C2.11719 31.8613 2.12683 31.8804 2.13004 31.8995C2.13485 31.925 2.12843 31.952 2.11237 31.9775C2.11559 31.979 2.1188 31.9806 2.12201 31.9838C2.12522 31.9886 2.12843 31.995 2.13164 31.9997C2.14128 32.014 2.14931 32.0284 2.15733 32.0427C2.29222 32.2797 2.30988 32.5533 2.38856 32.8094C3.14165 35.2575 4.76504 36.8165 7.25553 37.4878C7.51405 37.5577 7.77579 37.6071 8.03913 37.6516C8.18043 37.6755 8.33619 37.6898 8.44217 37.7948C8.44377 37.7948 8.44377 37.7964 8.44538 37.7979C8.48713 37.7502 8.51442 37.7009 8.52888 37.6468C8.53851 37.6977 8.55617 37.7486 8.59311 37.7948C8.59471 37.7932 8.59792 37.7916 8.59953 37.79C8.71835 37.6945 8.86126 37.6866 9.00417 37.6834C9.50837 37.6755 10.0126 37.6691 10.5168 37.6866C10.6517 37.6914 10.8251 37.6596 10.9021 37.8059C12.0213 36.3727 13.171 34.9617 14.1714 33.4425C14.4444 33.0305 14.6034 32.5676 14.7463 32.0999C14.7479 32.0983 14.7495 32.0968 14.7511 32.0952C14.7591 32.0872 14.7687 32.0809 14.7768 32.0777C14.7977 32.0681 14.8217 32.0697 14.8474 32.084C14.8555 32.0554 14.8651 32.0284 14.8747 32.0013V31.8407C14.902 31.7738 14.9133 31.7134 14.8522 31.6784ZM8.44377 26.5117H8.59792C8.60113 26.5149 8.60274 26.5165 8.60435 26.5197C8.60274 26.5228 8.60113 26.5244 8.59792 26.5244C8.58508 26.534 8.57063 26.5387 8.55457 26.5419C8.52085 26.5483 8.48392 26.5371 8.44377 26.5117ZM6.90709 20.4669C6.91351 20.4542 6.92475 20.443 6.93599 20.4335H6.97292C6.96811 20.4446 6.96168 20.4558 6.95687 20.4669C6.94241 20.4924 6.92957 20.5178 6.91672 20.5433C6.89745 20.5099 6.89745 20.486 6.90709 20.4669ZM7.94118 31.9981C7.93154 31.9838 7.92833 31.9679 7.92673 31.9536C7.9187 31.9154 7.92833 31.8772 7.95884 31.8422V31.9981C7.95402 32.0029 7.95081 32.0061 7.946 32.0093C7.94278 32.0061 7.94118 32.0013 7.94118 31.9981ZM8.57865 32.426C8.55136 32.4674 8.53691 32.5088 8.52888 32.5533C8.51282 32.4976 8.48552 32.4451 8.44217 32.3974C8.44377 32.3926 8.44377 32.3863 8.44377 32.3815C8.44859 32.3863 8.4518 32.3926 8.45662 32.3974H8.59953V32.4197C8.59311 32.4229 8.58668 32.426 8.57865 32.426Z" fill="#F06977"/>
<path d="M8.59949 32.4197C8.59306 32.4229 8.58664 32.4261 8.57861 32.4261C8.58504 32.4165 8.59146 32.407 8.59949 32.3975V32.4197Z" fill="#F06977"/>
<path d="M14.7845 32.0872C14.7797 32.5962 14.5452 33.0353 14.2851 33.4425C13.3024 34.976 12.1222 36.3678 11.0287 37.8218C11.0062 37.852 10.9628 37.8663 10.9307 37.887C10.9114 37.8695 10.8922 37.8552 10.8729 37.844C10.7268 37.7534 10.555 37.8122 10.3976 37.8106C9.80028 37.7995 9.20135 37.8059 8.60241 37.8075L8.5992 37.8027C8.59759 37.7995 8.59438 37.7979 8.59277 37.7947C8.59438 37.7931 8.59759 37.7916 8.5992 37.79C8.71802 37.6945 8.86093 37.6866 9.00384 37.6834C9.50804 37.6754 10.0122 37.6691 10.5164 37.6866C10.6513 37.6913 10.8247 37.6595 10.9018 37.8059C12.021 36.3726 13.1707 34.9616 14.1711 33.4425C14.4441 33.0305 14.603 32.5676 14.7459 32.0999C14.7475 32.0983 14.7491 32.0967 14.7508 32.0951C14.7588 32.0872 14.7684 32.0808 14.7764 32.0776C14.7797 32.0808 14.7813 32.084 14.7845 32.0872Z" fill="#F06977"/>
<path d="M37.9053 37.8042C38.3067 37.8042 38.7082 37.8058 39.1096 37.8058C39.0101 38.3276 38.6873 38.7284 38.3678 39.1293C38.2634 39.2597 38.0868 39.2661 37.9358 39.309C37.886 39.3234 37.8282 39.3059 37.7769 39.317C36.5485 39.5842 35.98 38.862 35.5786 37.8837C35.858 37.801 36.1438 37.8662 36.4248 37.844C36.5581 37.8265 36.648 37.9092 36.7412 37.9824C36.8359 38.0555 36.9403 38.1446 37.0559 38.1398C37.4959 38.1208 37.8812 38.2305 38.1879 38.5837C38.1687 38.2607 37.6147 38.2305 37.8539 37.8249C37.87 37.8185 37.8877 37.8122 37.9053 37.8042Z" fill="#D9596B"/>
<path d="M36.5406 37.8854C36.2194 37.8854 35.8999 37.8854 35.5788 37.8854C35.5772 37.86 35.5771 37.8329 35.5771 37.8075C35.8726 37.8059 36.1665 37.8059 36.4619 37.8043C36.4876 37.7772 36.5165 37.7741 36.547 37.7932C36.5518 37.8091 36.5583 37.825 36.5631 37.8409C36.5566 37.8552 36.5486 37.8695 36.5406 37.8854Z" fill="#D2667A"/>
<path d="M21.6876 4.47992C21.6876 5.40731 21.6876 6.33471 21.6876 7.2637C21.1785 7.45777 20.6711 7.46413 20.1621 7.26211C20.1621 6.12314 20.1621 4.98259 20.1621 3.84362C20.5362 3.80067 20.9248 3.93429 21.2893 3.7609C21.3487 3.73704 21.3889 3.76886 21.4258 3.80863C21.5109 3.93748 21.5976 4.06633 21.6715 4.20313C21.6811 4.26835 21.7309 4.33039 21.6859 4.40038C21.6876 4.42583 21.6876 4.45287 21.6876 4.47992Z" fill="#DBD7E5"/>
<path d="M20.1624 7.26221C20.6714 7.26221 21.1788 7.2638 21.6878 7.2638C21.6878 7.76647 21.6782 8.27073 21.691 8.7734C21.6974 9.01201 21.6188 9.11064 21.3699 9.09632C21.076 9.08042 20.7822 9.10269 20.4883 9.08996C20.2523 9.07882 20.164 9.15359 20.1559 9.40174C20.1158 10.5932 20.1078 10.5916 21.3121 10.6059C21.4405 10.6075 21.5834 10.563 21.6878 10.6839C21.6685 10.7014 21.6509 10.7173 21.6316 10.7348C20.8111 10.8525 19.9889 10.8366 19.1668 10.7475C19.1186 10.7236 19.0833 10.6886 19.0576 10.6425C18.9468 10.3371 18.9982 10.0189 18.995 9.70716C18.987 9.05178 18.9902 8.3964 18.995 7.74102C18.9966 7.59785 18.9934 7.4515 19.0656 7.31947C19.0833 7.30038 19.101 7.28289 19.1186 7.2638C19.1459 7.2638 19.1716 7.2638 19.1989 7.26539C19.3531 7.44514 19.3097 7.66307 19.3161 7.86987C19.3226 8.06712 19.3145 8.26437 19.3193 8.46162C19.3242 8.64774 19.3579 8.80681 19.5987 8.80522C19.8396 8.80522 19.8733 8.64615 19.8781 8.46003C19.8846 8.19756 19.8765 7.9335 19.883 7.67103C19.8862 7.52468 19.8926 7.37992 20.0002 7.2638C20.0548 7.2638 20.1094 7.26221 20.1624 7.26221Z" fill="#EDEBF1"/>
<path d="M20.1622 0.662354C20.1622 1.72496 20.1687 2.78916 20.0017 3.84382C19.1185 3.84541 19.1185 3.84541 19.1185 2.98323C19.1185 2.57601 19.0944 2.16719 19.202 1.76791C19.3417 1.24615 19.6083 0.830971 20.1622 0.662354Z" fill="#EDEBF1"/>
<path d="M18.317 7.26229C18.317 6.14877 18.3154 5.03526 18.3154 3.92334C19.1183 3.92334 19.1183 3.92334 19.1183 4.70121C19.1183 5.55543 19.1183 6.40966 19.1183 7.26388C18.8517 7.42932 18.5836 7.43091 18.317 7.26229Z" fill="#C5C3D7"/>
<path d="M20.0015 7.26392C20.0015 7.72364 19.9871 8.18336 20.0063 8.64308C20.0208 8.99145 19.7864 8.92782 19.5808 8.93419C19.3721 8.94055 19.1826 8.95327 19.1938 8.64467C19.2115 8.18495 19.1987 7.72523 19.1987 7.26551C19.4668 7.26392 19.7334 7.26392 20.0015 7.26392Z" fill="#EDEBF1"/>
<path d="M11.5249 17.812C11.5217 18.1333 11.5233 18.453 11.5233 18.7744C11.5201 19.1196 11.5217 19.4647 11.5217 19.8099V19.8433C11.5233 19.8577 11.5233 19.872 11.5233 19.8879C11.5233 19.9197 11.5233 19.9531 11.5217 19.9849C11.5201 20.0024 11.5185 20.0199 11.5169 20.0374C11.5137 20.0804 11.5089 20.1233 11.496 20.1631V20.1647C11.4816 20.214 11.4559 20.2601 11.4077 20.2967C11.4045 20.2999 11.4013 20.3015 11.3981 20.3047C11.3981 20.2999 11.3981 20.2967 11.3997 20.2919C11.4077 20.1933 11.4158 20.0931 11.4238 19.9945C11.4158 19.969 11.4142 19.9436 11.4206 19.9165C11.419 19.5443 11.4174 19.1721 11.4158 18.7998C11.4158 18.4801 11.4142 18.1619 11.4142 17.8438C11.4125 17.3602 11.4142 16.8782 11.4093 16.3946C11.4077 16.2562 11.4543 16.1019 11.313 15.9954C11.4013 16.0081 11.4527 16.0399 11.4816 16.0844C11.4896 16.094 11.4944 16.1051 11.4993 16.1163C11.533 16.1974 11.5153 16.3056 11.5185 16.3946C11.533 16.8671 11.5233 17.3395 11.5249 17.812Z" fill="#F06977"/>
<path d="M18.3076 14.0261C18.3108 12.9125 18.314 11.799 18.3173 10.6839C18.5838 10.5153 18.8504 10.5169 19.1185 10.6823C19.2566 10.8382 19.2181 11.0291 19.2261 11.2089C19.2534 11.7879 19.361 12.3303 19.8443 12.7296C19.9663 12.8298 20.0611 12.9603 20.0948 13.1241C20.1076 13.4391 20.1992 13.7604 19.9904 14.0499C19.4284 14.1963 18.868 14.2281 18.3124 14.0276L18.3076 14.0261Z" fill="#C5C3D7"/>
<path d="M19.1186 10.6822C18.8521 10.6822 18.5839 10.6838 18.3174 10.6838C18.3174 9.5432 18.3174 8.40264 18.3174 7.2605C18.5839 7.2605 18.8521 7.26209 19.1186 7.26209C19.1186 8.40264 19.1186 9.5432 19.1186 10.6822Z" fill="#DBD7E5"/>
<path d="M28.5779 21.9971C28.573 22.7336 28.6806 23.4733 28.512 24.205C28.4333 25.1149 28.1154 25.9198 27.4506 26.5736C27.0717 26.9458 26.6943 27.3213 26.3154 27.6951C25.747 28.2582 25.3808 28.9343 25.1528 29.6914C25.2106 28.8802 25.6635 28.2646 26.1837 27.6903C26.4583 27.3849 26.7489 27.089 27.0604 26.8218C27.8665 26.1266 28.3001 25.2533 28.4237 24.2241C28.4285 24.2034 28.4301 24.1827 28.4317 24.1621C28.4349 24.1398 28.4382 24.1175 28.4398 24.0952C28.4992 23.5719 28.4574 23.047 28.4735 22.5236C28.4783 22.3423 28.4446 22.153 28.5779 21.9971Z" fill="#F06977"/>
<path d="M30.9885 31.8311C30.9935 31.8344 30.9969 31.8378 31.002 31.8429H30.9834C30.9834 31.8395 30.9851 31.8344 30.9885 31.8311Z" fill="#F06977"/>
<path d="M31.5532 31.2713C31.5565 31.268 31.5615 31.2664 31.5648 31.2664V31.2843C31.5598 31.2794 31.5565 31.2761 31.5532 31.2713Z" fill="#F06977"/>
<path d="M31.5666 26.114V26.1276C31.5632 26.1276 31.5615 26.1242 31.5581 26.1225C31.5615 26.1191 31.5632 26.1174 31.5666 26.114Z" fill="#F06977"/>
<path d="M8.59766 26.5117C8.60104 26.5151 8.60273 26.5168 8.60442 26.5202C8.60273 26.5236 8.60104 26.5253 8.59766 26.5253V26.5117Z" fill="#F06977"/>
<path d="M14.844 29.3049C14.8103 29.3574 14.7782 29.4083 14.7316 29.4799C14.4618 28.4014 13.736 27.6665 12.93 26.9904C12.6554 26.8918 12.4675 26.7089 12.3712 26.4337C11.8332 25.7862 11.6004 25.0211 11.4928 24.2066C11.3467 23.8408 11.4318 23.4606 11.4254 23.0868C11.4158 22.9038 11.4061 22.7209 11.3965 22.5396C11.4431 22.5793 11.472 22.6223 11.4912 22.6684V22.67C11.5362 22.7861 11.5121 22.9166 11.5233 23.039C11.5233 23.0502 11.5249 23.0613 11.5265 23.0724C11.5378 23.4272 11.4993 23.7835 11.5699 24.1366C11.5715 24.1446 11.5715 24.151 11.5731 24.1589C11.5763 24.1828 11.5795 24.205 11.5844 24.2289C11.7064 24.9956 11.9649 25.7115 12.4049 26.3621C12.4402 26.4257 12.4787 26.4877 12.5205 26.545C12.5992 26.6516 12.6891 26.7454 12.7967 26.8202C12.8513 26.86 12.9123 26.8934 12.9781 26.922C13.7569 27.5599 14.4763 28.2455 14.7412 29.2604C14.7669 29.3606 14.8199 29.2715 14.844 29.3049Z" fill="#F06977"/>
<path d="M11.61 22.7002C11.6084 22.8179 11.6261 22.9595 11.5233 23.039C11.4993 23.0597 11.4671 23.0756 11.4254 23.0868C11.4158 22.9038 11.4061 22.7209 11.3965 22.5396V22.5205C11.3981 21.7808 11.3981 21.0427 11.3981 20.3046C11.3981 20.2998 11.3981 20.2966 11.3997 20.2919C11.4077 20.1932 11.4158 20.093 11.4238 19.9944C11.4623 20.0039 11.4928 20.0182 11.5169 20.0373C11.6277 20.1153 11.6068 20.26 11.61 20.3778C11.6245 21.1524 11.6245 21.9271 11.61 22.7002Z" fill="#E2DFEA"/>
<path d="M28.5122 24.2051C28.4817 24.2178 28.4512 24.2242 28.4239 24.2242C28.3034 24.2337 28.2039 24.1574 28.1059 24.1001C27.2132 23.5752 26.33 23.0327 25.4404 22.5014C25.3248 22.433 25.2172 22.3566 25.1514 22.2358C24.6488 21.7394 24.0033 21.4547 23.4124 21.092C23.0896 20.8932 22.7894 20.6466 22.412 20.5464C22.3044 20.4207 22.1439 20.3857 22.009 20.3078C21.9271 20.3316 21.842 20.3221 21.7745 20.2871C21.2671 20.0215 20.6778 19.9944 20.1624 19.7526C20.1094 19.751 20.0548 19.751 20.0018 19.751C19.2937 19.8878 18.6353 20.2076 17.9176 20.311C17.8084 20.3889 17.7008 20.4669 17.5916 20.5448C16.9814 20.7834 16.4564 21.1716 15.8895 21.4881C15.6005 21.6488 15.3211 21.8301 15.0465 22.0162C14.9534 22.0799 14.7784 22.118 14.8571 22.3042C13.8519 22.9214 12.8467 23.5386 11.8302 24.1383C11.7548 24.1828 11.6745 24.2321 11.5846 24.2289C11.5557 24.2273 11.5252 24.221 11.493 24.2067C11.3469 23.8408 11.432 23.4606 11.4256 23.0868C11.5284 22.9579 11.5011 22.8116 11.4914 22.67V22.6684C11.4898 22.643 11.4882 22.6159 11.4882 22.5905C11.4882 22.5316 11.4898 22.4712 11.4898 22.4123C11.4898 22.4107 11.4898 22.4107 11.4898 22.4091C11.4947 21.7681 11.493 21.127 11.4898 20.4859V20.3714C11.4882 20.3046 11.5011 20.233 11.4963 20.1646V20.163C11.4914 20.1026 11.4738 20.0469 11.424 19.9944C11.416 19.969 11.4144 19.9435 11.4208 19.9165C11.4433 19.891 11.4657 19.8656 11.4882 19.8401C11.4914 19.8369 11.4947 19.8322 11.4979 19.829C11.4995 19.8274 11.4995 19.8274 11.5011 19.8258C11.5075 19.821 11.5139 19.8147 11.5219 19.8099C11.6873 19.6747 11.8752 19.5729 12.0631 19.4758C12.1402 19.4361 12.2253 19.3804 12.2991 19.4297C12.3039 19.4329 12.3088 19.4361 12.3136 19.4408C12.3296 19.4552 12.3473 19.4758 12.3617 19.5061C12.4404 19.7781 12.3971 20.0549 12.4051 20.3285C12.4051 20.3476 12.4035 20.3682 12.4035 20.3873C12.4019 20.4128 12.4019 20.4366 12.4019 20.4621C12.3906 20.855 12.3874 21.2479 12.4019 21.6392C12.4212 22.1387 12.6026 22.2389 13.0249 21.986C13.8406 21.4992 14.6387 20.9823 15.4351 20.4653H15.4367C15.4769 20.4398 15.5138 20.4128 15.5539 20.3873C15.578 20.3714 15.6037 20.3555 15.6278 20.3396C16.5752 19.8512 17.4246 19.2006 18.372 18.7123C18.8473 18.4689 19.3146 18.216 19.8332 18.0776C19.8718 18.0696 19.9087 18.0617 19.9456 18.0521C19.9745 18.0458 20.0034 18.0394 20.0307 18.0314C20.0725 18.0219 20.1142 18.0108 20.1544 18.0012C20.1849 17.9933 20.2138 17.9853 20.2443 17.9774C20.2443 17.9774 20.2443 17.9774 20.2459 17.9774C20.3005 17.963 20.3551 17.9471 20.4097 17.9328C21.243 17.7849 21.9977 18.0378 22.7171 18.4084C24.4224 19.2897 26.0008 20.381 27.6419 21.3672C27.9277 21.539 28.2713 21.636 28.4769 21.9224C28.4897 21.9399 28.5026 21.959 28.5138 21.9781C28.5282 21.9812 28.5427 21.9844 28.5555 21.9908C28.5636 21.9924 28.57 21.994 28.578 21.9971C28.5732 22.7337 28.6808 23.4733 28.5122 24.2051Z" fill="#DBD7E5"/>
<path d="M28.5136 21.9781C28.5039 21.9734 28.4959 21.9686 28.4863 21.9622C27.115 21.1971 25.8079 20.3285 24.4639 19.522C23.5101 18.9494 22.5804 18.3306 21.4772 18.0506C21.1208 17.9599 20.7611 18.0268 20.403 18.0013C20.2826 18.0427 20.2055 18.0363 20.1541 18.0013C20.1172 17.9743 20.0931 17.9329 20.0786 17.8836C20.0626 17.8263 20.0578 17.7563 20.0562 17.6879C20.0401 17.1566 20.0497 16.6269 20.0497 16.0972C20.0481 15.5532 20.0465 15.0107 20.0497 14.4667C20.0513 14.3856 20.0465 14.3029 20.0578 14.2233C20.0658 14.166 20.0803 14.1104 20.1124 14.0563C20.114 14.0515 20.1172 14.0452 20.1204 14.0404C20.1316 14.0356 20.1413 14.0308 20.1525 14.0261C20.6358 13.8034 21.1352 13.8877 21.633 13.9736C21.6507 13.9895 21.6667 14.0054 21.6844 14.0197L21.686 14.0213V14.0229L21.6908 14.0261C21.7261 15.3814 22.5161 16.2579 23.5872 16.9546C23.9774 17.2075 24.3579 17.4748 24.7545 17.7182C24.8653 17.7866 24.9729 17.9265 25.1415 17.8406C25.2266 17.8009 25.2973 17.8422 25.3647 17.882C26.3683 18.5008 27.3751 19.1148 28.3642 19.7559C28.4028 19.7813 28.4365 19.8147 28.467 19.8513C28.4702 19.8561 28.475 19.8609 28.4782 19.8656C28.4782 19.8672 28.4798 19.8704 28.4814 19.872C28.4846 19.8816 28.4895 19.8927 28.4927 19.9022C28.4943 19.907 28.4975 19.9134 28.4991 19.9181V19.934C28.5039 20.6165 28.5087 21.2957 28.5136 21.9781Z" fill="#EDEBF1"/>
<path d="M28.5104 15.9604V19.9118C28.4991 19.8991 28.4879 19.8848 28.4815 19.8721C28.4751 19.8657 28.4702 19.8577 28.467 19.8514C28.3867 19.7225 28.3851 19.573 28.3851 19.4235C28.3819 18.4309 28.3803 17.4382 28.3867 16.4472C28.3867 16.277 28.3723 16.0988 28.5104 15.9604Z" fill="#F06977"/>
<path d="M8.59283 37.7947C8.59444 37.7931 8.59765 37.7915 8.59926 37.7899V37.8026H8.58962C8.54145 37.8026 8.49649 37.8026 8.44832 37.801H8.44189V37.7947C8.4435 37.7947 8.4435 37.7963 8.44511 37.7978C8.48686 37.7501 8.51415 37.7008 8.5286 37.6467C8.53824 37.6976 8.5559 37.7485 8.59283 37.7947Z" fill="#EB7988"/>
<path d="M8.59926 32.3975V32.4197C8.59283 32.4229 8.58641 32.4261 8.57838 32.4261C8.55108 32.4675 8.53663 32.5088 8.5286 32.5534C8.51255 32.4977 8.48525 32.4452 8.44189 32.3975H8.59926Z" fill="#EB7988"/>
<path d="M28.5106 15.9603V19.9117C28.5042 19.9085 28.4994 19.9053 28.4929 19.9021C27.3481 19.2595 26.2546 18.5341 25.1418 17.8406C25.1514 17.4445 25.1097 17.0516 25.1932 16.6555C25.2847 16.2116 25.5496 15.9699 25.9719 15.849C26.4874 15.6994 27.0076 15.779 27.5247 15.8076C27.8555 15.8251 28.183 15.9078 28.5106 15.9603Z" fill="#C34761"/>
<path d="M21.691 14.0261L21.6861 14.0229C21.4983 13.7716 21.585 13.4836 21.5705 13.2084C21.5497 12.5149 21.5625 11.8213 21.5625 11.1278C21.5625 10.9703 21.5705 10.8112 21.6878 10.6855H21.6894C21.715 10.6855 21.7423 10.6855 21.768 10.6855" fill="#EDEBF1"/>
<path d="M21.3698 3.84533C21.3425 3.81669 21.3168 3.78965 21.2895 3.76102C21.0358 3.11041 21.3666 2.63001 21.7664 2.17188C21.7664 2.79067 21.7696 3.40947 21.7648 4.02985C21.7632 4.15552 21.8097 4.29709 21.6861 4.40049C21.6588 4.348 21.6331 4.29391 21.6058 4.24142C21.662 4.02985 21.5304 3.92804 21.3698 3.84533Z" fill="#EDEBF1"/>
<path d="M36.5406 37.8059C36.5149 37.8059 36.4876 37.8043 36.4619 37.8043C36.4603 37.1299 36.7317 36.8149 37.2808 36.8515C37.7481 36.8833 37.9071 37.1235 37.9055 37.8059V37.8075C37.8123 37.868 37.716 37.8982 37.6084 37.8441C37.5121 37.763 37.5554 37.6484 37.5426 37.5498C37.5153 37.3557 37.4141 37.2285 37.2102 37.2237C37.0207 37.2189 36.9292 37.3382 36.8907 37.5132C36.8489 37.6914 36.8634 37.9491 36.5406 37.8059Z" fill="#F06977"/>
<path d="M3.70191 37.5035C3.559 37.7915 3.70512 38.011 4.02145 38.1764C4.13867 38.2369 4.24786 38.3625 4.13867 38.5041C4.00539 38.6775 3.90584 38.52 3.81913 38.4341C3.58951 38.2066 3.36792 38.0555 2.99057 38.1048C2.58272 38.1573 2.2423 37.7597 2.25836 37.3763C2.27602 36.9929 2.62768 36.6795 3.02911 36.6923C3.48353 36.705 3.71155 36.9595 3.70191 37.5035Z" fill="#D9596B"/>
<path d="M37.5843 37.8043C37.6918 37.8043 37.7978 37.8059 37.9054 37.8059C37.7721 37.9905 37.9054 38.097 38.029 38.2004C38.119 38.2768 38.2265 38.3356 38.3116 38.4168C38.4 38.5011 38.4096 38.6061 38.3133 38.6952C38.2169 38.7842 38.1463 38.7095 38.074 38.6474C37.9423 38.5377 37.8091 38.4295 37.6758 38.3213C37.5907 38.2513 37.5136 38.2211 37.3884 38.2482C37.0271 38.3277 36.7364 38.202 36.5405 37.8839L36.5421 37.8823C36.8842 37.798 37.2149 37.5323 37.5843 37.8043Z" fill="#D9596B"/>
<path d="M37.5844 37.8043C37.2311 37.7693 36.8891 37.8504 36.5407 37.8838C36.5407 37.8584 36.5407 37.8313 36.5391 37.8059C36.7028 37.817 36.796 37.7534 36.7783 37.5784C36.7558 37.3573 36.8152 37.1887 37.0513 37.1187C37.2327 37.0646 37.3837 37.09 37.525 37.2284C37.7129 37.4114 37.6904 37.6007 37.5844 37.8043Z" fill="#F06977"/>
<path d="M21.3696 3.84529C21.7004 3.82938 21.7791 3.95982 21.6073 4.24138C21.5286 4.10935 21.4483 3.97732 21.3696 3.84529Z" fill="#D6D3E2"/>
<path d="M21.6877 10.6838C21.6877 11.5333 21.6877 12.3812 21.6861 13.2306C21.0968 13.4565 20.538 13.3833 20.0017 13.0683C19.9953 13.0572 19.9937 13.0413 19.9841 13.0334C19.1876 12.4336 19.0575 11.5921 19.1186 10.6838C19.9744 10.6838 20.8319 10.6838 21.6877 10.6838Z" fill="#EDEBF1"/>
<path d="M20.0016 9.83594C20.0016 9.95525 20.0032 10.073 20.0016 10.1923C19.9984 10.5613 19.6483 10.757 19.3047 10.5884C19.1955 10.5359 19.2019 10.4452 19.2003 10.3561C19.1971 10.0268 19.2115 9.69755 19.1955 9.36827C19.181 9.04217 19.4042 9.09307 19.5969 9.09625C19.7864 9.09784 20.024 9.03581 20.0016 9.3635C19.9919 9.51939 20.0016 9.67687 20.0016 9.83594Z" fill="#EDEBF1"/>
<path d="M12.2959 20.3874C12.2959 20.0756 12.2959 19.7638 12.2959 19.452C12.3007 19.3311 12.3842 19.2643 12.4741 19.2086C13.2031 18.7569 13.9353 18.3099 14.6692 17.8645C14.727 17.8295 14.7896 17.8104 14.8586 17.8295C15.1798 17.8931 15.342 17.6163 15.5636 17.4859C16.3134 17.0389 17.0424 16.5664 17.6157 15.884C18.0733 15.3384 18.2114 14.6941 18.3158 14.0276C18.8794 14.0244 19.443 14.0212 20.0066 14.0181C20.0227 14.0387 20.0387 14.0578 20.0548 14.0785C20.1222 15.3336 20.0676 16.5887 20.0853 17.8438C20.0885 18.0203 19.997 18.1078 19.8444 18.1587C18.5326 18.6073 17.4069 19.3979 16.2412 20.1122C16.0597 20.2235 15.8879 20.3476 15.6711 20.3874C15.6133 20.4208 15.5539 20.4542 15.4881 20.4605C14.4829 20.5608 13.4777 20.5258 12.4725 20.4796C12.4019 20.4764 12.3473 20.4287 12.2959 20.3874Z" fill="#EDEBF1"/>
<path d="M14.857 17.8295C14.0027 18.3703 13.1485 18.9112 12.2958 19.452C12.0309 19.6 11.7675 19.7495 11.5026 19.8974C11.3902 19.5364 11.4817 19.1641 11.4528 18.7998C11.4528 18.4769 11.4528 18.154 11.4528 17.8311C11.4801 17.2059 11.395 16.5776 11.501 15.954C11.7274 15.8999 11.9538 15.8347 12.1915 15.8443C12.3697 15.7838 12.5592 15.8284 12.7422 15.7854C12.9028 15.7472 13.0329 15.8458 13.1051 15.9763C13.3974 16.506 13.8518 16.6905 14.4379 16.6237C14.5422 16.611 14.6498 16.6285 14.7494 16.6762C14.8473 16.7255 14.8072 16.8369 14.857 16.9085C14.8554 17.2155 14.857 17.5225 14.857 17.8295Z" fill="#C34761"/>
<path d="M12.6151 15.7631C13.0487 15.7726 13.4822 15.6756 13.919 15.7917C14.4553 15.9333 14.7058 16.1862 14.7812 16.7302C14.5966 16.7302 14.4087 16.7112 14.2257 16.7334C13.6588 16.805 13.2863 16.541 13.0454 16.0669C12.9491 15.8792 12.8094 15.8458 12.6247 15.8538C12.4802 15.8601 12.3341 15.849 12.188 15.8458C12.3181 15.7472 12.477 15.806 12.6151 15.7631Z" fill="#B8516B"/>
<path d="M11.5009 15.9539C11.5009 16.008 11.4993 16.062 11.4993 16.1161C11.4928 16.692 11.4896 17.2678 11.4832 17.8437C11.4736 17.8596 11.4623 17.8675 11.4527 17.8691C11.4398 17.8707 11.427 17.8628 11.4142 17.8437C11.4125 17.3601 11.4142 16.8781 11.4093 16.3945C11.4077 16.2561 11.4543 16.1018 11.313 15.9952C11.366 15.938 11.435 15.9507 11.5009 15.9539Z" fill="#DE7888"/>
<path d="M11.5022 19.8989C11.4749 19.9053 11.4476 19.9116 11.4203 19.9164C11.4187 19.5442 11.4171 19.172 11.4155 18.7997C11.4284 18.7775 11.4412 18.7679 11.4525 18.7727C11.4621 18.7743 11.4701 18.7838 11.4798 18.7997C11.4878 19.1417 11.4942 19.4822 11.5006 19.8257C11.5006 19.8496 11.5022 19.8751 11.5022 19.8989Z" fill="#DC93A2"/>
<path d="M11.4831 17.8439C11.4815 18.162 11.4815 18.4818 11.4799 18.7999L11.4526 18.7983H11.4478L11.4157 18.7999C11.4157 18.4802 11.4141 18.162 11.4141 17.8439C11.4269 17.8423 11.4398 17.8423 11.4526 17.8423C11.4622 17.8423 11.4735 17.8423 11.4831 17.8439Z" fill="#DC8292"/>
<path d="M20.0016 13.0684C20.5556 13.1908 21.1144 13.2736 21.686 13.2306C21.686 13.4947 21.686 13.7587 21.6844 14.0228C21.177 14.0244 20.6696 14.026 20.1622 14.0276C20.1076 14.0721 20.0546 14.0721 20 14.0276L20.0032 14.0196C20.0032 13.7015 20.0032 13.3849 20.0016 13.0684Z" fill="#C6C4D7"/>
<path d="M14.8567 22.3041C14.8535 24.6377 14.8487 26.9698 14.8438 29.3034V29.3049C14.8101 29.3574 14.778 29.4083 14.7314 29.4799C14.4617 28.4014 13.7359 27.6665 12.9298 26.9904C12.7211 26.8266 12.5316 26.6437 12.371 26.4337C11.8331 25.7862 11.6003 25.0211 11.4927 24.2066C11.52 24.1907 11.5457 24.1748 11.573 24.1589C12.5476 23.5815 13.5223 23.0009 14.4986 22.425C14.6078 22.3598 14.7025 22.2421 14.8567 22.3041Z" fill="#C34761"/>
<path d="M28.5122 24.2052C28.4335 25.1151 28.1155 25.92 27.4508 26.5738C27.0718 26.946 26.6945 27.3214 26.3155 27.6952C25.7471 28.2584 25.381 28.9344 25.153 29.6916C25.153 27.2069 25.1514 24.7222 25.1514 22.2358C26.1212 22.8101 27.0895 23.3859 28.0593 23.9602C28.1814 24.0302 28.3066 24.097 28.4319 24.1622C28.4592 24.1765 28.4849 24.1909 28.5122 24.2052Z" fill="#C34761"/>
<path d="M12.9299 26.9906C12.6553 26.892 12.4674 26.709 12.3711 26.4338C12.4225 26.4688 12.4723 26.5054 12.5204 26.5452C12.6216 26.6279 12.7131 26.7202 12.7966 26.8204C12.8432 26.8761 12.8865 26.9317 12.9299 26.9906Z" fill="#DF7D8D"/>
<path d="M12.2957 20.3875C13.4197 20.3875 14.5437 20.3875 15.6678 20.3875C15.133 20.8679 14.4747 21.1669 13.8918 21.5773C13.6108 21.7746 13.3009 21.9321 13.0071 22.1134C12.5751 22.379 12.3134 22.247 12.2973 21.7348C12.2829 21.2862 12.2941 20.836 12.2957 20.3875Z" fill="#EDEBF1"/>
<path d="M19.9998 14.0261C20.0544 14.0261 20.1074 14.0261 20.162 14.0261C20.162 15.2367 20.162 16.4456 20.162 17.6562C20.162 17.8264 20.1266 18.0205 20.4028 18.0014C20.231 18.1079 20.0383 18.1445 19.8408 18.1604C20.0078 18.0475 20.0046 17.8805 20.003 17.7039C19.9998 16.4774 20.0014 15.2526 19.9998 14.0261Z" fill="#EDEBF1"/>
<path d="M3.02098 37.8091C2.65327 37.8011 2.57459 37.6134 2.5762 37.3351C2.5778 37.0312 2.77209 36.939 3.01456 36.939C3.29075 36.9406 3.47059 37.1108 3.45453 37.3891C3.43847 37.6659 3.24418 37.7948 3.02098 37.8091Z" fill="#D9596B"/>
<path d="M19.7271 3.84371C19.7271 3.84371 21.7663 3.80712 21.7679 3.64486C21.7679 3.48261 21.7744 4.2398 21.7744 4.2398L21.7679 4.55954V7.26219L21.4195 7.24946L20.4609 4.15549L19.7271 3.84371Z" fill="#DBD7E5"/>
<path d="M21.7662 2.09063C21.7662 2.09063 21.5045 0.496715 20.4014 0.504668L21.7662 2.09063Z" fill="#EDEBF1"/>
<path d="M25.1511 22.2359C25.1511 22.2359 22.3395 20.1488 20.1621 19.7528C17.9848 19.3567 25.1238 20.9633 25.1238 20.9633L25.1511 22.2359Z" fill="#DBD7E5"/>
<path d="M20.1624 19.7526C20.1624 19.7526 17.1565 20.2711 14.7944 22.2946L15.1894 21.0586L20.0468 19.3438" fill="#DBD7E5"/>
</g>
<defs>
<clipPath id="clip0_27_6474">
<rect width="39" height="39" fill="white" transform="translate(0.5 0.5)"/>
</clipPath>
</defs>
</svg>
