<svg width="23" height="28" viewBox="0 0 23 28" fill="none" xmlns="http://www.w3.org/2000/svg">
<path d="M19.0737 14.7628C19.0617 12.5655 20.0556 10.9071 22.0672 9.68577C20.9417 8.07525 19.2413 7.18917 16.9962 7.01554C14.8708 6.8479 12.5478 8.25486 11.6976 8.25486C10.7996 8.25486 8.74003 7.07541 7.12352 7.07541C3.78275 7.1293 0.232422 9.73965 0.232422 15.0502C0.232422 16.6188 0.519801 18.2393 1.09456 19.9117C1.8609 22.1089 4.62692 27.4973 7.51268 27.4075C9.02142 27.3715 10.0871 26.3358 12.0509 26.3358C13.9548 26.3358 14.9426 27.4075 16.625 27.4075C19.5347 27.3655 22.0373 22.4681 22.7677 20.2649C18.8641 18.4269 19.0737 14.8765 19.0737 14.7628ZM15.685 4.93205C17.3195 2.99224 17.1698 1.22606 17.1219 0.591431C15.679 0.675249 14.0086 1.57331 13.0567 2.68091C12.009 3.86635 11.3923 5.33318 11.524 6.98561C13.0866 7.10535 14.5116 6.30308 15.685 4.93205Z" fill="black"/>
</svg>
